<svg xmlns="http://www.w3.org/2000/svg" xmlns:xlink="http://www.w3.org/1999/xlink" viewBox="0 0 504 378"><defs><style type="text/css">polyline,rect{fill:none;stroke:#000;stroke-linecap:round;stroke-linejoin:round;stroke-miterlimit:10}</style></defs><rect width="100%" height="100%" style="stroke:none;fill:none"/><rect width="504" height="378" x="0" y="0" style="stroke-width:1.07;stroke:#fff;fill:#fff"/><defs><clipPath id="cpMzYuMTZ8NDk4LjUyfDM0Ni4yOHwyMy4yNw=="><rect width="462.36" height="323.01" x="36.16" y="23.27"/></clipPath></defs><rect width="462.36" height="323.01" x="36.16" y="23.27" clip-path="url(#cpMzYuMTZ8NDk4LjUyfDM0Ni4yOHwyMy4yNw==)" style="stroke-width:1.07;stroke:none;fill:#ebebeb"/><polyline points="36.16 310.23 498.52 310.23" clip-path="url(#cpMzYuMTZ8NDk4LjUyfDM0Ni4yOHwyMy4yNw==)" style="stroke-width:.53;stroke:#fff;stroke-linecap:butt"/><polyline points="36.16 229.65 498.52 229.65" clip-path="url(#cpMzYuMTZ8NDk4LjUyfDM0Ni4yOHwyMy4yNw==)" style="stroke-width:.53;stroke:#fff;stroke-linecap:butt"/><polyline points="36.16 149.07 498.52 149.07" clip-path="url(#cpMzYuMTZ8NDk4LjUyfDM0Ni4yOHwyMy4yNw==)" style="stroke-width:.53;stroke:#fff;stroke-linecap:butt"/><polyline points="36.16 68.48 498.52 68.48" clip-path="url(#cpMzYuMTZ8NDk4LjUyfDM0Ni4yOHwyMy4yNw==)" style="stroke-width:.53;stroke:#fff;stroke-linecap:butt"/><polyline points="115.05 346.28 115.05 23.27" clip-path="url(#cpMzYuMTZ8NDk4LjUyfDM0Ni4yOHwyMy4yNw==)" style="stroke-width:.53;stroke:#fff;stroke-linecap:butt"/><polyline points="267.34 346.28 267.34 23.27" clip-path="url(#cpMzYuMTZ8NDk4LjUyfDM0Ni4yOHwyMy4yNw==)" style="stroke-width:.53;stroke:#fff;stroke-linecap:butt"/><polyline points="419.63 346.28 419.63 23.27" clip-path="url(#cpMzYuMTZ8NDk4LjUyfDM0Ni4yOHwyMy4yNw==)" style="stroke-width:.53;stroke:#fff;stroke-linecap:butt"/><polyline points="36.16 269.94 498.52 269.94" clip-path="url(#cpMzYuMTZ8NDk4LjUyfDM0Ni4yOHwyMy4yNw==)" style="stroke-width:1.07;stroke:#fff;stroke-linecap:butt"/><polyline points="36.16 189.36 498.52 189.36" clip-path="url(#cpMzYuMTZ8NDk4LjUyfDM0Ni4yOHwyMy4yNw==)" style="stroke-width:1.07;stroke:#fff;stroke-linecap:butt"/><polyline points="36.16 108.77 498.52 108.77" clip-path="url(#cpMzYuMTZ8NDk4LjUyfDM0Ni4yOHwyMy4yNw==)" style="stroke-width:1.07;stroke:#fff;stroke-linecap:butt"/><polyline points="36.16 28.19 498.52 28.19" clip-path="url(#cpMzYuMTZ8NDk4LjUyfDM0Ni4yOHwyMy4yNw==)" style="stroke-width:1.07;stroke:#fff;stroke-linecap:butt"/><polyline points="38.9 346.28 38.9 23.27" clip-path="url(#cpMzYuMTZ8NDk4LjUyfDM0Ni4yOHwyMy4yNw==)" style="stroke-width:1.07;stroke:#fff;stroke-linecap:butt"/><polyline points="191.2 346.28 191.2 23.27" clip-path="url(#cpMzYuMTZ8NDk4LjUyfDM0Ni4yOHwyMy4yNw==)" style="stroke-width:1.07;stroke:#fff;stroke-linecap:butt"/><polyline points="343.49 346.28 343.49 23.27" clip-path="url(#cpMzYuMTZ8NDk4LjUyfDM0Ni4yOHwyMy4yNw==)" style="stroke-width:1.07;stroke:#fff;stroke-linecap:butt"/><polyline points="495.78 346.28 495.78 23.27" clip-path="url(#cpMzYuMTZ8NDk4LjUyfDM0Ni4yOHwyMy4yNw==)" style="stroke-width:1.07;stroke:#fff;stroke-linecap:butt"/><polyline points="57.18 40.74 62.5 53.26 67.82 65.63 73.14 77.84 78.46 89.89 83.78 101.8 89.1 113.56 94.42 125.18 99.74 136.67 105.06 148.03 110.39 159.27 115.71 170.38 121.03 181.38 126.35 192.43 131.67 203.82 136.99 215.3 142.31 226.58 147.63 237.35 152.95 247.33 158.27 256.28 163.59 268.61 168.91 282.69 174.23 292.42 179.55 300.68 184.87 309.37 190.19 317.65 195.51 324.67 200.83 329.6 206.16 331.59 211.48 329.81 216.8 323.42 222.12 309.58 227.44 288.05 232.76 262.73 238.08 237.57 243.4 216.5 248.72 201.74 254.04 186.08 259.36 168.69 264.68 150.23 270 131.33 275.32 112.66 280.64 94.87 285.96 78.6 291.28 64.5 296.61 53.23 301.93 45.44 307.25 41.23 312.57 38.86 317.89 37.95 323.21 38.25 328.53 39.53 333.85 41.55 339.17 44.08 344.49 46.88 349.81 49.73 355.13 52.38 360.45 54.6 365.77 56.17 371.09 57.75 376.41 59.71 381.73 62.05 387.05 64.77 392.38 67.85 397.7 71.3 403.02 75.11 408.34 79.27 413.66 83.78 418.98 88.62 424.3 93.8 429.62 99.3 434.94 105.13 440.26 111.27 445.58 117.72 450.9 124.47 456.22 131.52 461.54 138.85 466.86 146.47 472.18 154.37 477.5 162.55" clip-path="url(#cpMzYuMTZ8NDk4LjUyfDM0Ni4yOHwyMy4yNw==)" style="stroke-width:2.13;stroke:#36f;stroke-linecap:butt"/><defs><clipPath id="cpMC4wMHw1MDQuMDB8Mzc4LjAwfDAuMDA="><rect width="504" height="378" x="0" y="0"/></clipPath></defs><g clip-path="url(#cpMC4wMHw1MDQuMDB8Mzc4LjAwfDAuMDA=)"><text x="18.51" y="273.09" lengthAdjust="spacingAndGlyphs" textLength="12.72" style="font-size:8.8px;fill:#4d4d4d;font-family:Arial">-60</text></g><g clip-path="url(#cpMC4wMHw1MDQuMDB8Mzc4LjAwfDAuMDA=)"><text x="18.51" y="192.51" lengthAdjust="spacingAndGlyphs" textLength="12.72" style="font-size:8.8px;fill:#4d4d4d;font-family:Arial">-30</text></g><g clip-path="url(#cpMC4wMHw1MDQuMDB8Mzc4LjAwfDAuMDA=)"><text x="26.34" y="111.92" lengthAdjust="spacingAndGlyphs" textLength="4.89" style="font-size:8.8px;fill:#4d4d4d;font-family:Arial">0</text></g><g clip-path="url(#cpMC4wMHw1MDQuMDB8Mzc4LjAwfDAuMDA=)"><text x="21.44" y="31.34" lengthAdjust="spacingAndGlyphs" textLength="9.79" style="font-size:8.8px;fill:#4d4d4d;font-family:Arial">30</text></g><polyline points="33.42 269.94 36.16 269.94" clip-path="url(#cpMC4wMHw1MDQuMDB8Mzc4LjAwfDAuMDA=)" style="stroke-width:1.07;stroke:#333;stroke-linecap:butt"/><polyline points="33.42 189.36 36.16 189.36" clip-path="url(#cpMC4wMHw1MDQuMDB8Mzc4LjAwfDAuMDA=)" style="stroke-width:1.07;stroke:#333;stroke-linecap:butt"/><polyline points="33.42 108.77 36.16 108.77" clip-path="url(#cpMC4wMHw1MDQuMDB8Mzc4LjAwfDAuMDA=)" style="stroke-width:1.07;stroke:#333;stroke-linecap:butt"/><polyline points="33.42 28.19 36.16 28.19" clip-path="url(#cpMC4wMHw1MDQuMDB8Mzc4LjAwfDAuMDA=)" style="stroke-width:1.07;stroke:#333;stroke-linecap:butt"/><polyline points="38.9 349.02 38.9 346.28" clip-path="url(#cpMC4wMHw1MDQuMDB8Mzc4LjAwfDAuMDA=)" style="stroke-width:1.07;stroke:#333;stroke-linecap:butt"/><polyline points="191.2 349.02 191.2 346.28" clip-path="url(#cpMC4wMHw1MDQuMDB8Mzc4LjAwfDAuMDA=)" style="stroke-width:1.07;stroke:#333;stroke-linecap:butt"/><polyline points="343.49 349.02 343.49 346.28" clip-path="url(#cpMC4wMHw1MDQuMDB8Mzc4LjAwfDAuMDA=)" style="stroke-width:1.07;stroke:#333;stroke-linecap:butt"/><polyline points="495.78 349.02 495.78 346.28" clip-path="url(#cpMC4wMHw1MDQuMDB8Mzc4LjAwfDAuMDA=)" style="stroke-width:1.07;stroke:#333;stroke-linecap:butt"/><g clip-path="url(#cpMC4wMHw1MDQuMDB8Mzc4LjAwfDAuMDA=)"><text x="36.46" y="357.51" lengthAdjust="spacingAndGlyphs" textLength="4.89" style="font-size:8.8px;fill:#4d4d4d;font-family:Arial">0</text></g><g clip-path="url(#cpMC4wMHw1MDQuMDB8Mzc4LjAwfDAuMDA=)"><text x="186.3" y="357.51" lengthAdjust="spacingAndGlyphs" textLength="9.79" style="font-size:8.8px;fill:#4d4d4d;font-family:Arial">20</text></g><g clip-path="url(#cpMC4wMHw1MDQuMDB8Mzc4LjAwfDAuMDA=)"><text x="338.59" y="357.51" lengthAdjust="spacingAndGlyphs" textLength="9.79" style="font-size:8.8px;fill:#4d4d4d;font-family:Arial">40</text></g><g clip-path="url(#cpMC4wMHw1MDQuMDB8Mzc4LjAwfDAuMDA=)"><text x="490.89" y="357.51" lengthAdjust="spacingAndGlyphs" textLength="9.79" style="font-size:8.8px;fill:#4d4d4d;font-family:Arial">60</text></g><g clip-path="url(#cpMC4wMHw1MDQuMDB8Mzc4LjAwfDAuMDA=)"><text x="207.13" y="370.1" lengthAdjust="spacingAndGlyphs" textLength="120.43" style="font-size:11px;font-family:Arial">milliseconds after impact</text></g><g clip-path="url(#cpMC4wMHw1MDQuMDB8Mzc4LjAwfDAuMDA=)"><text style="font-size:11px;font-family:Arial" lengthAdjust="spacingAndGlyphs" textLength="86.84" transform="translate(13.35,228.19) rotate(-90)">head acceleration</text></g><g clip-path="url(#cpMC4wMHw1MDQuMDB8Mzc4LjAwfDAuMDA=)"><text x="36.16" y="14.93" lengthAdjust="spacingAndGlyphs" textLength="118.11" style="font-size:13.2px;font-family:Arial">Motorcycle Accident</text></g></svg>