<svg xmlns="http://www.w3.org/2000/svg" xmlns:xlink="http://www.w3.org/1999/xlink" viewBox="0 0 504 378"><defs><style type="text/css">line,polygon,polyline,rect{fill:none;stroke:#000;stroke-linecap:round;stroke-linejoin:round;stroke-miterlimit:10}</style></defs><rect width="100%" height="100%" style="stroke:none;fill:none"/><defs><clipPath id="cpMzguNjF8MzE2Ljk2fDM0Ni4yOHwyMy4yNw=="><rect width="278.35" height="323.01" x="38.61" y="23.27"/></clipPath></defs><polyline points="38.61 341.65 316.96 341.65" clip-path="url(#cpMzguNjF8MzE2Ljk2fDM0Ni4yOHwyMy4yNw==)" style="stroke-width:.53;stroke:#ebebeb;stroke-linecap:butt"/><polyline points="38.61 247.83 316.96 247.83" clip-path="url(#cpMzguNjF8MzE2Ljk2fDM0Ni4yOHwyMy4yNw==)" style="stroke-width:.53;stroke:#ebebeb;stroke-linecap:butt"/><polyline points="38.61 154.02 316.96 154.02" clip-path="url(#cpMzguNjF8MzE2Ljk2fDM0Ni4yOHwyMy4yNw==)" style="stroke-width:.53;stroke:#ebebeb;stroke-linecap:butt"/><polyline points="38.61 60.21 316.96 60.21" clip-path="url(#cpMzguNjF8MzE2Ljk2fDM0Ni4yOHwyMy4yNw==)" style="stroke-width:.53;stroke:#ebebeb;stroke-linecap:butt"/><polyline points="76.57 346.28 76.57 23.27" clip-path="url(#cpMzguNjF8MzE2Ljk2fDM0Ni4yOHwyMy4yNw==)" style="stroke-width:.53;stroke:#ebebeb;stroke-linecap:butt"/><polyline points="127.17 346.28 127.17 23.27" clip-path="url(#cpMzguNjF8MzE2Ljk2fDM0Ni4yOHwyMy4yNw==)" style="stroke-width:.53;stroke:#ebebeb;stroke-linecap:butt"/><polyline points="177.78 346.28 177.78 23.27" clip-path="url(#cpMzguNjF8MzE2Ljk2fDM0Ni4yOHwyMy4yNw==)" style="stroke-width:.53;stroke:#ebebeb;stroke-linecap:butt"/><polyline points="228.39 346.28 228.39 23.27" clip-path="url(#cpMzguNjF8MzE2Ljk2fDM0Ni4yOHwyMy4yNw==)" style="stroke-width:.53;stroke:#ebebeb;stroke-linecap:butt"/><polyline points="279 346.28 279 23.27" clip-path="url(#cpMzguNjF8MzE2Ljk2fDM0Ni4yOHwyMy4yNw==)" style="stroke-width:.53;stroke:#ebebeb;stroke-linecap:butt"/><polyline points="38.61 294.74 316.96 294.74" clip-path="url(#cpMzguNjF8MzE2Ljk2fDM0Ni4yOHwyMy4yNw==)" style="stroke-width:1.07;stroke:#ebebeb;stroke-linecap:butt"/><polyline points="38.61 200.93 316.96 200.93" clip-path="url(#cpMzguNjF8MzE2Ljk2fDM0Ni4yOHwyMy4yNw==)" style="stroke-width:1.07;stroke:#ebebeb;stroke-linecap:butt"/><polyline points="38.61 107.11 316.96 107.11" clip-path="url(#cpMzguNjF8MzE2Ljk2fDM0Ni4yOHwyMy4yNw==)" style="stroke-width:1.07;stroke:#ebebeb;stroke-linecap:butt"/><polyline points="51.26 346.28 51.26 23.27" clip-path="url(#cpMzguNjF8MzE2Ljk2fDM0Ni4yOHwyMy4yNw==)" style="stroke-width:1.07;stroke:#ebebeb;stroke-linecap:butt"/><polyline points="101.87 346.28 101.87 23.27" clip-path="url(#cpMzguNjF8MzE2Ljk2fDM0Ni4yOHwyMy4yNw==)" style="stroke-width:1.07;stroke:#ebebeb;stroke-linecap:butt"/><polyline points="152.48 346.28 152.48 23.27" clip-path="url(#cpMzguNjF8MzE2Ljk2fDM0Ni4yOHwyMy4yNw==)" style="stroke-width:1.07;stroke:#ebebeb;stroke-linecap:butt"/><polyline points="203.09 346.28 203.09 23.27" clip-path="url(#cpMzguNjF8MzE2Ljk2fDM0Ni4yOHwyMy4yNw==)" style="stroke-width:1.07;stroke:#ebebeb;stroke-linecap:butt"/><polyline points="253.7 346.28 253.7 23.27" clip-path="url(#cpMzguNjF8MzE2Ljk2fDM0Ni4yOHwyMy4yNw==)" style="stroke-width:1.07;stroke:#ebebeb;stroke-linecap:butt"/><polyline points="304.31 346.28 304.31 23.27" clip-path="url(#cpMzguNjF8MzE2Ljk2fDM0Ni4yOHwyMy4yNw==)" style="stroke-width:1.07;stroke:#ebebeb;stroke-linecap:butt"/><polyline points="51.26 288.14 101.87 292.22 152.48 296.3 203.09 300.38 253.7 304.46 304.31 308.55" clip-path="url(#cpMzguNjF8MzE2Ljk2fDM0Ni4yOHwyMy4yNw==)" style="stroke-width:1.49;stroke:#e41a1c;stroke-linecap:butt"/><polyline points="51.26 284.22 101.87 263.62 152.48 243.01 203.09 222.41 253.7 201.8 304.31 181.2" clip-path="url(#cpMzguNjF8MzE2Ljk2fDM0Ni4yOHwyMy4yNw==)" style="stroke-width:1.49;stroke:#377eb8;stroke-linecap:butt"/><polyline points="51.26 280.31 101.87 235.01 152.48 189.72 203.09 144.43 253.7 99.14 304.31 53.85" clip-path="url(#cpMzguNjF8MzE2Ljk2fDM0Ni4yOHwyMy4yNw==)" style="stroke-width:1.49;stroke:#4daf4a;stroke-linecap:butt"/><polygon points="51.26 265.07 101.87 276.41 152.48 285.87 203.09 289.96 253.7 288.67 304.31 285.5 304.31 331.59 253.7 320.26 203.09 310.8 152.48 306.73 101.87 308.03 51.26 311.2" clip-path="url(#cpMzguNjF8MzE2Ljk2fDM0Ni4yOHwyMy4yNw==)" style="stroke-width:.75;stroke:none;fill:#e41a1c;fill-opacity:.15"/><polyline points="51.26 265.07 101.87 276.41 152.48 285.87 203.09 289.96 253.7 288.67 304.31 285.5" clip-path="url(#cpMzguNjF8MzE2Ljk2fDM0Ni4yOHwyMy4yNw==)" style="stroke-width:1.07;stroke:none"/><polyline points="304.31 331.59 253.7 320.26 203.09 310.8 152.48 306.73 101.87 308.03 51.26 311.2" clip-path="url(#cpMzguNjF8MzE2Ljk2fDM0Ni4yOHwyMy4yNw==)" style="stroke-width:1.07;stroke:none"/><polygon points="51.26 265.39 101.87 250.55 152.48 235.12 203.09 217 253.7 193.35 304.31 167.45 304.31 194.94 253.7 210.25 203.09 227.81 152.48 250.91 101.87 276.69 51.26 303.05" clip-path="url(#cpMzguNjF8MzE2Ljk2fDM0Ni4yOHwyMy4yNw==)" style="stroke-width:.75;stroke:none;fill:#377eb8;fill-opacity:.15"/><polyline points="51.26 265.39 101.87 250.55 152.48 235.12 203.09 217 253.7 193.35 304.31 167.45" clip-path="url(#cpMzguNjF8MzE2Ljk2fDM0Ni4yOHwyMy4yNw==)" style="stroke-width:1.07;stroke:none"/><polyline points="304.31 194.94 253.7 210.25 203.09 227.81 152.48 250.91 101.87 276.69 51.26 303.05" clip-path="url(#cpMzguNjF8MzE2Ljk2fDM0Ni4yOHwyMy4yNw==)" style="stroke-width:1.07;stroke:none"/><polygon points="51.26 253.93 101.87 215.49 152.48 176.31 203.09 134.87 253.7 88.39 304.31 37.95 304.31 69.75 253.7 109.9 203.09 153.99 152.48 203.14 101.87 254.54 51.26 306.68" clip-path="url(#cpMzguNjF8MzE2Ljk2fDM0Ni4yOHwyMy4yNw==)" style="stroke-width:.75;stroke:none;fill:#4daf4a;fill-opacity:.15"/><polyline points="51.26 253.93 101.87 215.49 152.48 176.31 203.09 134.87 253.7 88.39 304.31 37.95" clip-path="url(#cpMzguNjF8MzE2Ljk2fDM0Ni4yOHwyMy4yNw==)" style="stroke-width:1.07;stroke:none"/><polyline points="304.31 69.75 253.7 109.9 203.09 153.99 152.48 203.14 101.87 254.54 51.26 306.68" clip-path="url(#cpMzguNjF8MzE2Ljk2fDM0Ni4yOHwyMy4yNw==)" style="stroke-width:1.07;stroke:none"/><defs><clipPath id="cpMC4wMHw1MDQuMDB8Mzc4LjAwfDAuMDA="><rect width="504" height="378" x="0" y="0"/></clipPath></defs><polyline points="38.61 346.28 38.61 23.27" clip-path="url(#cpMC4wMHw1MDQuMDB8Mzc4LjAwfDAuMDA=)" style="stroke-width:1.07;stroke:#ccc;stroke-linecap:butt"/><g clip-path="url(#cpMC4wMHw1MDQuMDB8Mzc4LjAwfDAuMDA=)"><text x="18.51" y="297.89" lengthAdjust="spacingAndGlyphs" textLength="15.16" style="font-size:8.8px;fill:#7f7f7f;font-family:Arial">-0.4</text></g><g clip-path="url(#cpMC4wMHw1MDQuMDB8Mzc4LjAwfDAuMDA=)"><text x="21.44" y="204.08" lengthAdjust="spacingAndGlyphs" textLength="12.23" style="font-size:8.8px;fill:#7f7f7f;font-family:Arial">0.0</text></g><g clip-path="url(#cpMC4wMHw1MDQuMDB8Mzc4LjAwfDAuMDA=)"><text x="21.44" y="110.26" lengthAdjust="spacingAndGlyphs" textLength="12.23" style="font-size:8.8px;fill:#7f7f7f;font-family:Arial">0.4</text></g><polyline points="38.61 346.28 316.96 346.28" clip-path="url(#cpMC4wMHw1MDQuMDB8Mzc4LjAwfDAuMDA=)" style="stroke-width:1.07;stroke:#ccc;stroke-linecap:butt"/><g clip-path="url(#cpMC4wMHw1MDQuMDB8Mzc4LjAwfDAuMDA=)"><text x="47.35" y="357.51" lengthAdjust="spacingAndGlyphs" textLength="7.82" style="font-size:8.8px;fill:#7f7f7f;font-family:Arial">-3</text></g><g clip-path="url(#cpMC4wMHw1MDQuMDB8Mzc4LjAwfDAuMDA=)"><text x="97.96" y="357.51" lengthAdjust="spacingAndGlyphs" textLength="7.82" style="font-size:8.8px;fill:#7f7f7f;font-family:Arial">-2</text></g><g clip-path="url(#cpMC4wMHw1MDQuMDB8Mzc4LjAwfDAuMDA=)"><text x="148.57" y="357.51" lengthAdjust="spacingAndGlyphs" textLength="7.82" style="font-size:8.8px;fill:#7f7f7f;font-family:Arial">-1</text></g><g clip-path="url(#cpMC4wMHw1MDQuMDB8Mzc4LjAwfDAuMDA=)"><text x="200.64" y="357.51" lengthAdjust="spacingAndGlyphs" textLength="4.89" style="font-size:8.8px;fill:#7f7f7f;font-family:Arial">0</text></g><g clip-path="url(#cpMC4wMHw1MDQuMDB8Mzc4LjAwfDAuMDA=)"><text x="251.25" y="357.51" lengthAdjust="spacingAndGlyphs" textLength="4.89" style="font-size:8.8px;fill:#7f7f7f;font-family:Arial">1</text></g><g clip-path="url(#cpMC4wMHw1MDQuMDB8Mzc4LjAwfDAuMDA=)"><text x="301.86" y="357.51" lengthAdjust="spacingAndGlyphs" textLength="4.89" style="font-size:8.8px;fill:#7f7f7f;font-family:Arial">2</text></g><g clip-path="url(#cpMC4wMHw1MDQuMDB8Mzc4LjAwfDAuMDA=)"><text x="131.93" y="370.1" lengthAdjust="spacingAndGlyphs" textLength="91.71" style="font-size:11px;fill:#4d4d4d;font-family:Arial">democratic_quality</text></g><g clip-path="url(#cpMC4wMHw1MDQuMDB8Mzc4LjAwfDAuMDA=)"><text style="font-size:11px;fill:#4d4d4d;font-family:Arial" lengthAdjust="spacingAndGlyphs" textLength="83.17" transform="translate(13.35,226.35) rotate(-90)">happiness_score</text></g><g clip-path="url(#cpMC4wMHw1MDQuMDB8Mzc4LjAwfDAuMDA=)"><text x="333.4" y="160.05" lengthAdjust="spacingAndGlyphs" textLength="160.22" style="font-size:11px;fill:#4d4d4d;font-family:Arial">healthy_life_expectancy_at_birth</text></g><line x1="335.13" x2="348.95" y1="175.39" y2="175.39" clip-path="url(#cpMC4wMHw1MDQuMDB8Mzc4LjAwfDAuMDA=)" style="stroke-width:1.49;stroke:#e41a1c;stroke-linecap:butt"/><rect width="15.86" height="15.86" x="334.11" y="167.46" clip-path="url(#cpMC4wMHw1MDQuMDB8Mzc4LjAwfDAuMDA=)" style="stroke-width:1.07;stroke:#e41a1c;stroke-linecap:square;stroke-linejoin:miter;fill:#333;fill-opacity:.15"/><line x1="335.13" x2="348.95" y1="192.67" y2="192.67" clip-path="url(#cpMC4wMHw1MDQuMDB8Mzc4LjAwfDAuMDA=)" style="stroke-width:1.49;stroke:#377eb8;stroke-linecap:butt"/><rect width="15.86" height="15.86" x="334.11" y="184.74" clip-path="url(#cpMC4wMHw1MDQuMDB8Mzc4LjAwfDAuMDA=)" style="stroke-width:1.07;stroke:#377eb8;stroke-linecap:square;stroke-linejoin:miter;fill:#333;fill-opacity:.15"/><line x1="335.13" x2="348.95" y1="209.95" y2="209.95" clip-path="url(#cpMC4wMHw1MDQuMDB8Mzc4LjAwfDAuMDA=)" style="stroke-width:1.49;stroke:#4daf4a;stroke-linecap:butt"/><rect width="15.86" height="15.86" x="334.11" y="202.02" clip-path="url(#cpMC4wMHw1MDQuMDB8Mzc4LjAwfDAuMDA=)" style="stroke-width:1.07;stroke:#4daf4a;stroke-linecap:square;stroke-linejoin:miter;fill:#333;fill-opacity:.15"/><g clip-path="url(#cpMC4wMHw1MDQuMDB8Mzc4LjAwfDAuMDA=)"><text x="356.16" y="178.54" lengthAdjust="spacingAndGlyphs" textLength="7.82" style="font-size:8.8px;fill:#4d4d4d;font-family:Arial">-1</text></g><g clip-path="url(#cpMC4wMHw1MDQuMDB8Mzc4LjAwfDAuMDA=)"><text x="356.16" y="195.82" lengthAdjust="spacingAndGlyphs" textLength="4.89" style="font-size:8.8px;fill:#4d4d4d;font-family:Arial">0</text></g><g clip-path="url(#cpMC4wMHw1MDQuMDB8Mzc4LjAwfDAuMDA=)"><text x="356.16" y="213.1" lengthAdjust="spacingAndGlyphs" textLength="4.89" style="font-size:8.8px;fill:#4d4d4d;font-family:Arial">1</text></g><g clip-path="url(#cpMC4wMHw1MDQuMDB8Mzc4LjAwfDAuMDA=)"><text x="38.61" y="14.93" lengthAdjust="spacingAndGlyphs" textLength="215.73" style="font-size:13.2px;font-family:Arial">Predicted values of happiness_score</text></g></svg>