<?xml version="1.0" encoding="UTF-8"?>
<svg xmlns="http://www.w3.org/2000/svg" xmlns:xlink="http://www.w3.org/1999/xlink" width="504pt" height="360pt" viewBox="0 0 504 360" version="1.1">
<defs>
<clipPath id="clip1">
  <path d="M 21.574219 5.480469 L 499.523438 5.480469 L 499.523438 339.429688 L 21.574219 339.429688 Z M 21.574219 5.480469 "/>
</clipPath>
</defs>
<g id="surface149">
<g clip-path="url(#clip1)" clip-rule="nonzero">
<path style="fill-rule:nonzero;fill:rgb(55.294118%,82.745098%,78.039216%);fill-opacity:1;stroke-width:1.066978;stroke-linecap:round;stroke-linejoin:round;stroke:rgb(55.294118%,82.745098%,78.039216%);stroke-opacity:1;stroke-miterlimit:10;" d="M 43.253906 20.613281 L 476.839844 20.613281 L 476.839844 20.6875 L 404.578125 23.5 L 332.3125 48.417969 L 260.046875 105.644531 L 260.003906 105.859375 L 187.78125 149.390625 L 187.738281 150.203125 L 115.515625 165.746094 L 115.472656 166.597656 L 43.253906 170.453125 Z M 43.253906 20.613281 "/>
<path style="fill-rule:nonzero;fill:rgb(100%,100%,70.196078%);fill-opacity:1;stroke-width:1.066978;stroke-linecap:round;stroke-linejoin:round;stroke:rgb(100%,100%,70.196078%);stroke-opacity:1;stroke-miterlimit:10;" d="M 43.253906 170.453125 L 115.472656 166.597656 L 115.515625 165.746094 L 187.738281 150.203125 L 187.78125 149.390625 L 260.003906 105.859375 L 260.046875 105.644531 L 332.3125 48.417969 L 404.578125 23.5 L 476.839844 20.6875 L 476.839844 22.511719 L 404.578125 42.714844 L 332.3125 98.824219 L 260.046875 147.65625 L 260.003906 147.972656 L 187.78125 166.730469 L 187.738281 167.652344 L 115.515625 171.074219 L 115.472656 171.953125 L 43.253906 171.953125 Z M 43.253906 170.453125 "/>
<path style="fill-rule:nonzero;fill:rgb(98.431373%,50.196078%,44.705882%);fill-opacity:1;stroke-width:1.066978;stroke-linecap:round;stroke-linejoin:round;stroke:rgb(98.431373%,50.196078%,44.705882%);stroke-opacity:1;stroke-miterlimit:10;" d="M 43.253906 171.953125 L 115.472656 171.953125 L 115.515625 171.074219 L 187.738281 167.652344 L 187.78125 166.730469 L 260.003906 147.972656 L 260.046875 147.65625 L 332.3125 98.824219 L 404.578125 42.714844 L 476.839844 22.511719 L 476.839844 28.566406 L 404.578125 61.925781 L 332.3125 114.003906 L 260.046875 151.464844 L 260.003906 151.792969 L 187.78125 167.203125 L 187.738281 167.652344 L 115.515625 171.074219 L 115.472656 171.953125 Z M 43.253906 171.953125 "/>
<path style="fill-rule:nonzero;fill:rgb(98.431373%,50.196078%,44.705882%);fill-opacity:1;stroke-width:1.066978;stroke-linecap:round;stroke-linejoin:round;stroke:rgb(98.431373%,50.196078%,44.705882%);stroke-opacity:1;stroke-miterlimit:10;" d="M 43.253906 171.953125 L 115.472656 171.953125 L 115.515625 171.074219 L 187.738281 167.652344 L 187.78125 167.203125 L 260.003906 151.792969 L 260.046875 151.464844 L 332.3125 114.003906 L 404.578125 61.925781 L 476.839844 28.566406 L 476.839844 34.621094 L 404.578125 81.136719 L 332.3125 129.183594 L 260.046875 155.277344 L 260.003906 155.613281 L 187.78125 167.679688 L 187.738281 167.652344 L 115.515625 171.074219 L 115.472656 171.953125 Z M 43.253906 171.953125 "/>
<path style="fill-rule:nonzero;fill:rgb(50.196078%,69.411765%,82.745098%);fill-opacity:1;stroke-width:1.066978;stroke-linecap:round;stroke-linejoin:round;stroke:rgb(50.196078%,69.411765%,82.745098%);stroke-opacity:1;stroke-miterlimit:10;" d="M 43.253906 171.953125 L 115.472656 171.953125 L 115.515625 171.074219 L 187.738281 167.652344 L 187.78125 167.679688 L 260.003906 155.613281 L 260.046875 155.277344 L 332.3125 129.183594 L 404.578125 81.136719 L 476.839844 34.621094 L 476.839844 40.679688 L 404.578125 88.207031 L 332.3125 131.238281 L 260.046875 155.464844 L 260.003906 155.613281 L 187.78125 167.679688 L 187.738281 167.652344 L 115.515625 171.074219 L 115.472656 171.953125 Z M 43.253906 171.953125 "/>
<path style="fill-rule:nonzero;fill:rgb(50.196078%,69.411765%,82.745098%);fill-opacity:1;stroke-width:1.066978;stroke-linecap:round;stroke-linejoin:round;stroke:rgb(50.196078%,69.411765%,82.745098%);stroke-opacity:1;stroke-miterlimit:10;" d="M 43.253906 171.953125 L 115.472656 171.953125 L 115.515625 171.074219 L 187.738281 167.652344 L 187.78125 167.679688 L 260.003906 155.613281 L 260.046875 155.464844 L 332.3125 131.238281 L 404.578125 88.207031 L 476.839844 40.679688 L 476.839844 46.734375 L 404.578125 95.273438 L 332.3125 133.292969 L 260.046875 155.65625 L 260.003906 155.613281 L 187.78125 167.679688 L 187.738281 167.652344 L 115.515625 171.074219 L 115.472656 171.953125 Z M 43.253906 171.953125 "/>
<path style="fill-rule:nonzero;fill:rgb(100%,100%,70.196078%);fill-opacity:1;stroke-width:1.066978;stroke-linecap:round;stroke-linejoin:round;stroke:rgb(100%,100%,70.196078%);stroke-opacity:1;stroke-miterlimit:10;" d="M 43.253906 171.953125 L 115.472656 171.953125 L 115.515625 171.074219 L 187.738281 167.652344 L 187.78125 167.679688 L 260.003906 155.613281 L 260.046875 155.65625 L 332.3125 133.292969 L 404.578125 95.273438 L 476.839844 46.734375 L 476.839844 48.558594 L 404.578125 114.484375 L 332.3125 183.699219 L 260.046875 197.664063 L 260.003906 197.730469 L 187.78125 185.015625 L 187.738281 185.097656 L 115.515625 176.398438 L 115.472656 177.308594 L 43.253906 173.453125 Z M 43.253906 171.953125 "/>
<path style="fill-rule:nonzero;fill:rgb(74.509804%,72.941176%,85.490196%);fill-opacity:1;stroke-width:1.066978;stroke-linecap:round;stroke-linejoin:round;stroke:rgb(74.509804%,72.941176%,85.490196%);stroke-opacity:1;stroke-miterlimit:10;" d="M 43.253906 173.453125 L 115.472656 177.308594 L 115.515625 176.398438 L 187.738281 185.097656 L 187.78125 185.015625 L 260.003906 197.730469 L 260.046875 197.664063 L 332.3125 183.699219 L 404.578125 114.484375 L 476.839844 48.558594 L 476.839844 50.785156 L 404.578125 130.214844 L 332.3125 211.359375 L 260.046875 213.117188 L 260.003906 213.222656 L 187.78125 189.292969 L 187.738281 189.402344 L 115.515625 177.277344 L 115.472656 177.308594 Z M 43.253906 173.453125 "/>
<path style="fill-rule:nonzero;fill:rgb(99.215686%,70.588235%,38.431373%);fill-opacity:1;stroke-width:1.066978;stroke-linecap:round;stroke-linejoin:round;stroke:rgb(99.215686%,70.588235%,38.431373%);stroke-opacity:1;stroke-miterlimit:10;" d="M 43.253906 173.453125 L 115.472656 177.308594 L 115.515625 177.277344 L 187.738281 189.402344 L 187.78125 189.292969 L 260.003906 213.222656 L 260.046875 213.117188 L 332.3125 211.359375 L 404.578125 130.214844 L 476.839844 50.785156 L 476.839844 64.261719 L 404.578125 165.222656 L 332.3125 234.007813 L 260.046875 217.773438 L 260.003906 217.886719 L 187.78125 189.765625 L 187.738281 189.402344 L 115.515625 177.277344 L 115.472656 177.308594 Z M 43.253906 173.453125 "/>
<path style="fill-rule:nonzero;fill:rgb(70.196078%,87.058824%,41.176471%);fill-opacity:1;stroke-width:1.066978;stroke-linecap:round;stroke-linejoin:round;stroke:rgb(70.196078%,87.058824%,41.176471%);stroke-opacity:1;stroke-miterlimit:10;" d="M 43.253906 173.453125 L 115.472656 177.308594 L 115.515625 177.277344 L 187.738281 189.402344 L 187.78125 189.765625 L 260.003906 217.886719 L 260.046875 217.773438 L 332.3125 234.007813 L 404.578125 165.222656 L 476.839844 64.261719 L 476.839844 185.886719 L 404.578125 217.445313 L 332.3125 239.59375 L 260.046875 217.960938 L 260.003906 217.886719 L 187.78125 189.765625 L 187.738281 189.402344 L 115.515625 177.277344 L 115.472656 177.308594 Z M 43.253906 173.453125 "/>
<path style="fill-rule:nonzero;fill:rgb(70.196078%,87.058824%,41.176471%);fill-opacity:1;stroke-width:1.066978;stroke-linecap:round;stroke-linejoin:round;stroke:rgb(70.196078%,87.058824%,41.176471%);stroke-opacity:1;stroke-miterlimit:10;" d="M 43.253906 173.453125 L 115.472656 177.308594 L 115.515625 177.277344 L 187.738281 189.402344 L 187.78125 189.765625 L 260.003906 217.886719 L 260.046875 217.960938 L 332.3125 239.59375 L 404.578125 217.445313 L 476.839844 185.886719 L 476.839844 307.515625 L 404.578125 269.667969 L 332.3125 245.179688 L 260.046875 218.152344 L 260.003906 217.886719 L 187.78125 189.765625 L 187.738281 189.402344 L 115.515625 177.277344 L 115.472656 177.308594 Z M 43.253906 173.453125 "/>
<path style="fill-rule:nonzero;fill:rgb(99.215686%,70.588235%,38.431373%);fill-opacity:1;stroke-width:1.066978;stroke-linecap:round;stroke-linejoin:round;stroke:rgb(99.215686%,70.588235%,38.431373%);stroke-opacity:1;stroke-miterlimit:10;" d="M 43.253906 173.453125 L 115.472656 177.308594 L 115.515625 177.277344 L 187.738281 189.402344 L 187.78125 189.765625 L 260.003906 217.886719 L 260.046875 218.152344 L 332.3125 245.179688 L 404.578125 269.667969 L 476.839844 307.515625 L 476.839844 320.992188 L 404.578125 304.675781 L 332.3125 267.824219 L 260.046875 222.808594 L 260.003906 222.554688 L 187.78125 190.238281 L 187.738281 189.402344 L 115.515625 177.277344 L 115.472656 177.308594 Z M 43.253906 173.453125 "/>
<path style="fill-rule:nonzero;fill:rgb(74.509804%,72.941176%,85.490196%);fill-opacity:1;stroke-width:1.066978;stroke-linecap:round;stroke-linejoin:round;stroke:rgb(74.509804%,72.941176%,85.490196%);stroke-opacity:1;stroke-miterlimit:10;" d="M 43.253906 173.453125 L 115.472656 177.308594 L 115.515625 177.277344 L 187.738281 189.402344 L 187.78125 190.238281 L 260.003906 222.554688 L 260.046875 222.808594 L 332.3125 267.824219 L 404.578125 304.675781 L 476.839844 320.992188 L 476.839844 323.21875 L 404.578125 320.40625 L 332.3125 295.488281 L 260.046875 238.261719 L 260.003906 238.046875 L 187.78125 194.515625 L 187.738281 193.703125 L 115.515625 178.160156 L 115.472656 177.308594 Z M 43.253906 173.453125 "/>
<path style="fill-rule:nonzero;fill:rgb(55.294118%,82.745098%,78.039216%);fill-opacity:1;stroke-width:1.066978;stroke-linecap:round;stroke-linejoin:round;stroke:rgb(55.294118%,82.745098%,78.039216%);stroke-opacity:1;stroke-miterlimit:10;" d="M 43.253906 173.453125 L 115.472656 177.308594 L 115.515625 178.160156 L 187.738281 193.703125 L 187.78125 194.515625 L 260.003906 238.046875 L 260.046875 238.261719 L 332.3125 295.488281 L 404.578125 320.40625 L 476.839844 323.21875 L 476.839844 323.292969 L 43.253906 323.292969 Z M 43.253906 173.453125 "/>
</g>
</g>
</svg>
