<?xml version="1.0" encoding="UTF-8"?>
<svg xmlns="http://www.w3.org/2000/svg" xmlns:xlink="http://www.w3.org/1999/xlink" width="504pt" height="360pt" viewBox="0 0 504 360" version="1.1">
<defs>
<clipPath id="clip1">
  <path d="M 8.21875 5.480469 L 499.519531 5.480469 L 499.519531 352.78125 L 8.21875 352.78125 Z M 8.21875 5.480469 "/>
</clipPath>
</defs>
<g id="surface51">
<g clip-path="url(#clip1)" clip-rule="nonzero">
<path style="fill-rule:nonzero;fill:rgb(97.254902%,46.27451%,42.745098%);fill-opacity:1;stroke-width:1.066978;stroke-linecap:round;stroke-linejoin:round;stroke:rgb(97.254902%,46.27451%,42.745098%);stroke-opacity:1;stroke-miterlimit:10;" d="M 30.503906 336.039063 L 84.585938 336.039063 L 85.457031 336.035156 L 87.203125 336.035156 L 88.074219 336.03125 L 88.949219 336.03125 L 89.820313 336.027344 L 90.691406 336.027344 L 91.5625 336.023438 L 92.4375 336.019531 L 94.179688 336.003906 L 95.054688 335.996094 L 96.796875 335.972656 L 97.671875 335.957031 L 98.542969 335.941406 L 99.414063 335.917969 L 100.285156 335.890625 L 101.160156 335.859375 L 102.03125 335.824219 L 102.902344 335.78125 L 103.777344 335.730469 L 104.648438 335.667969 L 105.519531 335.597656 L 106.394531 335.519531 L 107.265625 335.425781 L 108.136719 335.316406 L 109.007813 335.191406 L 109.882813 335.050781 L 110.753906 334.890625 L 111.625 334.707031 L 112.5 334.496094 L 113.371094 334.265625 L 114.242188 334.007813 L 115.117188 333.71875 L 115.988281 333.394531 L 116.859375 333.035156 L 117.730469 332.644531 L 118.605469 332.214844 L 119.476563 331.746094 L 120.347656 331.222656 L 121.222656 330.660156 L 122.09375 330.054688 L 122.964844 329.40625 L 123.839844 328.703125 L 124.710938 327.945313 L 125.582031 327.136719 L 126.453125 326.28125 L 127.328125 325.375 L 128.199219 324.414063 L 129.070313 323.386719 L 129.945313 322.3125 L 130.816406 321.1875 L 131.6875 320.007813 L 132.5625 318.773438 L 133.433594 317.476563 L 134.304688 316.128906 L 135.175781 314.726563 L 136.050781 313.277344 L 136.921875 311.765625 L 137.792969 310.191406 L 138.667969 308.566406 L 139.539063 306.890625 L 140.410156 305.160156 L 141.285156 303.367188 L 142.15625 301.511719 L 143.027344 299.601563 L 143.898438 297.640625 L 144.773438 295.625 L 145.644531 293.546875 L 146.515625 291.40625 L 147.390625 289.214844 L 148.261719 286.976563 L 149.132813 284.683594 L 150.007813 282.339844 L 150.878906 279.949219 L 151.75 277.515625 L 152.621094 275.046875 L 153.496094 272.546875 L 154.367188 270.011719 L 155.238281 267.453125 L 156.113281 264.875 L 156.984375 262.289063 L 157.855469 259.695313 L 158.730469 257.101563 L 159.601563 254.515625 L 160.472656 251.941406 L 161.34375 249.382813 L 162.21875 246.84375 L 163.089844 244.335938 L 163.960938 241.863281 L 164.835938 239.429688 L 165.707031 237.027344 L 166.578125 234.667969 L 167.453125 232.363281 L 168.324219 230.109375 L 169.195313 227.898438 L 170.066406 225.742188 L 170.941406 223.628906 L 171.8125 221.585938 L 172.683594 219.597656 L 173.558594 217.664063 L 174.429688 215.785156 L 175.300781 213.960938 L 176.175781 212.21875 L 177.046875 210.539063 L 177.917969 208.929688 L 178.792969 207.386719 L 179.664063 205.917969 L 180.535156 204.550781 L 181.40625 203.269531 L 182.28125 202.078125 L 183.152344 200.980469 L 184.023438 199.980469 L 184.898438 199.109375 L 185.769531 198.351563 L 186.640625 197.707031 L 187.515625 197.171875 L 188.386719 196.753906 L 189.257813 196.484375 L 190.128906 196.335938 L 191.003906 196.296875 L 191.875 196.367188 L 192.746094 196.546875 L 193.621094 196.851563 L 194.492188 197.246094 L 195.363281 197.714844 L 196.238281 198.253906 L 197.109375 198.851563 L 197.980469 199.503906 L 198.851563 200.179688 L 199.726563 200.867188 L 200.597656 201.550781 L 201.46875 202.21875 L 202.34375 202.839844 L 203.214844 203.410156 L 204.085938 203.917969 L 204.960938 204.347656 L 205.832031 204.695313 L 206.703125 204.914063 L 207.574219 205.03125 L 208.449219 205.042969 L 209.320313 204.941406 L 210.191406 204.730469 L 211.066406 204.378906 L 211.9375 203.925781 L 212.808594 203.386719 L 213.683594 202.761719 L 214.554688 202.0625 L 215.425781 201.292969 L 216.296875 200.492188 L 217.171875 199.679688 L 218.042969 198.867188 L 218.914063 198.078125 L 219.789063 197.351563 L 220.660156 196.703125 L 221.53125 196.148438 L 222.40625 195.707031 L 223.277344 195.414063 L 224.148438 195.320313 L 225.019531 195.410156 L 225.894531 195.695313 L 226.765625 196.1875 L 227.636719 196.921875 L 228.511719 197.949219 L 229.382813 199.214844 L 230.253906 200.730469 L 231.128906 202.488281 L 232 204.515625 L 232.871094 206.84375 L 233.742188 209.402344 L 234.617188 212.183594 L 235.488281 215.179688 L 236.359375 218.398438 L 237.234375 221.84375 L 238.105469 225.445313 L 238.976563 229.191406 L 239.851563 233.066406 L 240.722656 237.066406 L 241.59375 241.160156 L 242.464844 245.3125 L 243.339844 249.503906 L 245.082031 257.933594 L 245.957031 262.121094 L 246.828125 266.265625 L 247.699219 270.351563 L 248.574219 274.371094 L 249.445313 278.289063 L 250.316406 282.085938 L 251.1875 285.773438 L 252.0625 289.335938 L 252.933594 292.773438 L 253.804688 296.050781 L 254.679688 299.160156 L 255.550781 302.125 L 256.421875 304.945313 L 257.296875 307.617188 L 258.167969 310.113281 L 259.039063 312.441406 L 259.910156 314.625 L 260.785156 316.667969 L 261.65625 318.574219 L 262.527344 320.320313 L 263.402344 321.921875 L 264.273438 323.402344 L 265.144531 324.765625 L 266.019531 326.015625 L 266.890625 327.140625 L 267.761719 328.15625 L 268.632813 329.082031 L 269.507813 329.917969 L 270.378906 330.679688 L 271.25 331.347656 L 272.125 331.941406 L 272.996094 332.472656 L 273.867188 332.949219 L 274.742188 333.375 L 275.613281 333.742188 L 276.484375 334.0625 L 277.355469 334.34375 L 278.230469 334.59375 L 279.101563 334.8125 L 279.972656 334.996094 L 280.847656 335.15625 L 281.71875 335.296875 L 282.589844 335.414063 L 283.464844 335.519531 L 284.335938 335.605469 L 285.207031 335.675781 L 286.078125 335.738281 L 286.953125 335.792969 L 287.824219 335.835938 L 288.695313 335.871094 L 289.570313 335.902344 L 291.3125 335.949219 L 292.1875 335.964844 L 293.058594 335.980469 L 293.929688 335.992188 L 294.800781 336 L 295.675781 336.007813 L 296.546875 336.015625 L 297.417969 336.019531 L 298.292969 336.023438 L 300.035156 336.03125 L 300.910156 336.03125 L 301.78125 336.035156 L 303.523438 336.035156 L 304.398438 336.039063 L 476.234375 336.039063 Z M 30.503906 336.039063 "/>
<path style="fill-rule:nonzero;fill:rgb(48.627451%,68.235294%,0%);fill-opacity:1;stroke-width:1.066978;stroke-linecap:round;stroke-linejoin:round;stroke:rgb(48.627451%,68.235294%,0%);stroke-opacity:1;stroke-miterlimit:10;" d="M 30.503906 336.039063 L 74.117188 336.039063 L 74.992188 336.035156 L 78.480469 336.035156 L 79.351563 336.03125 L 80.226563 336.03125 L 81.097656 336.027344 L 81.96875 336.027344 L 82.839844 336.023438 L 83.714844 336.023438 L 85.457031 336.015625 L 86.332031 336.011719 L 87.203125 336.007813 L 88.074219 336 L 88.949219 335.992188 L 89.820313 335.988281 L 90.691406 335.976563 L 91.5625 335.96875 L 92.4375 335.957031 L 93.308594 335.945313 L 94.179688 335.929688 L 95.054688 335.914063 L 96.796875 335.875 L 97.671875 335.851563 L 98.542969 335.828125 L 100.285156 335.765625 L 101.160156 335.726563 L 102.03125 335.6875 L 102.902344 335.640625 L 103.777344 335.589844 L 104.648438 335.53125 L 105.519531 335.46875 L 106.394531 335.398438 L 107.265625 335.320313 L 108.136719 335.238281 L 109.007813 335.144531 L 109.882813 335.039063 L 110.753906 334.929688 L 111.625 334.804688 L 112.5 334.671875 L 113.371094 334.523438 L 114.242188 334.367188 L 115.117188 334.195313 L 115.988281 334.007813 L 116.859375 333.804688 L 117.730469 333.59375 L 118.605469 333.355469 L 119.476563 333.101563 L 120.347656 332.835938 L 121.222656 332.546875 L 122.09375 332.238281 L 122.964844 331.90625 L 123.839844 331.558594 L 124.710938 331.1875 L 125.582031 330.792969 L 126.453125 330.375 L 127.328125 329.9375 L 128.199219 329.472656 L 129.070313 328.984375 L 129.945313 328.472656 L 130.816406 327.9375 L 131.6875 327.375 L 132.5625 326.789063 L 133.433594 326.179688 L 134.304688 325.550781 L 135.175781 324.890625 L 136.050781 324.210938 L 136.921875 323.507813 L 137.792969 322.789063 L 138.667969 322.039063 L 139.539063 321.273438 L 140.410156 320.492188 L 141.285156 319.691406 L 142.15625 318.871094 L 143.027344 318.039063 L 143.898438 317.195313 L 144.773438 316.335938 L 145.644531 315.464844 L 146.515625 314.589844 L 147.390625 313.707031 L 149.132813 311.925781 L 150.007813 311.035156 L 150.878906 310.140625 L 151.75 309.253906 L 152.621094 308.371094 L 153.496094 307.492188 L 154.367188 306.625 L 155.238281 305.765625 L 156.113281 304.921875 L 156.984375 304.085938 L 157.855469 303.265625 L 158.730469 302.464844 L 159.601563 301.679688 L 160.472656 300.914063 L 161.34375 300.164063 L 162.21875 299.441406 L 163.089844 298.730469 L 163.960938 298.042969 L 164.835938 297.378906 L 165.707031 296.734375 L 166.578125 296.105469 L 167.453125 295.496094 L 168.324219 294.910156 L 169.195313 294.339844 L 170.066406 293.78125 L 170.941406 293.238281 L 171.8125 292.707031 L 172.683594 292.1875 L 173.558594 291.675781 L 175.300781 290.667969 L 176.175781 290.164063 L 177.046875 289.660156 L 177.917969 289.148438 L 178.792969 288.628906 L 179.664063 288.09375 L 180.535156 287.550781 L 181.40625 286.984375 L 182.28125 286.394531 L 183.152344 285.785156 L 184.023438 285.152344 L 184.898438 284.476563 L 185.769531 283.769531 L 186.640625 283.03125 L 187.515625 282.253906 L 188.386719 281.425781 L 189.257813 280.5625 L 190.128906 279.65625 L 191.003906 278.695313 L 191.875 277.683594 L 192.746094 276.625 L 193.621094 275.523438 L 194.492188 274.359375 L 195.363281 273.140625 L 196.238281 271.878906 L 197.109375 270.574219 L 197.980469 269.203125 L 198.851563 267.789063 L 199.726563 266.332031 L 200.597656 264.832031 L 201.46875 263.28125 L 202.34375 261.691406 L 203.214844 260.074219 L 204.085938 258.417969 L 204.960938 256.730469 L 205.832031 255.023438 L 206.703125 253.296875 L 207.574219 251.546875 L 208.449219 249.789063 L 210.191406 246.265625 L 211.066406 244.507813 L 211.9375 242.761719 L 212.808594 241.027344 L 213.683594 239.316406 L 214.554688 237.640625 L 215.425781 235.996094 L 216.296875 234.386719 L 217.171875 232.820313 L 218.042969 231.316406 L 218.914063 229.867188 L 219.789063 228.472656 L 220.660156 227.148438 L 221.53125 225.910156 L 222.40625 224.738281 L 223.277344 223.640625 L 224.148438 222.644531 L 225.019531 221.746094 L 225.894531 220.925781 L 226.765625 220.195313 L 227.636719 219.589844 L 228.511719 219.082031 L 229.382813 218.667969 L 230.253906 218.351563 L 231.128906 218.175781 L 232 218.09375 L 232.871094 218.109375 L 233.742188 218.230469 L 234.617188 218.488281 L 235.488281 218.835938 L 236.359375 219.277344 L 237.234375 219.832031 L 238.105469 220.5 L 238.976563 221.25 L 239.851563 222.085938 L 240.722656 223.03125 L 241.59375 224.066406 L 242.464844 225.171875 L 243.339844 226.347656 L 244.210938 227.621094 L 245.082031 228.953125 L 245.957031 230.34375 L 246.828125 231.789063 L 247.699219 233.300781 L 248.574219 234.855469 L 249.445313 236.445313 L 250.316406 238.074219 L 251.1875 239.738281 L 252.0625 241.421875 L 252.933594 243.125 L 253.804688 244.839844 L 254.679688 246.566406 L 256.421875 250.019531 L 257.296875 251.738281 L 258.167969 253.441406 L 259.039063 255.132813 L 259.910156 256.804688 L 260.785156 258.445313 L 261.65625 260.058594 L 262.527344 261.640625 L 263.402344 263.195313 L 264.273438 264.695313 L 265.144531 266.160156 L 266.019531 267.585938 L 266.890625 268.96875 L 267.761719 270.289063 L 268.632813 271.566406 L 269.507813 272.800781 L 270.378906 273.976563 L 271.25 275.09375 L 272.125 276.164063 L 272.996094 277.1875 L 273.867188 278.140625 L 274.742188 279.042969 L 275.613281 279.898438 L 276.484375 280.710938 L 277.355469 281.449219 L 278.230469 282.144531 L 279.101563 282.792969 L 279.972656 283.398438 L 280.847656 283.941406 L 281.71875 284.449219 L 282.589844 284.917969 L 283.464844 285.34375 L 284.335938 285.726563 L 285.207031 286.078125 L 286.078125 286.398438 L 286.953125 286.683594 L 287.824219 286.941406 L 288.695313 287.175781 L 289.570313 287.394531 L 290.441406 287.585938 L 291.3125 287.765625 L 292.1875 287.933594 L 293.058594 288.09375 L 293.929688 288.246094 L 294.800781 288.394531 L 295.675781 288.546875 L 296.546875 288.699219 L 297.417969 288.859375 L 298.292969 289.023438 L 299.164063 289.203125 L 300.035156 289.394531 L 300.910156 289.601563 L 301.78125 289.828125 L 302.652344 290.066406 L 303.523438 290.332031 L 304.398438 290.625 L 305.269531 290.933594 L 306.140625 291.265625 L 307.015625 291.628906 L 307.886719 292.015625 L 308.757813 292.425781 L 309.632813 292.859375 L 310.503906 293.324219 L 311.375 293.8125 L 312.246094 294.320313 L 313.121094 294.851563 L 313.992188 295.40625 L 314.863281 295.980469 L 315.738281 296.570313 L 316.609375 297.179688 L 317.480469 297.804688 L 318.355469 298.441406 L 319.226563 299.089844 L 320.097656 299.75 L 320.96875 300.414063 L 321.84375 301.082031 L 323.585938 302.433594 L 324.460938 303.105469 L 325.332031 303.777344 L 326.203125 304.445313 L 327.078125 305.105469 L 327.949219 305.761719 L 328.820313 306.410156 L 329.691406 307.046875 L 330.566406 307.671875 L 331.4375 308.289063 L 332.308594 308.894531 L 333.183594 309.484375 L 334.054688 310.0625 L 334.925781 310.628906 L 335.800781 311.1875 L 336.671875 311.726563 L 337.542969 312.257813 L 338.414063 312.777344 L 339.289063 313.285156 L 340.160156 313.78125 L 341.03125 314.269531 L 341.90625 314.746094 L 342.777344 315.21875 L 343.648438 315.679688 L 344.523438 316.136719 L 345.394531 316.589844 L 347.136719 317.480469 L 348.011719 317.921875 L 349.753906 318.796875 L 350.628906 319.230469 L 351.5 319.664063 L 352.371094 320.101563 L 353.246094 320.535156 L 354.988281 321.410156 L 355.859375 321.84375 L 356.734375 322.28125 L 357.605469 322.71875 L 358.476563 323.160156 L 359.351563 323.597656 L 360.222656 324.035156 L 361.09375 324.46875 L 361.96875 324.90625 L 363.710938 325.765625 L 364.582031 326.191406 L 365.457031 326.613281 L 366.328125 327.03125 L 367.199219 327.441406 L 368.074219 327.847656 L 368.945313 328.246094 L 369.816406 328.632813 L 370.691406 329.015625 L 371.5625 329.390625 L 372.433594 329.753906 L 373.304688 330.105469 L 374.179688 330.449219 L 375.050781 330.78125 L 375.921875 331.101563 L 376.796875 331.410156 L 377.667969 331.707031 L 378.539063 331.992188 L 379.414063 332.265625 L 380.285156 332.527344 L 381.15625 332.773438 L 382.027344 333.011719 L 382.902344 333.238281 L 383.773438 333.449219 L 384.644531 333.648438 L 385.519531 333.839844 L 386.390625 334.015625 L 387.261719 334.183594 L 388.136719 334.339844 L 389.007813 334.488281 L 389.878906 334.621094 L 390.75 334.746094 L 391.625 334.867188 L 392.496094 334.976563 L 393.367188 335.074219 L 394.242188 335.167969 L 395.113281 335.253906 L 395.984375 335.332031 L 396.859375 335.402344 L 397.730469 335.46875 L 398.601563 335.527344 L 399.476563 335.582031 L 400.347656 335.632813 L 402.089844 335.71875 L 402.964844 335.753906 L 404.707031 335.816406 L 405.582031 335.84375 L 406.453125 335.867188 L 407.324219 335.886719 L 408.199219 335.90625 L 409.941406 335.9375 L 410.8125 335.949219 L 411.6875 335.960938 L 412.558594 335.972656 L 413.429688 335.980469 L 414.304688 335.988281 L 415.175781 335.996094 L 416.046875 336 L 416.921875 336.007813 L 419.535156 336.019531 L 420.410156 336.023438 L 421.28125 336.023438 L 422.152344 336.027344 L 423.027344 336.027344 L 423.898438 336.03125 L 424.769531 336.03125 L 425.644531 336.035156 L 430.003906 336.035156 L 430.875 336.039063 L 476.234375 336.039063 Z M 30.503906 336.039063 "/>
<path style="fill-rule:nonzero;fill:rgb(0%,74.901961%,76.862745%);fill-opacity:1;stroke-width:1.066978;stroke-linecap:round;stroke-linejoin:round;stroke:rgb(0%,74.901961%,76.862745%);stroke-opacity:1;stroke-miterlimit:10;" d="M 30.503906 336.039063 L 104.648438 336.039063 L 105.519531 336.035156 L 106.394531 336.035156 L 108.136719 336.019531 L 109.007813 336.007813 L 109.882813 335.988281 L 110.753906 335.957031 L 111.625 335.90625 L 112.5 335.835938 L 113.371094 335.734375 L 114.242188 335.578125 L 115.117188 335.359375 L 115.988281 335.054688 L 116.859375 334.640625 L 117.730469 334.089844 L 118.605469 333.371094 L 119.476563 332.449219 L 120.347656 331.300781 L 121.222656 329.886719 L 122.09375 328.152344 L 122.964844 326.097656 L 123.839844 323.730469 L 124.710938 321.0625 L 125.582031 318.125 L 126.453125 314.957031 L 127.328125 311.625 L 128.199219 308.195313 L 129.070313 304.757813 L 129.945313 301.402344 L 130.816406 298.242188 L 131.6875 295.328125 L 132.5625 292.71875 L 133.433594 290.433594 L 134.304688 288.476563 L 135.175781 286.8125 L 136.050781 285.390625 L 136.921875 284.136719 L 137.792969 282.953125 L 138.667969 281.714844 L 139.539063 280.28125 L 140.410156 278.535156 L 141.285156 276.355469 L 142.15625 273.617188 L 143.027344 270.207031 L 143.898438 266.007813 L 144.773438 260.902344 L 145.644531 254.785156 L 146.515625 247.496094 L 147.390625 238.902344 L 148.261719 229.066406 L 149.132813 217.992188 L 150.007813 205.753906 L 150.878906 192.464844 L 151.75 178.316406 L 152.621094 163.550781 L 153.496094 148.46875 L 154.367188 133.402344 L 155.238281 118.804688 L 156.113281 105.007813 L 156.984375 92.285156 L 157.855469 80.847656 L 158.730469 70.816406 L 159.601563 62.21875 L 160.472656 55.003906 L 161.34375 49.042969 L 162.21875 44.136719 L 163.089844 40.097656 L 163.960938 36.648438 L 164.835938 33.550781 L 165.707031 30.6875 L 166.578125 28.011719 L 167.453125 25.566406 L 168.324219 23.484375 L 169.195313 21.949219 L 170.066406 21.21875 L 170.941406 21.574219 L 171.8125 23.519531 L 172.683594 27.140625 L 173.558594 32.597656 L 174.429688 39.960938 L 175.300781 49.207031 L 176.175781 60.210938 L 177.046875 72.746094 L 177.917969 86.503906 L 178.792969 101.09375 L 179.664063 116.070313 L 180.535156 130.863281 L 181.40625 145.011719 L 182.28125 158.109375 L 183.152344 169.824219 L 184.023438 179.894531 L 184.898438 188.148438 L 185.769531 194.511719 L 186.640625 198.996094 L 187.515625 201.691406 L 188.386719 202.683594 L 189.257813 202.472656 L 190.128906 201.40625 L 191.003906 199.847656 L 191.875 198.171875 L 192.746094 196.742188 L 193.621094 195.90625 L 194.492188 195.957031 L 195.363281 197.136719 L 196.238281 199.746094 L 197.109375 203.8125 L 197.980469 209.261719 L 198.851563 215.988281 L 199.726563 223.835938 L 200.597656 232.589844 L 201.46875 242.007813 L 202.34375 251.8125 L 203.214844 261.730469 L 204.085938 271.492188 L 204.960938 280.785156 L 205.832031 289.457031 L 206.703125 297.375 L 207.574219 304.453125 L 208.449219 310.65625 L 209.320313 315.976563 L 210.191406 320.453125 L 211.066406 324.140625 L 211.9375 327.121094 L 212.808594 329.421875 L 213.683594 331.199219 L 214.554688 332.5625 L 215.425781 333.582031 L 216.296875 334.335938 L 217.171875 334.878906 L 218.042969 335.265625 L 218.914063 335.53125 L 219.789063 335.714844 L 220.660156 335.832031 L 221.53125 335.910156 L 222.40625 335.957031 L 223.277344 335.992188 L 224.148438 336.011719 L 225.019531 336.023438 L 225.894531 336.03125 L 226.765625 336.035156 L 227.636719 336.035156 L 228.511719 336.039063 L 476.234375 336.039063 Z M 30.503906 336.039063 "/>
<path style="fill-rule:nonzero;fill:rgb(78.039216%,48.627451%,100%);fill-opacity:1;stroke-width:1.066978;stroke-linecap:round;stroke-linejoin:round;stroke:rgb(78.039216%,48.627451%,100%);stroke-opacity:1;stroke-miterlimit:10;" d="M 30.503906 335.921875 L 31.378906 335.910156 L 32.25 335.898438 L 33.121094 335.882813 L 33.996094 335.871094 L 34.867188 335.855469 L 35.738281 335.835938 L 36.613281 335.820313 L 37.484375 335.800781 L 39.226563 335.753906 L 40.101563 335.730469 L 41.84375 335.675781 L 42.71875 335.644531 L 43.589844 335.613281 L 44.460938 335.578125 L 45.335938 335.539063 L 46.207031 335.5 L 47.949219 335.414063 L 48.824219 335.367188 L 50.566406 335.265625 L 51.441406 335.207031 L 52.3125 335.148438 L 53.183594 335.085938 L 54.058594 335.019531 L 55.800781 334.878906 L 56.671875 334.800781 L 57.546875 334.71875 L 58.417969 334.636719 L 59.289063 334.546875 L 60.164063 334.453125 L 61.035156 334.359375 L 61.90625 334.257813 L 62.78125 334.152344 L 63.652344 334.042969 L 64.523438 333.929688 L 65.394531 333.8125 L 66.269531 333.691406 L 67.140625 333.566406 L 68.011719 333.4375 L 68.886719 333.304688 L 70.628906 333.023438 L 71.503906 332.878906 L 72.375 332.730469 L 73.246094 332.578125 L 74.117188 332.421875 L 74.992188 332.261719 L 76.734375 331.933594 L 77.609375 331.765625 L 79.351563 331.421875 L 80.226563 331.246094 L 81.96875 330.894531 L 82.839844 330.714844 L 83.714844 330.535156 L 84.585938 330.355469 L 85.457031 330.171875 L 86.332031 329.992188 L 88.074219 329.632813 L 88.949219 329.457031 L 90.691406 329.105469 L 91.5625 328.933594 L 92.4375 328.765625 L 93.308594 328.597656 L 94.179688 328.4375 L 95.054688 328.277344 L 95.925781 328.121094 L 96.796875 327.972656 L 97.671875 327.828125 L 98.542969 327.6875 L 99.414063 327.550781 L 100.285156 327.421875 L 101.160156 327.300781 L 102.03125 327.183594 L 102.902344 327.070313 L 103.777344 326.964844 L 105.519531 326.777344 L 106.394531 326.695313 L 107.265625 326.617188 L 108.136719 326.546875 L 109.007813 326.484375 L 109.882813 326.429688 L 110.753906 326.378906 L 111.625 326.335938 L 112.5 326.300781 L 113.371094 326.269531 L 114.242188 326.246094 L 115.117188 326.230469 L 115.988281 326.214844 L 117.730469 326.207031 L 118.605469 326.210938 L 120.347656 326.226563 L 121.222656 326.242188 L 122.964844 326.273438 L 123.839844 326.292969 L 126.453125 326.351563 L 127.328125 326.371094 L 128.199219 326.382813 L 129.070313 326.398438 L 129.945313 326.40625 L 130.816406 326.410156 L 131.6875 326.410156 L 132.5625 326.402344 L 133.433594 326.390625 L 134.304688 326.367188 L 135.175781 326.339844 L 136.050781 326.300781 L 136.921875 326.253906 L 137.792969 326.195313 L 138.667969 326.121094 L 139.539063 326.039063 L 140.410156 325.945313 L 141.285156 325.832031 L 142.15625 325.710938 L 143.027344 325.574219 L 143.898438 325.417969 L 144.773438 325.246094 L 145.644531 325.0625 L 146.515625 324.851563 L 147.390625 324.632813 L 148.261719 324.390625 L 149.132813 324.128906 L 150.007813 323.851563 L 150.878906 323.554688 L 151.75 323.234375 L 152.621094 322.894531 L 153.496094 322.539063 L 154.367188 322.15625 L 155.238281 321.757813 L 156.113281 321.339844 L 156.984375 320.894531 L 157.855469 320.433594 L 158.730469 319.953125 L 159.601563 319.445313 L 160.472656 318.925781 L 161.34375 318.382813 L 162.21875 317.816406 L 163.089844 317.234375 L 163.960938 316.636719 L 164.835938 316.011719 L 165.707031 315.371094 L 166.578125 314.714844 L 167.453125 314.039063 L 168.324219 313.347656 L 169.195313 312.640625 L 170.066406 311.914063 L 170.941406 311.175781 L 171.8125 310.421875 L 172.683594 309.652344 L 173.558594 308.871094 L 174.429688 308.082031 L 175.300781 307.273438 L 176.175781 306.457031 L 177.046875 305.632813 L 177.917969 304.792969 L 178.792969 303.949219 L 179.664063 303.101563 L 181.40625 301.375 L 182.28125 300.503906 L 184.023438 298.746094 L 184.898438 297.863281 L 185.769531 296.980469 L 186.640625 296.09375 L 187.515625 295.203125 L 190.128906 292.542969 L 191.003906 291.660156 L 191.875 290.777344 L 192.746094 289.898438 L 193.621094 289.027344 L 194.492188 288.15625 L 195.363281 287.289063 L 196.238281 286.433594 L 197.109375 285.578125 L 197.980469 284.730469 L 198.851563 283.894531 L 199.726563 283.0625 L 200.597656 282.238281 L 201.46875 281.425781 L 202.34375 280.621094 L 203.214844 279.824219 L 204.085938 279.039063 L 204.960938 278.265625 L 205.832031 277.5 L 206.703125 276.75 L 207.574219 276.007813 L 208.449219 275.277344 L 209.320313 274.5625 L 210.191406 273.855469 L 211.066406 273.164063 L 211.9375 272.488281 L 212.808594 271.824219 L 213.683594 271.167969 L 214.554688 270.535156 L 215.425781 269.914063 L 216.296875 269.304688 L 217.171875 268.714844 L 218.042969 268.136719 L 218.914063 267.574219 L 219.789063 267.03125 L 220.660156 266.5 L 221.53125 265.984375 L 222.40625 265.488281 L 223.277344 265.011719 L 224.148438 264.542969 L 225.019531 264.097656 L 225.894531 263.671875 L 226.765625 263.253906 L 227.636719 262.863281 L 228.511719 262.488281 L 229.382813 262.125 L 230.253906 261.785156 L 231.128906 261.460938 L 232 261.152344 L 232.871094 260.863281 L 233.742188 260.59375 L 234.617188 260.339844 L 235.488281 260.101563 L 236.359375 259.886719 L 237.234375 259.683594 L 238.105469 259.5 L 238.976563 259.335938 L 239.851563 259.183594 L 240.722656 259.050781 L 241.59375 258.9375 L 242.464844 258.835938 L 243.339844 258.753906 L 244.210938 258.6875 L 245.082031 258.632813 L 245.957031 258.597656 L 246.828125 258.578125 L 247.699219 258.566406 L 248.574219 258.574219 L 249.445313 258.597656 L 250.316406 258.632813 L 251.1875 258.679688 L 252.0625 258.742188 L 252.933594 258.816406 L 253.804688 258.902344 L 254.679688 259 L 255.550781 259.109375 L 256.421875 259.230469 L 257.296875 259.363281 L 258.167969 259.503906 L 259.039063 259.65625 L 259.910156 259.820313 L 260.785156 259.992188 L 261.65625 260.171875 L 262.527344 260.367188 L 263.402344 260.566406 L 264.273438 260.773438 L 265.144531 260.992188 L 266.019531 261.214844 L 266.890625 261.449219 L 267.761719 261.691406 L 268.632813 261.941406 L 269.507813 262.199219 L 270.378906 262.464844 L 271.25 262.734375 L 272.125 263.011719 L 272.996094 263.300781 L 273.867188 263.59375 L 274.742188 263.894531 L 275.613281 264.203125 L 276.484375 264.515625 L 277.355469 264.835938 L 278.230469 265.167969 L 279.101563 265.5 L 279.972656 265.84375 L 280.847656 266.191406 L 281.71875 266.546875 L 282.589844 266.90625 L 283.464844 267.277344 L 284.335938 267.648438 L 285.207031 268.027344 L 286.078125 268.414063 L 286.953125 268.808594 L 287.824219 269.203125 L 288.695313 269.609375 L 289.570313 270.015625 L 290.441406 270.429688 L 291.3125 270.847656 L 292.1875 271.273438 L 293.058594 271.699219 L 293.929688 272.132813 L 294.800781 272.570313 L 295.675781 273.011719 L 297.417969 273.902344 L 298.292969 274.355469 L 299.164063 274.808594 L 300.035156 275.265625 L 300.910156 275.722656 L 301.78125 276.183594 L 303.523438 277.113281 L 304.398438 277.578125 L 306.140625 278.515625 L 307.015625 278.984375 L 308.757813 279.921875 L 309.632813 280.394531 L 310.503906 280.863281 L 312.246094 281.808594 L 313.121094 282.28125 L 313.992188 282.75 L 314.863281 283.222656 L 315.738281 283.695313 L 316.609375 284.171875 L 317.480469 284.644531 L 318.355469 285.121094 L 319.226563 285.59375 L 320.097656 286.074219 L 320.96875 286.550781 L 321.84375 287.03125 L 322.714844 287.511719 L 323.585938 287.996094 L 324.460938 288.480469 L 326.203125 289.464844 L 327.078125 289.957031 L 327.949219 290.457031 L 328.820313 290.960938 L 329.691406 291.46875 L 330.566406 291.980469 L 331.4375 292.496094 L 332.308594 293.015625 L 333.183594 293.542969 L 334.054688 294.074219 L 334.925781 294.609375 L 335.800781 295.152344 L 336.671875 295.699219 L 337.542969 296.25 L 338.414063 296.808594 L 339.289063 297.375 L 340.160156 297.945313 L 341.03125 298.519531 L 341.90625 299.101563 L 342.777344 299.683594 L 343.648438 300.277344 L 344.523438 300.871094 L 345.394531 301.46875 L 347.136719 302.679688 L 348.011719 303.289063 L 349.753906 304.515625 L 350.628906 305.128906 L 351.5 305.742188 L 352.371094 306.359375 L 353.246094 306.972656 L 354.988281 308.199219 L 355.859375 308.804688 L 356.734375 309.410156 L 357.605469 310.011719 L 358.476563 310.605469 L 359.351563 311.195313 L 360.222656 311.777344 L 361.09375 312.351563 L 361.96875 312.917969 L 362.839844 313.476563 L 363.710938 314.027344 L 364.582031 314.566406 L 365.457031 315.089844 L 366.328125 315.609375 L 367.199219 316.113281 L 368.074219 316.601563 L 368.945313 317.082031 L 369.816406 317.542969 L 370.691406 317.992188 L 371.5625 318.429688 L 372.433594 318.851563 L 373.304688 319.253906 L 374.179688 319.644531 L 375.050781 320.019531 L 375.921875 320.378906 L 376.796875 320.722656 L 377.667969 321.050781 L 378.539063 321.359375 L 379.414063 321.660156 L 380.285156 321.9375 L 381.15625 322.203125 L 382.027344 322.457031 L 382.902344 322.691406 L 383.773438 322.910156 L 384.644531 323.121094 L 385.519531 323.3125 L 386.390625 323.492188 L 387.261719 323.664063 L 388.136719 323.820313 L 389.007813 323.964844 L 389.878906 324.097656 L 390.75 324.222656 L 391.625 324.335938 L 392.496094 324.441406 L 393.367188 324.539063 L 394.242188 324.628906 L 395.113281 324.710938 L 395.984375 324.789063 L 396.859375 324.859375 L 397.730469 324.925781 L 398.601563 324.988281 L 399.476563 325.046875 L 400.347656 325.105469 L 401.21875 325.160156 L 402.089844 325.210938 L 402.964844 325.265625 L 403.835938 325.316406 L 404.707031 325.371094 L 405.582031 325.421875 L 406.453125 325.480469 L 407.324219 325.535156 L 408.199219 325.597656 L 409.070313 325.660156 L 409.941406 325.726563 L 410.8125 325.796875 L 411.6875 325.867188 L 413.429688 326.03125 L 414.304688 326.117188 L 415.175781 326.210938 L 416.046875 326.308594 L 416.921875 326.410156 L 417.792969 326.519531 L 418.664063 326.632813 L 419.535156 326.75 L 420.410156 326.875 L 421.28125 327 L 422.152344 327.136719 L 423.027344 327.273438 L 423.898438 327.417969 L 424.769531 327.566406 L 425.644531 327.71875 L 426.515625 327.875 L 427.386719 328.035156 L 428.257813 328.199219 L 429.132813 328.367188 L 430.003906 328.535156 L 430.875 328.710938 L 431.75 328.886719 L 432.621094 329.0625 L 433.492188 329.242188 L 434.367188 329.421875 L 436.980469 329.972656 L 437.855469 330.15625 L 439.597656 330.523438 L 440.472656 330.703125 L 441.34375 330.886719 L 442.214844 331.066406 L 443.089844 331.246094 L 443.960938 331.421875 L 445.703125 331.765625 L 446.578125 331.933594 L 447.449219 332.101563 L 448.320313 332.265625 L 449.195313 332.425781 L 450.066406 332.582031 L 450.9375 332.734375 L 451.8125 332.882813 L 453.554688 333.171875 L 454.425781 333.308594 L 455.300781 333.441406 L 456.171875 333.574219 L 457.042969 333.695313 L 457.917969 333.816406 L 458.789063 333.9375 L 459.660156 334.046875 L 460.535156 334.15625 L 461.40625 334.261719 L 462.277344 334.363281 L 463.148438 334.457031 L 464.023438 334.550781 L 465.765625 334.722656 L 466.640625 334.804688 L 468.382813 334.953125 L 469.257813 335.023438 L 470.128906 335.089844 L 471 335.152344 L 471.871094 335.210938 L 472.746094 335.265625 L 473.617188 335.320313 L 474.488281 335.371094 L 475.363281 335.417969 L 476.234375 335.460938 L 476.234375 336.039063 L 30.503906 336.039063 Z M 30.503906 335.921875 "/>
</g>
</g>
</svg>
