<svg xmlns="http://www.w3.org/2000/svg" xmlns:xlink="http://www.w3.org/1999/xlink" viewBox="0 0 504 378"><defs><style type="text/css">circle,polygon,polyline,rect{fill:none;stroke:#000;stroke-linecap:round;stroke-linejoin:round;stroke-miterlimit:10}</style></defs><rect width="100%" height="100%" style="stroke:none;fill:none"/><rect width="504" height="378" x="0" y="0" style="stroke-width:1.07;stroke:#fff;fill:#fff"/><defs><clipPath id="cpNDEuMDZ8NDk4LjUyfDM0Ni4yOHw1LjQ4"><rect width="457.46" height="340.8" x="41.06" y="5.48"/></clipPath></defs><rect width="457.46" height="340.8" x="41.06" y="5.48" clip-path="url(#cpNDEuMDZ8NDk4LjUyfDM0Ni4yOHw1LjQ4)" style="stroke-width:1.07;stroke:none;fill:#ebebeb"/><polyline points="41.06 316.13 498.52 316.13" clip-path="url(#cpNDEuMDZ8NDk4LjUyfDM0Ni4yOHw1LjQ4)" style="stroke-width:.53;stroke:#fff;stroke-linecap:butt"/><polyline points="41.06 242.34 498.52 242.34" clip-path="url(#cpNDEuMDZ8NDk4LjUyfDM0Ni4yOHw1LjQ4)" style="stroke-width:.53;stroke:#fff;stroke-linecap:butt"/><polyline points="41.06 168.55 498.52 168.55" clip-path="url(#cpNDEuMDZ8NDk4LjUyfDM0Ni4yOHw1LjQ4)" style="stroke-width:.53;stroke:#fff;stroke-linecap:butt"/><polyline points="41.06 94.76 498.52 94.76" clip-path="url(#cpNDEuMDZ8NDk4LjUyfDM0Ni4yOHw1LjQ4)" style="stroke-width:.53;stroke:#fff;stroke-linecap:butt"/><polyline points="41.06 20.97 498.52 20.97" clip-path="url(#cpNDEuMDZ8NDk4LjUyfDM0Ni4yOHw1LjQ4)" style="stroke-width:.53;stroke:#fff;stroke-linecap:butt"/><polyline points="119.11 346.28 119.11 5.48" clip-path="url(#cpNDEuMDZ8NDk4LjUyfDM0Ni4yOHw1LjQ4)" style="stroke-width:.53;stroke:#fff;stroke-linecap:butt"/><polyline points="269.79 346.28 269.79 5.48" clip-path="url(#cpNDEuMDZ8NDk4LjUyfDM0Ni4yOHw1LjQ4)" style="stroke-width:.53;stroke:#fff;stroke-linecap:butt"/><polyline points="420.47 346.28 420.47 5.48" clip-path="url(#cpNDEuMDZ8NDk4LjUyfDM0Ni4yOHw1LjQ4)" style="stroke-width:.53;stroke:#fff;stroke-linecap:butt"/><polyline points="41.06 279.24 498.52 279.24" clip-path="url(#cpNDEuMDZ8NDk4LjUyfDM0Ni4yOHw1LjQ4)" style="stroke-width:1.07;stroke:#fff;stroke-linecap:butt"/><polyline points="41.06 205.45 498.52 205.45" clip-path="url(#cpNDEuMDZ8NDk4LjUyfDM0Ni4yOHw1LjQ4)" style="stroke-width:1.07;stroke:#fff;stroke-linecap:butt"/><polyline points="41.06 131.66 498.52 131.66" clip-path="url(#cpNDEuMDZ8NDk4LjUyfDM0Ni4yOHw1LjQ4)" style="stroke-width:1.07;stroke:#fff;stroke-linecap:butt"/><polyline points="41.06 57.87 498.52 57.87" clip-path="url(#cpNDEuMDZ8NDk4LjUyfDM0Ni4yOHw1LjQ4)" style="stroke-width:1.07;stroke:#fff;stroke-linecap:butt"/><polyline points="43.77 346.28 43.77 5.48" clip-path="url(#cpNDEuMDZ8NDk4LjUyfDM0Ni4yOHw1LjQ4)" style="stroke-width:1.07;stroke:#fff;stroke-linecap:butt"/><polyline points="194.45 346.28 194.45 5.48" clip-path="url(#cpNDEuMDZ8NDk4LjUyfDM0Ni4yOHw1LjQ4)" style="stroke-width:1.07;stroke:#fff;stroke-linecap:butt"/><polyline points="345.13 346.28 345.13 5.48" clip-path="url(#cpNDEuMDZ8NDk4LjUyfDM0Ni4yOHw1LjQ4)" style="stroke-width:1.07;stroke:#fff;stroke-linecap:butt"/><polyline points="495.81 346.28 495.81 5.48" clip-path="url(#cpNDEuMDZ8NDk4LjUyfDM0Ni4yOHw1LjQ4)" style="stroke-width:1.07;stroke:#fff;stroke-linecap:butt"/><circle cx="61.85" cy="131.66" r="1.95" clip-path="url(#cpNDEuMDZ8NDk4LjUyfDM0Ni4yOHw1LjQ4)" style="stroke-width:.71;fill:#000"/><circle cx="63.36" cy="133.58" r="1.95" clip-path="url(#cpNDEuMDZ8NDk4LjUyfDM0Ni4yOHw1LjQ4)" style="stroke-width:.71;fill:#000"/><circle cx="67.88" cy="135.64" r="1.95" clip-path="url(#cpNDEuMDZ8NDk4LjUyfDM0Ni4yOHw1LjQ4)" style="stroke-width:.71;fill:#000"/><circle cx="70.89" cy="131.66" r="1.95" clip-path="url(#cpNDEuMDZ8NDk4LjUyfDM0Ni4yOHw1LjQ4)" style="stroke-width:.71;fill:#000"/><circle cx="73.91" cy="135.64" r="1.95" clip-path="url(#cpNDEuMDZ8NDk4LjUyfDM0Ni4yOHw1LjQ4)" style="stroke-width:.71;fill:#000"/><circle cx="90.48" cy="135.64" r="1.95" clip-path="url(#cpNDEuMDZ8NDk4LjUyfDM0Ni4yOHw1LjQ4)" style="stroke-width:.71;fill:#000"/><circle cx="93.49" cy="135.64" r="1.95" clip-path="url(#cpNDEuMDZ8NDk4LjUyfDM0Ni4yOHw1LjQ4)" style="stroke-width:.71;fill:#000"/><circle cx="95" cy="133.58" r="1.95" clip-path="url(#cpNDEuMDZ8NDk4LjUyfDM0Ni4yOHw1LjQ4)" style="stroke-width:.71;fill:#000"/><circle cx="102.53" cy="135.64" r="1.95" clip-path="url(#cpNDEuMDZ8NDk4LjUyfDM0Ni4yOHw1LjQ4)" style="stroke-width:.71;fill:#000"/><circle cx="105.55" cy="135.64" r="1.95" clip-path="url(#cpNDEuMDZ8NDk4LjUyfDM0Ni4yOHw1LjQ4)" style="stroke-width:.71;fill:#000"/><circle cx="110.07" cy="133.58" r="1.95" clip-path="url(#cpNDEuMDZ8NDk4LjUyfDM0Ni4yOHw1LjQ4)" style="stroke-width:.71;fill:#000"/><circle cx="110.07" cy="135.64" r="1.95" clip-path="url(#cpNDEuMDZ8NDk4LjUyfDM0Ni4yOHw1LjQ4)" style="stroke-width:.71;fill:#000"/><circle cx="116.1" cy="135.64" r="1.95" clip-path="url(#cpNDEuMDZ8NDk4LjUyfDM0Ni4yOHw1LjQ4)" style="stroke-width:.71;fill:#000"/><circle cx="119.11" cy="135.64" r="1.95" clip-path="url(#cpNDEuMDZ8NDk4LjUyfDM0Ni4yOHw1LjQ4)" style="stroke-width:.71;fill:#000"/><circle cx="120.62" cy="139.63" r="1.95" clip-path="url(#cpNDEuMDZ8NDk4LjUyfDM0Ni4yOHw1LjQ4)" style="stroke-width:.71;fill:#000"/><circle cx="123.63" cy="135.64" r="1.95" clip-path="url(#cpNDEuMDZ8NDk4LjUyfDM0Ni4yOHw1LjQ4)" style="stroke-width:.71;fill:#000"/><circle cx="126.64" cy="139.63" r="1.95" clip-path="url(#cpNDEuMDZ8NDk4LjUyfDM0Ni4yOHw1LjQ4)" style="stroke-width:.71;fill:#000"/><circle cx="129.66" cy="131.66" r="1.95" clip-path="url(#cpNDEuMDZ8NDk4LjUyfDM0Ni4yOHw1LjQ4)" style="stroke-width:.71;fill:#000"/><circle cx="143.22" cy="135.64" r="1.95" clip-path="url(#cpNDEuMDZ8NDk4LjUyfDM0Ni4yOHw1LjQ4)" style="stroke-width:.71;fill:#000"/><circle cx="146.23" cy="135.64" r="1.95" clip-path="url(#cpNDEuMDZ8NDk4LjUyfDM0Ni4yOHw1LjQ4)" style="stroke-width:.71;fill:#000"/><circle cx="147.74" cy="131.66" r="1.95" clip-path="url(#cpNDEuMDZ8NDk4LjUyfDM0Ni4yOHw1LjQ4)" style="stroke-width:.71;fill:#000"/><circle cx="153.77" cy="151.29" r="1.95" clip-path="url(#cpNDEuMDZ8NDk4LjUyfDM0Ni4yOHw1LjQ4)" style="stroke-width:.71;fill:#000"/><circle cx="153.77" cy="139.63" r="1.95" clip-path="url(#cpNDEuMDZ8NDk4LjUyfDM0Ni4yOHw1LjQ4)" style="stroke-width:.71;fill:#000"/><circle cx="153.77" cy="139.63" r="1.95" clip-path="url(#cpNDEuMDZ8NDk4LjUyfDM0Ni4yOHw1LjQ4)" style="stroke-width:.71;fill:#000"/><circle cx="153.77" cy="145.38" r="1.95" clip-path="url(#cpNDEuMDZ8NDk4LjUyfDM0Ni4yOHw1LjQ4)" style="stroke-width:.71;fill:#000"/><circle cx="153.77" cy="155.27" r="1.95" clip-path="url(#cpNDEuMDZ8NDk4LjUyfDM0Ni4yOHw1LjQ4)" style="stroke-width:.71;fill:#000"/><circle cx="153.77" cy="165.31" r="1.95" clip-path="url(#cpNDEuMDZ8NDk4LjUyfDM0Ni4yOHw1LjQ4)" style="stroke-width:.71;fill:#000"/><circle cx="155.27" cy="135.64" r="1.95" clip-path="url(#cpNDEuMDZ8NDk4LjUyfDM0Ni4yOHw1LjQ4)" style="stroke-width:.71;fill:#000"/><circle cx="159.79" cy="165.31" r="1.95" clip-path="url(#cpNDEuMDZ8NDk4LjUyfDM0Ni4yOHw1LjQ4)" style="stroke-width:.71;fill:#000"/><circle cx="159.79" cy="179.03" r="1.95" clip-path="url(#cpNDEuMDZ8NDk4LjUyfDM0Ni4yOHw1LjQ4)" style="stroke-width:.71;fill:#000"/><circle cx="159.79" cy="210.61" r="1.95" clip-path="url(#cpNDEuMDZ8NDk4LjUyfDM0Ni4yOHw1LjQ4)" style="stroke-width:.71;fill:#000"/><circle cx="159.79" cy="212.68" r="1.95" clip-path="url(#cpNDEuMDZ8NDk4LjUyfDM0Ni4yOHw1LjQ4)" style="stroke-width:.71;fill:#000"/><circle cx="161.3" cy="190.98" r="1.95" clip-path="url(#cpNDEuMDZ8NDk4LjUyfDM0Ni4yOHw1LjQ4)" style="stroke-width:.71;fill:#000"/><circle cx="161.3" cy="163.39" r="1.95" clip-path="url(#cpNDEuMDZ8NDk4LjUyfDM0Ni4yOHw1LjQ4)" style="stroke-width:.71;fill:#000"/><circle cx="162.81" cy="163.39" r="1.95" clip-path="url(#cpNDEuMDZ8NDk4LjUyfDM0Ni4yOHw1LjQ4)" style="stroke-width:.71;fill:#000"/><circle cx="162.81" cy="206.63" r="1.95" clip-path="url(#cpNDEuMDZ8NDk4LjUyfDM0Ni4yOHw1LjQ4)" style="stroke-width:.71;fill:#000"/><circle cx="164.31" cy="194.97" r="1.95" clip-path="url(#cpNDEuMDZ8NDk4LjUyfDM0Ni4yOHw1LjQ4)" style="stroke-width:.71;fill:#000"/><circle cx="164.31" cy="171.21" r="1.95" clip-path="url(#cpNDEuMDZ8NDk4LjUyfDM0Ni4yOHw1LjQ4)" style="stroke-width:.71;fill:#000"/><circle cx="165.82" cy="163.39" r="1.95" clip-path="url(#cpNDEuMDZ8NDk4LjUyfDM0Ni4yOHw1LjQ4)" style="stroke-width:.71;fill:#000"/><circle cx="165.82" cy="206.63" r="1.95" clip-path="url(#cpNDEuMDZ8NDk4LjUyfDM0Ni4yOHw1LjQ4)" style="stroke-width:.71;fill:#000"/><circle cx="165.82" cy="222.71" r="1.95" clip-path="url(#cpNDEuMDZ8NDk4LjUyfDM0Ni4yOHw1LjQ4)" style="stroke-width:.71;fill:#000"/><circle cx="167.33" cy="139.63" r="1.95" clip-path="url(#cpNDEuMDZ8NDk4LjUyfDM0Ni4yOHw1LjQ4)" style="stroke-width:.71;fill:#000"/><circle cx="167.33" cy="250.31" r="1.95" clip-path="url(#cpNDEuMDZ8NDk4LjUyfDM0Ni4yOHw1LjQ4)" style="stroke-width:.71;fill:#000"/><circle cx="168.83" cy="218.73" r="1.95" clip-path="url(#cpNDEuMDZ8NDk4LjUyfDM0Ni4yOHw1LjQ4)" style="stroke-width:.71;fill:#000"/><circle cx="170.34" cy="236.44" r="1.95" clip-path="url(#cpNDEuMDZ8NDk4LjUyfDM0Ni4yOHw1LjQ4)" style="stroke-width:.71;fill:#000"/><circle cx="170.34" cy="266.1" r="1.95" clip-path="url(#cpNDEuMDZ8NDk4LjUyfDM0Ni4yOHw1LjQ4)" style="stroke-width:.71;fill:#000"/><circle cx="170.34" cy="246.33" r="1.95" clip-path="url(#cpNDEuMDZ8NDk4LjUyfDM0Ni4yOHw1LjQ4)" style="stroke-width:.71;fill:#000"/><circle cx="176.37" cy="187" r="1.95" clip-path="url(#cpNDEuMDZ8NDk4LjUyfDM0Ni4yOHw1LjQ4)" style="stroke-width:.71;fill:#000"/><circle cx="176.37" cy="257.99" r="1.95" clip-path="url(#cpNDEuMDZ8NDk4LjUyfDM0Ni4yOHw1LjQ4)" style="stroke-width:.71;fill:#000"/><circle cx="176.37" cy="313.33" r="1.95" clip-path="url(#cpNDEuMDZ8NDk4LjUyfDM0Ni4yOHw1LjQ4)" style="stroke-width:.71;fill:#000"/><circle cx="176.37" cy="282.04" r="1.95" clip-path="url(#cpNDEuMDZ8NDk4LjUyfDM0Ni4yOHw1LjQ4)" style="stroke-width:.71;fill:#000"/><circle cx="177.87" cy="277.91" r="1.95" clip-path="url(#cpNDEuMDZ8NDk4LjUyfDM0Ni4yOHw1LjQ4)" style="stroke-width:.71;fill:#000"/><circle cx="177.87" cy="285.73" r="1.95" clip-path="url(#cpNDEuMDZ8NDk4LjUyfDM0Ni4yOHw1LjQ4)" style="stroke-width:.71;fill:#000"/><circle cx="183.9" cy="297.69" r="1.95" clip-path="url(#cpNDEuMDZ8NDk4LjUyfDM0Ni4yOHw1LjQ4)" style="stroke-width:.71;fill:#000"/><circle cx="183.9" cy="206.63" r="1.95" clip-path="url(#cpNDEuMDZ8NDk4LjUyfDM0Ni4yOHw1LjQ4)" style="stroke-width:.71;fill:#000"/><circle cx="188.42" cy="313.33" r="1.95" clip-path="url(#cpNDEuMDZ8NDk4LjUyfDM0Ni4yOHw1LjQ4)" style="stroke-width:.71;fill:#000"/><circle cx="189.93" cy="257.99" r="1.95" clip-path="url(#cpNDEuMDZ8NDk4LjUyfDM0Ni4yOHw1LjQ4)" style="stroke-width:.71;fill:#000"/><circle cx="189.93" cy="238.36" r="1.95" clip-path="url(#cpNDEuMDZ8NDk4LjUyfDM0Ni4yOHw1LjQ4)" style="stroke-width:.71;fill:#000"/><circle cx="191.44" cy="319.38" r="1.95" clip-path="url(#cpNDEuMDZ8NDk4LjUyfDM0Ni4yOHw1LjQ4)" style="stroke-width:.71;fill:#000"/><circle cx="195.96" cy="313.33" r="1.95" clip-path="url(#cpNDEuMDZ8NDk4LjUyfDM0Ni4yOHw1LjQ4)" style="stroke-width:.71;fill:#000"/><circle cx="197.46" cy="305.66" r="1.95" clip-path="url(#cpNDEuMDZ8NDk4LjUyfDM0Ni4yOHw1LjQ4)" style="stroke-width:.71;fill:#000"/><circle cx="203.49" cy="329.42" r="1.95" clip-path="url(#cpNDEuMDZ8NDk4LjUyfDM0Ni4yOHw1LjQ4)" style="stroke-width:.71;fill:#000"/><circle cx="205" cy="282.04" r="1.95" clip-path="url(#cpNDEuMDZ8NDk4LjUyfDM0Ni4yOHw1LjQ4)" style="stroke-width:.71;fill:#000"/><circle cx="208.01" cy="291.64" r="1.95" clip-path="url(#cpNDEuMDZ8NDk4LjUyfDM0Ni4yOHw1LjQ4)" style="stroke-width:.71;fill:#000"/><circle cx="209.52" cy="313.33" r="1.95" clip-path="url(#cpNDEuMDZ8NDk4LjUyfDM0Ni4yOHw1LjQ4)" style="stroke-width:.71;fill:#000"/><circle cx="218.56" cy="313.33" r="1.95" clip-path="url(#cpNDEuMDZ8NDk4LjUyfDM0Ni4yOHw1LjQ4)" style="stroke-width:.71;fill:#000"/><circle cx="220.06" cy="321.3" r="1.95" clip-path="url(#cpNDEuMDZ8NDk4LjUyfDM0Ni4yOHw1LjQ4)" style="stroke-width:.71;fill:#000"/><circle cx="224.59" cy="297.69" r="1.95" clip-path="url(#cpNDEuMDZ8NDk4LjUyfDM0Ni4yOHw1LjQ4)" style="stroke-width:.71;fill:#000"/><circle cx="226.09" cy="272.01" r="1.95" clip-path="url(#cpNDEuMDZ8NDk4LjUyfDM0Ni4yOHw1LjQ4)" style="stroke-width:.71;fill:#000"/><circle cx="226.09" cy="252.38" r="1.95" clip-path="url(#cpNDEuMDZ8NDk4LjUyfDM0Ni4yOHw1LjQ4)" style="stroke-width:.71;fill:#000"/><circle cx="229.11" cy="210.61" r="1.95" clip-path="url(#cpNDEuMDZ8NDk4LjUyfDM0Ni4yOHw1LjQ4)" style="stroke-width:.71;fill:#000"/><circle cx="232.12" cy="226.7" r="1.95" clip-path="url(#cpNDEuMDZ8NDk4LjUyfDM0Ni4yOHw1LjQ4)" style="stroke-width:.71;fill:#000"/><circle cx="232.12" cy="216.66" r="1.95" clip-path="url(#cpNDEuMDZ8NDk4LjUyfDM0Ni4yOHw1LjQ4)" style="stroke-width:.71;fill:#000"/><circle cx="235.13" cy="238.36" r="1.95" clip-path="url(#cpNDEuMDZ8NDk4LjUyfDM0Ni4yOHw1LjQ4)" style="stroke-width:.71;fill:#000"/><circle cx="235.13" cy="197.04" r="1.95" clip-path="url(#cpNDEuMDZ8NDk4LjUyfDM0Ni4yOHw1LjQ4)" style="stroke-width:.71;fill:#000"/><circle cx="236.64" cy="171.21" r="1.95" clip-path="url(#cpNDEuMDZ8NDk4LjUyfDM0Ni4yOHw1LjQ4)" style="stroke-width:.71;fill:#000"/><circle cx="239.65" cy="139.63" r="1.95" clip-path="url(#cpNDEuMDZ8NDk4LjUyfDM0Ni4yOHw1LjQ4)" style="stroke-width:.71;fill:#000"/><circle cx="241.16" cy="289.72" r="1.95" clip-path="url(#cpNDEuMDZ8NDk4LjUyfDM0Ni4yOHw1LjQ4)" style="stroke-width:.71;fill:#000"/><circle cx="241.16" cy="163.39" r="1.95" clip-path="url(#cpNDEuMDZ8NDk4LjUyfDM0Ni4yOHw1LjQ4)" style="stroke-width:.71;fill:#000"/><circle cx="242.67" cy="228.47" r="1.95" clip-path="url(#cpNDEuMDZ8NDk4LjUyfDM0Ni4yOHw1LjQ4)" style="stroke-width:.71;fill:#000"/><circle cx="247.19" cy="155.27" r="1.95" clip-path="url(#cpNDEuMDZ8NDk4LjUyfDM0Ni4yOHw1LjQ4)" style="stroke-width:.71;fill:#000"/><circle cx="248.69" cy="198.95" r="1.95" clip-path="url(#cpNDEuMDZ8NDk4LjUyfDM0Ni4yOHw1LjQ4)" style="stroke-width:.71;fill:#000"/><circle cx="248.69" cy="167.37" r="1.95" clip-path="url(#cpNDEuMDZ8NDk4LjUyfDM0Ni4yOHw1LjQ4)" style="stroke-width:.71;fill:#000"/><circle cx="248.69" cy="117.64" r="1.95" clip-path="url(#cpNDEuMDZ8NDk4LjUyfDM0Ni4yOHw1LjQ4)" style="stroke-width:.71;fill:#000"/><circle cx="251.71" cy="125.75" r="1.95" clip-path="url(#cpNDEuMDZ8NDk4LjUyfDM0Ni4yOHw1LjQ4)" style="stroke-width:.71;fill:#000"/><circle cx="256.23" cy="113.95" r="1.95" clip-path="url(#cpNDEuMDZ8NDk4LjUyfDM0Ni4yOHw1LjQ4)" style="stroke-width:.71;fill:#000"/><circle cx="257.73" cy="163.39" r="1.95" clip-path="url(#cpNDEuMDZ8NDk4LjUyfDM0Ni4yOHw1LjQ4)" style="stroke-width:.71;fill:#000"/><circle cx="257.73" cy="76.31" r="1.95" clip-path="url(#cpNDEuMDZ8NDk4LjUyfDM0Ni4yOHw1LjQ4)" style="stroke-width:.71;fill:#000"/><circle cx="259.24" cy="62.44" r="1.95" clip-path="url(#cpNDEuMDZ8NDk4LjUyfDM0Ni4yOHw1LjQ4)" style="stroke-width:.71;fill:#000"/><circle cx="265.27" cy="157.34" r="1.95" clip-path="url(#cpNDEuMDZ8NDk4LjUyfDM0Ni4yOHw1LjQ4)" style="stroke-width:.71;fill:#000"/><circle cx="271.3" cy="78.23" r="1.95" clip-path="url(#cpNDEuMDZ8NDk4LjUyfDM0Ni4yOHw1LjQ4)" style="stroke-width:.71;fill:#000"/><circle cx="277.32" cy="20.97" r="1.95" clip-path="url(#cpNDEuMDZ8NDk4LjUyfDM0Ni4yOHw1LjQ4)" style="stroke-width:.71;fill:#000"/><circle cx="278.83" cy="119.7" r="1.95" clip-path="url(#cpNDEuMDZ8NDk4LjUyfDM0Ni4yOHw1LjQ4)" style="stroke-width:.71;fill:#000"/><circle cx="284.86" cy="50.63" r="1.95" clip-path="url(#cpNDEuMDZ8NDk4LjUyfDM0Ni4yOHw1LjQ4)" style="stroke-width:.71;fill:#000"/><circle cx="284.86" cy="60.52" r="1.95" clip-path="url(#cpNDEuMDZ8NDk4LjUyfDM0Ni4yOHw1LjQ4)" style="stroke-width:.71;fill:#000"/><circle cx="290.88" cy="62.44" r="1.95" clip-path="url(#cpNDEuMDZ8NDk4LjUyfDM0Ni4yOHw1LjQ4)" style="stroke-width:.71;fill:#000"/><circle cx="295.4" cy="108.04" r="1.95" clip-path="url(#cpNDEuMDZ8NDk4LjUyfDM0Ni4yOHw1LjQ4)" style="stroke-width:.71;fill:#000"/><circle cx="298.42" cy="64.36" r="1.95" clip-path="url(#cpNDEuMDZ8NDk4LjUyfDM0Ni4yOHw1LjQ4)" style="stroke-width:.71;fill:#000"/><circle cx="302.94" cy="129.74" r="1.95" clip-path="url(#cpNDEuMDZ8NDk4LjUyfDM0Ni4yOHw1LjQ4)" style="stroke-width:.71;fill:#000"/><circle cx="305.95" cy="20.97" r="1.95" clip-path="url(#cpNDEuMDZ8NDk4LjUyfDM0Ni4yOHw1LjQ4)" style="stroke-width:.71;fill:#000"/><circle cx="308.97" cy="155.27" r="1.95" clip-path="url(#cpNDEuMDZ8NDk4LjUyfDM0Ni4yOHw1LjQ4)" style="stroke-width:.71;fill:#000"/><circle cx="308.97" cy="212.68" r="1.95" clip-path="url(#cpNDEuMDZ8NDk4LjUyfDM0Ni4yOHw1LjQ4)" style="stroke-width:.71;fill:#000"/><circle cx="310.47" cy="28.94" r="1.95" clip-path="url(#cpNDEuMDZ8NDk4LjUyfDM0Ni4yOHw1LjQ4)" style="stroke-width:.71;fill:#000"/><circle cx="311.98" cy="80.3" r="1.95" clip-path="url(#cpNDEuMDZ8NDk4LjUyfDM0Ni4yOHw1LjQ4)" style="stroke-width:.71;fill:#000"/><circle cx="311.98" cy="84.28" r="1.95" clip-path="url(#cpNDEuMDZ8NDk4LjUyfDM0Ni4yOHw1LjQ4)" style="stroke-width:.71;fill:#000"/><circle cx="316.5" cy="187" r="1.95" clip-path="url(#cpNDEuMDZ8NDk4LjUyfDM0Ni4yOHw1LjQ4)" style="stroke-width:.71;fill:#000"/><circle cx="316.5" cy="98.01" r="1.95" clip-path="url(#cpNDEuMDZ8NDk4LjUyfDM0Ni4yOHw1LjQ4)" style="stroke-width:.71;fill:#000"/><circle cx="330.06" cy="62.44" r="1.95" clip-path="url(#cpNDEuMDZ8NDk4LjUyfDM0Ni4yOHw1LjQ4)" style="stroke-width:.71;fill:#000"/><circle cx="330.06" cy="115.87" r="1.95" clip-path="url(#cpNDEuMDZ8NDk4LjUyfDM0Ni4yOHw1LjQ4)" style="stroke-width:.71;fill:#000"/><circle cx="339.1" cy="123.69" r="1.95" clip-path="url(#cpNDEuMDZ8NDk4LjUyfDM0Ni4yOHw1LjQ4)" style="stroke-width:.71;fill:#000"/><circle cx="340.61" cy="133.58" r="1.95" clip-path="url(#cpNDEuMDZ8NDk4LjUyfDM0Ni4yOHw1LjQ4)" style="stroke-width:.71;fill:#000"/><circle cx="345.13" cy="163.39" r="1.95" clip-path="url(#cpNDEuMDZ8NDk4LjUyfDM0Ni4yOHw1LjQ4)" style="stroke-width:.71;fill:#000"/><circle cx="348.14" cy="151.29" r="1.95" clip-path="url(#cpNDEuMDZ8NDk4LjUyfDM0Ni4yOHw1LjQ4)" style="stroke-width:.71;fill:#000"/><circle cx="357.18" cy="86.2" r="1.95" clip-path="url(#cpNDEuMDZ8NDk4LjUyfDM0Ni4yOHw1LjQ4)" style="stroke-width:.71;fill:#000"/><circle cx="357.18" cy="147.45" r="1.95" clip-path="url(#cpNDEuMDZ8NDk4LjUyfDM0Ni4yOHw1LjQ4)" style="stroke-width:.71;fill:#000"/><circle cx="363.21" cy="88.27" r="1.95" clip-path="url(#cpNDEuMDZ8NDk4LjUyfDM0Ni4yOHw1LjQ4)" style="stroke-width:.71;fill:#000"/><circle cx="366.22" cy="131.66" r="1.95" clip-path="url(#cpNDEuMDZ8NDk4LjUyfDM0Ni4yOHw1LjQ4)" style="stroke-width:.71;fill:#000"/><circle cx="366.22" cy="147.45" r="1.95" clip-path="url(#cpNDEuMDZ8NDk4LjUyfDM0Ni4yOHw1LjQ4)" style="stroke-width:.71;fill:#000"/><circle cx="367.73" cy="109.96" r="1.95" clip-path="url(#cpNDEuMDZ8NDk4LjUyfDM0Ni4yOHw1LjQ4)" style="stroke-width:.71;fill:#000"/><circle cx="375.26" cy="133.58" r="1.95" clip-path="url(#cpNDEuMDZ8NDk4LjUyfDM0Ni4yOHw1LjQ4)" style="stroke-width:.71;fill:#000"/><circle cx="378.28" cy="131.66" r="1.95" clip-path="url(#cpNDEuMDZ8NDk4LjUyfDM0Ni4yOHw1LjQ4)" style="stroke-width:.71;fill:#000"/><circle cx="382.8" cy="115.87" r="1.95" clip-path="url(#cpNDEuMDZ8NDk4LjUyfDM0Ni4yOHw1LjQ4)" style="stroke-width:.71;fill:#000"/><circle cx="394.85" cy="115.87" r="1.95" clip-path="url(#cpNDEuMDZ8NDk4LjUyfDM0Ni4yOHw1LjQ4)" style="stroke-width:.71;fill:#000"/><circle cx="403.89" cy="171.21" r="1.95" clip-path="url(#cpNDEuMDZ8NDk4LjUyfDM0Ni4yOHw1LjQ4)" style="stroke-width:.71;fill:#000"/><circle cx="403.89" cy="153.35" r="1.95" clip-path="url(#cpNDEuMDZ8NDk4LjUyfDM0Ni4yOHw1LjQ4)" style="stroke-width:.71;fill:#000"/><circle cx="411.43" cy="151.29" r="1.95" clip-path="url(#cpNDEuMDZ8NDk4LjUyfDM0Ni4yOHw1LjQ4)" style="stroke-width:.71;fill:#000"/><circle cx="424.99" cy="131.66" r="1.95" clip-path="url(#cpNDEuMDZ8NDk4LjUyfDM0Ni4yOHw1LjQ4)" style="stroke-width:.71;fill:#000"/><circle cx="435.54" cy="115.87" r="1.95" clip-path="url(#cpNDEuMDZ8NDk4LjUyfDM0Ni4yOHw1LjQ4)" style="stroke-width:.71;fill:#000"/><circle cx="444.58" cy="153.35" r="1.95" clip-path="url(#cpNDEuMDZ8NDk4LjUyfDM0Ni4yOHw1LjQ4)" style="stroke-width:.71;fill:#000"/><circle cx="458.14" cy="135.64" r="1.95" clip-path="url(#cpNDEuMDZ8NDk4LjUyfDM0Ni4yOHw1LjQ4)" style="stroke-width:.71;fill:#000"/><circle cx="458.14" cy="115.87" r="1.95" clip-path="url(#cpNDEuMDZ8NDk4LjUyfDM0Ni4yOHw1LjQ4)" style="stroke-width:.71;fill:#000"/><circle cx="461.15" cy="135.64" r="1.95" clip-path="url(#cpNDEuMDZ8NDk4LjUyfDM0Ni4yOHw1LjQ4)" style="stroke-width:.71;fill:#000"/><circle cx="477.73" cy="115.87" r="1.95" clip-path="url(#cpNDEuMDZ8NDk4LjUyfDM0Ni4yOHw1LjQ4)" style="stroke-width:.71;fill:#000"/><polygon points="61.85 100.16 67.12 106.22 72.38 109.84 77.64 111.56 82.91 112.14 88.17 112.53 93.44 112.89 98.7 113.34 103.97 113.61 109.23 113.61 114.49 113.08 119.76 112 125.02 110.67 130.29 109.83 135.55 110.79 140.82 114.7 146.08 123.1 151.34 135.88 156.61 153.61 161.87 174.17 167.14 196.83 172.4 218.65 177.66 238.27 182.93 254.12 188.19 267.24 193.46 276.97 198.72 283.41 203.99 286.22 209.25 284.18 214.51 277.5 219.78 264.43 225.04 246.18 230.31 223.18 235.57 199.12 240.84 173.71 246.1 148.9 251.36 124.74 256.63 103.17 261.89 84.65 267.16 70.6 272.42 61.62 277.69 57.79 282.95 58.99 288.21 62.94 293.48 68.92 298.74 75.36 304.01 81.46 309.27 86.78 314.54 91.26 319.8 94.99 325.06 98.17 330.33 100.94 335.59 103.37 340.86 105.52 346.12 107.39 351.38 109.04 356.65 110.48 361.91 111.75 367.18 112.87 372.44 113.87 377.71 114.75 382.97 115.52 388.23 116.17 393.5 116.71 398.76 117.13 404.03 117.42 409.29 117.56 414.56 117.57 419.82 117.42 425.08 117.13 430.35 116.69 435.61 116.12 440.88 115.4 446.14 114.56 451.41 113.6 456.67 112.52 461.93 111.35 467.2 110.07 472.46 108.72 477.73 107.29 477.73 166.34 472.46 164.36 467.2 162.45 461.93 160.63 456.67 158.89 451.41 157.25 446.14 155.7 440.88 154.26 435.61 152.92 430.35 151.69 425.08 150.56 419.82 149.53 414.56 148.58 409.29 147.7 404.03 146.88 398.76 146.1 393.5 145.33 388.23 144.56 382.97 143.78 377.71 142.97 372.44 142.1 367.18 141.17 361.91 140.17 356.65 139.06 351.38 137.81 346.12 136.38 340.86 134.72 335.59 132.79 330.33 130.55 325.06 127.95 319.8 124.94 314.54 121.5 309.27 117.67 304.01 113.49 298.74 109.18 293.48 104.87 288.21 101.5 282.95 99.67 277.69 101.07 272.42 105.83 267.16 114.57 261.89 126.7 256.63 142.09 251.36 161.39 246.1 183.66 240.84 208.45 235.57 233.66 230.31 260.2 225.04 285.87 219.78 308.64 214.51 323.21 209.25 330.56 203.99 330.79 198.72 326.02 193.46 317.04 188.19 304.55 182.93 288.98 177.66 269.67 172.4 247.36 167.14 222.5 161.87 199.63 156.61 180.87 151.34 167.89 146.08 159.77 140.82 155.64 135.55 153.29 130.29 152.24 125.02 151.73 119.76 151.84 114.49 152.43 109.23 153.38 103.97 154.53 98.7 155.56 93.44 156.44 88.17 156.92 82.91 157.2 77.64 157.49 72.38 158.79 67.12 161.91 61.85 167.43" clip-path="url(#cpNDEuMDZ8NDk4LjUyfDM0Ni4yOHw1LjQ4)" style="stroke-width:0;stroke:none;fill:#999;fill-opacity:.4"/><polyline points="61.85 100.16 67.12 106.22 72.38 109.84 77.64 111.56 82.91 112.14 88.17 112.53 93.44 112.89 98.7 113.34 103.97 113.61 109.23 113.61 114.49 113.08 119.76 112 125.02 110.67 130.29 109.83 135.55 110.79 140.82 114.7 146.08 123.1 151.34 135.88 156.61 153.61 161.87 174.17 167.14 196.83 172.4 218.65 177.66 238.27 182.93 254.12 188.19 267.24 193.46 276.97 198.72 283.41 203.99 286.22 209.25 284.18 214.51 277.5 219.78 264.43 225.04 246.18 230.31 223.18 235.57 199.12 240.84 173.71 246.1 148.9 251.36 124.74 256.63 103.17 261.89 84.65 267.16 70.6 272.42 61.62 277.69 57.79 282.95 58.99 288.21 62.94 293.48 68.92 298.74 75.36 304.01 81.46 309.27 86.78 314.54 91.26 319.8 94.99 325.06 98.17 330.33 100.94 335.59 103.37 340.86 105.52 346.12 107.39 351.38 109.04 356.65 110.48 361.91 111.75 367.18 112.87 372.44 113.87 377.71 114.75 382.97 115.52 388.23 116.17 393.5 116.71 398.76 117.13 404.03 117.42 409.29 117.56 414.56 117.57 419.82 117.42 425.08 117.13 430.35 116.69 435.61 116.12 440.88 115.4 446.14 114.56 451.41 113.6 456.67 112.52 461.93 111.35 467.2 110.07 472.46 108.72 477.73 107.29" clip-path="url(#cpNDEuMDZ8NDk4LjUyfDM0Ni4yOHw1LjQ4)" style="stroke-width:2.13;stroke:none"/><polyline points="477.73 166.34 472.46 164.36 467.2 162.45 461.93 160.63 456.67 158.89 451.41 157.25 446.14 155.7 440.88 154.26 435.61 152.92 430.35 151.69 425.08 150.56 419.82 149.53 414.56 148.58 409.29 147.7 404.03 146.88 398.76 146.1 393.5 145.33 388.23 144.56 382.97 143.78 377.71 142.97 372.44 142.1 367.18 141.17 361.91 140.17 356.65 139.06 351.38 137.81 346.12 136.38 340.86 134.72 335.59 132.79 330.33 130.55 325.06 127.95 319.8 124.94 314.54 121.5 309.27 117.67 304.01 113.49 298.74 109.18 293.48 104.87 288.21 101.5 282.95 99.67 277.69 101.07 272.42 105.83 267.16 114.57 261.89 126.7 256.63 142.09 251.36 161.39 246.1 183.66 240.84 208.45 235.57 233.66 230.31 260.2 225.04 285.87 219.78 308.64 214.51 323.21 209.25 330.56 203.99 330.79 198.72 326.02 193.46 317.04 188.19 304.55 182.93 288.98 177.66 269.67 172.4 247.36 167.14 222.5 161.87 199.63 156.61 180.87 151.34 167.89 146.08 159.77 140.82 155.64 135.55 153.29 130.29 152.24 125.02 151.73 119.76 151.84 114.49 152.43 109.23 153.38 103.97 154.53 98.7 155.56 93.44 156.44 88.17 156.92 82.91 157.2 77.64 157.49 72.38 158.79 67.12 161.91 61.85 167.43" clip-path="url(#cpNDEuMDZ8NDk4LjUyfDM0Ni4yOHw1LjQ4)" style="stroke-width:2.13;stroke:none"/><polyline points="61.85 133.8 67.12 134.07 72.38 134.31 77.64 134.52 82.91 134.67 88.17 134.73 93.44 134.66 98.7 134.45 103.97 134.07 109.23 133.5 114.49 132.76 119.76 131.92 125.02 131.2 130.29 131.04 135.55 132.04 140.82 135.17 146.08 141.44 151.34 151.88 156.61 167.24 161.87 186.9 167.14 209.67 172.4 233 177.66 253.97 182.93 271.55 188.19 285.9 193.46 297.01 198.72 304.72 203.99 308.5 209.25 307.37 214.51 300.35 219.78 286.53 225.04 266.02 230.31 241.69 235.57 216.39 240.84 191.08 246.1 166.28 251.36 143.06 256.63 122.63 261.89 105.67 267.16 92.58 272.42 83.72 277.69 79.43 282.95 79.33 288.21 82.22 293.48 86.9 298.74 92.27 304.01 97.47 309.27 102.22 314.54 106.38 319.8 109.96 325.06 113.06 330.33 115.74 335.59 118.08 340.86 120.12 346.12 121.89 351.38 123.42 356.65 124.77 361.91 125.96 367.18 127.02 372.44 127.99 377.71 128.86 382.97 129.65 388.23 130.37 393.5 131.02 398.76 131.61 404.03 132.15 409.29 132.63 414.56 133.07 419.82 133.47 425.08 133.85 430.35 134.19 435.61 134.52 440.88 134.83 446.14 135.13 451.41 135.42 456.67 135.71 461.93 135.99 467.2 136.26 472.46 136.54 477.73 136.81" clip-path="url(#cpNDEuMDZ8NDk4LjUyfDM0Ni4yOHw1LjQ4)" style="stroke-width:2.13;stroke:#36f;stroke-linecap:butt"/><defs><clipPath id="cpMC4wMHw1MDQuMDB8Mzc4LjAwfDAuMDA="><rect width="504" height="378" x="0" y="0"/></clipPath></defs><g clip-path="url(#cpMC4wMHw1MDQuMDB8Mzc4LjAwfDAuMDA=)"><text x="18.51" y="282.39" lengthAdjust="spacingAndGlyphs" textLength="17.61" style="font-size:8.8px;fill:#4d4d4d;font-family:Arial">-100</text></g><g clip-path="url(#cpMC4wMHw1MDQuMDB8Mzc4LjAwfDAuMDA=)"><text x="23.41" y="208.6" lengthAdjust="spacingAndGlyphs" textLength="12.72" style="font-size:8.8px;fill:#4d4d4d;font-family:Arial">-50</text></g><g clip-path="url(#cpMC4wMHw1MDQuMDB8Mzc4LjAwfDAuMDA=)"><text x="31.23" y="134.81" lengthAdjust="spacingAndGlyphs" textLength="4.89" style="font-size:8.8px;fill:#4d4d4d;font-family:Arial">0</text></g><g clip-path="url(#cpMC4wMHw1MDQuMDB8Mzc4LjAwfDAuMDA=)"><text x="26.34" y="61.02" lengthAdjust="spacingAndGlyphs" textLength="9.79" style="font-size:8.8px;fill:#4d4d4d;font-family:Arial">50</text></g><polyline points="38.32 279.24 41.06 279.24" clip-path="url(#cpMC4wMHw1MDQuMDB8Mzc4LjAwfDAuMDA=)" style="stroke-width:1.07;stroke:#333;stroke-linecap:butt"/><polyline points="38.32 205.45 41.06 205.45" clip-path="url(#cpMC4wMHw1MDQuMDB8Mzc4LjAwfDAuMDA=)" style="stroke-width:1.07;stroke:#333;stroke-linecap:butt"/><polyline points="38.32 131.66 41.06 131.66" clip-path="url(#cpMC4wMHw1MDQuMDB8Mzc4LjAwfDAuMDA=)" style="stroke-width:1.07;stroke:#333;stroke-linecap:butt"/><polyline points="38.32 57.87 41.06 57.87" clip-path="url(#cpMC4wMHw1MDQuMDB8Mzc4LjAwfDAuMDA=)" style="stroke-width:1.07;stroke:#333;stroke-linecap:butt"/><polyline points="43.77 349.02 43.77 346.28" clip-path="url(#cpMC4wMHw1MDQuMDB8Mzc4LjAwfDAuMDA=)" style="stroke-width:1.07;stroke:#333;stroke-linecap:butt"/><polyline points="194.45 349.02 194.45 346.28" clip-path="url(#cpMC4wMHw1MDQuMDB8Mzc4LjAwfDAuMDA=)" style="stroke-width:1.07;stroke:#333;stroke-linecap:butt"/><polyline points="345.13 349.02 345.13 346.28" clip-path="url(#cpMC4wMHw1MDQuMDB8Mzc4LjAwfDAuMDA=)" style="stroke-width:1.07;stroke:#333;stroke-linecap:butt"/><polyline points="495.81 349.02 495.81 346.28" clip-path="url(#cpMC4wMHw1MDQuMDB8Mzc4LjAwfDAuMDA=)" style="stroke-width:1.07;stroke:#333;stroke-linecap:butt"/><g clip-path="url(#cpMC4wMHw1MDQuMDB8Mzc4LjAwfDAuMDA=)"><text x="41.32" y="357.51" lengthAdjust="spacingAndGlyphs" textLength="4.89" style="font-size:8.8px;fill:#4d4d4d;font-family:Arial">0</text></g><g clip-path="url(#cpMC4wMHw1MDQuMDB8Mzc4LjAwfDAuMDA=)"><text x="189.56" y="357.51" lengthAdjust="spacingAndGlyphs" textLength="9.79" style="font-size:8.8px;fill:#4d4d4d;font-family:Arial">20</text></g><g clip-path="url(#cpMC4wMHw1MDQuMDB8Mzc4LjAwfDAuMDA=)"><text x="340.23" y="357.51" lengthAdjust="spacingAndGlyphs" textLength="9.79" style="font-size:8.8px;fill:#4d4d4d;font-family:Arial">40</text></g><g clip-path="url(#cpMC4wMHw1MDQuMDB8Mzc4LjAwfDAuMDA=)"><text x="490.91" y="357.51" lengthAdjust="spacingAndGlyphs" textLength="9.79" style="font-size:8.8px;fill:#4d4d4d;font-family:Arial">60</text></g><g clip-path="url(#cpMC4wMHw1MDQuMDB8Mzc4LjAwfDAuMDA=)"><text x="256.65" y="370.1" lengthAdjust="spacingAndGlyphs" textLength="26.28" style="font-size:11px;font-family:Arial">times</text></g><g clip-path="url(#cpMC4wMHw1MDQuMDB8Mzc4LjAwfDAuMDA=)"><text style="font-size:11px;font-family:Arial" lengthAdjust="spacingAndGlyphs" textLength="25.68" transform="translate(13.35,188.72) rotate(-90)">accel</text></g></svg>