<svg xmlns="http://www.w3.org/2000/svg" xmlns:xlink="http://www.w3.org/1999/xlink" viewBox="0 0 504 378"><defs><style type="text/css">circle,line,polyline,rect{fill:none;stroke:#000;stroke-linecap:round;stroke-linejoin:round;stroke-miterlimit:10}</style></defs><rect width="100%" height="100%" style="stroke:none;fill:none"/><rect width="504" height="378" x="0" y="0" style="stroke-width:1.07;stroke:none"/><defs><clipPath id="cpMTM1Ljg2fDQ5OC41MnwzNDAuNTJ8NS40OA=="><rect width="362.66" height="335.04" x="135.86" y="5.48"/></clipPath></defs><line x1="284.22" x2="284.22" y1="340.52" y2="5.48" clip-path="url(#cpMTM1Ljg2fDQ5OC41MnwzNDAuNTJ8NS40OA==)" style="stroke-width:1.07;stroke:#000;stroke-opacity:.25;stroke-dasharray:1.42,4.27;stroke-linecap:butt"/><line x1="135.86" x2="498.52" y1="20.71" y2="20.71" clip-path="url(#cpMTM1Ljg2fDQ5OC41MnwzNDAuNTJ8NS40OA==)" style="stroke-width:1.07;stroke:#000;stroke-opacity:.25;stroke-linecap:butt"/><polyline points="152.35 281.97 155.68 266.45 159.01 251.57 162.34 237.32 165.67 223.67 169 210.61 172.33 198.11 175.66 186.16 178.99 174.75 182.32 163.85 185.65 153.46 188.98 143.55 192.31 134.12 195.64 125.15 198.97 116.63 202.3 108.55 205.63 100.89 208.96 93.64 212.29 86.8 215.62 80.35 218.95 74.28 222.28 68.58 225.61 63.25 228.94 58.28 232.27 53.65 235.6 49.35 238.93 45.39 242.26 41.75 245.59 38.43 248.92 35.41 252.25 32.69 255.58 30.27 258.91 28.14 262.24 26.28 265.57 24.71 268.9 23.4 272.23 22.35 275.56 21.57 278.89 21.04 282.22 20.75 285.55 20.71 288.88 20.9 292.21 21.33 295.54 21.99 298.87 22.87 302.21 23.98 305.54 25.29 308.87 26.82 312.2 28.56 315.53 30.5 318.86 32.64 322.19 34.98 325.52 37.51 328.85 40.23 332.18 43.14 335.51 46.23 338.84 49.49 342.17 52.94 345.5 56.56 348.83 60.35 352.16 64.3 355.49 68.43 358.82 72.71 362.15 77.15 365.48 81.76 368.81 86.51 372.14 91.42 375.47 96.47 378.8 101.68 382.13 107.03 385.46 112.52 388.79 118.15 392.12 123.92 395.45 129.82 398.78 135.86 402.11 142.04 405.44 148.34 408.77 154.77 412.1 161.33 415.43 168.01 418.76 174.81 422.09 181.74 425.42 188.78 428.75 195.95 432.08 203.22 435.41 210.62 438.74 218.12 442.07 225.74 445.4 233.46 448.73 241.3 452.06 249.24 455.39 257.29 458.72 265.44 462.05 273.69 465.39 282.04 468.72 290.5 472.05 299.05 475.38 307.7 478.71 316.45 482.04 325.29" clip-path="url(#cpMTM1Ljg2fDQ5OC41MnwzNDAuNTJ8NS40OA==)" style="stroke-width:4.27;stroke:#f50;stroke-opacity:.75;stroke-linecap:butt"/><circle cx="284.22" cy="20.71" r="3.56" clip-path="url(#cpMTM1Ljg2fDQ5OC41MnwzNDAuNTJ8NS40OA==)" style="stroke-width:.71;stroke:#f50;fill:#f50"/><circle cx="284.22" cy="20.71" r="3.56" clip-path="url(#cpMTM1Ljg2fDQ5OC41MnwzNDAuNTJ8NS40OA==)" style="stroke-width:.71;stroke:#f50;fill:#f50"/><circle cx="284.22" cy="20.71" r="3.56" clip-path="url(#cpMTM1Ljg2fDQ5OC41MnwzNDAuNTJ8NS40OA==)" style="stroke-width:.71;stroke:#f50;fill:#f50"/><circle cx="284.22" cy="20.71" r="3.56" clip-path="url(#cpMTM1Ljg2fDQ5OC41MnwzNDAuNTJ8NS40OA==)" style="stroke-width:.71;stroke:#f50;fill:#f50"/><circle cx="284.22" cy="20.71" r="3.56" clip-path="url(#cpMTM1Ljg2fDQ5OC41MnwzNDAuNTJ8NS40OA==)" style="stroke-width:.71;stroke:#f50;fill:#f50"/><circle cx="284.22" cy="20.71" r="3.56" clip-path="url(#cpMTM1Ljg2fDQ5OC41MnwzNDAuNTJ8NS40OA==)" style="stroke-width:.71;stroke:#f50;fill:#f50"/><circle cx="284.22" cy="20.71" r="3.56" clip-path="url(#cpMTM1Ljg2fDQ5OC41MnwzNDAuNTJ8NS40OA==)" style="stroke-width:.71;stroke:#f50;fill:#f50"/><circle cx="284.22" cy="20.71" r="3.56" clip-path="url(#cpMTM1Ljg2fDQ5OC41MnwzNDAuNTJ8NS40OA==)" style="stroke-width:.71;stroke:#f50;fill:#f50"/><circle cx="284.22" cy="20.71" r="3.56" clip-path="url(#cpMTM1Ljg2fDQ5OC41MnwzNDAuNTJ8NS40OA==)" style="stroke-width:.71;stroke:#f50;fill:#f50"/><circle cx="284.22" cy="20.71" r="3.56" clip-path="url(#cpMTM1Ljg2fDQ5OC41MnwzNDAuNTJ8NS40OA==)" style="stroke-width:.71;stroke:#f50;fill:#f50"/><circle cx="284.22" cy="20.71" r="3.56" clip-path="url(#cpMTM1Ljg2fDQ5OC41MnwzNDAuNTJ8NS40OA==)" style="stroke-width:.71;stroke:#f50;fill:#f50"/><circle cx="284.22" cy="20.71" r="3.56" clip-path="url(#cpMTM1Ljg2fDQ5OC41MnwzNDAuNTJ8NS40OA==)" style="stroke-width:.71;stroke:#f50;fill:#f50"/><circle cx="284.22" cy="20.71" r="3.56" clip-path="url(#cpMTM1Ljg2fDQ5OC41MnwzNDAuNTJ8NS40OA==)" style="stroke-width:.71;stroke:#f50;fill:#f50"/><circle cx="284.22" cy="20.71" r="3.56" clip-path="url(#cpMTM1Ljg2fDQ5OC41MnwzNDAuNTJ8NS40OA==)" style="stroke-width:.71;stroke:#f50;fill:#f50"/><circle cx="284.22" cy="20.71" r="3.56" clip-path="url(#cpMTM1Ljg2fDQ5OC41MnwzNDAuNTJ8NS40OA==)" style="stroke-width:.71;stroke:#f50;fill:#f50"/><circle cx="284.22" cy="20.71" r="3.56" clip-path="url(#cpMTM1Ljg2fDQ5OC41MnwzNDAuNTJ8NS40OA==)" style="stroke-width:.71;stroke:#f50;fill:#f50"/><circle cx="284.22" cy="20.71" r="3.56" clip-path="url(#cpMTM1Ljg2fDQ5OC41MnwzNDAuNTJ8NS40OA==)" style="stroke-width:.71;stroke:#f50;fill:#f50"/><circle cx="284.22" cy="20.71" r="3.56" clip-path="url(#cpMTM1Ljg2fDQ5OC41MnwzNDAuNTJ8NS40OA==)" style="stroke-width:.71;stroke:#f50;fill:#f50"/><circle cx="284.22" cy="20.71" r="3.56" clip-path="url(#cpMTM1Ljg2fDQ5OC41MnwzNDAuNTJ8NS40OA==)" style="stroke-width:.71;stroke:#f50;fill:#f50"/><circle cx="284.22" cy="20.71" r="3.56" clip-path="url(#cpMTM1Ljg2fDQ5OC41MnwzNDAuNTJ8NS40OA==)" style="stroke-width:.71;stroke:#f50;fill:#f50"/><circle cx="284.22" cy="20.71" r="3.56" clip-path="url(#cpMTM1Ljg2fDQ5OC41MnwzNDAuNTJ8NS40OA==)" style="stroke-width:.71;stroke:#f50;fill:#f50"/><circle cx="284.22" cy="20.71" r="3.56" clip-path="url(#cpMTM1Ljg2fDQ5OC41MnwzNDAuNTJ8NS40OA==)" style="stroke-width:.71;stroke:#f50;fill:#f50"/><circle cx="284.22" cy="20.71" r="3.56" clip-path="url(#cpMTM1Ljg2fDQ5OC41MnwzNDAuNTJ8NS40OA==)" style="stroke-width:.71;stroke:#f50;fill:#f50"/><circle cx="284.22" cy="20.71" r="3.56" clip-path="url(#cpMTM1Ljg2fDQ5OC41MnwzNDAuNTJ8NS40OA==)" style="stroke-width:.71;stroke:#f50;fill:#f50"/><circle cx="284.22" cy="20.71" r="3.56" clip-path="url(#cpMTM1Ljg2fDQ5OC41MnwzNDAuNTJ8NS40OA==)" style="stroke-width:.71;stroke:#f50;fill:#f50"/><circle cx="284.22" cy="20.71" r="3.56" clip-path="url(#cpMTM1Ljg2fDQ5OC41MnwzNDAuNTJ8NS40OA==)" style="stroke-width:.71;stroke:#f50;fill:#f50"/><circle cx="284.22" cy="20.71" r="3.56" clip-path="url(#cpMTM1Ljg2fDQ5OC41MnwzNDAuNTJ8NS40OA==)" style="stroke-width:.71;stroke:#f50;fill:#f50"/><circle cx="284.22" cy="20.71" r="3.56" clip-path="url(#cpMTM1Ljg2fDQ5OC41MnwzNDAuNTJ8NS40OA==)" style="stroke-width:.71;stroke:#f50;fill:#f50"/><circle cx="284.22" cy="20.71" r="3.56" clip-path="url(#cpMTM1Ljg2fDQ5OC41MnwzNDAuNTJ8NS40OA==)" style="stroke-width:.71;stroke:#f50;fill:#f50"/><circle cx="284.22" cy="20.71" r="3.56" clip-path="url(#cpMTM1Ljg2fDQ5OC41MnwzNDAuNTJ8NS40OA==)" style="stroke-width:.71;stroke:#f50;fill:#f50"/><circle cx="284.22" cy="20.71" r="3.56" clip-path="url(#cpMTM1Ljg2fDQ5OC41MnwzNDAuNTJ8NS40OA==)" style="stroke-width:.71;stroke:#f50;fill:#f50"/><circle cx="284.22" cy="20.71" r="3.56" clip-path="url(#cpMTM1Ljg2fDQ5OC41MnwzNDAuNTJ8NS40OA==)" style="stroke-width:.71;stroke:#f50;fill:#f50"/><circle cx="284.22" cy="20.71" r="3.56" clip-path="url(#cpMTM1Ljg2fDQ5OC41MnwzNDAuNTJ8NS40OA==)" style="stroke-width:.71;stroke:#f50;fill:#f50"/><circle cx="284.22" cy="20.71" r="3.56" clip-path="url(#cpMTM1Ljg2fDQ5OC41MnwzNDAuNTJ8NS40OA==)" style="stroke-width:.71;stroke:#f50;fill:#f50"/><circle cx="284.22" cy="20.71" r="3.56" clip-path="url(#cpMTM1Ljg2fDQ5OC41MnwzNDAuNTJ8NS40OA==)" style="stroke-width:.71;stroke:#f50;fill:#f50"/><circle cx="284.22" cy="20.71" r="3.56" clip-path="url(#cpMTM1Ljg2fDQ5OC41MnwzNDAuNTJ8NS40OA==)" style="stroke-width:.71;stroke:#f50;fill:#f50"/><circle cx="284.22" cy="20.71" r="3.56" clip-path="url(#cpMTM1Ljg2fDQ5OC41MnwzNDAuNTJ8NS40OA==)" style="stroke-width:.71;stroke:#f50;fill:#f50"/><circle cx="284.22" cy="20.71" r="3.56" clip-path="url(#cpMTM1Ljg2fDQ5OC41MnwzNDAuNTJ8NS40OA==)" style="stroke-width:.71;stroke:#f50;fill:#f50"/><circle cx="284.22" cy="20.71" r="3.56" clip-path="url(#cpMTM1Ljg2fDQ5OC41MnwzNDAuNTJ8NS40OA==)" style="stroke-width:.71;stroke:#f50;fill:#f50"/><circle cx="284.22" cy="20.71" r="3.56" clip-path="url(#cpMTM1Ljg2fDQ5OC41MnwzNDAuNTJ8NS40OA==)" style="stroke-width:.71;stroke:#f50;fill:#f50"/><circle cx="284.22" cy="20.71" r="3.56" clip-path="url(#cpMTM1Ljg2fDQ5OC41MnwzNDAuNTJ8NS40OA==)" style="stroke-width:.71;stroke:#f50;fill:#f50"/><circle cx="284.22" cy="20.71" r="3.56" clip-path="url(#cpMTM1Ljg2fDQ5OC41MnwzNDAuNTJ8NS40OA==)" style="stroke-width:.71;stroke:#f50;fill:#f50"/><circle cx="284.22" cy="20.71" r="3.56" clip-path="url(#cpMTM1Ljg2fDQ5OC41MnwzNDAuNTJ8NS40OA==)" style="stroke-width:.71;stroke:#f50;fill:#f50"/><circle cx="284.22" cy="20.71" r="3.56" clip-path="url(#cpMTM1Ljg2fDQ5OC41MnwzNDAuNTJ8NS40OA==)" style="stroke-width:.71;stroke:#f50;fill:#f50"/><circle cx="284.22" cy="20.71" r="3.56" clip-path="url(#cpMTM1Ljg2fDQ5OC41MnwzNDAuNTJ8NS40OA==)" style="stroke-width:.71;stroke:#f50;fill:#f50"/><circle cx="284.22" cy="20.71" r="3.56" clip-path="url(#cpMTM1Ljg2fDQ5OC41MnwzNDAuNTJ8NS40OA==)" style="stroke-width:.71;stroke:#f50;fill:#f50"/><circle cx="284.22" cy="20.71" r="3.56" clip-path="url(#cpMTM1Ljg2fDQ5OC41MnwzNDAuNTJ8NS40OA==)" style="stroke-width:.71;stroke:#f50;fill:#f50"/><circle cx="284.22" cy="20.71" r="3.56" clip-path="url(#cpMTM1Ljg2fDQ5OC41MnwzNDAuNTJ8NS40OA==)" style="stroke-width:.71;stroke:#f50;fill:#f50"/><circle cx="284.22" cy="20.71" r="3.56" clip-path="url(#cpMTM1Ljg2fDQ5OC41MnwzNDAuNTJ8NS40OA==)" style="stroke-width:.71;stroke:#f50;fill:#f50"/><circle cx="284.22" cy="20.71" r="3.56" clip-path="url(#cpMTM1Ljg2fDQ5OC41MnwzNDAuNTJ8NS40OA==)" style="stroke-width:.71;stroke:#f50;fill:#f50"/><circle cx="284.22" cy="20.71" r="3.56" clip-path="url(#cpMTM1Ljg2fDQ5OC41MnwzNDAuNTJ8NS40OA==)" style="stroke-width:.71;stroke:#f50;fill:#f50"/><circle cx="284.22" cy="20.71" r="3.56" clip-path="url(#cpMTM1Ljg2fDQ5OC41MnwzNDAuNTJ8NS40OA==)" style="stroke-width:.71;stroke:#f50;fill:#f50"/><circle cx="284.22" cy="20.71" r="3.56" clip-path="url(#cpMTM1Ljg2fDQ5OC41MnwzNDAuNTJ8NS40OA==)" style="stroke-width:.71;stroke:#f50;fill:#f50"/><circle cx="284.22" cy="20.71" r="3.56" clip-path="url(#cpMTM1Ljg2fDQ5OC41MnwzNDAuNTJ8NS40OA==)" style="stroke-width:.71;stroke:#f50;fill:#f50"/><circle cx="284.22" cy="20.71" r="3.56" clip-path="url(#cpMTM1Ljg2fDQ5OC41MnwzNDAuNTJ8NS40OA==)" style="stroke-width:.71;stroke:#f50;fill:#f50"/><circle cx="284.22" cy="20.71" r="3.56" clip-path="url(#cpMTM1Ljg2fDQ5OC41MnwzNDAuNTJ8NS40OA==)" style="stroke-width:.71;stroke:#f50;fill:#f50"/><circle cx="284.22" cy="20.71" r="3.56" clip-path="url(#cpMTM1Ljg2fDQ5OC41MnwzNDAuNTJ8NS40OA==)" style="stroke-width:.71;stroke:#f50;fill:#f50"/><circle cx="284.22" cy="20.71" r="3.56" clip-path="url(#cpMTM1Ljg2fDQ5OC41MnwzNDAuNTJ8NS40OA==)" style="stroke-width:.71;stroke:#f50;fill:#f50"/><circle cx="284.22" cy="20.71" r="3.56" clip-path="url(#cpMTM1Ljg2fDQ5OC41MnwzNDAuNTJ8NS40OA==)" style="stroke-width:.71;stroke:#f50;fill:#f50"/><circle cx="284.22" cy="20.71" r="3.56" clip-path="url(#cpMTM1Ljg2fDQ5OC41MnwzNDAuNTJ8NS40OA==)" style="stroke-width:.71;stroke:#f50;fill:#f50"/><circle cx="284.22" cy="20.71" r="3.56" clip-path="url(#cpMTM1Ljg2fDQ5OC41MnwzNDAuNTJ8NS40OA==)" style="stroke-width:.71;stroke:#f50;fill:#f50"/><circle cx="284.22" cy="20.71" r="3.56" clip-path="url(#cpMTM1Ljg2fDQ5OC41MnwzNDAuNTJ8NS40OA==)" style="stroke-width:.71;stroke:#f50;fill:#f50"/><circle cx="284.22" cy="20.71" r="3.56" clip-path="url(#cpMTM1Ljg2fDQ5OC41MnwzNDAuNTJ8NS40OA==)" style="stroke-width:.71;stroke:#f50;fill:#f50"/><circle cx="284.22" cy="20.71" r="3.56" clip-path="url(#cpMTM1Ljg2fDQ5OC41MnwzNDAuNTJ8NS40OA==)" style="stroke-width:.71;stroke:#f50;fill:#f50"/><circle cx="284.22" cy="20.71" r="3.56" clip-path="url(#cpMTM1Ljg2fDQ5OC41MnwzNDAuNTJ8NS40OA==)" style="stroke-width:.71;stroke:#f50;fill:#f50"/><circle cx="284.22" cy="20.71" r="3.56" clip-path="url(#cpMTM1Ljg2fDQ5OC41MnwzNDAuNTJ8NS40OA==)" style="stroke-width:.71;stroke:#f50;fill:#f50"/><circle cx="284.22" cy="20.71" r="3.56" clip-path="url(#cpMTM1Ljg2fDQ5OC41MnwzNDAuNTJ8NS40OA==)" style="stroke-width:.71;stroke:#f50;fill:#f50"/><circle cx="284.22" cy="20.71" r="3.56" clip-path="url(#cpMTM1Ljg2fDQ5OC41MnwzNDAuNTJ8NS40OA==)" style="stroke-width:.71;stroke:#f50;fill:#f50"/><circle cx="284.22" cy="20.71" r="3.56" clip-path="url(#cpMTM1Ljg2fDQ5OC41MnwzNDAuNTJ8NS40OA==)" style="stroke-width:.71;stroke:#f50;fill:#f50"/><circle cx="284.22" cy="20.71" r="3.56" clip-path="url(#cpMTM1Ljg2fDQ5OC41MnwzNDAuNTJ8NS40OA==)" style="stroke-width:.71;stroke:#f50;fill:#f50"/><circle cx="284.22" cy="20.71" r="3.56" clip-path="url(#cpMTM1Ljg2fDQ5OC41MnwzNDAuNTJ8NS40OA==)" style="stroke-width:.71;stroke:#f50;fill:#f50"/><circle cx="284.22" cy="20.71" r="3.56" clip-path="url(#cpMTM1Ljg2fDQ5OC41MnwzNDAuNTJ8NS40OA==)" style="stroke-width:.71;stroke:#f50;fill:#f50"/><circle cx="284.22" cy="20.71" r="3.56" clip-path="url(#cpMTM1Ljg2fDQ5OC41MnwzNDAuNTJ8NS40OA==)" style="stroke-width:.71;stroke:#f50;fill:#f50"/><circle cx="284.22" cy="20.71" r="3.56" clip-path="url(#cpMTM1Ljg2fDQ5OC41MnwzNDAuNTJ8NS40OA==)" style="stroke-width:.71;stroke:#f50;fill:#f50"/><circle cx="284.22" cy="20.71" r="3.56" clip-path="url(#cpMTM1Ljg2fDQ5OC41MnwzNDAuNTJ8NS40OA==)" style="stroke-width:.71;stroke:#f50;fill:#f50"/><circle cx="284.22" cy="20.71" r="3.56" clip-path="url(#cpMTM1Ljg2fDQ5OC41MnwzNDAuNTJ8NS40OA==)" style="stroke-width:.71;stroke:#f50;fill:#f50"/><circle cx="284.22" cy="20.71" r="3.56" clip-path="url(#cpMTM1Ljg2fDQ5OC41MnwzNDAuNTJ8NS40OA==)" style="stroke-width:.71;stroke:#f50;fill:#f50"/><circle cx="284.22" cy="20.71" r="3.56" clip-path="url(#cpMTM1Ljg2fDQ5OC41MnwzNDAuNTJ8NS40OA==)" style="stroke-width:.71;stroke:#f50;fill:#f50"/><circle cx="284.22" cy="20.71" r="3.56" clip-path="url(#cpMTM1Ljg2fDQ5OC41MnwzNDAuNTJ8NS40OA==)" style="stroke-width:.71;stroke:#f50;fill:#f50"/><circle cx="284.22" cy="20.71" r="3.56" clip-path="url(#cpMTM1Ljg2fDQ5OC41MnwzNDAuNTJ8NS40OA==)" style="stroke-width:.71;stroke:#f50;fill:#f50"/><circle cx="284.22" cy="20.71" r="3.56" clip-path="url(#cpMTM1Ljg2fDQ5OC41MnwzNDAuNTJ8NS40OA==)" style="stroke-width:.71;stroke:#f50;fill:#f50"/><circle cx="284.22" cy="20.71" r="3.56" clip-path="url(#cpMTM1Ljg2fDQ5OC41MnwzNDAuNTJ8NS40OA==)" style="stroke-width:.71;stroke:#f50;fill:#f50"/><circle cx="284.22" cy="20.71" r="3.56" clip-path="url(#cpMTM1Ljg2fDQ5OC41MnwzNDAuNTJ8NS40OA==)" style="stroke-width:.71;stroke:#f50;fill:#f50"/><circle cx="284.22" cy="20.71" r="3.56" clip-path="url(#cpMTM1Ljg2fDQ5OC41MnwzNDAuNTJ8NS40OA==)" style="stroke-width:.71;stroke:#f50;fill:#f50"/><circle cx="284.22" cy="20.71" r="3.56" clip-path="url(#cpMTM1Ljg2fDQ5OC41MnwzNDAuNTJ8NS40OA==)" style="stroke-width:.71;stroke:#f50;fill:#f50"/><circle cx="284.22" cy="20.71" r="3.56" clip-path="url(#cpMTM1Ljg2fDQ5OC41MnwzNDAuNTJ8NS40OA==)" style="stroke-width:.71;stroke:#f50;fill:#f50"/><circle cx="284.22" cy="20.71" r="3.56" clip-path="url(#cpMTM1Ljg2fDQ5OC41MnwzNDAuNTJ8NS40OA==)" style="stroke-width:.71;stroke:#f50;fill:#f50"/><circle cx="284.22" cy="20.71" r="3.56" clip-path="url(#cpMTM1Ljg2fDQ5OC41MnwzNDAuNTJ8NS40OA==)" style="stroke-width:.71;stroke:#f50;fill:#f50"/><circle cx="284.22" cy="20.71" r="3.56" clip-path="url(#cpMTM1Ljg2fDQ5OC41MnwzNDAuNTJ8NS40OA==)" style="stroke-width:.71;stroke:#f50;fill:#f50"/><circle cx="284.22" cy="20.71" r="3.56" clip-path="url(#cpMTM1Ljg2fDQ5OC41MnwzNDAuNTJ8NS40OA==)" style="stroke-width:.71;stroke:#f50;fill:#f50"/><circle cx="284.22" cy="20.71" r="3.56" clip-path="url(#cpMTM1Ljg2fDQ5OC41MnwzNDAuNTJ8NS40OA==)" style="stroke-width:.71;stroke:#f50;fill:#f50"/><circle cx="284.22" cy="20.71" r="3.56" clip-path="url(#cpMTM1Ljg2fDQ5OC41MnwzNDAuNTJ8NS40OA==)" style="stroke-width:.71;stroke:#f50;fill:#f50"/><circle cx="284.22" cy="20.71" r="3.56" clip-path="url(#cpMTM1Ljg2fDQ5OC41MnwzNDAuNTJ8NS40OA==)" style="stroke-width:.71;stroke:#f50;fill:#f50"/><circle cx="284.22" cy="20.71" r="3.56" clip-path="url(#cpMTM1Ljg2fDQ5OC41MnwzNDAuNTJ8NS40OA==)" style="stroke-width:.71;stroke:#f50;fill:#f50"/><circle cx="284.22" cy="20.71" r="3.56" clip-path="url(#cpMTM1Ljg2fDQ5OC41MnwzNDAuNTJ8NS40OA==)" style="stroke-width:.71;stroke:#f50;fill:#f50"/><circle cx="284.22" cy="20.71" r="3.56" clip-path="url(#cpMTM1Ljg2fDQ5OC41MnwzNDAuNTJ8NS40OA==)" style="stroke-width:.71;stroke:#f50;fill:#f50"/><circle cx="284.22" cy="20.71" r="3.56" clip-path="url(#cpMTM1Ljg2fDQ5OC41MnwzNDAuNTJ8NS40OA==)" style="stroke-width:.71;stroke:#f50;fill:#f50"/><circle cx="284.22" cy="20.71" r="3.56" clip-path="url(#cpMTM1Ljg2fDQ5OC41MnwzNDAuNTJ8NS40OA==)" style="stroke-width:.71;stroke:#f50;fill:#f50"/><circle cx="284.22" cy="20.71" r="3.56" clip-path="url(#cpMTM1Ljg2fDQ5OC41MnwzNDAuNTJ8NS40OA==)" style="stroke-width:.71;stroke:#f50;fill:#f50"/><circle cx="284.22" cy="20.71" r="3.56" clip-path="url(#cpMTM1Ljg2fDQ5OC41MnwzNDAuNTJ8NS40OA==)" style="stroke-width:.71;stroke:#f50;fill:#f50"/><defs><clipPath id="cpMC4wMHw1MDQuMDB8Mzc4LjAwfDAuMDA="><rect width="504" height="378" x="0" y="0"/></clipPath></defs><g clip-path="url(#cpMC4wMHw1MDQuMDB8Mzc4LjAwfDAuMDA=)"><text x="96.26" y="23.57" lengthAdjust="spacingAndGlyphs" textLength="34.67" style="font-size:8px;fill:#4d4d4d;font-family:Arial">Maximum</text></g><polyline points="152.35 343.26 152.35 340.52" clip-path="url(#cpMC4wMHw1MDQuMDB8Mzc4LjAwfDAuMDA=)" style="stroke-width:1.07;stroke:#333;stroke-linecap:butt"/><polyline points="218.28 343.26 218.28 340.52" clip-path="url(#cpMC4wMHw1MDQuMDB8Mzc4LjAwfDAuMDA=)" style="stroke-width:1.07;stroke:#333;stroke-linecap:butt"/><polyline points="284.22 343.26 284.22 340.52" clip-path="url(#cpMC4wMHw1MDQuMDB8Mzc4LjAwfDAuMDA=)" style="stroke-width:1.07;stroke:#333;stroke-linecap:butt"/><polyline points="350.16 343.26 350.16 340.52" clip-path="url(#cpMC4wMHw1MDQuMDB8Mzc4LjAwfDAuMDA=)" style="stroke-width:1.07;stroke:#333;stroke-linecap:butt"/><polyline points="416.1 343.26 416.1 340.52" clip-path="url(#cpMC4wMHw1MDQuMDB8Mzc4LjAwfDAuMDA=)" style="stroke-width:1.07;stroke:#333;stroke-linecap:butt"/><polyline points="482.04 343.26 482.04 340.52" clip-path="url(#cpMC4wMHw1MDQuMDB8Mzc4LjAwfDAuMDA=)" style="stroke-width:1.07;stroke:#333;stroke-linecap:butt"/><g clip-path="url(#cpMC4wMHw1MDQuMDB8Mzc4LjAwfDAuMDA=)"><text x="148.45" y="355.47" lengthAdjust="spacingAndGlyphs" textLength="7.79" style="font-size:14px;fill:#4d4d4d;font-family:Arial">3</text></g><g clip-path="url(#cpMC4wMHw1MDQuMDB8Mzc4LjAwfDAuMDA=)"><text x="214.39" y="355.47" lengthAdjust="spacingAndGlyphs" textLength="7.79" style="font-size:14px;fill:#4d4d4d;font-family:Arial">4</text></g><g clip-path="url(#cpMC4wMHw1MDQuMDB8Mzc4LjAwfDAuMDA=)"><text x="280.33" y="355.47" lengthAdjust="spacingAndGlyphs" textLength="7.79" style="font-size:14px;fill:#4d4d4d;font-family:Arial">5</text></g><g clip-path="url(#cpMC4wMHw1MDQuMDB8Mzc4LjAwfDAuMDA=)"><text x="346.27" y="355.47" lengthAdjust="spacingAndGlyphs" textLength="7.79" style="font-size:14px;fill:#4d4d4d;font-family:Arial">6</text></g><g clip-path="url(#cpMC4wMHw1MDQuMDB8Mzc4LjAwfDAuMDA=)"><text x="412.2" y="355.47" lengthAdjust="spacingAndGlyphs" textLength="7.79" style="font-size:14px;fill:#4d4d4d;font-family:Arial">7</text></g><g clip-path="url(#cpMC4wMHw1MDQuMDB8Mzc4LjAwfDAuMDA=)"><text x="478.14" y="355.47" lengthAdjust="spacingAndGlyphs" textLength="7.79" style="font-size:14px;fill:#4d4d4d;font-family:Arial">8</text></g><g clip-path="url(#cpMC4wMHw1MDQuMDB8Mzc4LjAwfDAuMDA=)"><text x="265.83" y="376.48" lengthAdjust="spacingAndGlyphs" textLength="102.71" style="font-size:12px;fill:#4d4d4d;font-family:Arial">Potential Estimates</text></g><g clip-path="url(#cpMC4wMHw1MDQuMDB8Mzc4LjAwfDAuMDA=)"><text x="5.48" y="177.29" lengthAdjust="spacingAndGlyphs" textLength="88.04" style="font-size:12px;fill:#4d4d4d;font-family:Arial">More Probable ↑</text></g></svg>