<svg xmlns="http://www.w3.org/2000/svg" xmlns:xlink="http://www.w3.org/1999/xlink" viewBox="0 0 504 378"><defs><style type="text/css">circle,line,polygon,polyline,rect{fill:none;stroke:#000;stroke-linecap:round;stroke-linejoin:round;stroke-miterlimit:10}</style></defs><rect width="100%" height="100%" style="stroke:none;fill:none"/><rect width="504" height="378" x="0" y="0" style="stroke-width:1.07;stroke:#fff;fill:#fff"/><defs><clipPath id="cpNS40OHwzMTkuNTJ8MTg5LjAwfDUuNDg="><rect width="314.04" height="183.52" x="5.48" y="5.48"/></clipPath></defs><rect width="314.04" height="183.52" x="5.48" y="5.48" clip-path="url(#cpNS40OHwzMTkuNTJ8MTg5LjAwfDUuNDg=)" style="stroke-width:1.07;stroke:#fff;fill:#fff"/><defs><clipPath id="cpMC4wMHw1MDQuMDB8Mzc4LjAwfDAuMDA="><rect width="504" height="378" x="0" y="0"/></clipPath></defs><defs><clipPath id="cpNDMuOTZ8MzE0LjA0fDE1Ny4wOXwxMC45Ng=="><rect width="270.08" height="146.13" x="43.96" y="10.96"/></clipPath></defs><rect width="270.08" height="146.13" x="43.96" y="10.96" clip-path="url(#cpNDMuOTZ8MzE0LjA0fDE1Ny4wOXwxMC45Ng==)" style="stroke-width:1.07;stroke:none;fill:#ebebeb"/><polyline points="43.96 124.3 314.04 124.3" clip-path="url(#cpNDMuOTZ8MzE0LjA0fDE1Ny4wOXwxMC45Ng==)" style="stroke-width:.53;stroke:#fff;stroke-linecap:butt"/><polyline points="43.96 91.17 314.04 91.17" clip-path="url(#cpNDMuOTZ8MzE0LjA0fDE1Ny4wOXwxMC45Ng==)" style="stroke-width:.53;stroke:#fff;stroke-linecap:butt"/><polyline points="43.96 58.03 314.04 58.03" clip-path="url(#cpNDMuOTZ8MzE0LjA0fDE1Ny4wOXwxMC45Ng==)" style="stroke-width:.53;stroke:#fff;stroke-linecap:butt"/><polyline points="43.96 24.89 314.04 24.89" clip-path="url(#cpNDMuOTZ8MzE0LjA0fDE1Ny4wOXwxMC45Ng==)" style="stroke-width:.53;stroke:#fff;stroke-linecap:butt"/><polyline points="78.18 157.09 78.18 10.96" clip-path="url(#cpNDMuOTZ8MzE0LjA0fDE1Ny4wOXwxMC45Ng==)" style="stroke-width:.53;stroke:#fff;stroke-linecap:butt"/><polyline points="130.42 157.09 130.42 10.96" clip-path="url(#cpNDMuOTZ8MzE0LjA0fDE1Ny4wOXwxMC45Ng==)" style="stroke-width:.53;stroke:#fff;stroke-linecap:butt"/><polyline points="182.66 157.09 182.66 10.96" clip-path="url(#cpNDMuOTZ8MzE0LjA0fDE1Ny4wOXwxMC45Ng==)" style="stroke-width:.53;stroke:#fff;stroke-linecap:butt"/><polyline points="234.9 157.09 234.9 10.96" clip-path="url(#cpNDMuOTZ8MzE0LjA0fDE1Ny4wOXwxMC45Ng==)" style="stroke-width:.53;stroke:#fff;stroke-linecap:butt"/><polyline points="287.14 157.09 287.14 10.96" clip-path="url(#cpNDMuOTZ8MzE0LjA0fDE1Ny4wOXwxMC45Ng==)" style="stroke-width:.53;stroke:#fff;stroke-linecap:butt"/><polyline points="43.96 140.87 314.04 140.87" clip-path="url(#cpNDMuOTZ8MzE0LjA0fDE1Ny4wOXwxMC45Ng==)" style="stroke-width:1.07;stroke:#fff;stroke-linecap:butt"/><polyline points="43.96 107.73 314.04 107.73" clip-path="url(#cpNDMuOTZ8MzE0LjA0fDE1Ny4wOXwxMC45Ng==)" style="stroke-width:1.07;stroke:#fff;stroke-linecap:butt"/><polyline points="43.96 74.6 314.04 74.6" clip-path="url(#cpNDMuOTZ8MzE0LjA0fDE1Ny4wOXwxMC45Ng==)" style="stroke-width:1.07;stroke:#fff;stroke-linecap:butt"/><polyline points="43.96 41.46 314.04 41.46" clip-path="url(#cpNDMuOTZ8MzE0LjA0fDE1Ny4wOXwxMC45Ng==)" style="stroke-width:1.07;stroke:#fff;stroke-linecap:butt"/><polyline points="52.06 157.09 52.06 10.96" clip-path="url(#cpNDMuOTZ8MzE0LjA0fDE1Ny4wOXwxMC45Ng==)" style="stroke-width:1.07;stroke:#fff;stroke-linecap:butt"/><polyline points="104.3 157.09 104.3 10.96" clip-path="url(#cpNDMuOTZ8MzE0LjA0fDE1Ny4wOXwxMC45Ng==)" style="stroke-width:1.07;stroke:#fff;stroke-linecap:butt"/><polyline points="156.54 157.09 156.54 10.96" clip-path="url(#cpNDMuOTZ8MzE0LjA0fDE1Ny4wOXwxMC45Ng==)" style="stroke-width:1.07;stroke:#fff;stroke-linecap:butt"/><polyline points="208.78 157.09 208.78 10.96" clip-path="url(#cpNDMuOTZ8MzE0LjA0fDE1Ny4wOXwxMC45Ng==)" style="stroke-width:1.07;stroke:#fff;stroke-linecap:butt"/><polyline points="261.02 157.09 261.02 10.96" clip-path="url(#cpNDMuOTZ8MzE0LjA0fDE1Ny4wOXwxMC45Ng==)" style="stroke-width:1.07;stroke:#fff;stroke-linecap:butt"/><polyline points="313.26 157.09 313.26 10.96" clip-path="url(#cpNDMuOTZ8MzE0LjA0fDE1Ny4wOXwxMC45Ng==)" style="stroke-width:1.07;stroke:#fff;stroke-linecap:butt"/><circle cx="166.99" cy="120.99" r="1.95" clip-path="url(#cpNDMuOTZ8MzE0LjA0fDE1Ny4wOXwxMC45Ng==)" style="stroke-width:.71;fill:#000"/><circle cx="166.99" cy="120.99" r="1.95" clip-path="url(#cpNDMuOTZ8MzE0LjA0fDE1Ny4wOXwxMC45Ng==)" style="stroke-width:.71;fill:#000"/><circle cx="185.79" cy="138.22" r="1.95" clip-path="url(#cpNDMuOTZ8MzE0LjA0fDE1Ny4wOXwxMC45Ng==)" style="stroke-width:.71;fill:#000"/><circle cx="171.16" cy="88.51" r="1.95" clip-path="url(#cpNDMuOTZ8MzE0LjA0fDE1Ny4wOXwxMC45Ng==)" style="stroke-width:.71;fill:#000"/><circle cx="142.95" cy="54.71" r="1.95" clip-path="url(#cpNDMuOTZ8MzE0LjA0fDE1Ny4wOXwxMC45Ng==)" style="stroke-width:.71;fill:#000"/><circle cx="136.69" cy="99.45" r="1.95" clip-path="url(#cpNDMuOTZ8MzE0LjA0fDE1Ny4wOXwxMC45Ng==)" style="stroke-width:.71;fill:#000"/><circle cx="96.98" cy="54.71" r="1.95" clip-path="url(#cpNDMuOTZ8MzE0LjA0fDE1Ny4wOXwxMC45Ng==)" style="stroke-width:.71;fill:#000"/><circle cx="202.51" cy="125.4" r="1.95" clip-path="url(#cpNDMuOTZ8MzE0LjA0fDE1Ny4wOXwxMC45Ng==)" style="stroke-width:.71;fill:#000"/><circle cx="185.79" cy="127.35" r="1.95" clip-path="url(#cpNDMuOTZ8MzE0LjA0fDE1Ny4wOXwxMC45Ng==)" style="stroke-width:.71;fill:#000"/><circle cx="148.18" cy="118.47" r="1.95" clip-path="url(#cpNDMuOTZ8MzE0LjA0fDE1Ny4wOXwxMC45Ng==)" style="stroke-width:.71;fill:#000"/><circle cx="133.55" cy="118.47" r="1.95" clip-path="url(#cpNDMuOTZ8MzE0LjA0fDE1Ny4wOXwxMC45Ng==)" style="stroke-width:.71;fill:#000"/><circle cx="118.92" cy="82.62" r="1.95" clip-path="url(#cpNDMuOTZ8MzE0LjA0fDE1Ny4wOXwxMC45Ng==)" style="stroke-width:.71;fill:#000"/><circle cx="128.33" cy="82.62" r="1.95" clip-path="url(#cpNDMuOTZ8MzE0LjA0fDE1Ny4wOXwxMC45Ng==)" style="stroke-width:.71;fill:#000"/><circle cx="106.39" cy="82.62" r="1.95" clip-path="url(#cpNDMuOTZ8MzE0LjA0fDE1Ny4wOXwxMC45Ng==)" style="stroke-width:.71;fill:#000"/><circle cx="56.24" cy="17.6" r="1.95" clip-path="url(#cpNDMuOTZ8MzE0LjA0fDE1Ny4wOXwxMC45Ng==)" style="stroke-width:.71;fill:#000"/><circle cx="56.24" cy="21.58" r="1.95" clip-path="url(#cpNDMuOTZ8MzE0LjA0fDE1Ny4wOXwxMC45Ng==)" style="stroke-width:.71;fill:#000"/><circle cx="101.16" cy="28.21" r="1.95" clip-path="url(#cpNDMuOTZ8MzE0LjA0fDE1Ny4wOXwxMC45Ng==)" style="stroke-width:.71;fill:#000"/><circle cx="286.09" cy="147.93" r="1.95" clip-path="url(#cpNDMuOTZ8MzE0LjA0fDE1Ny4wOXwxMC45Ng==)" style="stroke-width:.71;fill:#000"/><circle cx="265.2" cy="148.92" r="1.95" clip-path="url(#cpNDMuOTZ8MzE0LjA0fDE1Ny4wOXwxMC45Ng==)" style="stroke-width:.71;fill:#000"/><circle cx="301.76" cy="150.45" r="1.95" clip-path="url(#cpNDMuOTZ8MzE0LjA0fDE1Ny4wOXwxMC45Ng==)" style="stroke-width:.71;fill:#000"/><circle cx="172.21" cy="134.21" r="1.95" clip-path="url(#cpNDMuOTZ8MzE0LjA0fDE1Ny4wOXwxMC45Ng==)" style="stroke-width:.71;fill:#000"/><circle cx="109.52" cy="68.63" r="1.95" clip-path="url(#cpNDMuOTZ8MzE0LjA0fDE1Ny4wOXwxMC45Ng==)" style="stroke-width:.71;fill:#000"/><circle cx="106.39" cy="73.27" r="1.95" clip-path="url(#cpNDMuOTZ8MzE0LjA0fDE1Ny4wOXwxMC45Ng==)" style="stroke-width:.71;fill:#000"/><circle cx="86.54" cy="58.03" r="1.95" clip-path="url(#cpNDMuOTZ8MzE0LjA0fDE1Ny4wOXwxMC45Ng==)" style="stroke-width:.71;fill:#000"/><circle cx="148.18" cy="41.46" r="1.95" clip-path="url(#cpNDMuOTZ8MzE0LjA0fDE1Ny4wOXwxMC45Ng==)" style="stroke-width:.71;fill:#000"/><circle cx="232.81" cy="147.83" r="1.95" clip-path="url(#cpNDMuOTZ8MzE0LjA0fDE1Ny4wOXwxMC45Ng==)" style="stroke-width:.71;fill:#000"/><circle cx="219.23" cy="134.14" r="1.95" clip-path="url(#cpNDMuOTZ8MzE0LjA0fDE1Ny4wOXwxMC45Ng==)" style="stroke-width:.71;fill:#000"/><circle cx="265.2" cy="142.49" r="1.95" clip-path="url(#cpNDMuOTZ8MzE0LjA0fDE1Ny4wOXwxMC45Ng==)" style="stroke-width:.71;fill:#000"/><circle cx="112.66" cy="57.7" r="1.95" clip-path="url(#cpNDMuOTZ8MzE0LjA0fDE1Ny4wOXwxMC45Ng==)" style="stroke-width:.71;fill:#000"/><circle cx="153.4" cy="125.96" r="1.95" clip-path="url(#cpNDMuOTZ8MzE0LjA0fDE1Ny4wOXwxMC45Ng==)" style="stroke-width:.71;fill:#000"/><circle cx="104.3" cy="74.27" r="1.95" clip-path="url(#cpNDMuOTZ8MzE0LjA0fDE1Ny4wOXwxMC45Ng==)" style="stroke-width:.71;fill:#000"/><circle cx="171.16" cy="133.91" r="1.95" clip-path="url(#cpNDMuOTZ8MzE0LjA0fDE1Ny4wOXwxMC45Ng==)" style="stroke-width:.71;fill:#000"/><defs><clipPath id="cpMC4wMHw1MDQuMDB8Mzc4LjAwfDAuMDA="><rect width="504" height="378" x="0" y="0"/></clipPath></defs><g clip-path="url(#cpMC4wMHw1MDQuMDB8Mzc4LjAwfDAuMDA=)"><text x="24.35" y="144.02" lengthAdjust="spacingAndGlyphs" textLength="14.68" style="font-size:8.8px;fill:#4d4d4d;font-family:Arial">100</text></g><g clip-path="url(#cpMC4wMHw1MDQuMDB8Mzc4LjAwfDAuMDA=)"><text x="24.35" y="110.88" lengthAdjust="spacingAndGlyphs" textLength="14.68" style="font-size:8.8px;fill:#4d4d4d;font-family:Arial">200</text></g><g clip-path="url(#cpMC4wMHw1MDQuMDB8Mzc4LjAwfDAuMDA=)"><text x="24.35" y="77.75" lengthAdjust="spacingAndGlyphs" textLength="14.68" style="font-size:8.8px;fill:#4d4d4d;font-family:Arial">300</text></g><g clip-path="url(#cpMC4wMHw1MDQuMDB8Mzc4LjAwfDAuMDA=)"><text x="24.35" y="44.61" lengthAdjust="spacingAndGlyphs" textLength="14.68" style="font-size:8.8px;fill:#4d4d4d;font-family:Arial">400</text></g><polyline points="41.22 140.87 43.96 140.87" clip-path="url(#cpMC4wMHw1MDQuMDB8Mzc4LjAwfDAuMDA=)" style="stroke-width:1.07;stroke:#333;stroke-linecap:butt"/><polyline points="41.22 107.73 43.96 107.73" clip-path="url(#cpMC4wMHw1MDQuMDB8Mzc4LjAwfDAuMDA=)" style="stroke-width:1.07;stroke:#333;stroke-linecap:butt"/><polyline points="41.22 74.6 43.96 74.6" clip-path="url(#cpMC4wMHw1MDQuMDB8Mzc4LjAwfDAuMDA=)" style="stroke-width:1.07;stroke:#333;stroke-linecap:butt"/><polyline points="41.22 41.46 43.96 41.46" clip-path="url(#cpMC4wMHw1MDQuMDB8Mzc4LjAwfDAuMDA=)" style="stroke-width:1.07;stroke:#333;stroke-linecap:butt"/><polyline points="52.06 159.83 52.06 157.09" clip-path="url(#cpMC4wMHw1MDQuMDB8Mzc4LjAwfDAuMDA=)" style="stroke-width:1.07;stroke:#333;stroke-linecap:butt"/><polyline points="104.3 159.83 104.3 157.09" clip-path="url(#cpMC4wMHw1MDQuMDB8Mzc4LjAwfDAuMDA=)" style="stroke-width:1.07;stroke:#333;stroke-linecap:butt"/><polyline points="156.54 159.83 156.54 157.09" clip-path="url(#cpMC4wMHw1MDQuMDB8Mzc4LjAwfDAuMDA=)" style="stroke-width:1.07;stroke:#333;stroke-linecap:butt"/><polyline points="208.78 159.83 208.78 157.09" clip-path="url(#cpMC4wMHw1MDQuMDB8Mzc4LjAwfDAuMDA=)" style="stroke-width:1.07;stroke:#333;stroke-linecap:butt"/><polyline points="261.02 159.83 261.02 157.09" clip-path="url(#cpMC4wMHw1MDQuMDB8Mzc4LjAwfDAuMDA=)" style="stroke-width:1.07;stroke:#333;stroke-linecap:butt"/><polyline points="313.26 159.83 313.26 157.09" clip-path="url(#cpMC4wMHw1MDQuMDB8Mzc4LjAwfDAuMDA=)" style="stroke-width:1.07;stroke:#333;stroke-linecap:butt"/><g clip-path="url(#cpMC4wMHw1MDQuMDB8Mzc4LjAwfDAuMDA=)"><text x="47.16" y="168.32" lengthAdjust="spacingAndGlyphs" textLength="9.79" style="font-size:8.8px;fill:#4d4d4d;font-family:Arial">10</text></g><g clip-path="url(#cpMC4wMHw1MDQuMDB8Mzc4LjAwfDAuMDA=)"><text x="99.4" y="168.32" lengthAdjust="spacingAndGlyphs" textLength="9.79" style="font-size:8.8px;fill:#4d4d4d;font-family:Arial">15</text></g><g clip-path="url(#cpMC4wMHw1MDQuMDB8Mzc4LjAwfDAuMDA=)"><text x="151.64" y="168.32" lengthAdjust="spacingAndGlyphs" textLength="9.79" style="font-size:8.8px;fill:#4d4d4d;font-family:Arial">20</text></g><g clip-path="url(#cpMC4wMHw1MDQuMDB8Mzc4LjAwfDAuMDA=)"><text x="203.88" y="168.32" lengthAdjust="spacingAndGlyphs" textLength="9.79" style="font-size:8.8px;fill:#4d4d4d;font-family:Arial">25</text></g><g clip-path="url(#cpMC4wMHw1MDQuMDB8Mzc4LjAwfDAuMDA=)"><text x="256.12" y="168.32" lengthAdjust="spacingAndGlyphs" textLength="9.79" style="font-size:8.8px;fill:#4d4d4d;font-family:Arial">30</text></g><g clip-path="url(#cpMC4wMHw1MDQuMDB8Mzc4LjAwfDAuMDA=)"><text x="308.36" y="168.32" lengthAdjust="spacingAndGlyphs" textLength="9.79" style="font-size:8.8px;fill:#4d4d4d;font-family:Arial">35</text></g><g clip-path="url(#cpMC4wMHw1MDQuMDB8Mzc4LjAwfDAuMDA=)"><text x="168.3" y="181.09" lengthAdjust="spacingAndGlyphs" textLength="21.4" style="font-size:11px;font-family:Arial">mpg</text></g><g clip-path="url(#cpMC4wMHw1MDQuMDB8Mzc4LjAwfDAuMDA=)"><text style="font-size:11px;font-family:Arial" lengthAdjust="spacingAndGlyphs" textLength="20.18" transform="translate(18.84,94.11) rotate(-90)">disp</text></g><defs><clipPath id="cpMzE5LjUyfDQ5OC41MnwxODkuMDB8NS40OA=="><rect width="179" height="183.52" x="319.52" y="5.48"/></clipPath></defs><rect width="179" height="183.52" x="319.52" y="5.48" clip-path="url(#cpMzE5LjUyfDQ5OC41MnwxODkuMDB8NS40OA==)" style="stroke-width:1.07;stroke:#fff;fill:#fff"/><defs><clipPath id="cpMC4wMHw1MDQuMDB8Mzc4LjAwfDAuMDA="><rect width="504" height="378" x="0" y="0"/></clipPath></defs><defs><clipPath id="cpMzU4LjAwfDQ5My4wNHwxNTcuMDl8MTAuOTY="><rect width="135.04" height="146.13" x="358" y="10.96"/></clipPath></defs><rect width="135.04" height="146.13" x="358" y="10.96" clip-path="url(#cpMzU4LjAwfDQ5My4wNHwxNTcuMDl8MTAuOTY=)" style="stroke-width:1.07;stroke:none;fill:#ebebeb"/><polyline points="358 124.3 493.04 124.3" clip-path="url(#cpMzU4LjAwfDQ5My4wNHwxNTcuMDl8MTAuOTY=)" style="stroke-width:.53;stroke:#fff;stroke-linecap:butt"/><polyline points="358 91.17 493.04 91.17" clip-path="url(#cpMzU4LjAwfDQ5My4wNHwxNTcuMDl8MTAuOTY=)" style="stroke-width:.53;stroke:#fff;stroke-linecap:butt"/><polyline points="358 58.03 493.04 58.03" clip-path="url(#cpMzU4LjAwfDQ5My4wNHwxNTcuMDl8MTAuOTY=)" style="stroke-width:.53;stroke:#fff;stroke-linecap:butt"/><polyline points="358 24.89 493.04 24.89" clip-path="url(#cpMzU4LjAwfDQ5My4wNHwxNTcuMDl8MTAuOTY=)" style="stroke-width:.53;stroke:#fff;stroke-linecap:butt"/><polyline points="369.72 157.09 369.72 10.96" clip-path="url(#cpMzU4LjAwfDQ5My4wNHwxNTcuMDl8MTAuOTY=)" style="stroke-width:.53;stroke:#fff;stroke-linecap:butt"/><polyline points="392.04 157.09 392.04 10.96" clip-path="url(#cpMzU4LjAwfDQ5My4wNHwxNTcuMDl8MTAuOTY=)" style="stroke-width:.53;stroke:#fff;stroke-linecap:butt"/><polyline points="414.36 157.09 414.36 10.96" clip-path="url(#cpMzU4LjAwfDQ5My4wNHwxNTcuMDl8MTAuOTY=)" style="stroke-width:.53;stroke:#fff;stroke-linecap:butt"/><polyline points="436.68 157.09 436.68 10.96" clip-path="url(#cpMzU4LjAwfDQ5My4wNHwxNTcuMDl8MTAuOTY=)" style="stroke-width:.53;stroke:#fff;stroke-linecap:butt"/><polyline points="459 157.09 459 10.96" clip-path="url(#cpMzU4LjAwfDQ5My4wNHwxNTcuMDl8MTAuOTY=)" style="stroke-width:.53;stroke:#fff;stroke-linecap:butt"/><polyline points="481.32 157.09 481.32 10.96" clip-path="url(#cpMzU4LjAwfDQ5My4wNHwxNTcuMDl8MTAuOTY=)" style="stroke-width:.53;stroke:#fff;stroke-linecap:butt"/><polyline points="358 140.87 493.04 140.87" clip-path="url(#cpMzU4LjAwfDQ5My4wNHwxNTcuMDl8MTAuOTY=)" style="stroke-width:1.07;stroke:#fff;stroke-linecap:butt"/><polyline points="358 107.73 493.04 107.73" clip-path="url(#cpMzU4LjAwfDQ5My4wNHwxNTcuMDl8MTAuOTY=)" style="stroke-width:1.07;stroke:#fff;stroke-linecap:butt"/><polyline points="358 74.6 493.04 74.6" clip-path="url(#cpMzU4LjAwfDQ5My4wNHwxNTcuMDl8MTAuOTY=)" style="stroke-width:1.07;stroke:#fff;stroke-linecap:butt"/><polyline points="358 41.46 493.04 41.46" clip-path="url(#cpMzU4LjAwfDQ5My4wNHwxNTcuMDl8MTAuOTY=)" style="stroke-width:1.07;stroke:#fff;stroke-linecap:butt"/><polyline points="358.56 157.09 358.56 10.96" clip-path="url(#cpMzU4LjAwfDQ5My4wNHwxNTcuMDl8MTAuOTY=)" style="stroke-width:1.07;stroke:#fff;stroke-linecap:butt"/><polyline points="380.88 157.09 380.88 10.96" clip-path="url(#cpMzU4LjAwfDQ5My4wNHwxNTcuMDl8MTAuOTY=)" style="stroke-width:1.07;stroke:#fff;stroke-linecap:butt"/><polyline points="403.2 157.09 403.2 10.96" clip-path="url(#cpMzU4LjAwfDQ5My4wNHwxNTcuMDl8MTAuOTY=)" style="stroke-width:1.07;stroke:#fff;stroke-linecap:butt"/><polyline points="425.52 157.09 425.52 10.96" clip-path="url(#cpMzU4LjAwfDQ5My4wNHwxNTcuMDl8MTAuOTY=)" style="stroke-width:1.07;stroke:#fff;stroke-linecap:butt"/><polyline points="447.84 157.09 447.84 10.96" clip-path="url(#cpMzU4LjAwfDQ5My4wNHwxNTcuMDl8MTAuOTY=)" style="stroke-width:1.07;stroke:#fff;stroke-linecap:butt"/><polyline points="470.16 157.09 470.16 10.96" clip-path="url(#cpMzU4LjAwfDQ5My4wNHwxNTcuMDl8MTAuOTY=)" style="stroke-width:1.07;stroke:#fff;stroke-linecap:butt"/><polyline points="492.48 157.09 492.48 10.96" clip-path="url(#cpMzU4LjAwfDQ5My4wNHwxNTcuMDl8MTAuOTY=)" style="stroke-width:1.07;stroke:#fff;stroke-linecap:butt"/><line x1="380.88" x2="380.88" y1="48.09" y2="17.6" clip-path="url(#cpMzU4LjAwfDQ5My4wNHwxNTcuMDl8MTAuOTY=)" style="stroke-width:1.07;stroke:#333;stroke-linecap:butt"/><line x1="380.88" x2="380.88" y1="82.62" y2="134.21" clip-path="url(#cpMzU4LjAwfDQ5My4wNHwxNTcuMDl8MTAuOTY=)" style="stroke-width:1.07;stroke:#333;stroke-linecap:butt"/><polygon points="364.14 48.09 364.14 82.62 397.62 82.62 397.62 48.09 364.14 48.09" clip-path="url(#cpMzU4LjAwfDQ5My4wNHwxNTcuMDl8MTAuOTY=)" style="stroke-width:1.07;stroke:#333;fill:#fff"/><line x1="364.14" x2="397.62" y1="68.63" y2="68.63" clip-path="url(#cpMzU4LjAwfDQ5My4wNHwxNTcuMDl8MTAuOTY=)" style="stroke-width:2.13;stroke:#333;stroke-linecap:butt"/><line x1="425.52" x2="425.52" y1="120.99" y2="118.47" clip-path="url(#cpMzU4LjAwfDQ5My4wNHwxNTcuMDl8MTAuOTY=)" style="stroke-width:1.07;stroke:#333;stroke-linecap:butt"/><line x1="425.52" x2="425.52" y1="147.85" y2="150.45" clip-path="url(#cpMzU4LjAwfDQ5My4wNHwxNTcuMDl8MTAuOTY=)" style="stroke-width:1.07;stroke:#333;stroke-linecap:butt"/><polygon points="408.78 120.99 408.78 147.85 442.26 147.85 442.26 120.99 408.78 120.99" clip-path="url(#cpMzU4LjAwfDQ5My4wNHwxNTcuMDl8MTAuOTY=)" style="stroke-width:1.07;stroke:#333;fill:#fff"/><line x1="408.78" x2="442.26" y1="130.63" y2="130.63" clip-path="url(#cpMzU4LjAwfDQ5My4wNHwxNTcuMDl8MTAuOTY=)" style="stroke-width:2.13;stroke:#333;stroke-linecap:butt"/><line x1="470.16" x2="470.16" y1="74.27" y2="57.7" clip-path="url(#cpMzU4LjAwfDQ5My4wNHwxNTcuMDl8MTAuOTY=)" style="stroke-width:1.07;stroke:#333;stroke-linecap:butt"/><line x1="470.16" x2="470.16" y1="134.14" y2="142.49" clip-path="url(#cpMzU4LjAwfDQ5My4wNHwxNTcuMDl8MTAuOTY=)" style="stroke-width:1.07;stroke:#333;stroke-linecap:butt"/><polygon points="453.42 74.27 453.42 134.14 486.9 134.14 486.9 74.27 453.42 74.27" clip-path="url(#cpMzU4LjAwfDQ5My4wNHwxNTcuMDl8MTAuOTY=)" style="stroke-width:1.07;stroke:#333;fill:#fff"/><line x1="453.42" x2="486.9" y1="125.96" y2="125.96" clip-path="url(#cpMzU4LjAwfDQ5My4wNHwxNTcuMDl8MTAuOTY=)" style="stroke-width:2.13;stroke:#333;stroke-linecap:butt"/><defs><clipPath id="cpMC4wMHw1MDQuMDB8Mzc4LjAwfDAuMDA="><rect width="504" height="378" x="0" y="0"/></clipPath></defs><g clip-path="url(#cpMC4wMHw1MDQuMDB8Mzc4LjAwfDAuMDA=)"><text x="338.39" y="144.02" lengthAdjust="spacingAndGlyphs" textLength="14.68" style="font-size:8.8px;fill:#4d4d4d;font-family:Arial">100</text></g><g clip-path="url(#cpMC4wMHw1MDQuMDB8Mzc4LjAwfDAuMDA=)"><text x="338.39" y="110.88" lengthAdjust="spacingAndGlyphs" textLength="14.68" style="font-size:8.8px;fill:#4d4d4d;font-family:Arial">200</text></g><g clip-path="url(#cpMC4wMHw1MDQuMDB8Mzc4LjAwfDAuMDA=)"><text x="338.39" y="77.75" lengthAdjust="spacingAndGlyphs" textLength="14.68" style="font-size:8.8px;fill:#4d4d4d;font-family:Arial">300</text></g><g clip-path="url(#cpMC4wMHw1MDQuMDB8Mzc4LjAwfDAuMDA=)"><text x="338.39" y="44.61" lengthAdjust="spacingAndGlyphs" textLength="14.68" style="font-size:8.8px;fill:#4d4d4d;font-family:Arial">400</text></g><polyline points="355.26 140.87 358 140.87" clip-path="url(#cpMC4wMHw1MDQuMDB8Mzc4LjAwfDAuMDA=)" style="stroke-width:1.07;stroke:#333;stroke-linecap:butt"/><polyline points="355.26 107.73 358 107.73" clip-path="url(#cpMC4wMHw1MDQuMDB8Mzc4LjAwfDAuMDA=)" style="stroke-width:1.07;stroke:#333;stroke-linecap:butt"/><polyline points="355.26 74.6 358 74.6" clip-path="url(#cpMC4wMHw1MDQuMDB8Mzc4LjAwfDAuMDA=)" style="stroke-width:1.07;stroke:#333;stroke-linecap:butt"/><polyline points="355.26 41.46 358 41.46" clip-path="url(#cpMC4wMHw1MDQuMDB8Mzc4LjAwfDAuMDA=)" style="stroke-width:1.07;stroke:#333;stroke-linecap:butt"/><polyline points="358.56 159.83 358.56 157.09" clip-path="url(#cpMC4wMHw1MDQuMDB8Mzc4LjAwfDAuMDA=)" style="stroke-width:1.07;stroke:#333;stroke-linecap:butt"/><polyline points="380.88 159.83 380.88 157.09" clip-path="url(#cpMC4wMHw1MDQuMDB8Mzc4LjAwfDAuMDA=)" style="stroke-width:1.07;stroke:#333;stroke-linecap:butt"/><polyline points="403.2 159.83 403.2 157.09" clip-path="url(#cpMC4wMHw1MDQuMDB8Mzc4LjAwfDAuMDA=)" style="stroke-width:1.07;stroke:#333;stroke-linecap:butt"/><polyline points="425.52 159.83 425.52 157.09" clip-path="url(#cpMC4wMHw1MDQuMDB8Mzc4LjAwfDAuMDA=)" style="stroke-width:1.07;stroke:#333;stroke-linecap:butt"/><polyline points="447.84 159.83 447.84 157.09" clip-path="url(#cpMC4wMHw1MDQuMDB8Mzc4LjAwfDAuMDA=)" style="stroke-width:1.07;stroke:#333;stroke-linecap:butt"/><polyline points="470.16 159.83 470.16 157.09" clip-path="url(#cpMC4wMHw1MDQuMDB8Mzc4LjAwfDAuMDA=)" style="stroke-width:1.07;stroke:#333;stroke-linecap:butt"/><polyline points="492.48 159.83 492.48 157.09" clip-path="url(#cpMC4wMHw1MDQuMDB8Mzc4LjAwfDAuMDA=)" style="stroke-width:1.07;stroke:#333;stroke-linecap:butt"/><g clip-path="url(#cpMC4wMHw1MDQuMDB8Mzc4LjAwfDAuMDA=)"><text x="352.44" y="168.32" lengthAdjust="spacingAndGlyphs" textLength="12.23" style="font-size:8.8px;fill:#4d4d4d;font-family:Arial">2.5</text></g><g clip-path="url(#cpMC4wMHw1MDQuMDB8Mzc4LjAwfDAuMDA=)"><text x="374.76" y="168.32" lengthAdjust="spacingAndGlyphs" textLength="12.23" style="font-size:8.8px;fill:#4d4d4d;font-family:Arial">3.0</text></g><g clip-path="url(#cpMC4wMHw1MDQuMDB8Mzc4LjAwfDAuMDA=)"><text x="397.08" y="168.32" lengthAdjust="spacingAndGlyphs" textLength="12.23" style="font-size:8.8px;fill:#4d4d4d;font-family:Arial">3.5</text></g><g clip-path="url(#cpMC4wMHw1MDQuMDB8Mzc4LjAwfDAuMDA=)"><text x="419.4" y="168.32" lengthAdjust="spacingAndGlyphs" textLength="12.23" style="font-size:8.8px;fill:#4d4d4d;font-family:Arial">4.0</text></g><g clip-path="url(#cpMC4wMHw1MDQuMDB8Mzc4LjAwfDAuMDA=)"><text x="441.73" y="168.32" lengthAdjust="spacingAndGlyphs" textLength="12.23" style="font-size:8.8px;fill:#4d4d4d;font-family:Arial">4.5</text></g><g clip-path="url(#cpMC4wMHw1MDQuMDB8Mzc4LjAwfDAuMDA=)"><text x="464.05" y="168.32" lengthAdjust="spacingAndGlyphs" textLength="12.23" style="font-size:8.8px;fill:#4d4d4d;font-family:Arial">5.0</text></g><g clip-path="url(#cpMC4wMHw1MDQuMDB8Mzc4LjAwfDAuMDA=)"><text x="486.37" y="168.32" lengthAdjust="spacingAndGlyphs" textLength="12.23" style="font-size:8.8px;fill:#4d4d4d;font-family:Arial">5.5</text></g><g clip-path="url(#cpMC4wMHw1MDQuMDB8Mzc4LjAwfDAuMDA=)"><text x="414.51" y="181.09" lengthAdjust="spacingAndGlyphs" textLength="22.02" style="font-size:11px;font-family:Arial">gear</text></g><g clip-path="url(#cpMC4wMHw1MDQuMDB8Mzc4LjAwfDAuMDA=)"><text style="font-size:11px;font-family:Arial" lengthAdjust="spacingAndGlyphs" textLength="20.18" transform="translate(332.89,94.11) rotate(-90)">disp</text></g><defs><clipPath id="cpNDMuOTZ8MzE0LjA0fDM0MC42MXwxOTQuNDg="><rect width="270.08" height="146.13" x="43.96" y="194.48"/></clipPath></defs><defs><clipPath id="cpMC4wMHw1MDQuMDB8Mzc4LjAwfDAuMDA="><rect width="504" height="378" x="0" y="0"/></clipPath></defs><defs><clipPath id="cpNDMuOTZ8MzE0LjA0fDI2Ny41NHwxOTQuNDg="><rect width="270.08" height="73.07" x="43.96" y="194.48"/></clipPath></defs><polygon points="56.24 197.8 59.34 200.67 62.45 203.24 65.56 205.53 68.67 207.53 71.78 209.21 74.88 210.58 77.99 211.63 81.1 212.38 84.21 212.86 87.32 213.12 90.42 213.16 93.53 213.05 96.64 212.85 99.75 212.6 102.86 212.35 105.96 212 109.07 211.52 112.18 211.04 115.29 210.7 118.4 210.54 121.5 210.48 124.61 210.48 127.72 210.53 130.83 210.58 133.94 210.6 137.04 210.56 140.15 210.45 143.26 210.26 146.37 210.01 149.47 209.74 152.58 209.49 155.69 209.32 158.8 209.3 161.91 209.49 165.01 209.95 168.12 210.74 171.23 211.94 174.34 214.11 177.45 216.78 180.55 219.07 183.66 220.72 186.77 222.79 189.88 225.16 192.99 227.61 196.09 229.94 199.2 232 202.31 233.68 205.42 234.91 208.53 235.69 211.63 236.36 214.74 237.03 217.85 237.65 220.96 238.2 224.07 238.66 227.17 239 230.28 239.21 233.39 239.28 236.5 239.24 239.61 239.09 242.71 238.85 245.82 238.5 248.93 238.03 252.04 237.43 255.15 236.69 258.25 235.8 261.36 234.75 264.47 233.53 267.58 232.14 270.68 230.55 273.79 228.78 276.9 226.81 280.01 224.64 283.12 222.27 286.22 219.69 289.33 216.9 292.44 213.9 295.55 210.69 298.66 207.26 301.76 203.62 301.76 255.94 298.66 256.42 295.55 256.88 292.44 257.34 289.33 257.79 286.22 258.23 283.12 258.68 280.01 259.12 276.9 259.56 273.79 260.01 270.68 260.45 267.58 260.89 264.47 261.33 261.36 261.76 258.25 262.17 255.15 262.56 252.04 262.93 248.93 263.27 245.82 263.56 242.71 263.81 239.61 264.01 236.5 264.15 233.39 264.22 230.28 264.18 227.17 263.95 224.07 263.58 220.96 263.09 217.85 262.54 214.74 261.94 211.63 261.32 208.53 260.7 205.42 259.98 202.31 258.81 199.2 257.33 196.09 255.74 192.99 254.16 189.88 252.68 186.77 251.36 183.66 250.2 180.55 249.17 177.45 247.6 174.34 245.88 171.23 244.49 168.12 243.5 165.01 242.51 161.91 241.54 158.8 240.61 155.69 239.75 152.58 238.99 149.47 238.37 146.37 237.91 143.26 237.64 140.15 237.55 137.04 237.62 133.94 237.84 130.83 238.14 127.72 238.47 124.61 238.76 121.5 238.95 118.4 238.97 115.29 238.76 112.18 238.49 109.07 238.28 105.96 238.02 102.86 237.59 99.75 237 96.64 236.41 93.53 235.83 90.42 235.25 87.32 234.67 84.21 234.14 81.1 233.74 77.99 233.52 74.88 233.52 71.78 233.75 68.67 234.2 65.56 234.88 62.45 235.75 59.34 236.8 56.24 237.99" clip-path="url(#cpNDMuOTZ8MzE0LjA0fDI2Ny41NHwxOTQuNDg=)" style="stroke-width:0;stroke:none;fill:#999;fill-opacity:.4"/><polyline points="56.24 197.8 59.34 200.67 62.45 203.24 65.56 205.53 68.67 207.53 71.78 209.21 74.88 210.58 77.99 211.63 81.1 212.38 84.21 212.86 87.32 213.12 90.42 213.16 93.53 213.05 96.64 212.85 99.75 212.6 102.86 212.35 105.96 212 109.07 211.52 112.18 211.04 115.29 210.7 118.4 210.54 121.5 210.48 124.61 210.48 127.72 210.53 130.83 210.58 133.94 210.6 137.04 210.56 140.15 210.45 143.26 210.26 146.37 210.01 149.47 209.74 152.58 209.49 155.69 209.32 158.8 209.3 161.91 209.49 165.01 209.95 168.12 210.74 171.23 211.94 174.34 214.11 177.45 216.78 180.55 219.07 183.66 220.72 186.77 222.79 189.88 225.16 192.99 227.61 196.09 229.94 199.2 232 202.31 233.68 205.42 234.91 208.53 235.69 211.63 236.36 214.74 237.03 217.85 237.65 220.96 238.2 224.07 238.66 227.17 239 230.28 239.21 233.39 239.28 236.5 239.24 239.61 239.09 242.71 238.85 245.82 238.5 248.93 238.03 252.04 237.43 255.15 236.69 258.25 235.8 261.36 234.75 264.47 233.53 267.58 232.14 270.68 230.55 273.79 228.78 276.9 226.81 280.01 224.64 283.12 222.27 286.22 219.69 289.33 216.9 292.44 213.9 295.55 210.69 298.66 207.26 301.76 203.62" clip-path="url(#cpNDMuOTZ8MzE0LjA0fDI2Ny41NHwxOTQuNDg=)" style="stroke-width:2.13;stroke:none"/><polyline points="301.76 255.94 298.66 256.42 295.55 256.88 292.44 257.34 289.33 257.79 286.22 258.23 283.12 258.68 280.01 259.12 276.9 259.56 273.79 260.01 270.68 260.45 267.58 260.89 264.47 261.33 261.36 261.76 258.25 262.17 255.15 262.56 252.04 262.93 248.93 263.27 245.82 263.56 242.71 263.81 239.61 264.01 236.5 264.15 233.39 264.22 230.28 264.18 227.17 263.95 224.07 263.58 220.96 263.09 217.85 262.54 214.74 261.94 211.63 261.32 208.53 260.7 205.42 259.98 202.31 258.81 199.2 257.33 196.09 255.74 192.99 254.16 189.88 252.68 186.77 251.36 183.66 250.2 180.55 249.17 177.45 247.6 174.34 245.88 171.23 244.49 168.12 243.5 165.01 242.51 161.91 241.54 158.8 240.61 155.69 239.75 152.58 238.99 149.47 238.37 146.37 237.91 143.26 237.64 140.15 237.55 137.04 237.62 133.94 237.84 130.83 238.14 127.72 238.47 124.61 238.76 121.5 238.95 118.4 238.97 115.29 238.76 112.18 238.49 109.07 238.28 105.96 238.02 102.86 237.59 99.75 237 96.64 236.41 93.53 235.83 90.42 235.25 87.32 234.67 84.21 234.14 81.1 233.74 77.99 233.52 74.88 233.52 71.78 233.75 68.67 234.2 65.56 234.88 62.45 235.75 59.34 236.8 56.24 237.99" clip-path="url(#cpNDMuOTZ8MzE0LjA0fDI2Ny41NHwxOTQuNDg=)" style="stroke-width:2.13;stroke:none"/><polyline points="56.24 217.9 59.34 218.73 62.45 219.5 65.56 220.2 68.67 220.86 71.78 221.48 74.88 222.05 77.99 222.58 81.1 223.06 84.21 223.5 87.32 223.9 90.42 224.21 93.53 224.44 96.64 224.63 99.75 224.8 102.86 224.97 105.96 225.01 109.07 224.9 112.18 224.77 115.29 224.73 118.4 224.75 121.5 224.71 124.61 224.62 127.72 224.5 130.83 224.36 133.94 224.22 137.04 224.09 140.15 224 143.26 223.95 146.37 223.96 149.47 224.05 152.58 224.24 155.69 224.53 158.8 224.95 161.91 225.51 165.01 226.23 168.12 227.12 171.23 228.21 174.34 230 177.45 232.19 180.55 234.12 183.66 235.46 186.77 237.07 189.88 238.92 192.99 240.88 196.09 242.84 199.2 244.67 202.31 246.24 205.42 247.45 208.53 248.2 211.63 248.84 214.74 249.48 217.85 250.09 220.96 250.65 224.07 251.12 227.17 251.47 230.28 251.7 233.39 251.75 236.5 251.69 239.61 251.55 242.71 251.33 245.82 251.03 248.93 250.65 252.04 250.18 255.15 249.63 258.25 248.98 261.36 248.25 264.47 247.43 267.58 246.51 270.68 245.5 273.79 244.4 276.9 243.19 280.01 241.88 283.12 240.47 286.22 238.96 289.33 237.34 292.44 235.62 295.55 233.78 298.66 231.84 301.76 229.78" clip-path="url(#cpNDMuOTZ8MzE0LjA0fDI2Ny41NHwxOTQuNDg=)" style="stroke-width:2.13;stroke:#36f;stroke-linecap:butt"/><defs><clipPath id="cpMC4wMHw1MDQuMDB8Mzc4LjAwfDAuMDA="><rect width="504" height="378" x="0" y="0"/></clipPath></defs><defs><clipPath id="cpNDMuOTZ8MzE0LjA0fDM0MC42MXwyNjcuNTQ="><rect width="270.08" height="73.07" x="43.96" y="267.54"/></clipPath></defs><rect width="27.97" height="46.5" x="56.24" y="290.79" clip-path="url(#cpNDMuOTZ8MzE0LjA0fDM0MC42MXwyNjcuNTQ=)" style="stroke-width:1.07;stroke:none;stroke-linecap:square;stroke-linejoin:miter;fill:#595959"/><rect width="27.97" height="66.42" x="87.32" y="270.87" clip-path="url(#cpNDMuOTZ8MzE0LjA0fDM0MC42MXwyNjcuNTQ=)" style="stroke-width:1.07;stroke:none;stroke-linecap:square;stroke-linejoin:miter;fill:#595959"/><rect width="27.97" height="19.93" x="118.4" y="317.36" clip-path="url(#cpNDMuOTZ8MzE0LjA0fDM0MC42MXwyNjcuNTQ=)" style="stroke-width:1.07;stroke:none;stroke-linecap:square;stroke-linejoin:miter;fill:#595959"/><rect width="27.97" height="66.42" x="149.47" y="270.87" clip-path="url(#cpNDMuOTZ8MzE0LjA0fDM0MC42MXwyNjcuNTQ=)" style="stroke-width:1.07;stroke:none;stroke-linecap:square;stroke-linejoin:miter;fill:#595959"/><rect width="27.97" height="6.64" x="211.63" y="330.65" clip-path="url(#cpNDMuOTZ8MzE0LjA0fDM0MC42MXwyNjcuNTQ=)" style="stroke-width:1.07;stroke:none;stroke-linecap:square;stroke-linejoin:miter;fill:#595959"/><rect width="27.97" height="6.64" x="273.79" y="330.65" clip-path="url(#cpNDMuOTZ8MzE0LjA0fDM0MC42MXwyNjcuNTQ=)" style="stroke-width:1.07;stroke:none;stroke-linecap:square;stroke-linejoin:miter;fill:#595959"/><defs><clipPath id="cpMC4wMHw1MDQuMDB8Mzc4LjAwfDAuMDA="><rect width="504" height="378" x="0" y="0"/></clipPath></defs><defs><clipPath id="cpMzE5LjUyfDQ5OC41MnwzNzIuNTJ8MTg5LjAw"><rect width="179" height="183.52" x="319.52" y="189"/></clipPath></defs><rect width="179" height="183.52" x="319.52" y="189" clip-path="url(#cpMzE5LjUyfDQ5OC41MnwzNzIuNTJ8MTg5LjAw)" style="stroke-width:1.07;stroke:#fff;fill:#fff"/><defs><clipPath id="cpMC4wMHw1MDQuMDB8Mzc4LjAwfDAuMDA="><rect width="504" height="378" x="0" y="0"/></clipPath></defs><defs><clipPath id="cpMzU4LjAwfDQ5My4wNHwzNDAuNjF8MTk0LjQ4"><rect width="135.04" height="146.13" x="358" y="194.48"/></clipPath></defs><rect width="135.04" height="146.13" x="358" y="194.48" clip-path="url(#cpMzU4LjAwfDQ5My4wNHwzNDAuNjF8MTk0LjQ4)" style="stroke-width:1.07;stroke:none;fill:#ebebeb"/><polyline points="358 322.1 493.04 322.1" clip-path="url(#cpMzU4LjAwfDQ5My4wNHwzNDAuNjF8MTk0LjQ4)" style="stroke-width:.53;stroke:#fff;stroke-linecap:butt"/><polyline points="358 293.83 493.04 293.83" clip-path="url(#cpMzU4LjAwfDQ5My4wNHwzNDAuNjF8MTk0LjQ4)" style="stroke-width:.53;stroke:#fff;stroke-linecap:butt"/><polyline points="358 265.57 493.04 265.57" clip-path="url(#cpMzU4LjAwfDQ5My4wNHwzNDAuNjF8MTk0LjQ4)" style="stroke-width:.53;stroke:#fff;stroke-linecap:butt"/><polyline points="358 237.3 493.04 237.3" clip-path="url(#cpMzU4LjAwfDQ5My4wNHwzNDAuNjF8MTk0LjQ4)" style="stroke-width:.53;stroke:#fff;stroke-linecap:butt"/><polyline points="358 209.04 493.04 209.04" clip-path="url(#cpMzU4LjAwfDQ5My4wNHwzNDAuNjF8MTk0LjQ4)" style="stroke-width:.53;stroke:#fff;stroke-linecap:butt"/><polyline points="372.61 340.61 372.61 194.48" clip-path="url(#cpMzU4LjAwfDQ5My4wNHwzNDAuNjF8MTk0LjQ4)" style="stroke-width:.53;stroke:#fff;stroke-linecap:butt"/><polyline points="393.77 340.61 393.77 194.48" clip-path="url(#cpMzU4LjAwfDQ5My4wNHwzNDAuNjF8MTk0LjQ4)" style="stroke-width:.53;stroke:#fff;stroke-linecap:butt"/><polyline points="414.94 340.61 414.94 194.48" clip-path="url(#cpMzU4LjAwfDQ5My4wNHwzNDAuNjF8MTk0LjQ4)" style="stroke-width:.53;stroke:#fff;stroke-linecap:butt"/><polyline points="436.1 340.61 436.1 194.48" clip-path="url(#cpMzU4LjAwfDQ5My4wNHwzNDAuNjF8MTk0LjQ4)" style="stroke-width:.53;stroke:#fff;stroke-linecap:butt"/><polyline points="457.27 340.61 457.27 194.48" clip-path="url(#cpMzU4LjAwfDQ5My4wNHwzNDAuNjF8MTk0LjQ4)" style="stroke-width:.53;stroke:#fff;stroke-linecap:butt"/><polyline points="478.44 340.61 478.44 194.48" clip-path="url(#cpMzU4LjAwfDQ5My4wNHwzNDAuNjF8MTk0LjQ4)" style="stroke-width:.53;stroke:#fff;stroke-linecap:butt"/><polyline points="358 336.23 493.04 336.23" clip-path="url(#cpMzU4LjAwfDQ5My4wNHwzNDAuNjF8MTk0LjQ4)" style="stroke-width:1.07;stroke:#fff;stroke-linecap:butt"/><polyline points="358 307.96 493.04 307.96" clip-path="url(#cpMzU4LjAwfDQ5My4wNHwzNDAuNjF8MTk0LjQ4)" style="stroke-width:1.07;stroke:#fff;stroke-linecap:butt"/><polyline points="358 279.7 493.04 279.7" clip-path="url(#cpMzU4LjAwfDQ5My4wNHwzNDAuNjF8MTk0LjQ4)" style="stroke-width:1.07;stroke:#fff;stroke-linecap:butt"/><polyline points="358 251.43 493.04 251.43" clip-path="url(#cpMzU4LjAwfDQ5My4wNHwzNDAuNjF8MTk0LjQ4)" style="stroke-width:1.07;stroke:#fff;stroke-linecap:butt"/><polyline points="358 223.17 493.04 223.17" clip-path="url(#cpMzU4LjAwfDQ5My4wNHwzNDAuNjF8MTk0LjQ4)" style="stroke-width:1.07;stroke:#fff;stroke-linecap:butt"/><polyline points="358 194.9 493.04 194.9" clip-path="url(#cpMzU4LjAwfDQ5My4wNHwzNDAuNjF8MTk0LjQ4)" style="stroke-width:1.07;stroke:#fff;stroke-linecap:butt"/><polyline points="362.02 340.61 362.02 194.48" clip-path="url(#cpMzU4LjAwfDQ5My4wNHwzNDAuNjF8MTk0LjQ4)" style="stroke-width:1.07;stroke:#fff;stroke-linecap:butt"/><polyline points="383.19 340.61 383.19 194.48" clip-path="url(#cpMzU4LjAwfDQ5My4wNHwzNDAuNjF8MTk0LjQ4)" style="stroke-width:1.07;stroke:#fff;stroke-linecap:butt"/><polyline points="404.35 340.61 404.35 194.48" clip-path="url(#cpMzU4LjAwfDQ5My4wNHwzNDAuNjF8MTk0LjQ4)" style="stroke-width:1.07;stroke:#fff;stroke-linecap:butt"/><polyline points="425.52 340.61 425.52 194.48" clip-path="url(#cpMzU4LjAwfDQ5My4wNHwzNDAuNjF8MTk0LjQ4)" style="stroke-width:1.07;stroke:#fff;stroke-linecap:butt"/><polyline points="446.69 340.61 446.69 194.48" clip-path="url(#cpMzU4LjAwfDQ5My4wNHwzNDAuNjF8MTk0LjQ4)" style="stroke-width:1.07;stroke:#fff;stroke-linecap:butt"/><polyline points="467.85 340.61 467.85 194.48" clip-path="url(#cpMzU4LjAwfDQ5My4wNHwzNDAuNjF8MTk0LjQ4)" style="stroke-width:1.07;stroke:#fff;stroke-linecap:butt"/><polyline points="489.02 340.61 489.02 194.48" clip-path="url(#cpMzU4LjAwfDQ5My4wNHwzNDAuNjF8MTk0LjQ4)" style="stroke-width:1.07;stroke:#fff;stroke-linecap:butt"/><polygon points="378.08 271.78 378.06 271.65 378.04 271.51 378.02 271.37 377.99 271.23 377.97 271.09 377.95 270.95 377.93 270.82 377.91 270.68 377.89 270.54 377.86 270.4 377.84 270.26 377.82 270.13 377.8 269.99 377.78 269.85 377.76 269.71 377.75 269.57 377.73 269.43 377.71 269.3 377.69 269.16 377.67 269.02 377.65 268.88 377.64 268.74 377.62 268.6 377.6 268.47 377.59 268.33 377.57 268.19 377.55 268.05 377.54 267.91 377.52 267.77 377.51 267.64 377.49 267.5 377.48 267.36 377.46 267.22 377.45 267.08 377.44 266.94 377.42 266.81 377.41 266.67 377.4 266.53 377.39 266.39 377.37 266.25 377.36 266.11 377.35 265.98 377.34 265.84 377.33 265.7 377.32 265.56 377.31 265.42 377.3 265.29 377.29 265.15 377.28 265.01 377.27 264.87 377.26 264.73 377.25 264.59 377.25 264.46 377.24 264.32 377.23 264.18 377.22 264.04 377.22 263.9 377.21 263.76 377.2 263.63 377.2 263.49 377.19 263.35 377.19 263.21 377.18 263.07 377.18 262.93 377.17 262.8 377.17 262.66 377.17 262.52 377.16 262.38 377.16 262.24 377.16 262.1 377.15 261.97 377.15 261.83 377.15 261.69 377.15 261.55 377.15 261.41 377.15 261.27 377.15 261.14 377.14 261 377.14 260.86 377.14 260.72 377.14 260.58 377.14 260.45 377.15 260.31 377.15 260.17 377.15 260.03 377.15 259.89 377.15 259.75 377.15 259.62 377.16 259.48 377.16 259.34 377.16 259.2 377.16 259.06 377.17 258.92 377.17 258.79 377.17 258.65 377.18 258.51 377.18 258.37 377.19 258.23 377.19 258.09 377.2 257.96 377.2 257.82 377.21 257.68 377.21 257.54 377.22 257.4 377.22 257.26 377.23 257.13 377.24 256.99 377.24 256.85 377.25 256.71 377.26 256.57 377.26 256.43 377.27 256.3 377.28 256.16 377.28 256.02 377.29 255.88 377.3 255.74 377.31 255.61 377.32 255.47 377.32 255.33 377.33 255.19 377.34 255.05 377.35 254.91 377.36 254.78 377.37 254.64 377.38 254.5 377.39 254.36 377.4 254.22 377.41 254.08 377.42 253.95 377.43 253.81 377.44 253.67 377.45 253.53 377.46 253.39 377.47 253.25 377.48 253.12 377.49 252.98 377.5 252.84 377.51 252.7 377.52 252.56 377.53 252.42 377.54 252.29 377.55 252.15 377.56 252.01 377.57 251.87 377.59 251.73 377.6 251.6 377.61 251.46 377.62 251.32 377.63 251.18 377.64 251.04 377.65 250.9 377.67 250.77 377.68 250.63 377.69 250.49 377.7 250.35 377.71 250.21 377.72 250.07 377.74 249.94 377.75 249.8 377.76 249.66 377.77 249.52 377.78 249.38 377.8 249.24 377.81 249.11 377.82 248.97 377.83 248.83 377.84 248.69 377.86 248.55 377.87 248.41 377.88 248.28 377.89 248.14 377.9 248 377.92 247.86 377.93 247.72 377.94 247.58 377.95 247.45 377.96 247.31 377.98 247.17 377.99 247.03 378 246.89 378.01 246.76 378.02 246.62 378.03 246.48 378.05 246.34 378.06 246.2 378.07 246.06 378.08 245.93 378.09 245.79 378.1 245.65 378.11 245.51 378.13 245.37 378.14 245.23 378.15 245.1 378.16 244.96 378.17 244.82 378.18 244.68 378.19 244.54 378.2 244.4 378.21 244.27 378.22 244.13 378.23 243.99 378.25 243.85 378.26 243.71 378.27 243.57 378.28 243.44 378.29 243.3 378.3 243.16 378.31 243.02 378.32 242.88 378.33 242.74 378.34 242.61 378.35 242.47 378.36 242.33 378.36 242.19 378.37 242.05 378.38 241.92 378.39 241.78 378.4 241.64 378.41 241.5 378.42 241.36 378.43 241.22 378.44 241.09 378.45 240.95 378.45 240.81 378.46 240.67 378.47 240.53 378.48 240.39 378.49 240.26 378.5 240.12 378.5 239.98 378.51 239.84 378.52 239.7 378.53 239.56 378.53 239.43 378.54 239.29 378.55 239.15 378.55 239.01 378.56 238.87 378.57 238.73 378.57 238.6 378.58 238.46 378.59 238.32 378.59 238.18 378.6 238.04 378.61 237.91 378.61 237.77 378.62 237.63 378.62 237.49 378.63 237.35 378.64 237.21 378.64 237.08 378.65 236.94 378.65 236.8 378.66 236.66 378.66 236.52 378.67 236.38 378.67 236.25 378.67 236.11 378.68 235.97 378.68 235.83 378.69 235.69 378.69 235.55 378.7 235.42 378.7 235.28 378.7 235.14 378.71 235 378.71 234.86 378.71 234.72 378.72 234.59 378.72 234.45 378.72 234.31 378.73 234.17 378.73 234.03 378.73 233.89 378.74 233.76 378.74 233.62 378.74 233.48 378.74 233.34 378.75 233.2 378.75 233.07 378.75 232.93 378.75 232.79 378.75 232.65 378.76 232.51 378.76 232.37 378.76 232.24 378.76 232.1 378.76 231.96 378.76 231.82 378.76 231.68 378.77 231.54 378.77 231.41 378.77 231.27 378.77 231.13 378.77 230.99 378.77 230.85 378.77 230.71 378.77 230.58 378.77 230.44 378.77 230.3 378.77 230.16 378.77 230.02 378.77 229.88 378.77 229.75 378.77 229.61 378.77 229.47 378.77 229.33 378.77 229.19 378.77 229.05 378.77 228.92 378.77 228.78 378.77 228.64 378.77 228.5 378.77 228.36 378.77 228.23 378.77 228.09 378.77 227.95 378.77 227.81 378.77 227.67 378.77 227.53 378.77 227.4 378.77 227.26 378.77 227.12 378.77 226.98 378.77 226.84 378.77 226.7 378.76 226.57 378.76 226.43 378.76 226.29 378.76 226.15 378.76 226.01 378.76 225.87 378.76 225.74 378.76 225.6 378.76 225.46 378.76 225.32 378.76 225.18 378.76 225.04 378.76 224.91 378.76 224.77 378.75 224.63 378.75 224.49 378.75 224.35 378.75 224.22 378.75 224.08 378.75 223.94 378.75 223.8 378.75 223.66 378.75 223.52 378.75 223.39 378.75 223.25 378.75 223.11 378.75 222.97 378.75 222.83 378.75 222.69 378.75 222.56 378.75 222.42 378.75 222.28 378.75 222.14 378.75 222 378.75 221.86 378.75 221.73 378.75 221.59 378.75 221.45 378.75 221.31 378.75 221.17 378.75 221.03 378.75 220.9 378.75 220.76 378.75 220.62 378.75 220.48 378.75 220.34 378.76 220.2 378.76 220.07 378.76 219.93 378.76 219.79 378.76 219.65 378.76 219.51 378.76 219.38 378.77 219.24 378.77 219.1 378.77 218.96 378.77 218.82 378.77 218.68 378.78 218.55 378.78 218.41 378.78 218.27 378.78 218.13 378.79 217.99 378.79 217.85 378.79 217.72 378.8 217.58 378.8 217.44 378.8 217.3 378.81 217.16 378.81 217.02 378.81 216.89 378.82 216.75 378.82 216.61 378.82 216.47 378.83 216.33 378.83 216.19 378.84 216.06 378.84 215.92 378.85 215.78 378.85 215.64 378.86 215.5 378.86 215.36 378.87 215.23 378.87 215.09 378.88 214.95 378.89 214.81 378.89 214.67 378.9 214.54 378.9 214.4 378.91 214.26 378.92 214.12 378.92 213.98 378.93 213.84 378.94 213.71 378.94 213.57 378.95 213.43 378.96 213.29 378.97 213.15 378.97 213.01 378.98 212.88 378.99 212.74 379 212.6 379.01 212.46 379.02 212.32 379.02 212.18 379.03 212.05 379.04 211.91 379.05 211.77 379.06 211.63 379.07 211.49 379.08 211.35 379.09 211.22 379.1 211.08 379.11 210.94 379.12 210.8 379.13 210.66 379.14 210.52 379.15 210.39 379.16 210.25 379.17 210.11 379.18 209.97 379.2 209.83 379.21 209.7 379.22 209.56 379.23 209.42 379.24 209.28 379.25 209.14 379.27 209 379.28 208.87 379.29 208.73 379.3 208.59 379.32 208.45 379.33 208.31 379.34 208.17 379.36 208.04 379.37 207.9 379.38 207.76 379.4 207.62 379.41 207.48 379.42 207.34 379.44 207.21 379.45 207.07 379.47 206.93 379.48 206.79 379.5 206.65 379.51 206.51 379.53 206.38 379.54 206.24 379.56 206.1 379.57 205.96 379.59 205.82 379.6 205.69 379.62 205.55 379.63 205.41 379.65 205.27 379.67 205.13 379.68 204.99 379.7 204.86 379.71 204.72 379.73 204.58 379.75 204.44 379.76 204.3 379.78 204.16 379.8 204.03 379.81 203.89 379.83 203.75 379.85 203.61 379.86 203.47 379.88 203.33 379.9 203.2 379.92 203.06 379.93 202.92 379.95 202.78 379.97 202.64 379.99 202.5 380.01 202.37 380.02 202.23 380.04 202.09 380.06 201.95 380.08 201.81 380.1 201.67 380.11 201.54 380.13 201.4 380.15 201.26 380.17 201.12 386.21 201.12 386.23 201.26 386.24 201.4 386.26 201.54 386.28 201.67 386.3 201.81 386.32 201.95 386.34 202.09 386.35 202.23 386.37 202.37 386.39 202.5 386.41 202.64 386.43 202.78 386.44 202.92 386.46 203.06 386.48 203.2 386.5 203.33 386.51 203.47 386.53 203.61 386.55 203.75 386.56 203.89 386.58 204.03 386.6 204.16 386.61 204.3 386.63 204.44 386.65 204.58 386.66 204.72 386.68 204.86 386.7 204.99 386.71 205.13 386.73 205.27 386.74 205.41 386.76 205.55 386.78 205.69 386.79 205.82 386.81 205.96 386.82 206.1 386.84 206.24 386.85 206.38 386.87 206.51 386.88 206.65 386.9 206.79 386.91 206.93 386.92 207.07 386.94 207.21 386.95 207.34 386.97 207.48 386.98 207.62 386.99 207.76 387.01 207.9 387.02 208.04 387.03 208.17 387.05 208.31 387.06 208.45 387.07 208.59 387.09 208.73 387.1 208.87 387.11 209 387.12 209.14 387.13 209.28 387.15 209.42 387.16 209.56 387.17 209.7 387.18 209.83 387.19 209.97 387.2 210.11 387.21 210.25 387.23 210.39 387.24 210.52 387.25 210.66 387.26 210.8 387.27 210.94 387.28 211.08 387.29 211.22 387.3 211.35 387.31 211.49 387.32 211.63 387.33 211.77 387.33 211.91 387.34 212.05 387.35 212.18 387.36 212.32 387.37 212.46 387.38 212.6 387.39 212.74 387.39 212.88 387.4 213.01 387.41 213.15 387.42 213.29 387.43 213.43 387.43 213.57 387.44 213.71 387.45 213.84 387.45 213.98 387.46 214.12 387.47 214.26 387.47 214.4 387.48 214.54 387.49 214.67 387.49 214.81 387.5 214.95 387.5 215.09 387.51 215.23 387.51 215.36 387.52 215.5 387.52 215.64 387.53 215.78 387.53 215.92 387.54 216.06 387.54 216.19 387.55 216.33 387.55 216.47 387.56 216.61 387.56 216.75 387.56 216.89 387.57 217.02 387.57 217.16 387.58 217.3 387.58 217.44 387.58 217.58 387.58 217.72 387.59 217.85 387.59 217.99 387.59 218.13 387.6 218.27 387.6 218.41 387.6 218.55 387.6 218.68 387.61 218.82 387.61 218.96 387.61 219.1 387.61 219.24 387.61 219.38 387.61 219.51 387.62 219.65 387.62 219.79 387.62 219.93 387.62 220.07 387.62 220.2 387.62 220.34 387.62 220.48 387.62 220.62 387.63 220.76 387.63 220.9 387.63 221.03 387.63 221.17 387.63 221.31 387.63 221.45 387.63 221.59 387.63 221.73 387.63 221.86 387.63 222 387.63 222.14 387.63 222.28 387.63 222.42 387.63 222.56 387.63 222.69 387.63 222.83 387.63 222.97 387.63 223.11 387.63 223.25 387.63 223.39 387.63 223.52 387.63 223.66 387.63 223.8 387.63 223.94 387.63 224.08 387.62 224.22 387.62 224.35 387.62 224.49 387.62 224.63 387.62 224.77 387.62 224.91 387.62 225.04 387.62 225.18 387.62 225.32 387.62 225.46 387.62 225.6 387.62 225.74 387.62 225.87 387.62 226.01 387.61 226.15 387.61 226.29 387.61 226.43 387.61 226.57 387.61 226.7 387.61 226.84 387.61 226.98 387.61 227.12 387.61 227.26 387.61 227.4 387.61 227.53 387.61 227.67 387.61 227.81 387.61 227.95 387.61 228.09 387.61 228.23 387.61 228.36 387.6 228.5 387.6 228.64 387.6 228.78 387.6 228.92 387.6 229.05 387.6 229.19 387.6 229.33 387.6 229.47 387.6 229.61 387.6 229.75 387.6 229.88 387.6 230.02 387.6 230.16 387.61 230.3 387.61 230.44 387.61 230.58 387.61 230.71 387.61 230.85 387.61 230.99 387.61 231.13 387.61 231.27 387.61 231.41 387.61 231.54 387.61 231.68 387.61 231.82 387.62 231.96 387.62 232.1 387.62 232.24 387.62 232.37 387.62 232.51 387.62 232.65 387.63 232.79 387.63 232.93 387.63 233.07 387.63 233.2 387.63 233.34 387.64 233.48 387.64 233.62 387.64 233.76 387.64 233.89 387.65 234.03 387.65 234.17 387.65 234.31 387.66 234.45 387.66 234.59 387.66 234.72 387.67 234.86 387.67 235 387.67 235.14 387.68 235.28 387.68 235.42 387.68 235.55 387.69 235.69 387.69 235.83 387.7 235.97 387.7 236.11 387.71 236.25 387.71 236.38 387.72 236.52 387.72 236.66 387.73 236.8 387.73 236.94 387.74 237.08 387.74 237.21 387.75 237.35 387.75 237.49 387.76 237.63 387.76 237.77 387.77 237.91 387.78 238.04 387.78 238.18 387.79 238.32 387.8 238.46 387.8 238.6 387.81 238.73 387.82 238.87 387.82 239.01 387.83 239.15 387.84 239.29 387.84 239.43 387.85 239.56 387.86 239.7 387.87 239.84 387.87 239.98 387.88 240.12 387.89 240.26 387.9 240.39 387.91 240.53 387.91 240.67 387.92 240.81 387.93 240.95 387.94 241.09 387.95 241.22 387.96 241.36 387.97 241.5 387.98 241.64 387.98 241.78 387.99 241.92 388 242.05 388.01 242.19 388.02 242.33 388.03 242.47 388.04 242.61 388.05 242.74 388.06 242.88 388.07 243.02 388.08 243.16 388.09 243.3 388.1 243.44 388.11 243.57 388.12 243.71 388.13 243.85 388.14 243.99 388.15 244.13 388.16 244.27 388.17 244.4 388.19 244.54 388.2 244.68 388.21 244.82 388.22 244.96 388.23 245.1 388.24 245.23 388.25 245.37 388.26 245.51 388.27 245.65 388.29 245.79 388.3 245.93 388.31 246.06 388.32 246.2 388.33 246.34 388.34 246.48 388.35 246.62 388.37 246.76 388.38 246.89 388.39 247.03 388.4 247.17 388.41 247.31 388.43 247.45 388.44 247.58 388.45 247.72 388.46 247.86 388.47 248 388.49 248.14 388.5 248.28 388.51 248.41 388.52 248.55 388.53 248.69 388.55 248.83 388.56 248.97 388.57 249.11 388.58 249.24 388.59 249.38 388.6 249.52 388.62 249.66 388.63 249.8 388.64 249.94 388.65 250.07 388.66 250.21 388.68 250.35 388.69 250.49 388.7 250.63 388.71 250.77 388.72 250.9 388.73 251.04 388.75 251.18 388.76 251.32 388.77 251.46 388.78 251.6 388.79 251.73 388.8 251.87 388.81 252.01 388.82 252.15 388.84 252.29 388.85 252.42 388.86 252.56 388.87 252.7 388.88 252.84 388.89 252.98 388.9 253.12 388.91 253.25 388.92 253.39 388.93 253.53 388.94 253.67 388.95 253.81 388.96 253.95 388.97 254.08 388.98 254.22 388.99 254.36 389 254.5 389.01 254.64 389.02 254.78 389.03 254.91 389.04 255.05 389.04 255.19 389.05 255.33 389.06 255.47 389.07 255.61 389.08 255.74 389.08 255.88 389.09 256.02 389.1 256.16 389.11 256.3 389.11 256.43 389.12 256.57 389.13 256.71 389.14 256.85 389.14 256.99 389.15 257.13 389.15 257.26 389.16 257.4 389.17 257.54 389.17 257.68 389.18 257.82 389.18 257.96 389.19 258.09 389.19 258.23 389.19 258.37 389.2 258.51 389.2 258.65 389.21 258.79 389.21 258.92 389.21 259.06 389.22 259.2 389.22 259.34 389.22 259.48 389.22 259.62 389.23 259.75 389.23 259.89 389.23 260.03 389.23 260.17 389.23 260.31 389.23 260.45 389.23 260.58 389.23 260.72 389.23 260.86 389.23 261 389.23 261.14 389.23 261.27 389.23 261.41 389.23 261.55 389.23 261.69 389.22 261.83 389.22 261.97 389.22 262.1 389.22 262.24 389.21 262.38 389.21 262.52 389.21 262.66 389.2 262.8 389.2 262.93 389.19 263.07 389.19 263.21 389.18 263.35 389.18 263.49 389.17 263.63 389.17 263.76 389.16 263.9 389.15 264.04 389.15 264.18 389.14 264.32 389.13 264.46 389.12 264.59 389.12 264.73 389.11 264.87 389.1 265.01 389.09 265.15 389.08 265.29 389.07 265.42 389.06 265.56 389.05 265.7 389.04 265.84 389.03 265.98 389.02 266.11 389 266.25 388.99 266.39 388.98 266.53 388.97 266.67 388.95 266.81 388.94 266.94 388.93 267.08 388.91 267.22 388.9 267.36 388.88 267.5 388.87 267.64 388.85 267.77 388.84 267.91 388.82 268.05 388.81 268.19 388.79 268.33 388.77 268.47 388.76 268.6 388.74 268.74 388.72 268.88 388.71 269.02 388.69 269.16 388.67 269.3 388.65 269.43 388.63 269.57 388.61 269.71 388.59 269.85 388.57 269.99 388.55 270.13 388.53 270.26 388.51 270.4 388.49 270.54 388.47 270.68 388.45 270.82 388.43 270.95 388.41 271.09 388.38 271.23 388.36 271.37 388.34 271.51 388.32 271.65 388.29 271.78 378.08 271.78" clip-path="url(#cpMzU4LjAwfDQ5My4wNHwzNDAuNjF8MTk0LjQ4)" style="stroke-width:1.07;stroke:#333;fill:#fff"/><polygon points="413.6 292.14 413.56 292.1 413.52 292.06 413.48 292.02 413.44 291.98 413.4 291.94 413.37 291.9 413.33 291.86 413.29 291.82 413.25 291.78 413.21 291.74 413.18 291.7 413.14 291.66 413.1 291.62 413.07 291.58 413.03 291.54 413 291.5 412.96 291.46 412.93 291.42 412.89 291.38 412.86 291.34 412.83 291.3 412.79 291.26 412.76 291.22 412.73 291.18 412.69 291.14 412.66 291.1 412.63 291.06 412.6 291.02 412.57 290.98 412.54 290.94 412.51 290.9 412.48 290.86 412.45 290.82 412.42 290.78 412.39 290.74 412.36 290.7 412.33 290.66 412.31 290.62 412.28 290.58 412.25 290.54 412.22 290.5 412.2 290.46 412.17 290.42 412.15 290.38 412.12 290.34 412.09 290.3 412.07 290.26 412.05 290.22 412.02 290.18 412 290.14 411.97 290.1 411.95 290.06 411.93 290.02 411.91 289.98 411.88 289.94 411.86 289.91 411.84 289.87 411.82 289.83 411.8 289.79 411.78 289.75 411.76 289.71 411.74 289.67 411.72 289.63 411.7 289.59 411.68 289.55 411.66 289.51 411.64 289.47 411.62 289.43 411.6 289.39 411.59 289.35 411.57 289.31 411.55 289.27 411.53 289.23 411.52 289.19 411.5 289.15 411.48 289.11 411.47 289.07 411.45 289.03 411.44 288.99 411.42 288.95 411.41 288.91 411.39 288.87 411.38 288.83 411.37 288.79 411.35 288.75 411.34 288.71 411.33 288.67 411.31 288.63 411.3 288.59 411.29 288.55 411.27 288.51 411.26 288.47 411.25 288.43 411.24 288.39 411.23 288.35 411.22 288.31 411.21 288.27 411.19 288.23 411.18 288.19 411.17 288.15 411.16 288.11 411.15 288.07 411.14 288.03 411.13 287.99 411.12 287.95 411.12 287.91 411.11 287.87 411.1 287.83 411.09 287.79 411.08 287.75 411.07 287.71 411.06 287.67 411.06 287.63 411.05 287.6 411.04 287.56 411.03 287.52 411.03 287.48 411.02 287.44 411.01 287.4 411 287.36 411 287.32 410.99 287.28 410.98 287.24 410.98 287.2 410.97 287.16 410.97 287.12 410.96 287.08 410.95 287.04 410.95 287 410.94 286.96 410.94 286.92 410.93 286.88 410.93 286.84 410.92 286.8 410.92 286.76 410.91 286.72 410.91 286.68 410.9 286.64 410.9 286.6 410.89 286.56 410.89 286.52 410.88 286.48 410.88 286.44 410.88 286.4 410.87 286.36 410.87 286.32 410.86 286.28 410.86 286.24 410.86 286.2 410.85 286.16 410.85 286.12 410.84 286.08 410.84 286.04 410.84 286 410.83 285.96 410.83 285.92 410.83 285.88 410.82 285.84 410.82 285.8 410.82 285.76 410.81 285.72 410.81 285.68 410.81 285.64 410.8 285.6 410.8 285.56 410.8 285.52 410.79 285.48 410.79 285.44 410.79 285.4 410.78 285.36 410.78 285.33 410.78 285.29 410.78 285.25 410.77 285.21 410.77 285.17 410.77 285.13 410.76 285.09 410.76 285.05 410.76 285.01 410.75 284.97 410.75 284.93 410.75 284.89 410.75 284.85 410.74 284.81 410.74 284.77 410.74 284.73 410.73 284.69 410.73 284.65 410.73 284.61 410.72 284.57 410.72 284.53 410.72 284.49 410.71 284.45 410.71 284.41 410.71 284.37 410.71 284.33 410.7 284.29 410.7 284.25 410.7 284.21 410.69 284.17 410.69 284.13 410.68 284.09 410.68 284.05 410.68 284.01 410.67 283.97 410.67 283.93 410.67 283.89 410.66 283.85 410.66 283.81 410.65 283.77 410.65 283.73 410.65 283.69 410.64 283.65 410.64 283.61 410.63 283.57 410.63 283.53 410.62 283.49 410.62 283.45 410.62 283.41 410.61 283.37 410.61 283.33 410.6 283.29 410.6 283.25 410.59 283.21 410.59 283.17 410.58 283.13 410.58 283.09 410.57 283.06 410.57 283.02 410.56 282.98 410.55 282.94 410.55 282.9 410.54 282.86 410.54 282.82 410.53 282.78 410.52 282.74 410.52 282.7 410.51 282.66 410.51 282.62 410.5 282.58 410.49 282.54 410.49 282.5 410.48 282.46 410.47 282.42 410.46 282.38 410.46 282.34 410.45 282.3 410.44 282.26 410.43 282.22 410.43 282.18 410.42 282.14 410.41 282.1 410.4 282.06 410.4 282.02 410.39 281.98 410.38 281.94 410.37 281.9 410.36 281.86 410.35 281.82 410.34 281.78 410.33 281.74 410.32 281.7 410.32 281.66 410.31 281.62 410.3 281.58 410.29 281.54 410.28 281.5 410.27 281.46 410.26 281.42 410.25 281.38 410.24 281.34 410.22 281.3 410.21 281.26 410.2 281.22 410.19 281.18 410.18 281.14 410.17 281.1 410.16 281.06 410.15 281.02 410.13 280.98 410.12 280.94 410.11 280.9 410.1 280.86 410.09 280.82 410.07 280.78 410.06 280.75 410.05 280.71 410.04 280.67 410.02 280.63 410.01 280.59 410 280.55 409.98 280.51 409.97 280.47 409.96 280.43 409.94 280.39 409.93 280.35 409.91 280.31 409.9 280.27 409.89 280.23 409.87 280.19 409.86 280.15 409.84 280.11 409.83 280.07 409.81 280.03 409.8 279.99 409.78 279.95 409.77 279.91 409.75 279.87 409.73 279.83 409.72 279.79 409.7 279.75 409.69 279.71 409.67 279.67 409.65 279.63 409.64 279.59 409.62 279.55 409.6 279.51 409.59 279.47 409.57 279.43 409.55 279.39 409.54 279.35 409.52 279.31 409.5 279.27 409.49 279.23 409.47 279.19 409.45 279.15 409.43 279.11 409.42 279.07 409.4 279.03 409.38 278.99 409.36 278.95 409.34 278.91 409.33 278.87 409.31 278.83 409.29 278.79 409.27 278.75 409.25 278.71 409.24 278.67 409.22 278.63 409.2 278.59 409.18 278.55 409.16 278.51 409.15 278.48 409.13 278.44 409.11 278.4 409.09 278.36 409.07 278.32 409.05 278.28 409.04 278.24 409.02 278.2 409 278.16 408.98 278.12 408.96 278.08 408.94 278.04 408.93 278 408.91 277.96 408.89 277.92 408.87 277.88 408.85 277.84 408.84 277.8 408.82 277.76 408.8 277.72 408.78 277.68 408.76 277.64 408.75 277.6 408.73 277.56 408.71 277.52 408.69 277.48 408.68 277.44 408.66 277.4 408.64 277.36 408.63 277.32 408.61 277.28 408.59 277.24 408.58 277.2 408.56 277.16 408.54 277.12 408.53 277.08 408.51 277.04 408.5 277 408.48 276.96 408.47 276.92 408.45 276.88 408.44 276.84 408.42 276.8 408.41 276.76 408.39 276.72 408.38 276.68 408.37 276.64 408.35 276.6 408.34 276.56 408.33 276.52 408.31 276.48 408.3 276.44 408.29 276.4 408.28 276.36 408.27 276.32 408.25 276.28 408.24 276.24 408.23 276.21 408.22 276.17 408.21 276.13 408.2 276.09 408.19 276.05 408.18 276.01 408.18 275.97 408.17 275.93 408.16 275.89 408.15 275.85 408.14 275.81 408.14 275.77 408.13 275.73 408.12 275.69 408.12 275.65 408.11 275.61 408.11 275.57 408.1 275.53 408.1 275.49 408.1 275.45 408.09 275.41 408.09 275.37 408.09 275.33 408.09 275.29 408.09 275.25 408.08 275.21 408.08 275.17 408.08 275.13 408.09 275.09 408.09 275.05 408.09 275.01 408.09 274.97 408.09 274.93 408.09 274.89 408.1 274.85 408.1 274.81 408.11 274.77 408.11 274.73 408.12 274.69 408.12 274.65 408.13 274.61 408.14 274.57 408.15 274.53 408.15 274.49 408.16 274.45 408.17 274.41 408.18 274.37 408.19 274.33 408.2 274.29 408.22 274.25 408.23 274.21 408.24 274.17 408.26 274.13 408.27 274.09 408.28 274.05 408.3 274.01 408.31 273.97 408.33 273.93 408.35 273.9 408.37 273.86 408.38 273.82 408.4 273.78 408.42 273.74 408.44 273.7 408.46 273.66 408.49 273.62 408.51 273.58 408.53 273.54 408.55 273.5 408.58 273.46 408.6 273.42 408.63 273.38 408.65 273.34 408.68 273.3 408.71 273.26 408.73 273.22 408.76 273.18 408.79 273.14 408.82 273.1 408.85 273.06 408.88 273.02 408.91 272.98 408.95 272.94 408.98 272.9 409.01 272.86 409.05 272.82 409.08 272.78 409.12 272.74 409.15 272.7 409.19 272.66 409.23 272.62 409.27 272.58 409.3 272.54 409.34 272.5 409.38 272.46 409.42 272.42 409.46 272.38 409.51 272.34 409.55 272.3 409.59 272.26 409.63 272.22 409.68 272.18 409.72 272.14 409.77 272.1 409.81 272.06 409.86 272.02 409.91 271.98 409.95 271.94 410 271.9 410.05 271.86 410.1 271.82 410.15 271.78 440.89 271.78 440.94 271.82 440.99 271.86 441.04 271.9 441.09 271.94 441.13 271.98 441.18 272.02 441.23 272.06 441.27 272.1 441.32 272.14 441.36 272.18 441.41 272.22 441.45 272.26 441.49 272.3 441.54 272.34 441.58 272.38 441.62 272.42 441.66 272.46 441.7 272.5 441.74 272.54 441.78 272.58 441.81 272.62 441.85 272.66 441.89 272.7 441.92 272.74 441.96 272.78 441.99 272.82 442.03 272.86 442.06 272.9 442.1 272.94 442.13 272.98 442.16 273.02 442.19 273.06 442.22 273.1 442.25 273.14 442.28 273.18 442.31 273.22 442.34 273.26 442.36 273.3 442.39 273.34 442.41 273.38 442.44 273.42 442.46 273.46 442.49 273.5 442.51 273.54 442.53 273.58 442.56 273.62 442.58 273.66 442.6 273.7 442.62 273.74 442.64 273.78 442.66 273.82 442.68 273.86 442.69 273.9 442.71 273.93 442.73 273.97 442.74 274.01 442.76 274.05 442.77 274.09 442.79 274.13 442.8 274.17 442.81 274.21 442.83 274.25 442.84 274.29 442.85 274.33 442.86 274.37 442.87 274.41 442.88 274.45 442.89 274.49 442.9 274.53 442.9 274.57 442.91 274.61 442.92 274.65 442.92 274.69 442.93 274.73 442.93 274.77 442.94 274.81 442.94 274.85 442.95 274.89 442.95 274.93 442.95 274.97 442.95 275.01 442.96 275.05 442.96 275.09 442.96 275.13 442.96 275.17 442.96 275.21 442.96 275.25 442.96 275.29 442.95 275.33 442.95 275.37 442.95 275.41 442.94 275.45 442.94 275.49 442.94 275.53 442.93 275.57 442.93 275.61 442.92 275.65 442.92 275.69 442.91 275.73 442.9 275.77 442.9 275.81 442.89 275.85 442.88 275.89 442.87 275.93 442.87 275.97 442.86 276.01 442.85 276.05 442.84 276.09 442.83 276.13 442.82 276.17 442.81 276.21 442.8 276.24 442.79 276.28 442.78 276.32 442.76 276.36 442.75 276.4 442.74 276.44 442.73 276.48 442.72 276.52 442.7 276.56 442.69 276.6 442.68 276.64 442.66 276.68 442.65 276.72 442.63 276.76 442.62 276.8 442.61 276.84 442.59 276.88 442.58 276.92 442.56 276.96 442.55 277 442.53 277.04 442.51 277.08 442.5 277.12 442.48 277.16 442.47 277.2 442.45 277.24 442.43 277.28 442.42 277.32 442.4 277.36 442.38 277.4 442.37 277.44 442.35 277.48 442.33 277.52 442.31 277.56 442.3 277.6 442.28 277.64 442.26 277.68 442.24 277.72 442.22 277.76 442.21 277.8 442.19 277.84 442.17 277.88 442.15 277.92 442.13 277.96 442.12 278 442.1 278.04 442.08 278.08 442.06 278.12 442.04 278.16 442.02 278.2 442.01 278.24 441.99 278.28 441.97 278.32 441.95 278.36 441.93 278.4 441.91 278.44 441.9 278.48 441.88 278.51 441.86 278.55 441.84 278.59 441.82 278.63 441.81 278.67 441.79 278.71 441.77 278.75 441.75 278.79 441.73 278.83 441.71 278.87 441.7 278.91 441.68 278.95 441.66 278.99 441.64 279.03 441.63 279.07 441.61 279.11 441.59 279.15 441.57 279.19 441.56 279.23 441.54 279.27 441.52 279.31 441.5 279.35 441.49 279.39 441.47 279.43 441.45 279.47 441.44 279.51 441.42 279.55 441.4 279.59 441.39 279.63 441.37 279.67 441.36 279.71 441.34 279.75 441.32 279.79 441.31 279.83 441.29 279.87 441.28 279.91 441.26 279.95 441.25 279.99 441.23 280.03 441.22 280.07 441.2 280.11 441.19 280.15 441.17 280.19 441.16 280.23 441.14 280.27 441.13 280.31 441.11 280.35 441.1 280.39 441.09 280.43 441.07 280.47 441.06 280.51 441.05 280.55 441.03 280.59 441.02 280.63 441.01 280.67 440.99 280.71 440.98 280.75 440.97 280.78 440.96 280.82 440.94 280.86 440.93 280.9 440.92 280.94 440.91 280.98 440.9 281.02 440.88 281.06 440.87 281.1 440.86 281.14 440.85 281.18 440.84 281.22 440.83 281.26 440.82 281.3 440.81 281.34 440.8 281.38 440.79 281.42 440.78 281.46 440.77 281.5 440.76 281.54 440.75 281.58 440.74 281.62 440.73 281.66 440.72 281.7 440.71 281.74 440.7 281.78 440.69 281.82 440.68 281.86 440.67 281.9 440.66 281.94 440.66 281.98 440.65 282.02 440.64 282.06 440.63 282.1 440.62 282.14 440.61 282.18 440.61 282.22 440.6 282.26 440.59 282.3 440.58 282.34 440.58 282.38 440.57 282.42 440.56 282.46 440.56 282.5 440.55 282.54 440.54 282.58 440.54 282.62 440.53 282.66 440.52 282.7 440.52 282.74 440.51 282.78 440.51 282.82 440.5 282.86 440.49 282.9 440.49 282.94 440.48 282.98 440.48 283.02 440.47 283.06 440.47 283.09 440.46 283.13 440.46 283.17 440.45 283.21 440.45 283.25 440.44 283.29 440.44 283.33 440.43 283.37 440.43 283.41 440.42 283.45 440.42 283.49 440.41 283.53 440.41 283.57 440.4 283.61 440.4 283.65 440.4 283.69 440.39 283.73 440.39 283.77 440.38 283.81 440.38 283.85 440.38 283.89 440.37 283.93 440.37 283.97 440.36 284.01 440.36 284.05 440.36 284.09 440.35 284.13 440.35 284.17 440.35 284.21 440.34 284.25 440.34 284.29 440.34 284.33 440.33 284.37 440.33 284.41 440.33 284.45 440.32 284.49 440.32 284.53 440.32 284.57 440.31 284.61 440.31 284.65 440.31 284.69 440.31 284.73 440.3 284.77 440.3 284.81 440.3 284.85 440.29 284.89 440.29 284.93 440.29 284.97 440.28 285.01 440.28 285.05 440.28 285.09 440.28 285.13 440.27 285.17 440.27 285.21 440.27 285.25 440.26 285.29 440.26 285.33 440.26 285.36 440.25 285.4 440.25 285.44 440.25 285.48 440.24 285.52 440.24 285.56 440.24 285.6 440.24 285.64 440.23 285.68 440.23 285.72 440.23 285.76 440.22 285.8 440.22 285.84 440.22 285.88 440.21 285.92 440.21 285.96 440.21 286 440.2 286.04 440.2 286.08 440.19 286.12 440.19 286.16 440.19 286.2 440.18 286.24 440.18 286.28 440.17 286.32 440.17 286.36 440.17 286.4 440.16 286.44 440.16 286.48 440.15 286.52 440.15 286.56 440.14 286.6 440.14 286.64 440.14 286.68 440.13 286.72 440.13 286.76 440.12 286.8 440.12 286.84 440.11 286.88 440.1 286.92 440.1 286.96 440.09 287 440.09 287.04 440.08 287.08 440.08 287.12 440.07 287.16 440.06 287.2 440.06 287.24 440.05 287.28 440.04 287.32 440.04 287.36 440.03 287.4 440.02 287.44 440.02 287.48 440.01 287.52 440 287.56 439.99 287.6 439.99 287.63 439.98 287.67 439.97 287.71 439.96 287.75 439.95 287.79 439.94 287.83 439.94 287.87 439.93 287.91 439.92 287.95 439.91 287.99 439.9 288.03 439.89 288.07 439.88 288.11 439.87 288.15 439.86 288.19 439.85 288.23 439.84 288.27 439.83 288.31 439.81 288.35 439.8 288.39 439.79 288.43 439.78 288.47 439.77 288.51 439.75 288.55 439.74 288.59 439.73 288.63 439.72 288.67 439.7 288.71 439.69 288.75 439.68 288.79 439.66 288.83 439.65 288.87 439.63 288.91 439.62 288.95 439.6 288.99 439.59 289.03 439.57 289.07 439.56 289.11 439.54 289.15 439.52 289.19 439.51 289.23 439.49 289.27 439.47 289.31 439.46 289.35 439.44 289.39 439.42 289.43 439.4 289.47 439.38 289.51 439.36 289.55 439.35 289.59 439.33 289.63 439.31 289.67 439.29 289.71 439.27 289.75 439.25 289.79 439.22 289.83 439.2 289.87 439.18 289.91 439.16 289.94 439.14 289.98 439.11 290.02 439.09 290.06 439.07 290.1 439.04 290.14 439.02 290.18 439 290.22 438.97 290.26 438.95 290.3 438.92 290.34 438.9 290.38 438.87 290.42 438.84 290.46 438.82 290.5 438.79 290.54 438.76 290.58 438.74 290.62 438.71 290.66 438.68 290.7 438.65 290.74 438.62 290.78 438.59 290.82 438.56 290.86 438.53 290.9 438.5 290.94 438.47 290.98 438.44 291.02 438.41 291.06 438.38 291.1 438.35 291.14 438.32 291.18 438.28 291.22 438.25 291.26 438.22 291.3 438.18 291.34 438.15 291.38 438.11 291.42 438.08 291.46 438.04 291.5 438.01 291.54 437.97 291.58 437.94 291.62 437.9 291.66 437.86 291.7 437.83 291.74 437.79 291.78 437.75 291.82 437.71 291.86 437.68 291.9 437.64 291.94 437.6 291.98 437.56 292.02 437.52 292.06 437.48 292.1 437.44 292.14 413.6 292.14" clip-path="url(#cpMzU4LjAwfDQ5My4wNHwzNDAuNjF8MTk0LjQ4)" style="stroke-width:1.07;stroke:#333;fill:#fff"/><polygon points="461.69 333.97 461.69 333.87 461.69 333.77 461.7 333.68 461.71 333.58 461.73 333.48 461.75 333.38 461.77 333.29 461.79 333.19 461.82 333.09 461.85 332.99 461.89 332.9 461.92 332.8 461.96 332.7 462.01 332.6 462.05 332.51 462.1 332.41 462.15 332.31 462.21 332.22 462.26 332.12 462.32 332.02 462.38 331.92 462.45 331.83 462.51 331.73 462.58 331.63 462.65 331.53 462.72 331.44 462.8 331.34 462.87 331.24 462.95 331.14 463.02 331.05 463.1 330.95 463.18 330.85 463.26 330.75 463.35 330.66 463.43 330.56 463.51 330.46 463.6 330.37 463.68 330.27 463.77 330.17 463.85 330.07 463.94 329.98 464.02 329.88 464.11 329.78 464.19 329.68 464.28 329.59 464.36 329.49 464.44 329.39 464.53 329.29 464.61 329.2 464.69 329.1 464.77 329 464.85 328.91 464.93 328.81 465.01 328.71 465.08 328.61 465.16 328.52 465.23 328.42 465.3 328.32 465.37 328.22 465.44 328.13 465.51 328.03 465.57 327.93 465.64 327.83 465.7 327.74 465.76 327.64 465.82 327.54 465.88 327.45 465.93 327.35 465.98 327.25 466.03 327.15 466.08 327.06 466.13 326.96 466.17 326.86 466.22 326.76 466.26 326.67 466.3 326.57 466.33 326.47 466.37 326.37 466.4 326.28 466.43 326.18 466.45 326.08 466.48 325.98 466.5 325.89 466.52 325.79 466.54 325.69 466.56 325.6 466.57 325.5 466.58 325.4 466.59 325.3 466.6 325.21 466.61 325.11 466.61 325.01 466.61 324.91 466.61 324.82 466.61 324.72 466.6 324.62 466.6 324.52 466.59 324.43 466.58 324.33 466.56 324.23 466.55 324.14 466.53 324.04 466.51 323.94 466.49 323.84 466.47 323.75 466.45 323.65 466.42 323.55 466.39 323.45 466.36 323.36 466.33 323.26 466.3 323.16 466.27 323.06 466.23 322.97 466.19 322.87 466.15 322.77 466.11 322.67 466.07 322.58 466.03 322.48 465.98 322.38 465.94 322.29 465.89 322.19 465.84 322.09 465.79 321.99 465.74 321.9 465.69 321.8 465.63 321.7 465.58 321.6 465.52 321.51 465.47 321.41 465.41 321.31 465.35 321.21 465.29 321.12 465.23 321.02 465.17 320.92 465.11 320.83 465.04 320.73 464.98 320.63 464.91 320.53 464.85 320.44 464.78 320.34 464.71 320.24 464.64 320.14 464.57 320.05 464.5 319.95 464.43 319.85 464.36 319.75 464.29 319.66 464.22 319.56 464.14 319.46 464.07 319.36 464 319.27 463.92 319.17 463.84 319.07 463.77 318.98 463.69 318.88 463.61 318.78 463.53 318.68 463.45 318.59 463.37 318.49 463.29 318.39 463.21 318.29 463.13 318.2 463.04 318.1 462.96 318 462.87 317.9 462.79 317.81 462.7 317.71 462.61 317.61 462.52 317.52 462.43 317.42 462.34 317.32 462.25 317.22 462.16 317.13 462.06 317.03 461.97 316.93 461.87 316.83 461.77 316.74 461.67 316.64 461.57 316.54 461.47 316.44 461.36 316.35 461.26 316.25 461.15 316.15 461.04 316.05 460.93 315.96 460.82 315.86 460.71 315.76 460.59 315.67 460.47 315.57 460.35 315.47 460.23 315.37 460.11 315.28 459.99 315.18 459.86 315.08 459.73 314.98 459.6 314.89 459.47 314.79 459.33 314.69 459.2 314.59 459.06 314.5 458.92 314.4 458.77 314.3 458.63 314.21 458.48 314.11 458.34 314.01 458.19 313.91 458.03 313.82 457.88 313.72 457.72 313.62 457.57 313.52 457.41 313.43 457.25 313.33 457.09 313.23 456.92 313.13 456.76 313.04 456.59 312.94 456.42 312.84 456.25 312.74 456.08 312.65 455.91 312.55 455.74 312.45 455.57 312.36 455.39 312.26 455.22 312.16 455.04 312.06 454.87 311.97 454.69 311.87 454.52 311.77 454.34 311.67 454.17 311.58 453.99 311.48 453.82 311.38 453.64 311.28 453.47 311.19 453.3 311.09 453.13 310.99 452.96 310.9 452.79 310.8 452.62 310.7 452.45 310.6 452.29 310.51 452.13 310.41 451.97 310.31 451.81 310.21 451.66 310.12 451.5 310.02 451.35 309.92 451.21 309.82 451.06 309.73 450.92 309.63 450.79 309.53 450.65 309.44 450.52 309.34 450.4 309.24 450.27 309.14 450.16 309.05 450.04 308.95 449.93 308.85 449.83 308.75 449.73 308.66 449.63 308.56 449.54 308.46 449.45 308.36 449.38 308.27 449.3 308.17 449.23 308.07 449.16 307.97 449.1 307.88 449.05 307.78 449 307.68 448.96 307.59 448.92 307.49 448.88 307.39 448.86 307.29 448.84 307.2 448.82 307.1 448.81 307 448.8 306.9 448.81 306.81 448.81 306.71 448.83 306.61 448.84 306.51 448.87 306.42 448.9 306.32 448.93 306.22 448.97 306.13 449.02 306.03 449.06 305.93 449.12 305.83 449.18 305.74 449.25 305.64 449.32 305.54 449.39 305.44 449.48 305.35 449.56 305.25 449.65 305.15 449.75 305.05 449.84 304.96 449.95 304.86 450.05 304.76 450.16 304.66 450.28 304.57 450.4 304.47 450.52 304.37 450.64 304.28 450.77 304.18 450.9 304.08 451.04 303.98 451.18 303.89 451.32 303.79 451.46 303.69 451.6 303.59 451.75 303.5 451.9 303.4 452.05 303.3 452.2 303.2 452.36 303.11 452.51 303.01 452.67 302.91 452.82 302.82 452.98 302.72 453.14 302.62 453.3 302.52 453.46 302.43 453.63 302.33 453.79 302.23 453.95 302.13 454.11 302.04 454.27 301.94 454.43 301.84 454.6 301.74 454.76 301.65 454.92 301.55 455.08 301.45 455.24 301.35 455.39 301.26 455.55 301.16 455.71 301.06 455.86 300.97 456.01 300.87 456.17 300.77 456.32 300.67 456.47 300.58 456.62 300.48 456.76 300.38 456.91 300.28 457.05 300.19 457.19 300.09 457.33 299.99 457.47 299.89 457.61 299.8 457.74 299.7 457.87 299.6 458 299.51 458.13 299.41 458.26 299.31 458.38 299.21 458.51 299.12 458.63 299.02 458.74 298.92 458.86 298.82 458.98 298.73 459.09 298.63 459.2 298.53 459.31 298.43 459.42 298.34 459.52 298.24 459.62 298.14 459.72 298.04 459.82 297.95 459.92 297.85 460.02 297.75 460.11 297.66 460.2 297.56 460.29 297.46 460.38 297.36 460.47 297.27 460.55 297.17 460.63 297.07 460.71 296.97 460.79 296.88 460.87 296.78 460.95 296.68 461.02 296.58 461.1 296.49 461.17 296.39 461.24 296.29 461.31 296.2 461.37 296.1 461.44 296 461.5 295.9 461.56 295.81 461.62 295.71 461.68 295.61 461.74 295.51 461.8 295.42 461.85 295.32 461.91 295.22 461.96 295.12 462.01 295.03 462.06 294.93 462.11 294.83 462.15 294.73 462.2 294.64 462.24 294.54 462.28 294.44 462.32 294.35 462.36 294.25 462.4 294.15 462.44 294.05 462.47 293.96 462.51 293.86 462.54 293.76 462.57 293.66 462.6 293.57 462.63 293.47 462.65 293.37 462.68 293.27 462.7 293.18 462.72 293.08 462.74 292.98 462.76 292.89 462.77 292.79 462.79 292.69 462.8 292.59 462.81 292.5 462.82 292.4 462.83 292.3 462.84 292.2 462.84 292.11 462.85 292.01 462.85 291.91 462.85 291.81 462.85 291.72 462.85 291.62 462.84 291.52 462.84 291.43 462.83 291.33 462.82 291.23 462.81 291.13 462.8 291.04 462.79 290.94 462.77 290.84 462.76 290.74 462.74 290.65 462.72 290.55 462.7 290.45 462.68 290.35 462.66 290.26 462.64 290.16 462.61 290.06 462.59 289.96 462.56 289.87 462.54 289.77 462.51 289.67 462.48 289.58 462.45 289.48 462.42 289.38 462.4 289.28 462.37 289.19 462.34 289.09 462.31 288.99 462.28 288.89 462.25 288.8 462.22 288.7 462.19 288.6 462.16 288.5 462.13 288.41 462.1 288.31 462.07 288.21 462.04 288.12 462.02 288.02 461.99 287.92 461.96 287.82 461.94 287.73 461.92 287.63 461.89 287.53 461.87 287.43 461.85 287.34 461.83 287.24 461.82 287.14 461.8 287.04 461.79 286.95 461.77 286.85 461.76 286.75 461.75 286.65 461.75 286.56 461.74 286.46 461.74 286.36 461.74 286.27 461.74 286.17 461.74 286.07 461.75 285.97 461.75 285.88 461.76 285.78 461.77 285.68 461.79 285.58 461.8 285.49 461.82 285.39 461.84 285.29 461.86 285.19 461.89 285.1 461.92 285 461.95 284.9 461.98 284.81 462.01 284.71 462.05 284.61 462.09 284.51 462.13 284.42 462.17 284.32 462.22 284.22 473.49 284.22 473.54 284.32 473.58 284.42 473.62 284.51 473.66 284.61 473.69 284.71 473.73 284.81 473.76 284.9 473.79 285 473.82 285.1 473.84 285.19 473.86 285.29 473.88 285.39 473.9 285.49 473.92 285.58 473.93 285.68 473.94 285.78 473.95 285.88 473.96 285.97 473.96 286.07 473.97 286.17 473.97 286.27 473.97 286.36 473.96 286.46 473.96 286.56 473.95 286.65 473.94 286.75 473.93 286.85 473.92 286.95 473.91 287.04 473.89 287.14 473.87 287.24 473.85 287.34 473.83 287.43 473.81 287.53 473.79 287.63 473.77 287.73 473.74 287.82 473.72 287.92 473.69 288.02 473.66 288.12 473.64 288.21 473.61 288.31 473.58 288.41 473.55 288.5 473.52 288.6 473.49 288.7 473.46 288.8 473.43 288.89 473.4 288.99 473.37 289.09 473.34 289.19 473.31 289.28 473.28 289.38 473.25 289.48 473.22 289.58 473.2 289.67 473.17 289.77 473.14 289.87 473.12 289.96 473.09 290.06 473.07 290.16 473.05 290.26 473.03 290.35 473.01 290.45 472.99 290.55 472.97 290.65 472.95 290.74 472.93 290.84 472.92 290.94 472.91 291.04 472.9 291.13 472.89 291.23 472.88 291.33 472.87 291.43 472.86 291.52 472.86 291.62 472.86 291.72 472.86 291.81 472.86 291.91 472.86 292.01 472.86 292.11 472.87 292.2 472.87 292.3 472.88 292.4 472.89 292.5 472.9 292.59 472.92 292.69 472.93 292.79 472.95 292.89 472.97 292.98 472.99 293.08 473.01 293.18 473.03 293.27 473.06 293.37 473.08 293.47 473.11 293.57 473.14 293.66 473.17 293.76 473.2 293.86 473.23 293.96 473.27 294.05 473.3 294.15 473.34 294.25 473.38 294.35 473.42 294.44 473.46 294.54 473.51 294.64 473.55 294.73 473.6 294.83 473.65 294.93 473.7 295.03 473.75 295.12 473.8 295.22 473.85 295.32 473.91 295.42 473.97 295.51 474.02 295.61 474.08 295.71 474.14 295.81 474.21 295.9 474.27 296 474.33 296.1 474.4 296.2 474.47 296.29 474.54 296.39 474.61 296.49 474.68 296.58 474.76 296.68 474.83 296.78 474.91 296.88 474.99 296.97 475.07 297.07 475.16 297.17 475.24 297.27 475.33 297.36 475.41 297.46 475.51 297.56 475.6 297.66 475.69 297.75 475.79 297.85 475.88 297.95 475.98 298.04 476.08 298.14 476.19 298.24 476.29 298.34 476.4 298.43 476.51 298.53 476.62 298.63 476.73 298.73 476.84 298.82 476.96 298.92 477.08 299.02 477.2 299.12 477.32 299.21 477.45 299.31 477.58 299.41 477.7 299.51 477.83 299.6 477.97 299.7 478.1 299.8 478.24 299.89 478.38 299.99 478.51 300.09 478.66 300.19 478.8 300.28 478.94 300.38 479.09 300.48 479.24 300.58 479.39 300.67 479.54 300.77 479.69 300.87 479.85 300.97 480 301.06 480.16 301.16 480.31 301.26 480.47 301.35 480.63 301.45 480.79 301.55 480.95 301.65 481.11 301.74 481.27 301.84 481.43 301.94 481.6 302.04 481.76 302.13 481.92 302.23 482.08 302.33 482.24 302.43 482.4 302.52 482.56 302.62 482.72 302.72 482.88 302.82 483.04 302.91 483.2 303.01 483.35 303.11 483.51 303.2 483.66 303.3 483.81 303.4 483.96 303.5 484.1 303.59 484.25 303.69 484.39 303.79 484.53 303.89 484.67 303.98 484.8 304.08 484.93 304.18 485.06 304.28 485.19 304.37 485.31 304.47 485.43 304.57 485.54 304.66 485.65 304.76 485.76 304.86 485.86 304.96 485.96 305.05 486.06 305.15 486.15 305.25 486.23 305.35 486.31 305.44 486.39 305.54 486.46 305.64 486.52 305.74 486.58 305.83 486.64 305.93 486.69 306.03 486.74 306.13 486.78 306.22 486.81 306.32 486.84 306.42 486.86 306.51 486.88 306.61 486.89 306.71 486.9 306.81 486.9 306.9 486.9 307 486.89 307.1 486.87 307.2 486.85 307.29 486.82 307.39 486.79 307.49 486.75 307.59 486.71 307.68 486.66 307.78 486.6 307.88 486.54 307.97 486.48 308.07 486.41 308.17 486.33 308.27 486.25 308.36 486.16 308.46 486.07 308.56 485.98 308.66 485.88 308.75 485.77 308.85 485.66 308.95 485.55 309.05 485.43 309.14 485.31 309.24 485.18 309.34 485.05 309.44 484.92 309.53 484.78 309.63 484.64 309.73 484.5 309.82 484.35 309.92 484.2 310.02 484.05 310.12 483.9 310.21 483.74 310.31 483.58 310.41 483.42 310.51 483.25 310.6 483.09 310.7 482.92 310.8 482.75 310.9 482.58 310.99 482.41 311.09 482.24 311.19 482.06 311.28 481.89 311.38 481.72 311.48 481.54 311.58 481.37 311.67 481.19 311.77 481.01 311.87 480.84 311.97 480.66 312.06 480.49 312.16 480.31 312.26 480.14 312.36 479.97 312.45 479.8 312.55 479.62 312.65 479.45 312.74 479.29 312.84 479.12 312.94 478.95 313.04 478.79 313.13 478.62 313.23 478.46 313.33 478.3 313.43 478.14 313.52 477.98 313.62 477.83 313.72 477.67 313.82 477.52 313.91 477.37 314.01 477.22 314.11 477.08 314.21 476.93 314.3 476.79 314.4 476.65 314.5 476.51 314.59 476.37 314.69 476.24 314.79 476.11 314.89 475.98 314.98 475.85 315.08 475.72 315.18 475.6 315.28 475.47 315.37 475.35 315.47 475.23 315.57 475.12 315.67 475 315.76 474.89 315.86 474.77 315.96 474.66 316.05 474.55 316.15 474.45 316.25 474.34 316.35 474.24 316.44 474.14 316.54 474.03 316.64 473.93 316.74 473.84 316.83 473.74 316.93 473.64 317.03 473.55 317.13 473.46 317.22 473.36 317.32 473.27 317.42 473.18 317.52 473.09 317.61 473.01 317.71 472.92 317.81 472.83 317.9 472.75 318 472.66 318.1 472.58 318.2 472.5 318.29 472.41 318.39 472.33 318.49 472.25 318.59 472.17 318.68 472.09 318.78 472.02 318.88 471.94 318.98 471.86 319.07 471.79 319.17 471.71 319.27 471.64 319.36 471.56 319.46 471.49 319.56 471.42 319.66 471.34 319.75 471.27 319.85 471.2 319.95 471.13 320.05 471.06 320.14 471 320.24 470.93 320.34 470.86 320.44 470.79 320.53 470.73 320.63 470.67 320.73 470.6 320.83 470.54 320.92 470.48 321.02 470.42 321.12 470.36 321.21 470.3 321.31 470.24 321.41 470.18 321.51 470.13 321.6 470.07 321.7 470.02 321.8 469.97 321.9 469.91 321.99 469.87 322.09 469.82 322.19 469.77 322.29 469.72 322.38 469.68 322.48 469.63 322.58 469.59 322.67 469.55 322.77 469.51 322.87 469.48 322.97 469.44 323.06 469.41 323.16 469.37 323.26 469.34 323.36 469.31 323.45 469.29 323.55 469.26 323.65 469.24 323.75 469.21 323.84 469.19 323.94 469.17 324.04 469.16 324.14 469.14 324.23 469.13 324.33 469.12 324.43 469.11 324.52 469.1 324.62 469.1 324.72 469.1 324.82 469.1 324.91 469.1 325.01 469.1 325.11 469.11 325.21 469.11 325.3 469.12 325.4 469.14 325.5 469.15 325.6 469.17 325.69 469.18 325.79 469.2 325.89 469.23 325.98 469.25 326.08 469.28 326.18 469.31 326.28 469.34 326.37 469.38 326.47 469.41 326.57 469.45 326.67 469.49 326.76 469.53 326.86 469.58 326.96 469.62 327.06 469.67 327.15 469.72 327.25 469.77 327.35 469.83 327.45 469.89 327.54 469.95 327.64 470.01 327.74 470.07 327.83 470.13 327.93 470.2 328.03 470.26 328.13 470.33 328.22 470.4 328.32 470.48 328.42 470.55 328.52 470.62 328.61 470.7 328.71 470.78 328.81 470.86 328.91 470.94 329 471.02 329.1 471.1 329.2 471.18 329.29 471.26 329.39 471.35 329.49 471.43 329.59 471.52 329.68 471.6 329.78 471.69 329.88 471.77 329.98 471.86 330.07 471.94 330.17 472.03 330.27 472.11 330.37 472.19 330.46 472.28 330.56 472.36 330.66 472.44 330.75 472.52 330.85 472.6 330.95 472.68 331.05 472.76 331.14 472.84 331.24 472.91 331.34 472.98 331.44 473.06 331.53 473.13 331.63 473.19 331.73 473.26 331.83 473.32 331.92 473.38 332.02 473.44 332.12 473.5 332.22 473.55 332.31 473.61 332.41 473.65 332.51 473.7 332.6 473.74 332.7 473.78 332.8 473.82 332.9 473.86 332.99 473.89 333.09 473.92 333.19 473.94 333.29 473.96 333.38 473.98 333.48 473.99 333.58 474.01 333.68 474.01 333.77 474.02 333.87 474.02 333.97 461.69 333.97" clip-path="url(#cpMzU4LjAwfDQ5My4wNHwzNDAuNjF8MTk0LjQ4)" style="stroke-width:1.07;stroke:#333;fill:#fff"/><defs><clipPath id="cpMC4wMHw1MDQuMDB8Mzc4LjAwfDAuMDA="><rect width="504" height="378" x="0" y="0"/></clipPath></defs><g clip-path="url(#cpMC4wMHw1MDQuMDB8Mzc4LjAwfDAuMDA=)"><text x="343.28" y="339.38" lengthAdjust="spacingAndGlyphs" textLength="9.79" style="font-size:8.8px;fill:#4d4d4d;font-family:Arial">10</text></g><g clip-path="url(#cpMC4wMHw1MDQuMDB8Mzc4LjAwfDAuMDA=)"><text x="343.28" y="311.11" lengthAdjust="spacingAndGlyphs" textLength="9.79" style="font-size:8.8px;fill:#4d4d4d;font-family:Arial">15</text></g><g clip-path="url(#cpMC4wMHw1MDQuMDB8Mzc4LjAwfDAuMDA=)"><text x="343.28" y="282.85" lengthAdjust="spacingAndGlyphs" textLength="9.79" style="font-size:8.8px;fill:#4d4d4d;font-family:Arial">20</text></g><g clip-path="url(#cpMC4wMHw1MDQuMDB8Mzc4LjAwfDAuMDA=)"><text x="343.28" y="254.58" lengthAdjust="spacingAndGlyphs" textLength="9.79" style="font-size:8.8px;fill:#4d4d4d;font-family:Arial">25</text></g><g clip-path="url(#cpMC4wMHw1MDQuMDB8Mzc4LjAwfDAuMDA=)"><text x="343.28" y="226.32" lengthAdjust="spacingAndGlyphs" textLength="9.79" style="font-size:8.8px;fill:#4d4d4d;font-family:Arial">30</text></g><g clip-path="url(#cpMC4wMHw1MDQuMDB8Mzc4LjAwfDAuMDA=)"><text x="343.28" y="198.05" lengthAdjust="spacingAndGlyphs" textLength="9.79" style="font-size:8.8px;fill:#4d4d4d;font-family:Arial">35</text></g><polyline points="355.26 336.23 358 336.23" clip-path="url(#cpMC4wMHw1MDQuMDB8Mzc4LjAwfDAuMDA=)" style="stroke-width:1.07;stroke:#333;stroke-linecap:butt"/><polyline points="355.26 307.96 358 307.96" clip-path="url(#cpMC4wMHw1MDQuMDB8Mzc4LjAwfDAuMDA=)" style="stroke-width:1.07;stroke:#333;stroke-linecap:butt"/><polyline points="355.26 279.7 358 279.7" clip-path="url(#cpMC4wMHw1MDQuMDB8Mzc4LjAwfDAuMDA=)" style="stroke-width:1.07;stroke:#333;stroke-linecap:butt"/><polyline points="355.26 251.43 358 251.43" clip-path="url(#cpMC4wMHw1MDQuMDB8Mzc4LjAwfDAuMDA=)" style="stroke-width:1.07;stroke:#333;stroke-linecap:butt"/><polyline points="355.26 223.17 358 223.17" clip-path="url(#cpMC4wMHw1MDQuMDB8Mzc4LjAwfDAuMDA=)" style="stroke-width:1.07;stroke:#333;stroke-linecap:butt"/><polyline points="355.26 194.9 358 194.9" clip-path="url(#cpMC4wMHw1MDQuMDB8Mzc4LjAwfDAuMDA=)" style="stroke-width:1.07;stroke:#333;stroke-linecap:butt"/><polyline points="362.02 343.35 362.02 340.61" clip-path="url(#cpMC4wMHw1MDQuMDB8Mzc4LjAwfDAuMDA=)" style="stroke-width:1.07;stroke:#333;stroke-linecap:butt"/><polyline points="383.19 343.35 383.19 340.61" clip-path="url(#cpMC4wMHw1MDQuMDB8Mzc4LjAwfDAuMDA=)" style="stroke-width:1.07;stroke:#333;stroke-linecap:butt"/><polyline points="404.35 343.35 404.35 340.61" clip-path="url(#cpMC4wMHw1MDQuMDB8Mzc4LjAwfDAuMDA=)" style="stroke-width:1.07;stroke:#333;stroke-linecap:butt"/><polyline points="425.52 343.35 425.52 340.61" clip-path="url(#cpMC4wMHw1MDQuMDB8Mzc4LjAwfDAuMDA=)" style="stroke-width:1.07;stroke:#333;stroke-linecap:butt"/><polyline points="446.69 343.35 446.69 340.61" clip-path="url(#cpMC4wMHw1MDQuMDB8Mzc4LjAwfDAuMDA=)" style="stroke-width:1.07;stroke:#333;stroke-linecap:butt"/><polyline points="467.85 343.35 467.85 340.61" clip-path="url(#cpMC4wMHw1MDQuMDB8Mzc4LjAwfDAuMDA=)" style="stroke-width:1.07;stroke:#333;stroke-linecap:butt"/><polyline points="489.02 343.35 489.02 340.61" clip-path="url(#cpMC4wMHw1MDQuMDB8Mzc4LjAwfDAuMDA=)" style="stroke-width:1.07;stroke:#333;stroke-linecap:butt"/><g clip-path="url(#cpMC4wMHw1MDQuMDB8Mzc4LjAwfDAuMDA=)"><text x="359.58" y="351.84" lengthAdjust="spacingAndGlyphs" textLength="4.89" style="font-size:8.8px;fill:#4d4d4d;font-family:Arial">3</text></g><g clip-path="url(#cpMC4wMHw1MDQuMDB8Mzc4LjAwfDAuMDA=)"><text x="380.74" y="351.84" lengthAdjust="spacingAndGlyphs" textLength="4.89" style="font-size:8.8px;fill:#4d4d4d;font-family:Arial">4</text></g><g clip-path="url(#cpMC4wMHw1MDQuMDB8Mzc4LjAwfDAuMDA=)"><text x="401.91" y="351.84" lengthAdjust="spacingAndGlyphs" textLength="4.89" style="font-size:8.8px;fill:#4d4d4d;font-family:Arial">5</text></g><g clip-path="url(#cpMC4wMHw1MDQuMDB8Mzc4LjAwfDAuMDA=)"><text x="423.07" y="351.84" lengthAdjust="spacingAndGlyphs" textLength="4.89" style="font-size:8.8px;fill:#4d4d4d;font-family:Arial">6</text></g><g clip-path="url(#cpMC4wMHw1MDQuMDB8Mzc4LjAwfDAuMDA=)"><text x="444.24" y="351.84" lengthAdjust="spacingAndGlyphs" textLength="4.89" style="font-size:8.8px;fill:#4d4d4d;font-family:Arial">7</text></g><g clip-path="url(#cpMC4wMHw1MDQuMDB8Mzc4LjAwfDAuMDA=)"><text x="465.41" y="351.84" lengthAdjust="spacingAndGlyphs" textLength="4.89" style="font-size:8.8px;fill:#4d4d4d;font-family:Arial">8</text></g><g clip-path="url(#cpMC4wMHw1MDQuMDB8Mzc4LjAwfDAuMDA=)"><text x="486.57" y="351.84" lengthAdjust="spacingAndGlyphs" textLength="4.89" style="font-size:8.8px;fill:#4d4d4d;font-family:Arial">9</text></g><g clip-path="url(#cpMC4wMHw1MDQuMDB8Mzc4LjAwfDAuMDA=)"><text x="418.8" y="364.61" lengthAdjust="spacingAndGlyphs" textLength="13.44" style="font-size:11px;font-family:Arial">cyl</text></g><g clip-path="url(#cpMC4wMHw1MDQuMDB8Mzc4LjAwfDAuMDA=)"><text style="font-size:11px;font-family:Arial" lengthAdjust="spacingAndGlyphs" textLength="21.4" transform="translate(332.89,278.24) rotate(-90)">mpg</text></g></svg>