<svg xmlns="http://www.w3.org/2000/svg" xmlns:xlink="http://www.w3.org/1999/xlink" id="Layer_1" width="151.923" height="73.798" x="0" y="0" enable-background="new 0 0 151.923 73.798" version="1.1" viewBox="0 0 151.923 73.798" xml:space="preserve"><rect width="28.275" height="14.482" x="123.148" y="36.16" fill="#FFF" stroke="#939598" stroke-miterlimit="10" stroke-width=".5"/><text fill="#00AEEF" font-family="'MyriadPro-Regular'" font-size="8" transform="matrix(1 0 0 1 129.1099 45.75)">Train</text><rect width="28.275" height="14.482" x="80.712" y="36.16" fill="#FFF" stroke="#939598" stroke-miterlimit="10" stroke-width=".5"/><text fill="#F26522" font-family="'MyriadPro-Regular'" font-size="8" transform="matrix(1 0 0 1 88.2383 45.75)">Test</text><rect width="28.275" height="14.482" x="38.276" y="36.16" fill="#FFF" stroke="#939598" stroke-miterlimit="10" stroke-width=".5"/><text fill="#00AEEF" font-family="'MyriadPro-Regular'" font-size="8" transform="matrix(1 0 0 1 44.2383 45.75)">Train</text><rect width="28.275" height="14.482" x="123.148" y="13.505" fill="#FFF" stroke="#939598" stroke-miterlimit="10" stroke-width=".5"/><text fill="#F26522" font-family="'MyriadPro-Regular'" font-size="8" transform="matrix(1 0 0 1 130.6733 23.0938)">Test</text><rect width="28.275" height="14.482" x="80.712" y="13.505" fill="#FFF" stroke="#939598" stroke-miterlimit="10" stroke-width=".5"/><text fill="#00AEEF" font-family="'MyriadPro-Regular'" font-size="8" transform="matrix(1 0 0 1 86.6743 23.0938)">Train</text><rect width="28.275" height="14.482" x="38.276" y="13.505" fill="#FFF" stroke="#939598" stroke-miterlimit="10" stroke-width=".5"/><text fill="#00AEEF" font-family="'MyriadPro-Regular'" font-size="8" transform="matrix(1 0 0 1 44.2383 23.0938)">Train</text><rect width="28.275" height="14.482" x="123.148" y="58.815" fill="#FFF" stroke="#939598" stroke-miterlimit="10" stroke-width=".5"/><text fill="#00AEEF" font-family="'MyriadPro-Regular'" font-size="8" transform="matrix(1 0 0 1 129.1099 68.4043)">Train</text><rect width="28.275" height="14.482" x="80.712" y="58.815" fill="#FFF" stroke="#939598" stroke-miterlimit="10" stroke-width=".5"/><text fill="#00AEEF" font-family="'MyriadPro-Regular'" font-size="8" transform="matrix(1 0 0 1 86.6743 68.4043)">Train</text><rect width="28.275" height="14.482" x="38.276" y="58.815" fill="#FFF" stroke="#939598" stroke-miterlimit="10" stroke-width=".5"/><text fill="#F26522" font-family="'MyriadPro-Regular'" font-size="8" transform="matrix(1 0 0 1 45.8018 68.4043)">Test</text><text fill="#58595B" font-family="'MyriadPro-Regular'" font-size="6" transform="matrix(1 0 0 1 39.5205 5.0229)">Partition 1</text><text fill="#58595B" font-family="'MyriadPro-Regular'" font-size="6" transform="matrix(1 0 0 1 124.3921 5.0225)">Partition 3</text><text fill="#58595B" font-family="'MyriadPro-Regular'" font-size="6" transform="matrix(1 0 0 1 81.9565 5.022)">Partition 2</text><text fill="#A7A9AC" font-family="'MyriadPro-Regular'" font-size="6" transform="matrix(1 0 0 1 4.882813e-004 20.7461)">Iteration 1</text><text fill="#A7A9AC" font-family="'MyriadPro-Regular'" font-size="6" transform="matrix(1 0 0 1 0 43.4014)">Iteration 2</text><text fill="#A7A9AC" font-family="'MyriadPro-Regular'" font-size="6" transform="matrix(1 0 0 1 4.882813e-004 68.4043)">Iteration 3</text></svg>