<svg xmlns="http://www.w3.org/2000/svg" xmlns:xlink="http://www.w3.org/1999/xlink" viewBox="0 0 504 378"><defs><style type="text/css">polyline,rect{fill:none;stroke:#000;stroke-linecap:round;stroke-linejoin:round;stroke-miterlimit:10}</style></defs><rect width="100%" height="100%" style="stroke:none;fill:none"/><rect width="504" height="378" x="0" y="0" style="stroke-width:1.07;stroke:#fff;fill:#fff"/><defs><clipPath id="cpNDcuOTJ8NDk4LjUyfDM0Ni4yOHw1LjQ4"><rect width="450.61" height="340.8" x="47.92" y="5.48"/></clipPath></defs><rect width="450.61" height="340.8" x="47.92" y="5.48" clip-path="url(#cpNDcuOTJ8NDk4LjUyfDM0Ni4yOHw1LjQ4)" style="stroke-width:1.07;stroke:none;fill:#ebebeb"/><polyline points="47.92 249.71 498.52 249.71" clip-path="url(#cpNDcuOTJ8NDk4LjUyfDM0Ni4yOHw1LjQ4)" style="stroke-width:.53;stroke:#fff;stroke-linecap:butt"/><polyline points="47.92 151.87 498.52 151.87" clip-path="url(#cpNDcuOTJ8NDk4LjUyfDM0Ni4yOHw1LjQ4)" style="stroke-width:.53;stroke:#fff;stroke-linecap:butt"/><polyline points="47.92 54.04 498.52 54.04" clip-path="url(#cpNDcuOTJ8NDk4LjUyfDM0Ni4yOHw1LjQ4)" style="stroke-width:.53;stroke:#fff;stroke-linecap:butt"/><polyline points="132.78 346.28 132.78 5.48" clip-path="url(#cpNDcuOTJ8NDk4LjUyfDM0Ni4yOHw1LjQ4)" style="stroke-width:.53;stroke:#fff;stroke-linecap:butt"/><polyline points="218.56 346.28 218.56 5.48" clip-path="url(#cpNDcuOTJ8NDk4LjUyfDM0Ni4yOHw1LjQ4)" style="stroke-width:.53;stroke:#fff;stroke-linecap:butt"/><polyline points="304.35 346.28 304.35 5.48" clip-path="url(#cpNDcuOTJ8NDk4LjUyfDM0Ni4yOHw1LjQ4)" style="stroke-width:.53;stroke:#fff;stroke-linecap:butt"/><polyline points="390.14 346.28 390.14 5.48" clip-path="url(#cpNDcuOTJ8NDk4LjUyfDM0Ni4yOHw1LjQ4)" style="stroke-width:.53;stroke:#fff;stroke-linecap:butt"/><polyline points="475.92 346.28 475.92 5.48" clip-path="url(#cpNDcuOTJ8NDk4LjUyfDM0Ni4yOHw1LjQ4)" style="stroke-width:.53;stroke:#fff;stroke-linecap:butt"/><polyline points="47.92 298.62 498.52 298.62" clip-path="url(#cpNDcuOTJ8NDk4LjUyfDM0Ni4yOHw1LjQ4)" style="stroke-width:1.07;stroke:#fff;stroke-linecap:butt"/><polyline points="47.92 200.79 498.52 200.79" clip-path="url(#cpNDcuOTJ8NDk4LjUyfDM0Ni4yOHw1LjQ4)" style="stroke-width:1.07;stroke:#fff;stroke-linecap:butt"/><polyline points="47.92 102.95 498.52 102.95" clip-path="url(#cpNDcuOTJ8NDk4LjUyfDM0Ni4yOHw1LjQ4)" style="stroke-width:1.07;stroke:#fff;stroke-linecap:butt"/><polyline points="89.89 346.28 89.89 5.48" clip-path="url(#cpNDcuOTJ8NDk4LjUyfDM0Ni4yOHw1LjQ4)" style="stroke-width:1.07;stroke:#fff;stroke-linecap:butt"/><polyline points="175.66 346.28 175.66 5.48" clip-path="url(#cpNDcuOTJ8NDk4LjUyfDM0Ni4yOHw1LjQ4)" style="stroke-width:1.07;stroke:#fff;stroke-linecap:butt"/><polyline points="261.46 346.28 261.46 5.48" clip-path="url(#cpNDcuOTJ8NDk4LjUyfDM0Ni4yOHw1LjQ4)" style="stroke-width:1.07;stroke:#fff;stroke-linecap:butt"/><polyline points="347.24 346.28 347.24 5.48" clip-path="url(#cpNDcuOTJ8NDk4LjUyfDM0Ni4yOHw1LjQ4)" style="stroke-width:1.07;stroke:#fff;stroke-linecap:butt"/><polyline points="433.04 346.28 433.04 5.48" clip-path="url(#cpNDcuOTJ8NDk4LjUyfDM0Ni4yOHw1LjQ4)" style="stroke-width:1.07;stroke:#fff;stroke-linecap:butt"/><polyline points="68.4 324.45 69.13 324.43 69.85 324.11 70.56 319.58 71.29 321.47 71.99 322.64 72.72 326.06 73.45 323.06 74.13 326.09 74.86 330.2 75.56 329.44 76.29 324.6 76.99 325.94 77.72 328.76 78.45 330.76 79.15 330.69 79.88 330.05 80.59 330.79 81.32 329.98 82.04 330.61 82.7 330.12 83.43 329 84.13 330.1 84.86 327.58 85.57 326.31 86.29 326.6 87.02 322.1 87.73 321.88 88.46 326.6 89.16 325.92 89.89 318.16 90.62 312 91.27 307.55 92 303.59 92.71 300.6 93.43 296.89 94.14 294.34 94.87 292.36 95.6 287.47 96.3 284.17 97.03 276.66 97.73 272.31 98.46 274.51 99.19 276.54 99.85 274.48 100.57 275.17 101.28 274.26 102.01 275.41 102.71 273.31 103.44 270.89 104.17 273.14 104.87 275.29 105.6 270.23 106.31 270.4 107.03 273.7 107.76 275.93 108.44 273.23 109.17 275.17 109.88 276.07 110.6 276.05 111.31 276.29 112.04 275.66 112.76 277.86 113.47 277.22 114.2 283.9 114.9 285.34 115.63 290.65 116.36 287.57 117.02 288.99 117.74 287.4 118.45 290.58 119.18 289.74 119.88 291.16 120.61 291.16 121.34 290.06 122.04 295.1 122.77 288.94 123.48 286.66 124.2 282.87 124.93 280.74 125.59 283.12 126.32 283.51 127.02 281.38 127.75 275.95 128.45 272.62 129.18 273.63 129.91 263.48 130.62 261.37 131.34 246.28 132.05 234.15 132.78 212.99 133.5 212.53 134.16 201.33 134.89 195.65 135.59 190.2 136.32 195.41 137.03 197.68 137.76 202.55 138.48 202.67 139.19 203.31 139.92 205.83 140.62 207.05 141.35 212.19 142.08 217.27 142.76 219.62 143.49 217.18 144.19 223.95 144.92 217.37 145.62 213.26 146.35 212.58 147.08 215.95 147.78 214.73 148.51 210.08 149.22 211.92 149.95 218.4 150.67 214.41 151.33 217.74 152.06 223.8 152.76 227.42 153.49 221.97 154.2 229.43 154.92 227.08 155.65 231.34 156.36 231.04 157.09 229.77 157.79 240.26 158.52 237.75 159.25 241.93 159.9 241.46 160.63 245.3 161.34 246.6 162.06 249.02 162.77 242.15 163.5 247.75 164.23 246.65 164.93 251 165.66 247.82 166.36 244.13 167.09 247.04 167.82 245.47 168.48 247.04 169.2 248.02 169.91 253.62 170.64 250.71 171.34 249.8 172.07 241.88 172.8 245.06 173.5 242.47 174.23 243.88 174.94 241.76 175.66 233 176.39 232.54 177.07 231.88 177.8 216.49 178.51 201.18 179.23 198.39 179.94 191.91 180.67 193.92 181.39 200.28 182.1 198.64 182.83 200.23 183.53 207.69 184.26 199.05 184.99 199.54 185.65 201.23 186.37 203.99 187.08 196.53 187.81 198.39 188.51 204.14 189.24 199.91 189.97 195.16 190.67 184.99 191.4 175.62 192.1 169.8 192.83 166.62 193.56 159.09 194.22 154.44 194.95 145.9 195.65 143.68 196.38 138.71 197.08 131.11 197.81 130.32 198.54 122.11 199.24 114.47 199.97 104.47 200.68 101.71 201.41 114.35 202.13 114.08 202.79 117.43 203.52 120.86 204.22 123.65 204.95 121.4 205.66 138.47 206.39 136.63 207.11 144.97 207.82 154.64 208.55 164.13 209.25 168.23 209.98 176.13 210.71 181.44 211.39 182.54 212.12 182.15 212.82 189.64 213.55 195.26 214.25 187.65 214.98 188.09 215.71 191.81 216.41 191.47 217.14 195.95 217.85 192.03 218.57 190.44 219.3 192.94 219.96 192.5 220.69 191.13 221.39 193.4 222.12 189.54 222.83 188.24 223.55 195.99 224.28 194.72 224.99 193.5 225.72 197.66 226.42 197.41 227.15 205.8 227.88 190.96 228.53 191.42 229.26 191.89 229.97 190.05 230.69 188.36 231.4 192.99 232.13 197.49 232.86 193.21 233.56 194.85 234.29 196.9 234.99 203.65 235.72 203.43 236.45 204.09 237.11 204.16 237.83 211.99 238.54 211.21 239.27 215.51 239.97 218.69 240.7 218.86 241.43 222.75 242.13 219.7 242.86 224.39 243.57 226.81 244.29 226.4 245.02 226.98 245.7 228.28 246.43 235.01 247.14 230.65 247.86 236.35 248.57 234.91 249.3 229.09 250.02 234.93 250.73 235.81 251.46 236.57 252.16 237.04 252.89 233.02 253.62 240.92 254.28 244.69 255 238.26 255.71 240.53 256.44 235.59 257.14 237.6 257.87 237.21 258.6 235.28 259.3 234.3 260.03 231.97 260.73 233.39 261.46 231.31 262.19 233.78 262.85 235.08 263.58 230.21 264.28 231.56 265.01 235.28 265.71 227.15 266.44 220.65 267.17 216.25 267.87 214.02 268.6 206.56 269.31 203.21 270.04 200.42 270.76 194.31 271.42 186.46 272.15 190.05 272.85 182.79 273.58 183.86 274.29 186.46 275.01 184.5 275.74 183.13 276.45 180.19 277.18 178.02 277.88 171.49 278.61 169.41 279.34 165.23 280.02 165.08 280.75 166.18 281.45 158.13 282.18 150.89 282.88 155.54 283.61 157.08 284.34 157.23 285.04 166.6 285.77 162.51 286.48 162.71 287.2 168.38 287.93 171.85 288.59 174.96 289.32 173.64 290.02 172.69 290.75 173.37 291.46 178.04 292.18 182.13 292.91 183.33 293.62 182.44 294.34 187.53 295.05 189.12 295.78 185.38 296.51 186.53 297.16 189.29 297.89 192.69 298.6 202.87 299.32 202.57 300.03 202.11 300.76 202.43 301.48 207.29 302.19 209.79 302.92 216.08 303.62 219.62 304.35 216.08 305.08 220.67 305.74 221.5 306.46 209.47 307.17 214.73 307.9 214.8 308.6 212.36 309.33 213.41 310.06 213.56 310.76 217.22 311.49 214.83 312.2 214.9 312.92 213.24 313.65 217.59 314.33 217.47 315.06 215.1 315.77 214.9 316.49 222.92 317.2 217 317.93 228.13 318.65 225.76 319.36 224.49 320.09 219.47 320.79 219.06 321.52 221.38 322.25 222.75 322.91 225.25 323.63 228.35 324.34 233.69 325.07 230.16 325.77 233.69 326.5 234.83 327.23 233.66 327.93 238.6 328.66 242.17 329.36 238.06 330.09 240.7 330.82 242.22 331.48 239.38 332.21 251.15 332.91 248.56 333.64 244.52 334.34 243.37 335.07 245.33 335.8 242.37 336.5 242.86 337.23 247.26 337.94 248.92 338.67 250.29 339.39 246.99 340.05 255.01 340.78 249.61 341.48 254.7 342.21 250.9 342.92 249.09 343.64 253.67 344.37 251.78 345.08 255.14 345.81 256.65 346.51 258.19 347.24 256.85 347.97 253.18 348.65 256.24 349.38 262.4 350.08 255.62 350.81 258.24 351.51 255.89 352.24 253.3 352.97 258.88 353.67 261.1 354.4 258.54 355.11 258.66 355.83 249.14 356.56 247.53 357.22 246.26 357.95 243.08 358.65 244.18 359.38 237.87 360.09 235.45 360.81 224.22 361.54 221.77 362.25 208.27 362.97 200.72 363.68 194.48 364.41 196.34 365.14 195.53 365.79 193.35 366.52 186.14 367.23 191.03 367.95 191.18 368.66 191.25 369.39 193.35 370.11 194.65 370.82 193.28 371.55 188.07 372.25 185.14 372.98 188.07 373.71 185.67 374.37 186.41 375.09 180.19 375.8 177.38 376.53 169.82 377.23 176.06 377.96 178.87 378.69 178.26 379.39 182.89 380.12 186.7 380.82 193.04 381.55 191.74 382.28 196.7 382.96 188.78 383.69 196.63 384.39 195.6 385.12 193.79 385.83 197.46 386.56 201.03 387.28 202.57 387.99 199.3 388.72 202.45 389.42 202.4 390.15 206.07 390.88 201.28 391.53 207.22 392.26 208.81 392.97 209.32 393.7 212.43 394.4 215.32 395.13 216.81 395.86 211.72 396.56 214.17 397.29 211.4 397.99 218.42 398.72 223.68 399.45 220.75 400.11 223.49 400.84 222.31 401.54 225.74 402.27 225.22 402.97 220.97 403.7 223.02 404.43 228.99 405.13 231.92 405.86 228.38 406.57 231.07 407.29 222.41 408.02 227.03 408.68 231.83 409.41 228.92 410.11 230.97 410.84 225.76 411.55 221.6 412.27 223.61 413 221.09 413.71 219.45 414.44 219.38 415.14 209.47 415.87 208.49 416.6 213.09 417.28 205.14 418.01 209.67 418.71 191.13 419.44 186.73 420.14 177.87 420.87 165.62 421.6 164.25 422.3 150.06 423.03 138.71 423.74 120.42 424.46 101.54 425.19 80.99 425.85 68.08 426.58 57.63 427.28 41.83 428.01 36.75 428.72 39.34 429.44 34.13 430.17 29.36 430.88 20.97 431.6 24.22 432.31 27.18 433.04 28.45 433.77 26.82 434.42 24.64 435.15 21.63 435.86 33.27 436.58 42.44 437.29 41.52 438.02 38.19 438.74 39.88 439.45 41.42 440.18 27.6 440.88 45.53 441.61 53.72 442.34 58.44 443 60.47 443.72 55.09 444.43 57.58 445.16 54.97 445.86 59.83 446.59 58.49 447.32 55.31 448.02 63.97 448.75 71.11 449.45 76.22 450.18 83.46 450.91 83.07 451.59 85.52 452.32 87.15 453.02 86.81 453.75 86.03 454.46 86.91 455.19 91.43 455.91 100.14 456.62 99.92 457.35 102.83 458.05 95.67 458.78 91.43 459.51 104.18 460.16 110.56 460.89 108.82 461.6 111.42 462.33 109.05 463.03 119.22 463.76 120.59 464.49 120.81 465.19 124.09 465.92 132.62 466.62 141.99 467.35 146.93 468.08 143.34 468.74 142.58 469.47 159.16 470.17 155.32 470.9 165.08 471.6 161.46 472.33 161.68 473.06 169.92 473.76 176.57 474.49 174.13 475.2 183.25 475.92 178.7 476.65 185.87 477.31 188.46 478.04 187.92" clip-path="url(#cpNDcuOTJ8NDk4LjUyfDM0Ni4yOHw1LjQ4)" style="stroke-width:1.07;stroke-linecap:butt"/><g clip-path="url(#cpNDcuOTJ8NDk4LjUyfDM0Ni4yOHw1LjQ4)"><text x="415.53" y="17.02" lengthAdjust="spacingAndGlyphs" textLength="30.7" style="font-size:11.04px;font-family:Arial">15352</text></g><defs><clipPath id="cpMC4wMHw1MDQuMDB8Mzc4LjAwfDAuMDA="><rect width="504" height="378" x="0" y="0"/></clipPath></defs><g clip-path="url(#cpMC4wMHw1MDQuMDB8Mzc4LjAwfDAuMDA=)"><text x="23.41" y="301.77" lengthAdjust="spacingAndGlyphs" textLength="19.58" style="font-size:8.8px;fill:#4d4d4d;font-family:Arial">4000</text></g><g clip-path="url(#cpMC4wMHw1MDQuMDB8Mzc4LjAwfDAuMDA=)"><text x="23.41" y="203.94" lengthAdjust="spacingAndGlyphs" textLength="19.58" style="font-size:8.8px;fill:#4d4d4d;font-family:Arial">8000</text></g><g clip-path="url(#cpMC4wMHw1MDQuMDB8Mzc4LjAwfDAuMDA=)"><text x="18.51" y="106.1" lengthAdjust="spacingAndGlyphs" textLength="24.47" style="font-size:8.8px;fill:#4d4d4d;font-family:Arial">12000</text></g><polyline points="45.18 298.62 47.92 298.62" clip-path="url(#cpMC4wMHw1MDQuMDB8Mzc4LjAwfDAuMDA=)" style="stroke-width:1.07;stroke:#333;stroke-linecap:butt"/><polyline points="45.18 200.79 47.92 200.79" clip-path="url(#cpMC4wMHw1MDQuMDB8Mzc4LjAwfDAuMDA=)" style="stroke-width:1.07;stroke:#333;stroke-linecap:butt"/><polyline points="45.18 102.95 47.92 102.95" clip-path="url(#cpMC4wMHw1MDQuMDB8Mzc4LjAwfDAuMDA=)" style="stroke-width:1.07;stroke:#333;stroke-linecap:butt"/><polyline points="89.89 349.02 89.89 346.28" clip-path="url(#cpMC4wMHw1MDQuMDB8Mzc4LjAwfDAuMDA=)" style="stroke-width:1.07;stroke:#333;stroke-linecap:butt"/><polyline points="175.66 349.02 175.66 346.28" clip-path="url(#cpMC4wMHw1MDQuMDB8Mzc4LjAwfDAuMDA=)" style="stroke-width:1.07;stroke:#333;stroke-linecap:butt"/><polyline points="261.46 349.02 261.46 346.28" clip-path="url(#cpMC4wMHw1MDQuMDB8Mzc4LjAwfDAuMDA=)" style="stroke-width:1.07;stroke:#333;stroke-linecap:butt"/><polyline points="347.24 349.02 347.24 346.28" clip-path="url(#cpMC4wMHw1MDQuMDB8Mzc4LjAwfDAuMDA=)" style="stroke-width:1.07;stroke:#333;stroke-linecap:butt"/><polyline points="433.04 349.02 433.04 346.28" clip-path="url(#cpMC4wMHw1MDQuMDB8Mzc4LjAwfDAuMDA=)" style="stroke-width:1.07;stroke:#333;stroke-linecap:butt"/><g clip-path="url(#cpMC4wMHw1MDQuMDB8Mzc4LjAwfDAuMDA=)"><text x="80.1" y="357.51" lengthAdjust="spacingAndGlyphs" textLength="19.58" style="font-size:8.8px;fill:#4d4d4d;font-family:Arial">1970</text></g><g clip-path="url(#cpMC4wMHw1MDQuMDB8Mzc4LjAwfDAuMDA=)"><text x="165.88" y="357.51" lengthAdjust="spacingAndGlyphs" textLength="19.58" style="font-size:8.8px;fill:#4d4d4d;font-family:Arial">1980</text></g><g clip-path="url(#cpMC4wMHw1MDQuMDB8Mzc4LjAwfDAuMDA=)"><text x="251.67" y="357.51" lengthAdjust="spacingAndGlyphs" textLength="19.58" style="font-size:8.8px;fill:#4d4d4d;font-family:Arial">1990</text></g><g clip-path="url(#cpMC4wMHw1MDQuMDB8Mzc4LjAwfDAuMDA=)"><text x="337.45" y="357.51" lengthAdjust="spacingAndGlyphs" textLength="19.58" style="font-size:8.8px;fill:#4d4d4d;font-family:Arial">2000</text></g><g clip-path="url(#cpMC4wMHw1MDQuMDB8Mzc4LjAwfDAuMDA=)"><text x="423.25" y="357.51" lengthAdjust="spacingAndGlyphs" textLength="19.58" style="font-size:8.8px;fill:#4d4d4d;font-family:Arial">2010</text></g><g clip-path="url(#cpMC4wMHw1MDQuMDB8Mzc4LjAwfDAuMDA=)"><text x="262.51" y="370.1" lengthAdjust="spacingAndGlyphs" textLength="21.41" style="font-size:11px;font-family:Arial">date</text></g><g clip-path="url(#cpMC4wMHw1MDQuMDB8Mzc4LjAwfDAuMDA=)"><text style="font-size:11px;font-family:Arial" lengthAdjust="spacingAndGlyphs" textLength="47.7" transform="translate(13.35,199.73) rotate(-90)">unemploy</text></g></svg>