<svg xmlns="http://www.w3.org/2000/svg" xmlns:xlink="http://www.w3.org/1999/xlink" viewBox="0 0 504 378"><defs><style type="text/css">circle,polyline,rect{fill:none;stroke:#000;stroke-linecap:round;stroke-linejoin:round;stroke-miterlimit:10}</style></defs><rect width="100%" height="100%" style="stroke:none;fill:none"/><rect width="504" height="378" x="0" y="0" style="stroke-width:1.07;stroke:#fff;fill:#fff"/><defs><clipPath id="cpMzMuMjN8NDk4LjUyfDM0Ni4yOHw1LjQ4"><rect width="465.29" height="340.8" x="33.23" y="5.48"/></clipPath></defs><rect width="465.29" height="340.8" x="33.23" y="5.48" clip-path="url(#cpMzMuMjN8NDk4LjUyfDM0Ni4yOHw1LjQ4)" style="stroke-width:1.07;stroke:none;fill:#ebebeb"/><polyline points="33.23 269.56 498.52 269.56" clip-path="url(#cpMzMuMjN8NDk4LjUyfDM0Ni4yOHw1LjQ4)" style="stroke-width:.53;stroke:#fff;stroke-linecap:butt"/><polyline points="33.23 183.84 498.52 183.84" clip-path="url(#cpMzMuMjN8NDk4LjUyfDM0Ni4yOHw1LjQ4)" style="stroke-width:.53;stroke:#fff;stroke-linecap:butt"/><polyline points="33.23 98.12 498.52 98.12" clip-path="url(#cpMzMuMjN8NDk4LjUyfDM0Ni4yOHw1LjQ4)" style="stroke-width:.53;stroke:#fff;stroke-linecap:butt"/><polyline points="33.23 12.4 498.52 12.4" clip-path="url(#cpMzMuMjN8NDk4LjUyfDM0Ni4yOHw1LjQ4)" style="stroke-width:.53;stroke:#fff;stroke-linecap:butt"/><polyline points="46.55 346.28 46.55 5.48" clip-path="url(#cpMzMuMjN8NDk4LjUyfDM0Ni4yOHw1LjQ4)" style="stroke-width:.53;stroke:#fff;stroke-linecap:butt"/><polyline points="124.88 346.28 124.88 5.48" clip-path="url(#cpMzMuMjN8NDk4LjUyfDM0Ni4yOHw1LjQ4)" style="stroke-width:.53;stroke:#fff;stroke-linecap:butt"/><polyline points="203.21 346.28 203.21 5.48" clip-path="url(#cpMzMuMjN8NDk4LjUyfDM0Ni4yOHw1LjQ4)" style="stroke-width:.53;stroke:#fff;stroke-linecap:butt"/><polyline points="281.54 346.28 281.54 5.48" clip-path="url(#cpMzMuMjN8NDk4LjUyfDM0Ni4yOHw1LjQ4)" style="stroke-width:.53;stroke:#fff;stroke-linecap:butt"/><polyline points="359.87 346.28 359.87 5.48" clip-path="url(#cpMzMuMjN8NDk4LjUyfDM0Ni4yOHw1LjQ4)" style="stroke-width:.53;stroke:#fff;stroke-linecap:butt"/><polyline points="438.21 346.28 438.21 5.48" clip-path="url(#cpMzMuMjN8NDk4LjUyfDM0Ni4yOHw1LjQ4)" style="stroke-width:.53;stroke:#fff;stroke-linecap:butt"/><polyline points="33.23 312.42 498.52 312.42" clip-path="url(#cpMzMuMjN8NDk4LjUyfDM0Ni4yOHw1LjQ4)" style="stroke-width:1.07;stroke:#fff;stroke-linecap:butt"/><polyline points="33.23 226.7 498.52 226.7" clip-path="url(#cpMzMuMjN8NDk4LjUyfDM0Ni4yOHw1LjQ4)" style="stroke-width:1.07;stroke:#fff;stroke-linecap:butt"/><polyline points="33.23 140.98 498.52 140.98" clip-path="url(#cpMzMuMjN8NDk4LjUyfDM0Ni4yOHw1LjQ4)" style="stroke-width:1.07;stroke:#fff;stroke-linecap:butt"/><polyline points="33.23 55.26 498.52 55.26" clip-path="url(#cpMzMuMjN8NDk4LjUyfDM0Ni4yOHw1LjQ4)" style="stroke-width:1.07;stroke:#fff;stroke-linecap:butt"/><polyline points="85.71 346.28 85.71 5.48" clip-path="url(#cpMzMuMjN8NDk4LjUyfDM0Ni4yOHw1LjQ4)" style="stroke-width:1.07;stroke:#fff;stroke-linecap:butt"/><polyline points="164.05 346.28 164.05 5.48" clip-path="url(#cpMzMuMjN8NDk4LjUyfDM0Ni4yOHw1LjQ4)" style="stroke-width:1.07;stroke:#fff;stroke-linecap:butt"/><polyline points="242.38 346.28 242.38 5.48" clip-path="url(#cpMzMuMjN8NDk4LjUyfDM0Ni4yOHw1LjQ4)" style="stroke-width:1.07;stroke:#fff;stroke-linecap:butt"/><polyline points="320.71 346.28 320.71 5.48" clip-path="url(#cpMzMuMjN8NDk4LjUyfDM0Ni4yOHw1LjQ4)" style="stroke-width:1.07;stroke:#fff;stroke-linecap:butt"/><polyline points="399.04 346.28 399.04 5.48" clip-path="url(#cpMzMuMjN8NDk4LjUyfDM0Ni4yOHw1LjQ4)" style="stroke-width:1.07;stroke:#fff;stroke-linecap:butt"/><polyline points="477.37 346.28 477.37 5.48" clip-path="url(#cpMzMuMjN8NDk4LjUyfDM0Ni4yOHw1LjQ4)" style="stroke-width:1.07;stroke:#fff;stroke-linecap:butt"/><circle cx="70.05" cy="149.55" r="1.95" clip-path="url(#cpMzMuMjN8NDk4LjUyfDM0Ni4yOHw1LjQ4)" style="stroke-width:.71;fill:#000"/><circle cx="70.05" cy="149.55" r="1.95" clip-path="url(#cpMzMuMjN8NDk4LjUyfDM0Ni4yOHw1LjQ4)" style="stroke-width:.71;fill:#000"/><circle cx="85.71" cy="132.41" r="1.95" clip-path="url(#cpMzMuMjN8NDk4LjUyfDM0Ni4yOHw1LjQ4)" style="stroke-width:.71;fill:#000"/><circle cx="85.71" cy="140.98" r="1.95" clip-path="url(#cpMzMuMjN8NDk4LjUyfDM0Ni4yOHw1LjQ4)" style="stroke-width:.71;fill:#000"/><circle cx="148.38" cy="175.27" r="1.95" clip-path="url(#cpMzMuMjN8NDk4LjUyfDM0Ni4yOHw1LjQ4)" style="stroke-width:.71;fill:#000"/><circle cx="148.38" cy="175.27" r="1.95" clip-path="url(#cpMzMuMjN8NDk4LjUyfDM0Ni4yOHw1LjQ4)" style="stroke-width:.71;fill:#000"/><circle cx="171.88" cy="166.69" r="1.95" clip-path="url(#cpMzMuMjN8NDk4LjUyfDM0Ni4yOHw1LjQ4)" style="stroke-width:.71;fill:#000"/><circle cx="70.05" cy="175.27" r="1.95" clip-path="url(#cpMzMuMjN8NDk4LjUyfDM0Ni4yOHw1LjQ4)" style="stroke-width:.71;fill:#000"/><circle cx="70.05" cy="183.84" r="1.95" clip-path="url(#cpMzMuMjN8NDk4LjUyfDM0Ni4yOHw1LjQ4)" style="stroke-width:.71;fill:#000"/><circle cx="85.71" cy="158.12" r="1.95" clip-path="url(#cpMzMuMjN8NDk4LjUyfDM0Ni4yOHw1LjQ4)" style="stroke-width:.71;fill:#000"/><circle cx="85.71" cy="166.69" r="1.95" clip-path="url(#cpMzMuMjN8NDk4LjUyfDM0Ni4yOHw1LjQ4)" style="stroke-width:.71;fill:#000"/><circle cx="148.38" cy="183.84" r="1.95" clip-path="url(#cpMzMuMjN8NDk4LjUyfDM0Ni4yOHw1LjQ4)" style="stroke-width:.71;fill:#000"/><circle cx="148.38" cy="183.84" r="1.95" clip-path="url(#cpMzMuMjN8NDk4LjUyfDM0Ni4yOHw1LjQ4)" style="stroke-width:.71;fill:#000"/><circle cx="171.88" cy="183.84" r="1.95" clip-path="url(#cpMzMuMjN8NDk4LjUyfDM0Ni4yOHw1LjQ4)" style="stroke-width:.71;fill:#000"/><circle cx="171.88" cy="183.84" r="1.95" clip-path="url(#cpMzMuMjN8NDk4LjUyfDM0Ni4yOHw1LjQ4)" style="stroke-width:.71;fill:#000"/><circle cx="148.38" cy="192.41" r="1.95" clip-path="url(#cpMzMuMjN8NDk4LjUyfDM0Ni4yOHw1LjQ4)" style="stroke-width:.71;fill:#000"/><circle cx="171.88" cy="183.84" r="1.95" clip-path="url(#cpMzMuMjN8NDk4LjUyfDM0Ni4yOHw1LjQ4)" style="stroke-width:.71;fill:#000"/><circle cx="258.04" cy="200.98" r="1.95" clip-path="url(#cpMzMuMjN8NDk4LjUyfDM0Ni4yOHw1LjQ4)" style="stroke-width:.71;fill:#000"/><circle cx="344.21" cy="226.7" r="1.95" clip-path="url(#cpMzMuMjN8NDk4LjUyfDM0Ni4yOHw1LjQ4)" style="stroke-width:.71;fill:#000"/><circle cx="344.21" cy="269.56" r="1.95" clip-path="url(#cpMzMuMjN8NDk4LjUyfDM0Ni4yOHw1LjQ4)" style="stroke-width:.71;fill:#000"/><circle cx="344.21" cy="226.7" r="1.95" clip-path="url(#cpMzMuMjN8NDk4LjUyfDM0Ni4yOHw1LjQ4)" style="stroke-width:.71;fill:#000"/><circle cx="375.54" cy="252.41" r="1.95" clip-path="url(#cpMzMuMjN8NDk4LjUyfDM0Ni4yOHw1LjQ4)" style="stroke-width:.71;fill:#000"/><circle cx="399.04" cy="252.41" r="1.95" clip-path="url(#cpMzMuMjN8NDk4LjUyfDM0Ni4yOHw1LjQ4)" style="stroke-width:.71;fill:#000"/><circle cx="375.54" cy="175.27" r="1.95" clip-path="url(#cpMzMuMjN8NDk4LjUyfDM0Ni4yOHw1LjQ4)" style="stroke-width:.71;fill:#000"/><circle cx="375.54" cy="200.98" r="1.95" clip-path="url(#cpMzMuMjN8NDk4LjUyfDM0Ni4yOHw1LjQ4)" style="stroke-width:.71;fill:#000"/><circle cx="414.71" cy="175.27" r="1.95" clip-path="url(#cpMzMuMjN8NDk4LjUyfDM0Ni4yOHw1LjQ4)" style="stroke-width:.71;fill:#000"/><circle cx="414.71" cy="183.84" r="1.95" clip-path="url(#cpMzMuMjN8NDk4LjUyfDM0Ni4yOHw1LjQ4)" style="stroke-width:.71;fill:#000"/><circle cx="477.37" cy="192.41" r="1.95" clip-path="url(#cpMzMuMjN8NDk4LjUyfDM0Ni4yOHw1LjQ4)" style="stroke-width:.71;fill:#000"/><circle cx="344.21" cy="235.27" r="1.95" clip-path="url(#cpMzMuMjN8NDk4LjUyfDM0Ni4yOHw1LjQ4)" style="stroke-width:.71;fill:#000"/><circle cx="344.21" cy="278.13" r="1.95" clip-path="url(#cpMzMuMjN8NDk4LjUyfDM0Ni4yOHw1LjQ4)" style="stroke-width:.71;fill:#000"/><circle cx="375.54" cy="269.56" r="1.95" clip-path="url(#cpMzMuMjN8NDk4LjUyfDM0Ni4yOHw1LjQ4)" style="stroke-width:.71;fill:#000"/><circle cx="438.21" cy="252.41" r="1.95" clip-path="url(#cpMzMuMjN8NDk4LjUyfDM0Ni4yOHw1LjQ4)" style="stroke-width:.71;fill:#000"/><circle cx="117.05" cy="166.69" r="1.95" clip-path="url(#cpMzMuMjN8NDk4LjUyfDM0Ni4yOHw1LjQ4)" style="stroke-width:.71;fill:#000"/><circle cx="117.05" cy="140.98" r="1.95" clip-path="url(#cpMzMuMjN8NDk4LjUyfDM0Ni4yOHw1LjQ4)" style="stroke-width:.71;fill:#000"/><circle cx="171.88" cy="175.27" r="1.95" clip-path="url(#cpMzMuMjN8NDk4LjUyfDM0Ni4yOHw1LjQ4)" style="stroke-width:.71;fill:#000"/><circle cx="203.21" cy="149.55" r="1.95" clip-path="url(#cpMzMuMjN8NDk4LjUyfDM0Ni4yOHw1LjQ4)" style="stroke-width:.71;fill:#000"/><circle cx="211.04" cy="175.27" r="1.95" clip-path="url(#cpMzMuMjN8NDk4LjUyfDM0Ni4yOHw1LjQ4)" style="stroke-width:.71;fill:#000"/><circle cx="117.05" cy="192.41" r="1.95" clip-path="url(#cpMzMuMjN8NDk4LjUyfDM0Ni4yOHw1LjQ4)" style="stroke-width:.71;fill:#000"/><circle cx="164.05" cy="192.41" r="1.95" clip-path="url(#cpMzMuMjN8NDk4LjUyfDM0Ni4yOHw1LjQ4)" style="stroke-width:.71;fill:#000"/><circle cx="187.55" cy="209.55" r="1.95" clip-path="url(#cpMzMuMjN8NDk4LjUyfDM0Ni4yOHw1LjQ4)" style="stroke-width:.71;fill:#000"/><circle cx="187.55" cy="209.55" r="1.95" clip-path="url(#cpMzMuMjN8NDk4LjUyfDM0Ni4yOHw1LjQ4)" style="stroke-width:.71;fill:#000"/><circle cx="187.55" cy="192.41" r="1.95" clip-path="url(#cpMzMuMjN8NDk4LjUyfDM0Ni4yOHw1LjQ4)" style="stroke-width:.71;fill:#000"/><circle cx="187.55" cy="192.41" r="1.95" clip-path="url(#cpMzMuMjN8NDk4LjUyfDM0Ni4yOHw1LjQ4)" style="stroke-width:.71;fill:#000"/><circle cx="187.55" cy="252.41" r="1.95" clip-path="url(#cpMzMuMjN8NDk4LjUyfDM0Ni4yOHw1LjQ4)" style="stroke-width:.71;fill:#000"/><circle cx="226.71" cy="209.55" r="1.95" clip-path="url(#cpMzMuMjN8NDk4LjUyfDM0Ni4yOHw1LjQ4)" style="stroke-width:.71;fill:#000"/><circle cx="226.71" cy="218.13" r="1.95" clip-path="url(#cpMzMuMjN8NDk4LjUyfDM0Ni4yOHw1LjQ4)" style="stroke-width:.71;fill:#000"/><circle cx="226.71" cy="200.98" r="1.95" clip-path="url(#cpMzMuMjN8NDk4LjUyfDM0Ni4yOHw1LjQ4)" style="stroke-width:.71;fill:#000"/><circle cx="242.38" cy="200.98" r="1.95" clip-path="url(#cpMzMuMjN8NDk4LjUyfDM0Ni4yOHw1LjQ4)" style="stroke-width:.71;fill:#000"/><circle cx="218.88" cy="235.27" r="1.95" clip-path="url(#cpMzMuMjN8NDk4LjUyfDM0Ni4yOHw1LjQ4)" style="stroke-width:.71;fill:#000"/><circle cx="218.88" cy="243.84" r="1.95" clip-path="url(#cpMzMuMjN8NDk4LjUyfDM0Ni4yOHw1LjQ4)" style="stroke-width:.71;fill:#000"/><circle cx="234.54" cy="252.41" r="1.95" clip-path="url(#cpMzMuMjN8NDk4LjUyfDM0Ni4yOHw1LjQ4)" style="stroke-width:.71;fill:#000"/><circle cx="234.54" cy="252.41" r="1.95" clip-path="url(#cpMzMuMjN8NDk4LjUyfDM0Ni4yOHw1LjQ4)" style="stroke-width:.71;fill:#000"/><circle cx="297.21" cy="235.27" r="1.95" clip-path="url(#cpMzMuMjN8NDk4LjUyfDM0Ni4yOHw1LjQ4)" style="stroke-width:.71;fill:#000"/><circle cx="297.21" cy="235.27" r="1.95" clip-path="url(#cpMzMuMjN8NDk4LjUyfDM0Ni4yOHw1LjQ4)" style="stroke-width:.71;fill:#000"/><circle cx="297.21" cy="295.27" r="1.95" clip-path="url(#cpMzMuMjN8NDk4LjUyfDM0Ni4yOHw1LjQ4)" style="stroke-width:.71;fill:#000"/><circle cx="336.37" cy="252.41" r="1.95" clip-path="url(#cpMzMuMjN8NDk4LjUyfDM0Ni4yOHw1LjQ4)" style="stroke-width:.71;fill:#000"/><circle cx="336.37" cy="269.56" r="1.95" clip-path="url(#cpMzMuMjN8NDk4LjUyfDM0Ni4yOHw1LjQ4)" style="stroke-width:.71;fill:#000"/><circle cx="234.54" cy="252.41" r="1.95" clip-path="url(#cpMzMuMjN8NDk4LjUyfDM0Ni4yOHw1LjQ4)" style="stroke-width:.71;fill:#000"/><circle cx="297.21" cy="252.41" r="1.95" clip-path="url(#cpMzMuMjN8NDk4LjUyfDM0Ni4yOHw1LjQ4)" style="stroke-width:.71;fill:#000"/><circle cx="297.21" cy="295.27" r="1.95" clip-path="url(#cpMzMuMjN8NDk4LjUyfDM0Ni4yOHw1LjQ4)" style="stroke-width:.71;fill:#000"/><circle cx="297.21" cy="252.41" r="1.95" clip-path="url(#cpMzMuMjN8NDk4LjUyfDM0Ni4yOHw1LjQ4)" style="stroke-width:.71;fill:#000"/><circle cx="336.37" cy="260.99" r="1.95" clip-path="url(#cpMzMuMjN8NDk4LjUyfDM0Ni4yOHw1LjQ4)" style="stroke-width:.71;fill:#000"/><circle cx="375.54" cy="243.84" r="1.95" clip-path="url(#cpMzMuMjN8NDk4LjUyfDM0Ni4yOHw1LjQ4)" style="stroke-width:.71;fill:#000"/><circle cx="391.21" cy="269.56" r="1.95" clip-path="url(#cpMzMuMjN8NDk4LjUyfDM0Ni4yOHw1LjQ4)" style="stroke-width:.71;fill:#000"/><circle cx="297.21" cy="260.99" r="1.95" clip-path="url(#cpMzMuMjN8NDk4LjUyfDM0Ni4yOHw1LjQ4)" style="stroke-width:.71;fill:#000"/><circle cx="297.21" cy="295.27" r="1.95" clip-path="url(#cpMzMuMjN8NDk4LjUyfDM0Ni4yOHw1LjQ4)" style="stroke-width:.71;fill:#000"/><circle cx="297.21" cy="252.41" r="1.95" clip-path="url(#cpMzMuMjN8NDk4LjUyfDM0Ni4yOHw1LjQ4)" style="stroke-width:.71;fill:#000"/><circle cx="297.21" cy="252.41" r="1.95" clip-path="url(#cpMzMuMjN8NDk4LjUyfDM0Ni4yOHw1LjQ4)" style="stroke-width:.71;fill:#000"/><circle cx="297.21" cy="260.99" r="1.95" clip-path="url(#cpMzMuMjN8NDk4LjUyfDM0Ni4yOHw1LjQ4)" style="stroke-width:.71;fill:#000"/><circle cx="297.21" cy="295.27" r="1.95" clip-path="url(#cpMzMuMjN8NDk4LjUyfDM0Ni4yOHw1LjQ4)" style="stroke-width:.71;fill:#000"/><circle cx="336.37" cy="269.56" r="1.95" clip-path="url(#cpMzMuMjN8NDk4LjUyfDM0Ni4yOHw1LjQ4)" style="stroke-width:.71;fill:#000"/><circle cx="336.37" cy="260.99" r="1.95" clip-path="url(#cpMzMuMjN8NDk4LjUyfDM0Ni4yOHw1LjQ4)" style="stroke-width:.71;fill:#000"/><circle cx="375.54" cy="252.41" r="1.95" clip-path="url(#cpMzMuMjN8NDk4LjUyfDM0Ni4yOHw1LjQ4)" style="stroke-width:.71;fill:#000"/><circle cx="391.21" cy="269.56" r="1.95" clip-path="url(#cpMzMuMjN8NDk4LjUyfDM0Ni4yOHw1LjQ4)" style="stroke-width:.71;fill:#000"/><circle cx="289.38" cy="252.41" r="1.95" clip-path="url(#cpMzMuMjN8NDk4LjUyfDM0Ni4yOHw1LjQ4)" style="stroke-width:.71;fill:#000"/><circle cx="352.04" cy="252.41" r="1.95" clip-path="url(#cpMzMuMjN8NDk4LjUyfDM0Ni4yOHw1LjQ4)" style="stroke-width:.71;fill:#000"/><circle cx="352.04" cy="243.84" r="1.95" clip-path="url(#cpMzMuMjN8NDk4LjUyfDM0Ni4yOHw1LjQ4)" style="stroke-width:.71;fill:#000"/><circle cx="242.38" cy="252.41" r="1.95" clip-path="url(#cpMzMuMjN8NDk4LjUyfDM0Ni4yOHw1LjQ4)" style="stroke-width:.71;fill:#000"/><circle cx="242.38" cy="235.27" r="1.95" clip-path="url(#cpMzMuMjN8NDk4LjUyfDM0Ni4yOHw1LjQ4)" style="stroke-width:.71;fill:#000"/><circle cx="242.38" cy="252.41" r="1.95" clip-path="url(#cpMzMuMjN8NDk4LjUyfDM0Ni4yOHw1LjQ4)" style="stroke-width:.71;fill:#000"/><circle cx="242.38" cy="235.27" r="1.95" clip-path="url(#cpMzMuMjN8NDk4LjUyfDM0Ni4yOHw1LjQ4)" style="stroke-width:.71;fill:#000"/><circle cx="289.38" cy="235.27" r="1.95" clip-path="url(#cpMzMuMjN8NDk4LjUyfDM0Ni4yOHw1LjQ4)" style="stroke-width:.71;fill:#000"/><circle cx="320.71" cy="252.41" r="1.95" clip-path="url(#cpMzMuMjN8NDk4LjUyfDM0Ni4yOHw1LjQ4)" style="stroke-width:.71;fill:#000"/><circle cx="258.04" cy="252.41" r="1.95" clip-path="url(#cpMzMuMjN8NDk4LjUyfDM0Ni4yOHw1LjQ4)" style="stroke-width:.71;fill:#000"/><circle cx="258.04" cy="252.41" r="1.95" clip-path="url(#cpMzMuMjN8NDk4LjUyfDM0Ni4yOHw1LjQ4)" style="stroke-width:.71;fill:#000"/><circle cx="289.38" cy="260.99" r="1.95" clip-path="url(#cpMzMuMjN8NDk4LjUyfDM0Ni4yOHw1LjQ4)" style="stroke-width:.71;fill:#000"/><circle cx="289.38" cy="260.99" r="1.95" clip-path="url(#cpMzMuMjN8NDk4LjUyfDM0Ni4yOHw1LjQ4)" style="stroke-width:.71;fill:#000"/><circle cx="289.38" cy="252.41" r="1.95" clip-path="url(#cpMzMuMjN8NDk4LjUyfDM0Ni4yOHw1LjQ4)" style="stroke-width:.71;fill:#000"/><circle cx="352.04" cy="269.56" r="1.95" clip-path="url(#cpMzMuMjN8NDk4LjUyfDM0Ni4yOHw1LjQ4)" style="stroke-width:.71;fill:#000"/><circle cx="352.04" cy="252.41" r="1.95" clip-path="url(#cpMzMuMjN8NDk4LjUyfDM0Ni4yOHw1LjQ4)" style="stroke-width:.71;fill:#000"/><circle cx="226.71" cy="175.27" r="1.95" clip-path="url(#cpMzMuMjN8NDk4LjUyfDM0Ni4yOHw1LjQ4)" style="stroke-width:.71;fill:#000"/><circle cx="226.71" cy="183.84" r="1.95" clip-path="url(#cpMzMuMjN8NDk4LjUyfDM0Ni4yOHw1LjQ4)" style="stroke-width:.71;fill:#000"/><circle cx="242.38" cy="175.27" r="1.95" clip-path="url(#cpMzMuMjN8NDk4LjUyfDM0Ni4yOHw1LjQ4)" style="stroke-width:.71;fill:#000"/><circle cx="242.38" cy="192.41" r="1.95" clip-path="url(#cpMzMuMjN8NDk4LjUyfDM0Ni4yOHw1LjQ4)" style="stroke-width:.71;fill:#000"/><circle cx="289.38" cy="218.13" r="1.95" clip-path="url(#cpMzMuMjN8NDk4LjUyfDM0Ni4yOHw1LjQ4)" style="stroke-width:.71;fill:#000"/><circle cx="289.38" cy="209.55" r="1.95" clip-path="url(#cpMzMuMjN8NDk4LjUyfDM0Ni4yOHw1LjQ4)" style="stroke-width:.71;fill:#000"/><circle cx="289.38" cy="200.98" r="1.95" clip-path="url(#cpMzMuMjN8NDk4LjUyfDM0Ni4yOHw1LjQ4)" style="stroke-width:.71;fill:#000"/><circle cx="289.38" cy="209.55" r="1.95" clip-path="url(#cpMzMuMjN8NDk4LjUyfDM0Ni4yOHw1LjQ4)" style="stroke-width:.71;fill:#000"/><circle cx="352.04" cy="226.7" r="1.95" clip-path="url(#cpMzMuMjN8NDk4LjUyfDM0Ni4yOHw1LjQ4)" style="stroke-width:.71;fill:#000"/><circle cx="54.38" cy="115.26" r="1.95" clip-path="url(#cpMzMuMjN8NDk4LjUyfDM0Ni4yOHw1LjQ4)" style="stroke-width:.71;fill:#000"/><circle cx="54.38" cy="123.83" r="1.95" clip-path="url(#cpMzMuMjN8NDk4LjUyfDM0Ni4yOHw1LjQ4)" style="stroke-width:.71;fill:#000"/><circle cx="54.38" cy="123.83" r="1.95" clip-path="url(#cpMzMuMjN8NDk4LjUyfDM0Ni4yOHw1LjQ4)" style="stroke-width:.71;fill:#000"/><circle cx="54.38" cy="149.55" r="1.95" clip-path="url(#cpMzMuMjN8NDk4LjUyfDM0Ni4yOHw1LjQ4)" style="stroke-width:.71;fill:#000"/><circle cx="54.38" cy="123.83" r="1.95" clip-path="url(#cpMzMuMjN8NDk4LjUyfDM0Ni4yOHw1LjQ4)" style="stroke-width:.71;fill:#000"/><circle cx="70.05" cy="106.69" r="1.95" clip-path="url(#cpMzMuMjN8NDk4LjUyfDM0Ni4yOHw1LjQ4)" style="stroke-width:.71;fill:#000"/><circle cx="70.05" cy="89.55" r="1.95" clip-path="url(#cpMzMuMjN8NDk4LjUyfDM0Ni4yOHw1LjQ4)" style="stroke-width:.71;fill:#000"/><circle cx="70.05" cy="89.55" r="1.95" clip-path="url(#cpMzMuMjN8NDk4LjUyfDM0Ni4yOHw1LjQ4)" style="stroke-width:.71;fill:#000"/><circle cx="85.71" cy="149.55" r="1.95" clip-path="url(#cpMzMuMjN8NDk4LjUyfDM0Ni4yOHw1LjQ4)" style="stroke-width:.71;fill:#000"/><circle cx="117.05" cy="175.27" r="1.95" clip-path="url(#cpMzMuMjN8NDk4LjUyfDM0Ni4yOHw1LjQ4)" style="stroke-width:.71;fill:#000"/><circle cx="117.05" cy="166.69" r="1.95" clip-path="url(#cpMzMuMjN8NDk4LjUyfDM0Ni4yOHw1LjQ4)" style="stroke-width:.71;fill:#000"/><circle cx="117.05" cy="140.98" r="1.95" clip-path="url(#cpMzMuMjN8NDk4LjUyfDM0Ni4yOHw1LjQ4)" style="stroke-width:.71;fill:#000"/><circle cx="117.05" cy="132.41" r="1.95" clip-path="url(#cpMzMuMjN8NDk4LjUyfDM0Ni4yOHw1LjQ4)" style="stroke-width:.71;fill:#000"/><circle cx="124.88" cy="175.27" r="1.95" clip-path="url(#cpMzMuMjN8NDk4LjUyfDM0Ni4yOHw1LjQ4)" style="stroke-width:.71;fill:#000"/><circle cx="124.88" cy="175.27" r="1.95" clip-path="url(#cpMzMuMjN8NDk4LjUyfDM0Ni4yOHw1LjQ4)" style="stroke-width:.71;fill:#000"/><circle cx="187.55" cy="158.12" r="1.95" clip-path="url(#cpMzMuMjN8NDk4LjUyfDM0Ni4yOHw1LjQ4)" style="stroke-width:.71;fill:#000"/><circle cx="85.71" cy="175.27" r="1.95" clip-path="url(#cpMzMuMjN8NDk4LjUyfDM0Ni4yOHw1LjQ4)" style="stroke-width:.71;fill:#000"/><circle cx="85.71" cy="149.55" r="1.95" clip-path="url(#cpMzMuMjN8NDk4LjUyfDM0Ni4yOHw1LjQ4)" style="stroke-width:.71;fill:#000"/><circle cx="85.71" cy="158.12" r="1.95" clip-path="url(#cpMzMuMjN8NDk4LjUyfDM0Ni4yOHw1LjQ4)" style="stroke-width:.71;fill:#000"/><circle cx="85.71" cy="166.69" r="1.95" clip-path="url(#cpMzMuMjN8NDk4LjUyfDM0Ni4yOHw1LjQ4)" style="stroke-width:.71;fill:#000"/><circle cx="140.55" cy="192.41" r="1.95" clip-path="url(#cpMzMuMjN8NDk4LjUyfDM0Ni4yOHw1LjQ4)" style="stroke-width:.71;fill:#000"/><circle cx="140.55" cy="192.41" r="1.95" clip-path="url(#cpMzMuMjN8NDk4LjUyfDM0Ni4yOHw1LjQ4)" style="stroke-width:.71;fill:#000"/><circle cx="140.55" cy="192.41" r="1.95" clip-path="url(#cpMzMuMjN8NDk4LjUyfDM0Ni4yOHw1LjQ4)" style="stroke-width:.71;fill:#000"/><circle cx="164.05" cy="209.55" r="1.95" clip-path="url(#cpMzMuMjN8NDk4LjUyfDM0Ni4yOHw1LjQ4)" style="stroke-width:.71;fill:#000"/><circle cx="218.88" cy="235.27" r="1.95" clip-path="url(#cpMzMuMjN8NDk4LjUyfDM0Ni4yOHw1LjQ4)" style="stroke-width:.71;fill:#000"/><circle cx="242.38" cy="226.7" r="1.95" clip-path="url(#cpMzMuMjN8NDk4LjUyfDM0Ni4yOHw1LjQ4)" style="stroke-width:.71;fill:#000"/><circle cx="297.21" cy="252.41" r="1.95" clip-path="url(#cpMzMuMjN8NDk4LjUyfDM0Ni4yOHw1LjQ4)" style="stroke-width:.71;fill:#000"/><circle cx="297.21" cy="295.27" r="1.95" clip-path="url(#cpMzMuMjN8NDk4LjUyfDM0Ni4yOHw1LjQ4)" style="stroke-width:.71;fill:#000"/><circle cx="297.21" cy="235.27" r="1.95" clip-path="url(#cpMzMuMjN8NDk4LjUyfDM0Ni4yOHw1LjQ4)" style="stroke-width:.71;fill:#000"/><circle cx="375.54" cy="243.84" r="1.95" clip-path="url(#cpMzMuMjN8NDk4LjUyfDM0Ni4yOHw1LjQ4)" style="stroke-width:.71;fill:#000"/><circle cx="406.87" cy="278.13" r="1.95" clip-path="url(#cpMzMuMjN8NDk4LjUyfDM0Ni4yOHw1LjQ4)" style="stroke-width:.71;fill:#000"/><circle cx="242.38" cy="269.56" r="1.95" clip-path="url(#cpMzMuMjN8NDk4LjUyfDM0Ni4yOHw1LjQ4)" style="stroke-width:.71;fill:#000"/><circle cx="258.04" cy="243.84" r="1.95" clip-path="url(#cpMzMuMjN8NDk4LjUyfDM0Ni4yOHw1LjQ4)" style="stroke-width:.71;fill:#000"/><circle cx="273.71" cy="243.84" r="1.95" clip-path="url(#cpMzMuMjN8NDk4LjUyfDM0Ni4yOHw1LjQ4)" style="stroke-width:.71;fill:#000"/><circle cx="289.38" cy="269.56" r="1.95" clip-path="url(#cpMzMuMjN8NDk4LjUyfDM0Ni4yOHw1LjQ4)" style="stroke-width:.71;fill:#000"/><circle cx="352.04" cy="252.41" r="1.95" clip-path="url(#cpMzMuMjN8NDk4LjUyfDM0Ni4yOHw1LjQ4)" style="stroke-width:.71;fill:#000"/><circle cx="352.04" cy="260.99" r="1.95" clip-path="url(#cpMzMuMjN8NDk4LjUyfDM0Ni4yOHw1LjQ4)" style="stroke-width:.71;fill:#000"/><circle cx="352.04" cy="243.84" r="1.95" clip-path="url(#cpMzMuMjN8NDk4LjUyfDM0Ni4yOHw1LjQ4)" style="stroke-width:.71;fill:#000"/><circle cx="242.38" cy="252.41" r="1.95" clip-path="url(#cpMzMuMjN8NDk4LjUyfDM0Ni4yOHw1LjQ4)" style="stroke-width:.71;fill:#000"/><circle cx="242.38" cy="235.27" r="1.95" clip-path="url(#cpMzMuMjN8NDk4LjUyfDM0Ni4yOHw1LjQ4)" style="stroke-width:.71;fill:#000"/><circle cx="289.38" cy="235.27" r="1.95" clip-path="url(#cpMzMuMjN8NDk4LjUyfDM0Ni4yOHw1LjQ4)" style="stroke-width:.71;fill:#000"/><circle cx="320.71" cy="252.41" r="1.95" clip-path="url(#cpMzMuMjN8NDk4LjUyfDM0Ni4yOHw1LjQ4)" style="stroke-width:.71;fill:#000"/><circle cx="117.05" cy="149.55" r="1.95" clip-path="url(#cpMzMuMjN8NDk4LjUyfDM0Ni4yOHw1LjQ4)" style="stroke-width:.71;fill:#000"/><circle cx="117.05" cy="166.69" r="1.95" clip-path="url(#cpMzMuMjN8NDk4LjUyfDM0Ni4yOHw1LjQ4)" style="stroke-width:.71;fill:#000"/><circle cx="124.88" cy="132.41" r="1.95" clip-path="url(#cpMzMuMjN8NDk4LjUyfDM0Ni4yOHw1LjQ4)" style="stroke-width:.71;fill:#000"/><circle cx="124.88" cy="123.83" r="1.95" clip-path="url(#cpMzMuMjN8NDk4LjUyfDM0Ni4yOHw1LjQ4)" style="stroke-width:.71;fill:#000"/><circle cx="203.21" cy="166.69" r="1.95" clip-path="url(#cpMzMuMjN8NDk4LjUyfDM0Ni4yOHw1LjQ4)" style="stroke-width:.71;fill:#000"/><circle cx="203.21" cy="175.27" r="1.95" clip-path="url(#cpMzMuMjN8NDk4LjUyfDM0Ni4yOHw1LjQ4)" style="stroke-width:.71;fill:#000"/><circle cx="164.05" cy="175.27" r="1.95" clip-path="url(#cpMzMuMjN8NDk4LjUyfDM0Ni4yOHw1LjQ4)" style="stroke-width:.71;fill:#000"/><circle cx="164.05" cy="183.84" r="1.95" clip-path="url(#cpMzMuMjN8NDk4LjUyfDM0Ni4yOHw1LjQ4)" style="stroke-width:.71;fill:#000"/><circle cx="203.21" cy="183.84" r="1.95" clip-path="url(#cpMzMuMjN8NDk4LjUyfDM0Ni4yOHw1LjQ4)" style="stroke-width:.71;fill:#000"/><circle cx="187.55" cy="252.41" r="1.95" clip-path="url(#cpMzMuMjN8NDk4LjUyfDM0Ni4yOHw1LjQ4)" style="stroke-width:.71;fill:#000"/><circle cx="187.55" cy="252.41" r="1.95" clip-path="url(#cpMzMuMjN8NDk4LjUyfDM0Ni4yOHw1LjQ4)" style="stroke-width:.71;fill:#000"/><circle cx="242.38" cy="226.7" r="1.95" clip-path="url(#cpMzMuMjN8NDk4LjUyfDM0Ni4yOHw1LjQ4)" style="stroke-width:.71;fill:#000"/><circle cx="367.71" cy="243.84" r="1.95" clip-path="url(#cpMzMuMjN8NDk4LjUyfDM0Ni4yOHw1LjQ4)" style="stroke-width:.71;fill:#000"/><circle cx="171.88" cy="175.27" r="1.95" clip-path="url(#cpMzMuMjN8NDk4LjUyfDM0Ni4yOHw1LjQ4)" style="stroke-width:.71;fill:#000"/><circle cx="226.71" cy="175.27" r="1.95" clip-path="url(#cpMzMuMjN8NDk4LjUyfDM0Ni4yOHw1LjQ4)" style="stroke-width:.71;fill:#000"/><circle cx="226.71" cy="166.69" r="1.95" clip-path="url(#cpMzMuMjN8NDk4LjUyfDM0Ni4yOHw1LjQ4)" style="stroke-width:.71;fill:#000"/><circle cx="226.71" cy="158.12" r="1.95" clip-path="url(#cpMzMuMjN8NDk4LjUyfDM0Ni4yOHw1LjQ4)" style="stroke-width:.71;fill:#000"/><circle cx="344.21" cy="183.84" r="1.95" clip-path="url(#cpMzMuMjN8NDk4LjUyfDM0Ni4yOHw1LjQ4)" style="stroke-width:.71;fill:#000"/><circle cx="124.88" cy="183.84" r="1.95" clip-path="url(#cpMzMuMjN8NDk4LjUyfDM0Ni4yOHw1LjQ4)" style="stroke-width:.71;fill:#000"/><circle cx="124.88" cy="192.41" r="1.95" clip-path="url(#cpMzMuMjN8NDk4LjUyfDM0Ni4yOHw1LjQ4)" style="stroke-width:.71;fill:#000"/><circle cx="124.88" cy="166.69" r="1.95" clip-path="url(#cpMzMuMjN8NDk4LjUyfDM0Ni4yOHw1LjQ4)" style="stroke-width:.71;fill:#000"/><circle cx="124.88" cy="183.84" r="1.95" clip-path="url(#cpMzMuMjN8NDk4LjUyfDM0Ni4yOHw1LjQ4)" style="stroke-width:.71;fill:#000"/><circle cx="124.88" cy="175.27" r="1.95" clip-path="url(#cpMzMuMjN8NDk4LjUyfDM0Ni4yOHw1LjQ4)" style="stroke-width:.71;fill:#000"/><circle cx="124.88" cy="200.98" r="1.95" clip-path="url(#cpMzMuMjN8NDk4LjUyfDM0Ni4yOHw1LjQ4)" style="stroke-width:.71;fill:#000"/><circle cx="101.38" cy="175.27" r="1.95" clip-path="url(#cpMzMuMjN8NDk4LjUyfDM0Ni4yOHw1LjQ4)" style="stroke-width:.71;fill:#000"/><circle cx="101.38" cy="175.27" r="1.95" clip-path="url(#cpMzMuMjN8NDk4LjUyfDM0Ni4yOHw1LjQ4)" style="stroke-width:.71;fill:#000"/><circle cx="124.88" cy="175.27" r="1.95" clip-path="url(#cpMzMuMjN8NDk4LjUyfDM0Ni4yOHw1LjQ4)" style="stroke-width:.71;fill:#000"/><circle cx="124.88" cy="175.27" r="1.95" clip-path="url(#cpMzMuMjN8NDk4LjUyfDM0Ni4yOHw1LjQ4)" style="stroke-width:.71;fill:#000"/><circle cx="124.88" cy="183.84" r="1.95" clip-path="url(#cpMzMuMjN8NDk4LjUyfDM0Ni4yOHw1LjQ4)" style="stroke-width:.71;fill:#000"/><circle cx="124.88" cy="166.69" r="1.95" clip-path="url(#cpMzMuMjN8NDk4LjUyfDM0Ni4yOHw1LjQ4)" style="stroke-width:.71;fill:#000"/><circle cx="124.88" cy="183.84" r="1.95" clip-path="url(#cpMzMuMjN8NDk4LjUyfDM0Ni4yOHw1LjQ4)" style="stroke-width:.71;fill:#000"/><circle cx="124.88" cy="166.69" r="1.95" clip-path="url(#cpMzMuMjN8NDk4LjUyfDM0Ni4yOHw1LjQ4)" style="stroke-width:.71;fill:#000"/><circle cx="140.55" cy="226.7" r="1.95" clip-path="url(#cpMzMuMjN8NDk4LjUyfDM0Ni4yOHw1LjQ4)" style="stroke-width:.71;fill:#000"/><circle cx="140.55" cy="226.7" r="1.95" clip-path="url(#cpMzMuMjN8NDk4LjUyfDM0Ni4yOHw1LjQ4)" style="stroke-width:.71;fill:#000"/><circle cx="195.38" cy="235.27" r="1.95" clip-path="url(#cpMzMuMjN8NDk4LjUyfDM0Ni4yOHw1LjQ4)" style="stroke-width:.71;fill:#000"/><circle cx="195.38" cy="252.41" r="1.95" clip-path="url(#cpMzMuMjN8NDk4LjUyfDM0Ni4yOHw1LjQ4)" style="stroke-width:.71;fill:#000"/><circle cx="242.38" cy="226.7" r="1.95" clip-path="url(#cpMzMuMjN8NDk4LjUyfDM0Ni4yOHw1LjQ4)" style="stroke-width:.71;fill:#000"/><circle cx="297.21" cy="252.41" r="1.95" clip-path="url(#cpMzMuMjN8NDk4LjUyfDM0Ni4yOHw1LjQ4)" style="stroke-width:.71;fill:#000"/><circle cx="101.38" cy="149.55" r="1.95" clip-path="url(#cpMzMuMjN8NDk4LjUyfDM0Ni4yOHw1LjQ4)" style="stroke-width:.71;fill:#000"/><circle cx="101.38" cy="166.69" r="1.95" clip-path="url(#cpMzMuMjN8NDk4LjUyfDM0Ni4yOHw1LjQ4)" style="stroke-width:.71;fill:#000"/><circle cx="117.05" cy="132.41" r="1.95" clip-path="url(#cpMzMuMjN8NDk4LjUyfDM0Ni4yOHw1LjQ4)" style="stroke-width:.71;fill:#000"/><circle cx="117.05" cy="132.41" r="1.95" clip-path="url(#cpMzMuMjN8NDk4LjUyfDM0Ni4yOHw1LjQ4)" style="stroke-width:.71;fill:#000"/><circle cx="164.05" cy="175.27" r="1.95" clip-path="url(#cpMzMuMjN8NDk4LjUyfDM0Ni4yOHw1LjQ4)" style="stroke-width:.71;fill:#000"/><circle cx="164.05" cy="175.27" r="1.95" clip-path="url(#cpMzMuMjN8NDk4LjUyfDM0Ni4yOHw1LjQ4)" style="stroke-width:.71;fill:#000"/><circle cx="203.21" cy="158.12" r="1.95" clip-path="url(#cpMzMuMjN8NDk4LjUyfDM0Ni4yOHw1LjQ4)" style="stroke-width:.71;fill:#000"/><circle cx="101.38" cy="166.69" r="1.95" clip-path="url(#cpMzMuMjN8NDk4LjUyfDM0Ni4yOHw1LjQ4)" style="stroke-width:.71;fill:#000"/><circle cx="101.38" cy="149.55" r="1.95" clip-path="url(#cpMzMuMjN8NDk4LjUyfDM0Ni4yOHw1LjQ4)" style="stroke-width:.71;fill:#000"/><circle cx="117.05" cy="132.41" r="1.95" clip-path="url(#cpMzMuMjN8NDk4LjUyfDM0Ni4yOHw1LjQ4)" style="stroke-width:.71;fill:#000"/><circle cx="117.05" cy="132.41" r="1.95" clip-path="url(#cpMzMuMjN8NDk4LjUyfDM0Ni4yOHw1LjQ4)" style="stroke-width:.71;fill:#000"/><circle cx="164.05" cy="175.27" r="1.95" clip-path="url(#cpMzMuMjN8NDk4LjUyfDM0Ni4yOHw1LjQ4)" style="stroke-width:.71;fill:#000"/><circle cx="164.05" cy="175.27" r="1.95" clip-path="url(#cpMzMuMjN8NDk4LjUyfDM0Ni4yOHw1LjQ4)" style="stroke-width:.71;fill:#000"/><circle cx="187.55" cy="166.69" r="1.95" clip-path="url(#cpMzMuMjN8NDk4LjUyfDM0Ni4yOHw1LjQ4)" style="stroke-width:.71;fill:#000"/><circle cx="70.05" cy="140.98" r="1.95" clip-path="url(#cpMzMuMjN8NDk4LjUyfDM0Ni4yOHw1LjQ4)" style="stroke-width:.71;fill:#000"/><circle cx="70.05" cy="115.26" r="1.95" clip-path="url(#cpMzMuMjN8NDk4LjUyfDM0Ni4yOHw1LjQ4)" style="stroke-width:.71;fill:#000"/><circle cx="70.05" cy="98.12" r="1.95" clip-path="url(#cpMzMuMjN8NDk4LjUyfDM0Ni4yOHw1LjQ4)" style="stroke-width:.71;fill:#000"/><circle cx="70.05" cy="80.97" r="1.95" clip-path="url(#cpMzMuMjN8NDk4LjUyfDM0Ni4yOHw1LjQ4)" style="stroke-width:.71;fill:#000"/><circle cx="70.05" cy="98.12" r="1.95" clip-path="url(#cpMzMuMjN8NDk4LjUyfDM0Ni4yOHw1LjQ4)" style="stroke-width:.71;fill:#000"/><circle cx="297.21" cy="269.56" r="1.95" clip-path="url(#cpMzMuMjN8NDk4LjUyfDM0Ni4yOHw1LjQ4)" style="stroke-width:.71;fill:#000"/><circle cx="375.54" cy="243.84" r="1.95" clip-path="url(#cpMzMuMjN8NDk4LjUyfDM0Ni4yOHw1LjQ4)" style="stroke-width:.71;fill:#000"/><circle cx="140.55" cy="226.7" r="1.95" clip-path="url(#cpMzMuMjN8NDk4LjUyfDM0Ni4yOHw1LjQ4)" style="stroke-width:.71;fill:#000"/><circle cx="140.55" cy="226.7" r="1.95" clip-path="url(#cpMzMuMjN8NDk4LjUyfDM0Ni4yOHw1LjQ4)" style="stroke-width:.71;fill:#000"/><circle cx="140.55" cy="209.55" r="1.95" clip-path="url(#cpMzMuMjN8NDk4LjUyfDM0Ni4yOHw1LjQ4)" style="stroke-width:.71;fill:#000"/><circle cx="195.38" cy="252.41" r="1.95" clip-path="url(#cpMzMuMjN8NDk4LjUyfDM0Ni4yOHw1LjQ4)" style="stroke-width:.71;fill:#000"/><circle cx="195.38" cy="235.27" r="1.95" clip-path="url(#cpMzMuMjN8NDk4LjUyfDM0Ni4yOHw1LjQ4)" style="stroke-width:.71;fill:#000"/><circle cx="242.38" cy="243.84" r="1.95" clip-path="url(#cpMzMuMjN8NDk4LjUyfDM0Ni4yOHw1LjQ4)" style="stroke-width:.71;fill:#000"/><circle cx="242.38" cy="226.7" r="1.95" clip-path="url(#cpMzMuMjN8NDk4LjUyfDM0Ni4yOHw1LjQ4)" style="stroke-width:.71;fill:#000"/><circle cx="85.71" cy="149.55" r="1.95" clip-path="url(#cpMzMuMjN8NDk4LjUyfDM0Ni4yOHw1LjQ4)" style="stroke-width:.71;fill:#000"/><circle cx="85.71" cy="175.27" r="1.95" clip-path="url(#cpMzMuMjN8NDk4LjUyfDM0Ni4yOHw1LjQ4)" style="stroke-width:.71;fill:#000"/><circle cx="85.71" cy="149.55" r="1.95" clip-path="url(#cpMzMuMjN8NDk4LjUyfDM0Ni4yOHw1LjQ4)" style="stroke-width:.71;fill:#000"/><circle cx="85.71" cy="149.55" r="1.95" clip-path="url(#cpMzMuMjN8NDk4LjUyfDM0Ni4yOHw1LjQ4)" style="stroke-width:.71;fill:#000"/><circle cx="148.38" cy="192.41" r="1.95" clip-path="url(#cpMzMuMjN8NDk4LjUyfDM0Ni4yOHw1LjQ4)" style="stroke-width:.71;fill:#000"/><circle cx="77.88" cy="20.97" r="1.95" clip-path="url(#cpMzMuMjN8NDk4LjUyfDM0Ni4yOHw1LjQ4)" style="stroke-width:.71;fill:#000"/><circle cx="85.71" cy="149.55" r="1.95" clip-path="url(#cpMzMuMjN8NDk4LjUyfDM0Ni4yOHw1LjQ4)" style="stroke-width:.71;fill:#000"/><circle cx="85.71" cy="175.27" r="1.95" clip-path="url(#cpMzMuMjN8NDk4LjUyfDM0Ni4yOHw1LjQ4)" style="stroke-width:.71;fill:#000"/><circle cx="85.71" cy="149.55" r="1.95" clip-path="url(#cpMzMuMjN8NDk4LjUyfDM0Ni4yOHw1LjQ4)" style="stroke-width:.71;fill:#000"/><circle cx="85.71" cy="149.55" r="1.95" clip-path="url(#cpMzMuMjN8NDk4LjUyfDM0Ni4yOHw1LjQ4)" style="stroke-width:.71;fill:#000"/><circle cx="124.88" cy="149.55" r="1.95" clip-path="url(#cpMzMuMjN8NDk4LjUyfDM0Ni4yOHw1LjQ4)" style="stroke-width:.71;fill:#000"/><circle cx="124.88" cy="149.55" r="1.95" clip-path="url(#cpMzMuMjN8NDk4LjUyfDM0Ni4yOHw1LjQ4)" style="stroke-width:.71;fill:#000"/><circle cx="148.38" cy="200.98" r="1.95" clip-path="url(#cpMzMuMjN8NDk4LjUyfDM0Ni4yOHw1LjQ4)" style="stroke-width:.71;fill:#000"/><circle cx="148.38" cy="192.41" r="1.95" clip-path="url(#cpMzMuMjN8NDk4LjUyfDM0Ni4yOHw1LjQ4)" style="stroke-width:.71;fill:#000"/><circle cx="77.88" cy="20.97" r="1.95" clip-path="url(#cpMzMuMjN8NDk4LjUyfDM0Ni4yOHw1LjQ4)" style="stroke-width:.71;fill:#000"/><circle cx="77.88" cy="46.69" r="1.95" clip-path="url(#cpMzMuMjN8NDk4LjUyfDM0Ni4yOHw1LjQ4)" style="stroke-width:.71;fill:#000"/><circle cx="85.71" cy="149.55" r="1.95" clip-path="url(#cpMzMuMjN8NDk4LjUyfDM0Ni4yOHw1LjQ4)" style="stroke-width:.71;fill:#000"/><circle cx="85.71" cy="175.27" r="1.95" clip-path="url(#cpMzMuMjN8NDk4LjUyfDM0Ni4yOHw1LjQ4)" style="stroke-width:.71;fill:#000"/><circle cx="124.88" cy="158.12" r="1.95" clip-path="url(#cpMzMuMjN8NDk4LjUyfDM0Ni4yOHw1LjQ4)" style="stroke-width:.71;fill:#000"/><circle cx="124.88" cy="149.55" r="1.95" clip-path="url(#cpMzMuMjN8NDk4LjUyfDM0Ni4yOHw1LjQ4)" style="stroke-width:.71;fill:#000"/><circle cx="70.05" cy="149.55" r="1.95" clip-path="url(#cpMzMuMjN8NDk4LjUyfDM0Ni4yOHw1LjQ4)" style="stroke-width:.71;fill:#000"/><circle cx="70.05" cy="149.55" r="1.95" clip-path="url(#cpMzMuMjN8NDk4LjUyfDM0Ni4yOHw1LjQ4)" style="stroke-width:.71;fill:#000"/><circle cx="85.71" cy="158.12" r="1.95" clip-path="url(#cpMzMuMjN8NDk4LjUyfDM0Ni4yOHw1LjQ4)" style="stroke-width:.71;fill:#000"/><circle cx="85.71" cy="149.55" r="1.95" clip-path="url(#cpMzMuMjN8NDk4LjUyfDM0Ni4yOHw1LjQ4)" style="stroke-width:.71;fill:#000"/><circle cx="148.38" cy="175.27" r="1.95" clip-path="url(#cpMzMuMjN8NDk4LjUyfDM0Ni4yOHw1LjQ4)" style="stroke-width:.71;fill:#000"/><circle cx="148.38" cy="175.27" r="1.95" clip-path="url(#cpMzMuMjN8NDk4LjUyfDM0Ni4yOHw1LjQ4)" style="stroke-width:.71;fill:#000"/><circle cx="211.04" cy="175.27" r="1.95" clip-path="url(#cpMzMuMjN8NDk4LjUyfDM0Ni4yOHw1LjQ4)" style="stroke-width:.71;fill:#000"/><polyline points="54.38 154.45 58.66 156.23 62.93 158.01 67.2 159.79 71.47 161.57 75.75 163.35 80.02 165.13 84.29 166.92 88.56 168.7 92.84 170.48 97.11 172.26 101.38 174.04 105.65 175.82 109.93 177.6 114.2 179.38 118.47 181.17 122.74 182.95 127.02 184.73 131.29 186.51 135.56 188.29 139.83 190.07 144.11 191.85 148.38 193.63 152.65 195.42 156.93 197.2 161.2 198.98 165.47 200.76 169.74 202.54 174.02 204.32 178.29 206.1 182.56 207.88 186.83 209.66 191.11 211.45 195.38 213.23 199.65 215.01 203.92 216.79 208.2 218.57 212.47 220.35 216.74 222.13 221.01 223.91 225.29 225.7 229.56 227.48 233.83 229.26 238.1 231.04 242.38 232.82 246.65 234.6 250.92 236.38 255.2 238.16 259.47 239.94 263.74 241.73 268.01 243.51 272.29 245.29 276.56 247.07 280.83 248.85 285.1 250.63 289.38 252.41 293.65 254.19 297.92 255.98 302.19 257.76 306.47 259.54 310.74 261.32 315.01 263.1 319.28 264.88 323.56 266.66 327.83 268.44 332.1 270.22 336.37 272.01 340.65 273.79 344.92 275.57 349.19 277.35 353.47 279.13 357.74 280.91 362.01 282.69 366.28 284.47 370.56 286.26 374.83 288.04 379.1 289.82 383.37 291.6 387.65 293.38 391.92 295.16 396.19 296.94 400.46 298.72 404.74 300.51 409.01 302.29 413.28 304.07 417.55 305.85 421.83 307.63 426.1 309.41 430.37 311.19 434.64 312.97 438.92 314.75 443.19 316.54 447.46 318.32 451.74 320.1 456.01 321.88 460.28 323.66 464.55 325.44 468.83 327.22 473.1 329 477.37 330.79" clip-path="url(#cpMzMuMjN8NDk4LjUyfDM0Ni4yOHw1LjQ4)" style="stroke-width:1.07;stroke:#36f;stroke-linecap:butt"/><polyline points="54.38 142.2 58.66 143.87 62.93 145.54 67.2 147.21 71.47 148.88 75.75 150.55 80.02 152.22 84.29 153.89 88.56 155.56 92.84 157.23 97.11 158.9 101.38 160.57 105.65 162.24 109.93 163.91 114.2 165.58 118.47 167.25 122.74 168.92 127.02 170.59 131.29 172.26 135.56 173.93 139.83 175.6 144.11 177.27 148.38 178.94 152.65 180.61 156.93 182.28 161.2 183.95 165.47 185.62 169.74 187.29 174.02 188.96 178.29 190.63 182.56 192.3 186.83 193.97 191.11 195.64 195.38 197.31 199.65 198.98 203.92 200.65 208.2 202.32 212.47 203.99 216.74 205.66 221.01 207.33 225.29 209 229.56 210.67 233.83 212.34 238.1 214.01 242.38 215.68 246.65 217.35 250.92 219.02 255.2 220.69 259.47 222.36 263.74 224.03 268.01 225.7 272.29 227.37 276.56 229.04 280.83 230.7 285.1 232.37 289.38 234.04 293.65 235.71 297.92 237.38 302.19 239.05 306.47 240.72 310.74 242.39 315.01 244.06 319.28 245.73 323.56 247.4 327.83 249.07 332.1 250.74 336.37 252.41 340.65 254.08 344.92 255.75 349.19 257.42 353.47 259.09 357.74 260.76 362.01 262.43 366.28 264.1 370.56 265.77 374.83 267.44 379.1 269.11 383.37 270.78 387.65 272.45 391.92 274.12 396.19 275.79 400.46 277.46 404.74 279.13 409.01 280.8 413.28 282.47 417.55 284.14 421.83 285.81 426.1 287.48 430.37 289.15 434.64 290.82 438.92 292.49 443.19 294.16 447.46 295.83 451.74 297.5 456.01 299.17 460.28 300.84 464.55 302.51 468.83 304.18 473.1 305.85 477.37 307.52" clip-path="url(#cpMzMuMjN8NDk4LjUyfDM0Ni4yOHw1LjQ4)" style="stroke-width:1.07;stroke:#36f;stroke-linecap:butt"/><polyline points="54.38 123.83 58.66 125.43 62.93 127.03 67.2 128.62 71.47 130.22 75.75 131.82 80.02 133.41 84.29 135.01 88.56 136.61 92.84 138.2 97.11 139.8 101.38 141.4 105.65 142.99 109.93 144.59 114.2 146.19 118.47 147.78 122.74 149.38 127.02 150.98 131.29 152.57 135.56 154.17 139.83 155.76 144.11 157.36 148.38 158.96 152.65 160.55 156.93 162.15 161.2 163.75 165.47 165.34 169.74 166.94 174.02 168.54 178.29 170.13 182.56 171.73 186.83 173.33 191.11 174.92 195.38 176.52 199.65 178.12 203.92 179.71 208.2 181.31 212.47 182.91 216.74 184.5 221.01 186.1 225.29 187.7 229.56 189.29 233.83 190.89 238.1 192.49 242.38 194.08 246.65 195.68 250.92 197.28 255.2 198.87 259.47 200.47 263.74 202.06 268.01 203.66 272.29 205.26 276.56 206.85 280.83 208.45 285.1 210.05 289.38 211.64 293.65 213.24 297.92 214.84 302.19 216.43 306.47 218.03 310.74 219.63 315.01 221.22 319.28 222.82 323.56 224.42 327.83 226.01 332.1 227.61 336.37 229.21 340.65 230.8 344.92 232.4 349.19 234 353.47 235.59 357.74 237.19 362.01 238.79 366.28 240.38 370.56 241.98 374.83 243.58 379.1 245.17 383.37 246.77 387.65 248.36 391.92 249.96 396.19 251.56 400.46 253.15 404.74 254.75 409.01 256.35 413.28 257.94 417.55 259.54 421.83 261.14 426.1 262.73 430.37 264.33 434.64 265.93 438.92 267.52 443.19 269.12 447.46 270.72 451.74 272.31 456.01 273.91 460.28 275.51 464.55 277.1 468.83 278.7 473.1 280.3 477.37 281.89" clip-path="url(#cpMzMuMjN8NDk4LjUyfDM0Ni4yOHw1LjQ4)" style="stroke-width:1.07;stroke:#36f;stroke-linecap:butt"/><defs><clipPath id="cpMC4wMHw1MDQuMDB8Mzc4LjAwfDAuMDA="><rect width="504" height="378" x="0" y="0"/></clipPath></defs><g clip-path="url(#cpMC4wMHw1MDQuMDB8Mzc4LjAwfDAuMDA=)"><text x="18.51" y="315.57" lengthAdjust="spacingAndGlyphs" textLength="9.79" style="font-size:8.8px;fill:#4d4d4d;font-family:Arial">10</text></g><g clip-path="url(#cpMC4wMHw1MDQuMDB8Mzc4LjAwfDAuMDA=)"><text x="18.51" y="229.85" lengthAdjust="spacingAndGlyphs" textLength="9.79" style="font-size:8.8px;fill:#4d4d4d;font-family:Arial">20</text></g><g clip-path="url(#cpMC4wMHw1MDQuMDB8Mzc4LjAwfDAuMDA=)"><text x="18.51" y="144.13" lengthAdjust="spacingAndGlyphs" textLength="9.79" style="font-size:8.8px;fill:#4d4d4d;font-family:Arial">30</text></g><g clip-path="url(#cpMC4wMHw1MDQuMDB8Mzc4LjAwfDAuMDA=)"><text x="18.51" y="58.41" lengthAdjust="spacingAndGlyphs" textLength="9.79" style="font-size:8.8px;fill:#4d4d4d;font-family:Arial">40</text></g><polyline points="30.49 312.42 33.23 312.42" clip-path="url(#cpMC4wMHw1MDQuMDB8Mzc4LjAwfDAuMDA=)" style="stroke-width:1.07;stroke:#333;stroke-linecap:butt"/><polyline points="30.49 226.7 33.23 226.7" clip-path="url(#cpMC4wMHw1MDQuMDB8Mzc4LjAwfDAuMDA=)" style="stroke-width:1.07;stroke:#333;stroke-linecap:butt"/><polyline points="30.49 140.98 33.23 140.98" clip-path="url(#cpMC4wMHw1MDQuMDB8Mzc4LjAwfDAuMDA=)" style="stroke-width:1.07;stroke:#333;stroke-linecap:butt"/><polyline points="30.49 55.26 33.23 55.26" clip-path="url(#cpMC4wMHw1MDQuMDB8Mzc4LjAwfDAuMDA=)" style="stroke-width:1.07;stroke:#333;stroke-linecap:butt"/><polyline points="85.71 349.02 85.71 346.28" clip-path="url(#cpMC4wMHw1MDQuMDB8Mzc4LjAwfDAuMDA=)" style="stroke-width:1.07;stroke:#333;stroke-linecap:butt"/><polyline points="164.05 349.02 164.05 346.28" clip-path="url(#cpMC4wMHw1MDQuMDB8Mzc4LjAwfDAuMDA=)" style="stroke-width:1.07;stroke:#333;stroke-linecap:butt"/><polyline points="242.38 349.02 242.38 346.28" clip-path="url(#cpMC4wMHw1MDQuMDB8Mzc4LjAwfDAuMDA=)" style="stroke-width:1.07;stroke:#333;stroke-linecap:butt"/><polyline points="320.71 349.02 320.71 346.28" clip-path="url(#cpMC4wMHw1MDQuMDB8Mzc4LjAwfDAuMDA=)" style="stroke-width:1.07;stroke:#333;stroke-linecap:butt"/><polyline points="399.04 349.02 399.04 346.28" clip-path="url(#cpMC4wMHw1MDQuMDB8Mzc4LjAwfDAuMDA=)" style="stroke-width:1.07;stroke:#333;stroke-linecap:butt"/><polyline points="477.37 349.02 477.37 346.28" clip-path="url(#cpMC4wMHw1MDQuMDB8Mzc4LjAwfDAuMDA=)" style="stroke-width:1.07;stroke:#333;stroke-linecap:butt"/><g clip-path="url(#cpMC4wMHw1MDQuMDB8Mzc4LjAwfDAuMDA=)"><text x="83.27" y="357.51" lengthAdjust="spacingAndGlyphs" textLength="4.89" style="font-size:8.8px;fill:#4d4d4d;font-family:Arial">2</text></g><g clip-path="url(#cpMC4wMHw1MDQuMDB8Mzc4LjAwfDAuMDA=)"><text x="161.6" y="357.51" lengthAdjust="spacingAndGlyphs" textLength="4.89" style="font-size:8.8px;fill:#4d4d4d;font-family:Arial">3</text></g><g clip-path="url(#cpMC4wMHw1MDQuMDB8Mzc4LjAwfDAuMDA=)"><text x="239.93" y="357.51" lengthAdjust="spacingAndGlyphs" textLength="4.89" style="font-size:8.8px;fill:#4d4d4d;font-family:Arial">4</text></g><g clip-path="url(#cpMC4wMHw1MDQuMDB8Mzc4LjAwfDAuMDA=)"><text x="318.26" y="357.51" lengthAdjust="spacingAndGlyphs" textLength="4.89" style="font-size:8.8px;fill:#4d4d4d;font-family:Arial">5</text></g><g clip-path="url(#cpMC4wMHw1MDQuMDB8Mzc4LjAwfDAuMDA=)"><text x="396.59" y="357.51" lengthAdjust="spacingAndGlyphs" textLength="4.89" style="font-size:8.8px;fill:#4d4d4d;font-family:Arial">6</text></g><g clip-path="url(#cpMC4wMHw1MDQuMDB8Mzc4LjAwfDAuMDA=)"><text x="474.92" y="357.51" lengthAdjust="spacingAndGlyphs" textLength="4.89" style="font-size:8.8px;fill:#4d4d4d;font-family:Arial">7</text></g><g clip-path="url(#cpMC4wMHw1MDQuMDB8Mzc4LjAwfDAuMDA=)"><text x="254.57" y="370.1" lengthAdjust="spacingAndGlyphs" textLength="22.62" style="font-size:11px;font-family:Arial">displ</text></g><g clip-path="url(#cpMC4wMHw1MDQuMDB8Mzc4LjAwfDAuMDA=)"><text style="font-size:11px;font-family:Arial" lengthAdjust="spacingAndGlyphs" textLength="19.56" transform="translate(13.35,185.66) rotate(-90)">hwy</text></g></svg>