<svg xmlns="http://www.w3.org/2000/svg" xmlns:xlink="http://www.w3.org/1999/xlink" viewBox="0 0 504 252"><defs><style type="text/css">circle,polygon,polyline,rect{fill:none;stroke:#000;stroke-linecap:round;stroke-linejoin:round;stroke-miterlimit:10}</style></defs><rect width="100%" height="100%" style="stroke:none;fill:none"/><rect width="504" height="252" x="0" y="0" style="stroke-width:1.07;stroke:#fff;fill:#fff"/><defs><clipPath id="cpNS40OHwxNjcuOTd8MjQ2LjUyfDUuNDg="><rect width="162.49" height="241.04" x="5.48" y="5.48"/></clipPath></defs><rect width="162.49" height="241.04" x="5.48" y="5.48" clip-path="url(#cpNS40OHwxNjcuOTd8MjQ2LjUyfDUuNDg=)" style="stroke-width:1.07;stroke:none"/><defs><clipPath id="cpMC4wMHw1MDQuMDB8MjUyLjAwfDAuMDA="><rect width="504" height="252" x="0" y="0"/></clipPath></defs><defs><clipPath id="cpMjkuNzV8MTYyLjQ5fDIxNC42MXwzMC41MQ=="><rect width="132.74" height="184.1" x="29.75" y="30.51"/></clipPath></defs><rect width="4.02" height="10.46" x="35.78" y="195.78" clip-path="url(#cpMjkuNzV8MTYyLjQ5fDIxNC42MXwzMC41MQ==)" style="stroke-width:1.07;stroke:none;stroke-linecap:square;stroke-linejoin:miter;fill:#f8766d;fill-opacity:.5"/><rect width="4.02" height="83.68" x="39.81" y="122.56" clip-path="url(#cpMjkuNzV8MTYyLjQ5fDIxNC42MXwzMC41MQ==)" style="stroke-width:1.07;stroke:none;stroke-linecap:square;stroke-linejoin:miter;fill:#f8766d;fill-opacity:.5"/><rect width="4.02" height="41.84" x="43.83" y="164.4" clip-path="url(#cpMjkuNzV8MTYyLjQ5fDIxNC42MXwzMC41MQ==)" style="stroke-width:1.07;stroke:none;stroke-linecap:square;stroke-linejoin:miter;fill:#f8766d;fill-opacity:.5"/><rect width="4.02" height="104.6" x="47.85" y="101.64" clip-path="url(#cpMjkuNzV8MTYyLjQ5fDIxNC42MXwzMC41MQ==)" style="stroke-width:1.07;stroke:none;stroke-linecap:square;stroke-linejoin:miter;fill:#f8766d;fill-opacity:.5"/><rect width="4.02" height="135.98" x="51.87" y="70.26" clip-path="url(#cpMjkuNzV8MTYyLjQ5fDIxNC42MXwzMC41MQ==)" style="stroke-width:1.07;stroke:none;stroke-linecap:square;stroke-linejoin:miter;fill:#f8766d;fill-opacity:.5"/><rect width="4.02" height="94.14" x="55.9" y="112.1" clip-path="url(#cpMjkuNzV8MTYyLjQ5fDIxNC42MXwzMC41MQ==)" style="stroke-width:1.07;stroke:none;stroke-linecap:square;stroke-linejoin:miter;fill:#f8766d;fill-opacity:.5"/><rect width="4.02" height="115.06" x="59.92" y="38.88" clip-path="url(#cpMjkuNzV8MTYyLjQ5fDIxNC42MXwzMC41MQ==)" style="stroke-width:1.07;stroke:none;stroke-linecap:square;stroke-linejoin:miter;fill:#f8766d;fill-opacity:.5"/><rect width="4.02" height="94.14" x="63.94" y="59.8" clip-path="url(#cpMjkuNzV8MTYyLjQ5fDIxNC42MXwzMC41MQ==)" style="stroke-width:1.07;stroke:none;stroke-linecap:square;stroke-linejoin:miter;fill:#f8766d;fill-opacity:.5"/><rect width="4.02" height="41.84" x="67.96" y="133.02" clip-path="url(#cpMjkuNzV8MTYyLjQ5fDIxNC42MXwzMC41MQ==)" style="stroke-width:1.07;stroke:none;stroke-linecap:square;stroke-linejoin:miter;fill:#f8766d;fill-opacity:.5"/><rect width="4.02" height="20.92" x="71.99" y="122.56" clip-path="url(#cpMjkuNzV8MTYyLjQ5fDIxNC42MXwzMC41MQ==)" style="stroke-width:1.07;stroke:none;stroke-linecap:square;stroke-linejoin:miter;fill:#f8766d;fill-opacity:.5"/><rect width="4.02" height="41.84" x="76.01" y="59.8" clip-path="url(#cpMjkuNzV8MTYyLjQ5fDIxNC42MXwzMC41MQ==)" style="stroke-width:1.07;stroke:none;stroke-linecap:square;stroke-linejoin:miter;fill:#f8766d;fill-opacity:.5"/><rect width="4.02" height="0" x="80.03" y="112.1" clip-path="url(#cpMjkuNzV8MTYyLjQ5fDIxNC42MXwzMC41MQ==)" style="stroke-width:1.07;stroke:none;stroke-linecap:square;stroke-linejoin:miter;fill:#f8766d;fill-opacity:.5"/><rect width="4.02" height="0" x="84.05" y="174.86" clip-path="url(#cpMjkuNzV8MTYyLjQ5fDIxNC42MXwzMC41MQ==)" style="stroke-width:1.07;stroke:none;stroke-linecap:square;stroke-linejoin:miter;fill:#f8766d;fill-opacity:.5"/><rect width="4.02" height="0" x="88.08" y="143.48" clip-path="url(#cpMjkuNzV8MTYyLjQ5fDIxNC42MXwzMC41MQ==)" style="stroke-width:1.07;stroke:none;stroke-linecap:square;stroke-linejoin:miter;fill:#f8766d;fill-opacity:.5"/><rect width="4.02" height="0" x="92.1" y="153.94" clip-path="url(#cpMjkuNzV8MTYyLjQ5fDIxNC42MXwzMC41MQ==)" style="stroke-width:1.07;stroke:none;stroke-linecap:square;stroke-linejoin:miter;fill:#f8766d;fill-opacity:.5"/><rect width="4.02" height="0" x="96.12" y="164.4" clip-path="url(#cpMjkuNzV8MTYyLjQ5fDIxNC42MXwzMC41MQ==)" style="stroke-width:1.07;stroke:none;stroke-linecap:square;stroke-linejoin:miter;fill:#f8766d;fill-opacity:.5"/><rect width="4.02" height="0" x="100.14" y="153.94" clip-path="url(#cpMjkuNzV8MTYyLjQ5fDIxNC42MXwzMC41MQ==)" style="stroke-width:1.07;stroke:none;stroke-linecap:square;stroke-linejoin:miter;fill:#f8766d;fill-opacity:.5"/><rect width="4.02" height="0" x="104.17" y="185.32" clip-path="url(#cpMjkuNzV8MTYyLjQ5fDIxNC42MXwzMC41MQ==)" style="stroke-width:1.07;stroke:none;stroke-linecap:square;stroke-linejoin:miter;fill:#f8766d;fill-opacity:.5"/><rect width="4.02" height="0" x="108.19" y="174.86" clip-path="url(#cpMjkuNzV8MTYyLjQ5fDIxNC42MXwzMC41MQ==)" style="stroke-width:1.07;stroke:none;stroke-linecap:square;stroke-linejoin:miter;fill:#f8766d;fill-opacity:.5"/><rect width="4.02" height="0" x="112.21" y="174.86" clip-path="url(#cpMjkuNzV8MTYyLjQ5fDIxNC42MXwzMC41MQ==)" style="stroke-width:1.07;stroke:none;stroke-linecap:square;stroke-linejoin:miter;fill:#f8766d;fill-opacity:.5"/><rect width="4.02" height="0" x="116.23" y="206.24" clip-path="url(#cpMjkuNzV8MTYyLjQ5fDIxNC42MXwzMC41MQ==)" style="stroke-width:1.07;stroke:none;stroke-linecap:square;stroke-linejoin:miter;fill:#f8766d;fill-opacity:.5"/><rect width="4.02" height="0" x="120.26" y="185.32" clip-path="url(#cpMjkuNzV8MTYyLjQ5fDIxNC42MXwzMC41MQ==)" style="stroke-width:1.07;stroke:none;stroke-linecap:square;stroke-linejoin:miter;fill:#f8766d;fill-opacity:.5"/><rect width="4.02" height="0" x="124.28" y="206.24" clip-path="url(#cpMjkuNzV8MTYyLjQ5fDIxNC42MXwzMC41MQ==)" style="stroke-width:1.07;stroke:none;stroke-linecap:square;stroke-linejoin:miter;fill:#f8766d;fill-opacity:.5"/><rect width="4.02" height="0" x="128.3" y="185.32" clip-path="url(#cpMjkuNzV8MTYyLjQ5fDIxNC42MXwzMC41MQ==)" style="stroke-width:1.07;stroke:none;stroke-linecap:square;stroke-linejoin:miter;fill:#f8766d;fill-opacity:.5"/><rect width="4.02" height="0" x="132.32" y="195.78" clip-path="url(#cpMjkuNzV8MTYyLjQ5fDIxNC42MXwzMC41MQ==)" style="stroke-width:1.07;stroke:none;stroke-linecap:square;stroke-linejoin:miter;fill:#f8766d;fill-opacity:.5"/><rect width="4.02" height="0" x="136.35" y="206.24" clip-path="url(#cpMjkuNzV8MTYyLjQ5fDIxNC42MXwzMC41MQ==)" style="stroke-width:1.07;stroke:none;stroke-linecap:square;stroke-linejoin:miter;fill:#f8766d;fill-opacity:.5"/><rect width="4.02" height="0" x="140.37" y="206.24" clip-path="url(#cpMjkuNzV8MTYyLjQ5fDIxNC42MXwzMC41MQ==)" style="stroke-width:1.07;stroke:none;stroke-linecap:square;stroke-linejoin:miter;fill:#f8766d;fill-opacity:.5"/><rect width="4.02" height="0" x="144.39" y="206.24" clip-path="url(#cpMjkuNzV8MTYyLjQ5fDIxNC42MXwzMC41MQ==)" style="stroke-width:1.07;stroke:none;stroke-linecap:square;stroke-linejoin:miter;fill:#f8766d;fill-opacity:.5"/><rect width="4.02" height="0" x="148.41" y="206.24" clip-path="url(#cpMjkuNzV8MTYyLjQ5fDIxNC42MXwzMC41MQ==)" style="stroke-width:1.07;stroke:none;stroke-linecap:square;stroke-linejoin:miter;fill:#f8766d;fill-opacity:.5"/><rect width="4.02" height="0" x="152.44" y="195.78" clip-path="url(#cpMjkuNzV8MTYyLjQ5fDIxNC42MXwzMC41MQ==)" style="stroke-width:1.07;stroke:none;stroke-linecap:square;stroke-linejoin:miter;fill:#f8766d;fill-opacity:.5"/><rect width="4.02" height="0" x="35.78" y="206.24" clip-path="url(#cpMjkuNzV8MTYyLjQ5fDIxNC42MXwzMC41MQ==)" style="stroke-width:1.07;stroke:none;stroke-linecap:square;stroke-linejoin:miter;fill:#00bfc4;fill-opacity:.5"/><rect width="4.02" height="0" x="39.81" y="206.24" clip-path="url(#cpMjkuNzV8MTYyLjQ5fDIxNC42MXwzMC41MQ==)" style="stroke-width:1.07;stroke:none;stroke-linecap:square;stroke-linejoin:miter;fill:#00bfc4;fill-opacity:.5"/><rect width="4.02" height="0" x="43.83" y="206.24" clip-path="url(#cpMjkuNzV8MTYyLjQ5fDIxNC42MXwzMC41MQ==)" style="stroke-width:1.07;stroke:none;stroke-linecap:square;stroke-linejoin:miter;fill:#00bfc4;fill-opacity:.5"/><rect width="4.02" height="0" x="47.85" y="206.24" clip-path="url(#cpMjkuNzV8MTYyLjQ5fDIxNC42MXwzMC41MQ==)" style="stroke-width:1.07;stroke:none;stroke-linecap:square;stroke-linejoin:miter;fill:#00bfc4;fill-opacity:.5"/><rect width="4.02" height="0" x="51.87" y="206.24" clip-path="url(#cpMjkuNzV8MTYyLjQ5fDIxNC42MXwzMC41MQ==)" style="stroke-width:1.07;stroke:none;stroke-linecap:square;stroke-linejoin:miter;fill:#00bfc4;fill-opacity:.5"/><rect width="4.02" height="0" x="55.9" y="206.24" clip-path="url(#cpMjkuNzV8MTYyLjQ5fDIxNC42MXwzMC41MQ==)" style="stroke-width:1.07;stroke:none;stroke-linecap:square;stroke-linejoin:miter;fill:#00bfc4;fill-opacity:.5"/><rect width="4.02" height="52.3" x="59.92" y="153.94" clip-path="url(#cpMjkuNzV8MTYyLjQ5fDIxNC42MXwzMC41MQ==)" style="stroke-width:1.07;stroke:none;stroke-linecap:square;stroke-linejoin:miter;fill:#00bfc4;fill-opacity:.5"/><rect width="4.02" height="52.3" x="63.94" y="153.94" clip-path="url(#cpMjkuNzV8MTYyLjQ5fDIxNC42MXwzMC41MQ==)" style="stroke-width:1.07;stroke:none;stroke-linecap:square;stroke-linejoin:miter;fill:#00bfc4;fill-opacity:.5"/><rect width="4.02" height="31.38" x="67.96" y="174.86" clip-path="url(#cpMjkuNzV8MTYyLjQ5fDIxNC42MXwzMC41MQ==)" style="stroke-width:1.07;stroke:none;stroke-linecap:square;stroke-linejoin:miter;fill:#00bfc4;fill-opacity:.5"/><rect width="4.02" height="62.76" x="71.99" y="143.48" clip-path="url(#cpMjkuNzV8MTYyLjQ5fDIxNC42MXwzMC41MQ==)" style="stroke-width:1.07;stroke:none;stroke-linecap:square;stroke-linejoin:miter;fill:#00bfc4;fill-opacity:.5"/><rect width="4.02" height="104.6" x="76.01" y="101.64" clip-path="url(#cpMjkuNzV8MTYyLjQ5fDIxNC42MXwzMC41MQ==)" style="stroke-width:1.07;stroke:none;stroke-linecap:square;stroke-linejoin:miter;fill:#00bfc4;fill-opacity:.5"/><rect width="4.02" height="94.14" x="80.03" y="112.1" clip-path="url(#cpMjkuNzV8MTYyLjQ5fDIxNC42MXwzMC41MQ==)" style="stroke-width:1.07;stroke:none;stroke-linecap:square;stroke-linejoin:miter;fill:#00bfc4;fill-opacity:.5"/><rect width="4.02" height="31.38" x="84.05" y="174.86" clip-path="url(#cpMjkuNzV8MTYyLjQ5fDIxNC42MXwzMC41MQ==)" style="stroke-width:1.07;stroke:none;stroke-linecap:square;stroke-linejoin:miter;fill:#00bfc4;fill-opacity:.5"/><rect width="4.02" height="62.76" x="88.08" y="143.48" clip-path="url(#cpMjkuNzV8MTYyLjQ5fDIxNC42MXwzMC41MQ==)" style="stroke-width:1.07;stroke:none;stroke-linecap:square;stroke-linejoin:miter;fill:#00bfc4;fill-opacity:.5"/><rect width="4.02" height="52.3" x="92.1" y="153.94" clip-path="url(#cpMjkuNzV8MTYyLjQ5fDIxNC42MXwzMC41MQ==)" style="stroke-width:1.07;stroke:none;stroke-linecap:square;stroke-linejoin:miter;fill:#00bfc4;fill-opacity:.5"/><rect width="4.02" height="41.84" x="96.12" y="164.4" clip-path="url(#cpMjkuNzV8MTYyLjQ5fDIxNC42MXwzMC41MQ==)" style="stroke-width:1.07;stroke:none;stroke-linecap:square;stroke-linejoin:miter;fill:#00bfc4;fill-opacity:.5"/><rect width="4.02" height="52.3" x="100.14" y="153.94" clip-path="url(#cpMjkuNzV8MTYyLjQ5fDIxNC42MXwzMC41MQ==)" style="stroke-width:1.07;stroke:none;stroke-linecap:square;stroke-linejoin:miter;fill:#00bfc4;fill-opacity:.5"/><rect width="4.02" height="20.92" x="104.17" y="185.32" clip-path="url(#cpMjkuNzV8MTYyLjQ5fDIxNC42MXwzMC41MQ==)" style="stroke-width:1.07;stroke:none;stroke-linecap:square;stroke-linejoin:miter;fill:#00bfc4;fill-opacity:.5"/><rect width="4.02" height="31.38" x="108.19" y="174.86" clip-path="url(#cpMjkuNzV8MTYyLjQ5fDIxNC42MXwzMC41MQ==)" style="stroke-width:1.07;stroke:none;stroke-linecap:square;stroke-linejoin:miter;fill:#00bfc4;fill-opacity:.5"/><rect width="4.02" height="31.38" x="112.21" y="174.86" clip-path="url(#cpMjkuNzV8MTYyLjQ5fDIxNC42MXwzMC41MQ==)" style="stroke-width:1.07;stroke:none;stroke-linecap:square;stroke-linejoin:miter;fill:#00bfc4;fill-opacity:.5"/><rect width="4.02" height="0" x="116.23" y="206.24" clip-path="url(#cpMjkuNzV8MTYyLjQ5fDIxNC42MXwzMC41MQ==)" style="stroke-width:1.07;stroke:none;stroke-linecap:square;stroke-linejoin:miter;fill:#00bfc4;fill-opacity:.5"/><rect width="4.02" height="20.92" x="120.26" y="185.32" clip-path="url(#cpMjkuNzV8MTYyLjQ5fDIxNC42MXwzMC41MQ==)" style="stroke-width:1.07;stroke:none;stroke-linecap:square;stroke-linejoin:miter;fill:#00bfc4;fill-opacity:.5"/><rect width="4.02" height="0" x="124.28" y="206.24" clip-path="url(#cpMjkuNzV8MTYyLjQ5fDIxNC42MXwzMC41MQ==)" style="stroke-width:1.07;stroke:none;stroke-linecap:square;stroke-linejoin:miter;fill:#00bfc4;fill-opacity:.5"/><rect width="4.02" height="20.92" x="128.3" y="185.32" clip-path="url(#cpMjkuNzV8MTYyLjQ5fDIxNC42MXwzMC41MQ==)" style="stroke-width:1.07;stroke:none;stroke-linecap:square;stroke-linejoin:miter;fill:#00bfc4;fill-opacity:.5"/><rect width="4.02" height="10.46" x="132.32" y="195.78" clip-path="url(#cpMjkuNzV8MTYyLjQ5fDIxNC42MXwzMC41MQ==)" style="stroke-width:1.07;stroke:none;stroke-linecap:square;stroke-linejoin:miter;fill:#00bfc4;fill-opacity:.5"/><rect width="4.02" height="0" x="136.35" y="206.24" clip-path="url(#cpMjkuNzV8MTYyLjQ5fDIxNC42MXwzMC41MQ==)" style="stroke-width:1.07;stroke:none;stroke-linecap:square;stroke-linejoin:miter;fill:#00bfc4;fill-opacity:.5"/><rect width="4.02" height="0" x="140.37" y="206.24" clip-path="url(#cpMjkuNzV8MTYyLjQ5fDIxNC42MXwzMC41MQ==)" style="stroke-width:1.07;stroke:none;stroke-linecap:square;stroke-linejoin:miter;fill:#00bfc4;fill-opacity:.5"/><rect width="4.02" height="0" x="144.39" y="206.24" clip-path="url(#cpMjkuNzV8MTYyLjQ5fDIxNC42MXwzMC41MQ==)" style="stroke-width:1.07;stroke:none;stroke-linecap:square;stroke-linejoin:miter;fill:#00bfc4;fill-opacity:.5"/><rect width="4.02" height="0" x="148.41" y="206.24" clip-path="url(#cpMjkuNzV8MTYyLjQ5fDIxNC42MXwzMC41MQ==)" style="stroke-width:1.07;stroke:none;stroke-linecap:square;stroke-linejoin:miter;fill:#00bfc4;fill-opacity:.5"/><rect width="4.02" height="10.46" x="152.44" y="195.78" clip-path="url(#cpMjkuNzV8MTYyLjQ5fDIxNC42MXwzMC41MQ==)" style="stroke-width:1.07;stroke:none;stroke-linecap:square;stroke-linejoin:miter;fill:#00bfc4;fill-opacity:.5"/><defs><clipPath id="cpMC4wMHw1MDQuMDB8MjUyLjAwfDAuMDA="><rect width="504" height="252" x="0" y="0"/></clipPath></defs><g clip-path="url(#cpMC4wMHw1MDQuMDB8MjUyLjAwfDAuMDA=)"><text x="19.48" y="209.68" lengthAdjust="spacingAndGlyphs" textLength="5.34" style="font-size:9.6px;fill:#4d4d4d;font-family:Arial">0</text></g><g clip-path="url(#cpMC4wMHw1MDQuMDB8MjUyLjAwfDAuMDA=)"><text x="19.48" y="157.38" lengthAdjust="spacingAndGlyphs" textLength="5.34" style="font-size:9.6px;fill:#4d4d4d;font-family:Arial">5</text></g><g clip-path="url(#cpMC4wMHw1MDQuMDB8MjUyLjAwfDAuMDA=)"><text x="14.14" y="105.07" lengthAdjust="spacingAndGlyphs" textLength="10.68" style="font-size:9.6px;fill:#4d4d4d;font-family:Arial">10</text></g><g clip-path="url(#cpMC4wMHw1MDQuMDB8MjUyLjAwfDAuMDA=)"><text x="14.14" y="52.77" lengthAdjust="spacingAndGlyphs" textLength="10.68" style="font-size:9.6px;fill:#4d4d4d;font-family:Arial">15</text></g><polyline points="27.01 206.24 29.75 206.24" clip-path="url(#cpMC4wMHw1MDQuMDB8MjUyLjAwfDAuMDA=)" style="stroke-width:1.07;stroke:#333;stroke-linecap:butt"/><polyline points="27.01 153.94 29.75 153.94" clip-path="url(#cpMC4wMHw1MDQuMDB8MjUyLjAwfDAuMDA=)" style="stroke-width:1.07;stroke:#333;stroke-linecap:butt"/><polyline points="27.01 101.64 29.75 101.64" clip-path="url(#cpMC4wMHw1MDQuMDB8MjUyLjAwfDAuMDA=)" style="stroke-width:1.07;stroke:#333;stroke-linecap:butt"/><polyline points="27.01 49.34 29.75 49.34" clip-path="url(#cpMC4wMHw1MDQuMDB8MjUyLjAwfDAuMDA=)" style="stroke-width:1.07;stroke:#333;stroke-linecap:butt"/><polyline points="32.63 217.35 32.63 214.61" clip-path="url(#cpMC4wMHw1MDQuMDB8MjUyLjAwfDAuMDA=)" style="stroke-width:1.07;stroke:#333;stroke-linecap:butt"/><polyline points="57.91 217.35 57.91 214.61" clip-path="url(#cpMC4wMHw1MDQuMDB8MjUyLjAwfDAuMDA=)" style="stroke-width:1.07;stroke:#333;stroke-linecap:butt"/><polyline points="83.19 217.35 83.19 214.61" clip-path="url(#cpMC4wMHw1MDQuMDB8MjUyLjAwfDAuMDA=)" style="stroke-width:1.07;stroke:#333;stroke-linecap:butt"/><polyline points="108.47 217.35 108.47 214.61" clip-path="url(#cpMC4wMHw1MDQuMDB8MjUyLjAwfDAuMDA=)" style="stroke-width:1.07;stroke:#333;stroke-linecap:butt"/><polyline points="133.75 217.35 133.75 214.61" clip-path="url(#cpMC4wMHw1MDQuMDB8MjUyLjAwfDAuMDA=)" style="stroke-width:1.07;stroke:#333;stroke-linecap:butt"/><polyline points="159.03 217.35 159.03 214.61" clip-path="url(#cpMC4wMHw1MDQuMDB8MjUyLjAwfDAuMDA=)" style="stroke-width:1.07;stroke:#333;stroke-linecap:butt"/><g clip-path="url(#cpMC4wMHw1MDQuMDB8MjUyLjAwfDAuMDA=)"><text x="24.35" y="226.41" lengthAdjust="spacingAndGlyphs" textLength="16.54" style="font-size:9.6px;fill:#4d4d4d;font-family:Arial">-2.5</text></g><g clip-path="url(#cpMC4wMHw1MDQuMDB8MjUyLjAwfDAuMDA=)"><text x="51.24" y="226.41" lengthAdjust="spacingAndGlyphs" textLength="13.35" style="font-size:9.6px;fill:#4d4d4d;font-family:Arial">0.0</text></g><g clip-path="url(#cpMC4wMHw1MDQuMDB8MjUyLjAwfDAuMDA=)"><text x="76.52" y="226.41" lengthAdjust="spacingAndGlyphs" textLength="13.35" style="font-size:9.6px;fill:#4d4d4d;font-family:Arial">2.5</text></g><g clip-path="url(#cpMC4wMHw1MDQuMDB8MjUyLjAwfDAuMDA=)"><text x="101.8" y="226.41" lengthAdjust="spacingAndGlyphs" textLength="13.35" style="font-size:9.6px;fill:#4d4d4d;font-family:Arial">5.0</text></g><g clip-path="url(#cpMC4wMHw1MDQuMDB8MjUyLjAwfDAuMDA=)"><text x="127.08" y="226.41" lengthAdjust="spacingAndGlyphs" textLength="13.35" style="font-size:9.6px;fill:#4d4d4d;font-family:Arial">7.5</text></g><g clip-path="url(#cpMC4wMHw1MDQuMDB8MjUyLjAwfDAuMDA=)"><text x="149.69" y="226.41" lengthAdjust="spacingAndGlyphs" textLength="18.68" style="font-size:9.6px;fill:#4d4d4d;font-family:Arial">10.0</text></g><g clip-path="url(#cpMC4wMHw1MDQuMDB8MjUyLjAwfDAuMDA=)"><text x="29.75" y="21.71" lengthAdjust="spacingAndGlyphs" textLength="68.35" style="font-size:15px;fill:#4d4d4d;font-family:Arial">Histogram</text></g><defs><clipPath id="cpMTY3Ljk3fDMzMy4yNXwyNDYuNTJ8NS40OA=="><rect width="165.27" height="241.04" x="167.97" y="5.48"/></clipPath></defs><rect width="165.27" height="241.04" x="167.97" y="5.48" clip-path="url(#cpMTY3Ljk3fDMzMy4yNXwyNDYuNTJ8NS40OA==)" style="stroke-width:1.07;stroke:none"/><defs><clipPath id="cpMC4wMHw1MDQuMDB8MjUyLjAwfDAuMDA="><rect width="504" height="252" x="0" y="0"/></clipPath></defs><defs><clipPath id="cpMTk1LjAyfDMyNy43N3wyMTQuNjF8MzAuNTE="><rect width="132.74" height="184.1" x="195.02" y="30.51"/></clipPath></defs><polygon points="201.06 202.67 201.29 202.21 201.53 201.7 201.77 201.12 202 200.49 202.24 199.81 202.47 199.06 202.71 198.25 202.95 197.37 203.18 196.4 203.42 195.36 203.66 194.25 203.89 193.05 204.13 191.77 204.36 190.38 204.6 188.91 204.84 187.35 205.07 185.71 205.31 183.98 205.54 182.14 205.78 180.22 206.02 178.22 206.25 176.14 206.49 173.99 206.73 171.78 206.96 169.5 207.2 167.17 207.43 164.81 207.67 162.41 207.91 160 208.14 157.58 208.38 155.17 208.61 152.77 208.85 150.39 209.09 148.05 209.32 145.76 209.56 143.52 209.8 141.35 210.03 139.23 210.27 137.19 210.5 135.21 210.74 133.32 210.98 131.5 211.21 129.74 211.45 128.03 211.68 126.38 211.92 124.79 212.16 123.23 212.39 121.7 212.63 120.18 212.87 118.66 213.1 117.15 213.34 115.61 213.57 114.04 213.81 112.44 214.05 110.8 214.28 109.11 214.52 107.34 214.75 105.52 214.99 103.63 215.23 101.68 215.46 99.66 215.7 97.57 215.94 95.42 216.17 93.21 216.41 90.95 216.64 88.64 216.88 86.29 217.12 83.91 217.35 81.51 217.59 79.1 217.82 76.69 218.06 74.28 218.3 71.9 218.53 69.54 218.77 67.21 219.01 64.94 219.24 62.71 219.48 60.55 219.71 58.47 219.95 56.48 220.19 54.56 220.42 52.73 220.66 51 220.89 49.4 221.13 47.9 221.37 46.51 221.6 45.23 221.84 44.06 222.08 43.02 222.31 42.11 222.55 41.32 222.78 40.63 223.02 40.06 223.26 39.6 223.49 39.27 223.73 39.05 223.96 38.91 224.2 38.88 224.44 38.93 224.67 39.09 224.91 39.33 225.15 39.65 225.38 40.04 225.62 40.51 225.85 41.05 226.09 41.66 226.33 42.33 226.56 43.06 226.8 43.85 227.03 44.7 227.27 45.62 227.51 46.6 227.74 47.64 227.98 48.74 228.22 49.91 228.45 51.15 228.69 52.46 228.92 53.84 229.16 55.3 229.4 56.82 229.63 58.43 229.87 60.13 230.1 61.9 230.34 63.75 230.58 65.68 230.81 67.69 231.05 69.8 231.29 71.98 231.52 74.23 231.76 76.54 231.99 78.93 232.23 81.38 232.47 83.89 232.7 86.46 232.94 89.06 233.17 91.71 233.41 94.38 233.65 97.08 233.88 99.8 234.12 102.52 234.36 105.25 234.59 107.97 234.83 110.68 235.06 113.37 235.3 116.02 235.54 118.65 235.77 121.24 236.01 123.79 236.24 126.27 236.48 128.71 236.72 131.09 236.95 133.41 237.19 135.67 237.43 137.85 237.66 139.96 237.9 142 238.13 143.97 238.37 145.87 238.61 147.68 238.84 149.42 239.08 151.07 239.31 152.66 239.55 154.17 239.79 155.61 240.02 156.96 240.26 158.25 240.5 159.47 240.73 160.62 240.97 161.71 241.2 162.73 241.44 163.7 241.68 164.62 241.91 165.49 242.15 166.33 242.39 167.12 242.62 167.89 242.86 168.63 243.09 169.36 243.33 170.07 243.57 170.78 243.8 171.5 244.04 172.22 244.27 172.95 244.51 173.7 244.75 174.47 244.98 175.27 245.22 176.09 245.46 176.95 245.69 177.83 245.93 178.75 246.16 179.69 246.4 180.67 246.64 181.67 246.87 182.69 247.11 183.74 247.34 184.8 247.58 185.87 247.82 186.95 248.05 188.03 248.29 189.11 248.53 190.18 248.76 191.24 249 192.27 249.23 193.28 249.47 194.26 249.71 195.21 249.94 196.12 250.18 196.99 250.41 197.82 250.65 198.6 250.89 199.34 251.12 200.04 251.36 200.68 251.6 201.28 251.83 201.83 252.07 202.33 252.3 202.8 252.54 203.22 252.78 203.6 253.01 203.94 253.25 204.25 253.48 204.52 253.72 204.77 253.96 204.98 254.19 205.16 254.43 205.33 254.67 205.47 254.9 205.59 255.14 205.7 255.37 205.79 255.61 205.86 255.85 205.93 256.08 205.99 256.32 206.03 256.55 206.07 256.79 206.1 257.03 206.13 257.26 206.15 257.5 206.17 257.74 206.18 257.97 206.2 258.21 206.21 258.44 206.21 258.68 206.22 258.92 206.22 259.15 206.23 259.39 206.23 259.62 206.23 259.86 206.24 260.1 206.24 260.33 206.24 260.57 206.24 260.81 206.24 261.04 206.24 261.28 206.24 261.51 206.24 261.75 206.24 261.99 206.24 262.22 206.24 262.46 206.24 262.69 206.24 262.93 206.24 263.17 206.24 263.4 206.24 263.64 206.24 263.88 206.24 264.11 206.24 264.35 206.24 264.58 206.24 264.82 206.24 265.06 206.24 265.29 206.24 265.53 206.24 265.76 206.24 266 206.24 266.24 206.24 266.47 206.24 266.71 206.24 266.95 206.24 267.18 206.24 267.42 206.24 267.65 206.24 267.89 206.24 268.13 206.24 268.36 206.24 268.6 206.24 268.83 206.24 269.07 206.24 269.31 206.24 269.54 206.24 269.78 206.24 270.02 206.24 270.25 206.24 270.49 206.24 270.72 206.24 270.96 206.24 271.2 206.24 271.43 206.24 271.67 206.24 271.9 206.24 272.14 206.24 272.38 206.24 272.61 206.24 272.85 206.24 273.09 206.24 273.32 206.24 273.56 206.24 273.79 206.24 274.03 206.24 274.27 206.24 274.5 206.24 274.74 206.24 274.97 206.24 275.21 206.24 275.45 206.24 275.68 206.24 275.92 206.24 276.16 206.24 276.39 206.24 276.63 206.24 276.86 206.24 277.1 206.24 277.34 206.24 277.57 206.24 277.81 206.24 278.04 206.24 278.28 206.24 278.52 206.24 278.75 206.24 278.99 206.24 279.23 206.24 279.46 206.24 279.7 206.24 279.93 206.24 280.17 206.24 280.41 206.24 280.64 206.24 280.88 206.24 281.11 206.24 281.35 206.24 281.59 206.24 281.82 206.24 282.06 206.24 282.3 206.24 282.53 206.24 282.77 206.24 283 206.24 283.24 206.24 283.48 206.24 283.71 206.24 283.95 206.24 284.18 206.24 284.42 206.24 284.66 206.24 284.89 206.24 285.13 206.24 285.37 206.24 285.6 206.24 285.84 206.24 286.07 206.24 286.31 206.24 286.55 206.24 286.78 206.24 287.02 206.24 287.25 206.24 287.49 206.24 287.73 206.24 287.96 206.24 288.2 206.24 288.44 206.24 288.67 206.24 288.91 206.24 289.14 206.24 289.38 206.24 289.62 206.24 289.85 206.24 290.09 206.24 290.32 206.24 290.56 206.24 290.8 206.24 291.03 206.24 291.27 206.24 291.51 206.24 291.74 206.24 291.98 206.24 292.21 206.24 292.45 206.24 292.69 206.24 292.92 206.24 293.16 206.24 293.39 206.24 293.63 206.24 293.87 206.24 294.1 206.24 294.34 206.24 294.58 206.24 294.81 206.24 295.05 206.24 295.28 206.24 295.52 206.24 295.76 206.24 295.99 206.24 296.23 206.24 296.46 206.24 296.7 206.24 296.94 206.24 297.17 206.24 297.41 206.24 297.65 206.24 297.88 206.24 298.12 206.24 298.35 206.24 298.59 206.24 298.83 206.24 299.06 206.24 299.3 206.24 299.53 206.24 299.77 206.24 300.01 206.24 300.24 206.24 300.48 206.24 300.72 206.24 300.95 206.24 301.19 206.24 301.42 206.24 301.66 206.24 301.9 206.24 302.13 206.24 302.37 206.24 302.6 206.24 302.84 206.24 303.08 206.24 303.31 206.24 303.55 206.24 303.79 206.24 304.02 206.24 304.26 206.24 304.49 206.24 304.73 206.24 304.97 206.24 305.2 206.24 305.44 206.24 305.67 206.24 305.91 206.24 306.15 206.24 306.38 206.24 306.62 206.24 306.86 206.24 307.09 206.24 307.33 206.24 307.56 206.24 307.8 206.24 308.04 206.24 308.27 206.24 308.51 206.24 308.74 206.24 308.98 206.24 309.22 206.24 309.45 206.24 309.69 206.24 309.93 206.24 310.16 206.24 310.4 206.24 310.63 206.24 310.87 206.24 311.11 206.24 311.34 206.24 311.58 206.24 311.82 206.24 312.05 206.24 312.29 206.24 312.52 206.24 312.76 206.24 313 206.24 313.23 206.24 313.47 206.24 313.7 206.24 313.94 206.24 314.18 206.24 314.41 206.24 314.65 206.24 314.89 206.24 315.12 206.24 315.36 206.24 315.59 206.24 315.83 206.24 316.07 206.24 316.3 206.24 316.54 206.24 316.77 206.24 317.01 206.24 317.25 206.24 317.48 206.24 317.72 206.24 317.96 206.24 318.19 206.24 318.43 206.24 318.66 206.24 318.9 206.24 319.14 206.24 319.37 206.24 319.61 206.24 319.84 206.24 320.08 206.24 320.32 206.24 320.55 206.24 320.79 206.24 321.03 206.24 321.26 206.24 321.5 206.24 321.73 206.24 321.73 206.24 321.5 206.24 321.26 206.24 321.03 206.24 320.79 206.24 320.55 206.24 320.32 206.24 320.08 206.24 319.84 206.24 319.61 206.24 319.37 206.24 319.14 206.24 318.9 206.24 318.66 206.24 318.43 206.24 318.19 206.24 317.96 206.24 317.72 206.24 317.48 206.24 317.25 206.24 317.01 206.24 316.77 206.24 316.54 206.24 316.3 206.24 316.07 206.24 315.83 206.24 315.59 206.24 315.36 206.24 315.12 206.24 314.89 206.24 314.65 206.24 314.41 206.24 314.18 206.24 313.94 206.24 313.7 206.24 313.47 206.24 313.23 206.24 313 206.24 312.76 206.24 312.52 206.24 312.29 206.24 312.05 206.24 311.82 206.24 311.58 206.24 311.34 206.24 311.11 206.24 310.87 206.24 310.63 206.24 310.4 206.24 310.16 206.24 309.93 206.24 309.69 206.24 309.45 206.24 309.22 206.24 308.98 206.24 308.74 206.24 308.51 206.24 308.27 206.24 308.04 206.24 307.8 206.24 307.56 206.24 307.33 206.24 307.09 206.24 306.86 206.24 306.62 206.24 306.38 206.24 306.15 206.24 305.91 206.24 305.67 206.24 305.44 206.24 305.2 206.24 304.97 206.24 304.73 206.24 304.49 206.24 304.26 206.24 304.02 206.24 303.79 206.24 303.55 206.24 303.31 206.24 303.08 206.24 302.84 206.24 302.6 206.24 302.37 206.24 302.13 206.24 301.9 206.24 301.66 206.24 301.42 206.24 301.19 206.24 300.95 206.24 300.72 206.24 300.48 206.24 300.24 206.24 300.01 206.24 299.77 206.24 299.53 206.24 299.3 206.24 299.06 206.24 298.83 206.24 298.59 206.24 298.35 206.24 298.12 206.24 297.88 206.24 297.65 206.24 297.41 206.24 297.17 206.24 296.94 206.24 296.7 206.24 296.46 206.24 296.23 206.24 295.99 206.24 295.76 206.24 295.52 206.24 295.28 206.24 295.05 206.24 294.81 206.24 294.58 206.24 294.34 206.24 294.1 206.24 293.87 206.24 293.63 206.24 293.39 206.24 293.16 206.24 292.92 206.24 292.69 206.24 292.45 206.24 292.21 206.24 291.98 206.24 291.74 206.24 291.51 206.24 291.27 206.24 291.03 206.24 290.8 206.24 290.56 206.24 290.32 206.24 290.09 206.24 289.85 206.24 289.62 206.24 289.38 206.24 289.14 206.24 288.91 206.24 288.67 206.24 288.44 206.24 288.2 206.24 287.96 206.24 287.73 206.24 287.49 206.24 287.25 206.24 287.02 206.24 286.78 206.24 286.55 206.24 286.31 206.24 286.07 206.24 285.84 206.24 285.6 206.24 285.37 206.24 285.13 206.24 284.89 206.24 284.66 206.24 284.42 206.24 284.18 206.24 283.95 206.24 283.71 206.24 283.48 206.24 283.24 206.24 283 206.24 282.77 206.24 282.53 206.24 282.3 206.24 282.06 206.24 281.82 206.24 281.59 206.24 281.35 206.24 281.11 206.24 280.88 206.24 280.64 206.24 280.41 206.24 280.17 206.24 279.93 206.24 279.7 206.24 279.46 206.24 279.23 206.24 278.99 206.24 278.75 206.24 278.52 206.24 278.28 206.24 278.04 206.24 277.81 206.24 277.57 206.24 277.34 206.24 277.1 206.24 276.86 206.24 276.63 206.24 276.39 206.24 276.16 206.24 275.92 206.24 275.68 206.24 275.45 206.24 275.21 206.24 274.97 206.24 274.74 206.24 274.5 206.24 274.27 206.24 274.03 206.24 273.79 206.24 273.56 206.24 273.32 206.24 273.09 206.24 272.85 206.24 272.61 206.24 272.38 206.24 272.14 206.24 271.9 206.24 271.67 206.24 271.43 206.24 271.2 206.24 270.96 206.24 270.72 206.24 270.49 206.24 270.25 206.24 270.02 206.24 269.78 206.24 269.54 206.24 269.31 206.24 269.07 206.24 268.83 206.24 268.6 206.24 268.36 206.24 268.13 206.24 267.89 206.24 267.65 206.24 267.42 206.24 267.18 206.24 266.95 206.24 266.71 206.24 266.47 206.24 266.24 206.24 266 206.24 265.76 206.24 265.53 206.24 265.29 206.24 265.06 206.24 264.82 206.24 264.58 206.24 264.35 206.24 264.11 206.24 263.88 206.24 263.64 206.24 263.4 206.24 263.17 206.24 262.93 206.24 262.69 206.24 262.46 206.24 262.22 206.24 261.99 206.24 261.75 206.24 261.51 206.24 261.28 206.24 261.04 206.24 260.81 206.24 260.57 206.24 260.33 206.24 260.1 206.24 259.86 206.24 259.62 206.24 259.39 206.24 259.15 206.24 258.92 206.24 258.68 206.24 258.44 206.24 258.21 206.24 257.97 206.24 257.74 206.24 257.5 206.24 257.26 206.24 257.03 206.24 256.79 206.24 256.55 206.24 256.32 206.24 256.08 206.24 255.85 206.24 255.61 206.24 255.37 206.24 255.14 206.24 254.9 206.24 254.67 206.24 254.43 206.24 254.19 206.24 253.96 206.24 253.72 206.24 253.48 206.24 253.25 206.24 253.01 206.24 252.78 206.24 252.54 206.24 252.3 206.24 252.07 206.24 251.83 206.24 251.6 206.24 251.36 206.24 251.12 206.24 250.89 206.24 250.65 206.24 250.41 206.24 250.18 206.24 249.94 206.24 249.71 206.24 249.47 206.24 249.23 206.24 249 206.24 248.76 206.24 248.53 206.24 248.29 206.24 248.05 206.24 247.82 206.24 247.58 206.24 247.34 206.24 247.11 206.24 246.87 206.24 246.64 206.24 246.4 206.24 246.16 206.24 245.93 206.24 245.69 206.24 245.46 206.24 245.22 206.24 244.98 206.24 244.75 206.24 244.51 206.24 244.27 206.24 244.04 206.24 243.8 206.24 243.57 206.24 243.33 206.24 243.09 206.24 242.86 206.24 242.62 206.24 242.39 206.24 242.15 206.24 241.91 206.24 241.68 206.24 241.44 206.24 241.2 206.24 240.97 206.24 240.73 206.24 240.5 206.24 240.26 206.24 240.02 206.24 239.79 206.24 239.55 206.24 239.31 206.24 239.08 206.24 238.84 206.24 238.61 206.24 238.37 206.24 238.13 206.24 237.9 206.24 237.66 206.24 237.43 206.24 237.19 206.24 236.95 206.24 236.72 206.24 236.48 206.24 236.24 206.24 236.01 206.24 235.77 206.24 235.54 206.24 235.3 206.24 235.06 206.24 234.83 206.24 234.59 206.24 234.36 206.24 234.12 206.24 233.88 206.24 233.65 206.24 233.41 206.24 233.17 206.24 232.94 206.24 232.7 206.24 232.47 206.24 232.23 206.24 231.99 206.24 231.76 206.24 231.52 206.24 231.29 206.24 231.05 206.24 230.81 206.24 230.58 206.24 230.34 206.24 230.1 206.24 229.87 206.24 229.63 206.24 229.4 206.24 229.16 206.24 228.92 206.24 228.69 206.24 228.45 206.24 228.22 206.24 227.98 206.24 227.74 206.24 227.51 206.24 227.27 206.24 227.03 206.24 226.8 206.24 226.56 206.24 226.33 206.24 226.09 206.24 225.85 206.24 225.62 206.24 225.38 206.24 225.15 206.24 224.91 206.24 224.67 206.24 224.44 206.24 224.2 206.24 223.96 206.24 223.73 206.24 223.49 206.24 223.26 206.24 223.02 206.24 222.78 206.24 222.55 206.24 222.31 206.24 222.08 206.24 221.84 206.24 221.6 206.24 221.37 206.24 221.13 206.24 220.89 206.24 220.66 206.24 220.42 206.24 220.19 206.24 219.95 206.24 219.71 206.24 219.48 206.24 219.24 206.24 219.01 206.24 218.77 206.24 218.53 206.24 218.3 206.24 218.06 206.24 217.82 206.24 217.59 206.24 217.35 206.24 217.12 206.24 216.88 206.24 216.64 206.24 216.41 206.24 216.17 206.24 215.94 206.24 215.7 206.24 215.46 206.24 215.23 206.24 214.99 206.24 214.75 206.24 214.52 206.24 214.28 206.24 214.05 206.24 213.81 206.24 213.57 206.24 213.34 206.24 213.1 206.24 212.87 206.24 212.63 206.24 212.39 206.24 212.16 206.24 211.92 206.24 211.68 206.24 211.45 206.24 211.21 206.24 210.98 206.24 210.74 206.24 210.5 206.24 210.27 206.24 210.03 206.24 209.8 206.24 209.56 206.24 209.32 206.24 209.09 206.24 208.85 206.24 208.61 206.24 208.38 206.24 208.14 206.24 207.91 206.24 207.67 206.24 207.43 206.24 207.2 206.24 206.96 206.24 206.73 206.24 206.49 206.24 206.25 206.24 206.02 206.24 205.78 206.24 205.54 206.24 205.31 206.24 205.07 206.24 204.84 206.24 204.6 206.24 204.36 206.24 204.13 206.24 203.89 206.24 203.66 206.24 203.42 206.24 203.18 206.24 202.95 206.24 202.71 206.24 202.47 206.24 202.24 206.24 202 206.24 201.77 206.24 201.53 206.24 201.29 206.24 201.06 206.24" clip-path="url(#cpMTk1LjAyfDMyNy43N3wyMTQuNjF8MzAuNTE=)" style="stroke-width:0;stroke:none;fill:#f8766d;fill-opacity:.5"/><polyline points="201.06 202.67 201.29 202.21 201.53 201.7 201.77 201.12 202 200.49 202.24 199.81 202.47 199.06 202.71 198.25 202.95 197.37 203.18 196.4 203.42 195.36 203.66 194.25 203.89 193.05 204.13 191.77 204.36 190.38 204.6 188.91 204.84 187.35 205.07 185.71 205.31 183.98 205.54 182.14 205.78 180.22 206.02 178.22 206.25 176.14 206.49 173.99 206.73 171.78 206.96 169.5 207.2 167.17 207.43 164.81 207.67 162.41 207.91 160 208.14 157.58 208.38 155.17 208.61 152.77 208.85 150.39 209.09 148.05 209.32 145.76 209.56 143.52 209.8 141.35 210.03 139.23 210.27 137.19 210.5 135.21 210.74 133.32 210.98 131.5 211.21 129.74 211.45 128.03 211.68 126.38 211.92 124.79 212.16 123.23 212.39 121.7 212.63 120.18 212.87 118.66 213.1 117.15 213.34 115.61 213.57 114.04 213.81 112.44 214.05 110.8 214.28 109.11 214.52 107.34 214.75 105.52 214.99 103.63 215.23 101.68 215.46 99.66 215.7 97.57 215.94 95.42 216.17 93.21 216.41 90.95 216.64 88.64 216.88 86.29 217.12 83.91 217.35 81.51 217.59 79.1 217.82 76.69 218.06 74.28 218.3 71.9 218.53 69.54 218.77 67.21 219.01 64.94 219.24 62.71 219.48 60.55 219.71 58.47 219.95 56.48 220.19 54.56 220.42 52.73 220.66 51 220.89 49.4 221.13 47.9 221.37 46.51 221.6 45.23 221.84 44.06 222.08 43.02 222.31 42.11 222.55 41.32 222.78 40.63 223.02 40.06 223.26 39.6 223.49 39.27 223.73 39.05 223.96 38.91 224.2 38.88 224.44 38.93 224.67 39.09 224.91 39.33 225.15 39.65 225.38 40.04 225.62 40.51 225.85 41.05 226.09 41.66 226.33 42.33 226.56 43.06 226.8 43.85 227.03 44.7 227.27 45.62 227.51 46.6 227.74 47.64 227.98 48.74 228.22 49.91 228.45 51.15 228.69 52.46 228.92 53.84 229.16 55.3 229.4 56.82 229.63 58.43 229.87 60.13 230.1 61.9 230.34 63.75 230.58 65.68 230.81 67.69 231.05 69.8 231.29 71.98 231.52 74.23 231.76 76.54 231.99 78.93 232.23 81.38 232.47 83.89 232.7 86.46 232.94 89.06 233.17 91.71 233.41 94.38 233.65 97.08 233.88 99.8 234.12 102.52 234.36 105.25 234.59 107.97 234.83 110.68 235.06 113.37 235.3 116.02 235.54 118.65 235.77 121.24 236.01 123.79 236.24 126.27 236.48 128.71 236.72 131.09 236.95 133.41 237.19 135.67 237.43 137.85 237.66 139.96 237.9 142 238.13 143.97 238.37 145.87 238.61 147.68 238.84 149.42 239.08 151.07 239.31 152.66 239.55 154.17 239.79 155.61 240.02 156.96 240.26 158.25 240.5 159.47 240.73 160.62 240.97 161.71 241.2 162.73 241.44 163.7 241.68 164.62 241.91 165.49 242.15 166.33 242.39 167.12 242.62 167.89 242.86 168.63 243.09 169.36 243.33 170.07 243.57 170.78 243.8 171.5 244.04 172.22 244.27 172.95 244.51 173.7 244.75 174.47 244.98 175.27 245.22 176.09 245.46 176.95 245.69 177.83 245.93 178.75 246.16 179.69 246.4 180.67 246.64 181.67 246.87 182.69 247.11 183.74 247.34 184.8 247.58 185.87 247.82 186.95 248.05 188.03 248.29 189.11 248.53 190.18 248.76 191.24 249 192.27 249.23 193.28 249.47 194.26 249.71 195.21 249.94 196.12 250.18 196.99 250.41 197.82 250.65 198.6 250.89 199.34 251.12 200.04 251.36 200.68 251.6 201.28 251.83 201.83 252.07 202.33 252.3 202.8 252.54 203.22 252.78 203.6 253.01 203.94 253.25 204.25 253.48 204.52 253.72 204.77 253.96 204.98 254.19 205.16 254.43 205.33 254.67 205.47 254.9 205.59 255.14 205.7 255.37 205.79 255.61 205.86 255.85 205.93 256.08 205.99 256.32 206.03 256.55 206.07 256.79 206.1 257.03 206.13 257.26 206.15 257.5 206.17 257.74 206.18 257.97 206.2 258.21 206.21 258.44 206.21 258.68 206.22 258.92 206.22 259.15 206.23 259.39 206.23 259.62 206.23 259.86 206.24 260.1 206.24 260.33 206.24 260.57 206.24 260.81 206.24 261.04 206.24 261.28 206.24 261.51 206.24 261.75 206.24 261.99 206.24 262.22 206.24 262.46 206.24 262.69 206.24 262.93 206.24 263.17 206.24 263.4 206.24 263.64 206.24 263.88 206.24 264.11 206.24 264.35 206.24 264.58 206.24 264.82 206.24 265.06 206.24 265.29 206.24 265.53 206.24 265.76 206.24 266 206.24 266.24 206.24 266.47 206.24 266.71 206.24 266.95 206.24 267.18 206.24 267.42 206.24 267.65 206.24 267.89 206.24 268.13 206.24 268.36 206.24 268.6 206.24 268.83 206.24 269.07 206.24 269.31 206.24 269.54 206.24 269.78 206.24 270.02 206.24 270.25 206.24 270.49 206.24 270.72 206.24 270.96 206.24 271.2 206.24 271.43 206.24 271.67 206.24 271.9 206.24 272.14 206.24 272.38 206.24 272.61 206.24 272.85 206.24 273.09 206.24 273.32 206.24 273.56 206.24 273.79 206.24 274.03 206.24 274.27 206.24 274.5 206.24 274.74 206.24 274.97 206.24 275.21 206.24 275.45 206.24 275.68 206.24 275.92 206.24 276.16 206.24 276.39 206.24 276.63 206.24 276.86 206.24 277.1 206.24 277.34 206.24 277.57 206.24 277.81 206.24 278.04 206.24 278.28 206.24 278.52 206.24 278.75 206.24 278.99 206.24 279.23 206.24 279.46 206.24 279.7 206.24 279.93 206.24 280.17 206.24 280.41 206.24 280.64 206.24 280.88 206.24 281.11 206.24 281.35 206.24 281.59 206.24 281.82 206.24 282.06 206.24 282.3 206.24 282.53 206.24 282.77 206.24 283 206.24 283.24 206.24 283.48 206.24 283.71 206.24 283.95 206.24 284.18 206.24 284.42 206.24 284.66 206.24 284.89 206.24 285.13 206.24 285.37 206.24 285.6 206.24 285.84 206.24 286.07 206.24 286.31 206.24 286.55 206.24 286.78 206.24 287.02 206.24 287.25 206.24 287.49 206.24 287.73 206.24 287.96 206.24 288.2 206.24 288.44 206.24 288.67 206.24 288.91 206.24 289.14 206.24 289.38 206.24 289.62 206.24 289.85 206.24 290.09 206.24 290.32 206.24 290.56 206.24 290.8 206.24 291.03 206.24 291.27 206.24 291.51 206.24 291.74 206.24 291.98 206.24 292.21 206.24 292.45 206.24 292.69 206.24 292.92 206.24 293.16 206.24 293.39 206.24 293.63 206.24 293.87 206.24 294.1 206.24 294.34 206.24 294.58 206.24 294.81 206.24 295.05 206.24 295.28 206.24 295.52 206.24 295.76 206.24 295.99 206.24 296.23 206.24 296.46 206.24 296.7 206.24 296.94 206.24 297.17 206.24 297.41 206.24 297.65 206.24 297.88 206.24 298.12 206.24 298.35 206.24 298.59 206.24 298.83 206.24 299.06 206.24 299.3 206.24 299.53 206.24 299.77 206.24 300.01 206.24 300.24 206.24 300.48 206.24 300.72 206.24 300.95 206.24 301.19 206.24 301.42 206.24 301.66 206.24 301.9 206.24 302.13 206.24 302.37 206.24 302.6 206.24 302.84 206.24 303.08 206.24 303.31 206.24 303.55 206.24 303.79 206.24 304.02 206.24 304.26 206.24 304.49 206.24 304.73 206.24 304.97 206.24 305.2 206.24 305.44 206.24 305.67 206.24 305.91 206.24 306.15 206.24 306.38 206.24 306.62 206.24 306.86 206.24 307.09 206.24 307.33 206.24 307.56 206.24 307.8 206.24 308.04 206.24 308.27 206.24 308.51 206.24 308.74 206.24 308.98 206.24 309.22 206.24 309.45 206.24 309.69 206.24 309.93 206.24 310.16 206.24 310.4 206.24 310.63 206.24 310.87 206.24 311.11 206.24 311.34 206.24 311.58 206.24 311.82 206.24 312.05 206.24 312.29 206.24 312.52 206.24 312.76 206.24 313 206.24 313.23 206.24 313.47 206.24 313.7 206.24 313.94 206.24 314.18 206.24 314.41 206.24 314.65 206.24 314.89 206.24 315.12 206.24 315.36 206.24 315.59 206.24 315.83 206.24 316.07 206.24 316.3 206.24 316.54 206.24 316.77 206.24 317.01 206.24 317.25 206.24 317.48 206.24 317.72 206.24 317.96 206.24 318.19 206.24 318.43 206.24 318.66 206.24 318.9 206.24 319.14 206.24 319.37 206.24 319.61 206.24 319.84 206.24 320.08 206.24 320.32 206.24 320.55 206.24 320.79 206.24 321.03 206.24 321.26 206.24 321.5 206.24 321.73 206.24" clip-path="url(#cpMTk1LjAyfDMyNy43N3wyMTQuNjF8MzAuNTE=)" style="stroke-width:1.07;stroke:#f8766d"/><polygon points="201.06 206.24 201.29 206.24 201.53 206.24 201.77 206.24 202 206.24 202.24 206.24 202.47 206.24 202.71 206.24 202.95 206.24 203.18 206.24 203.42 206.24 203.66 206.24 203.89 206.24 204.13 206.24 204.36 206.23 204.6 206.23 204.84 206.23 205.07 206.23 205.31 206.23 205.54 206.23 205.78 206.22 206.02 206.22 206.25 206.22 206.49 206.21 206.73 206.21 206.96 206.21 207.2 206.2 207.43 206.2 207.67 206.19 207.91 206.18 208.14 206.18 208.38 206.17 208.61 206.16 208.85 206.15 209.09 206.13 209.32 206.12 209.56 206.1 209.8 206.09 210.03 206.07 210.27 206.05 210.5 206.02 210.74 206 210.98 205.97 211.21 205.94 211.45 205.9 211.68 205.86 211.92 205.82 212.16 205.77 212.39 205.72 212.63 205.67 212.87 205.61 213.1 205.54 213.34 205.47 213.57 205.39 213.81 205.3 214.05 205.21 214.28 205.11 214.52 205 214.75 204.88 214.99 204.75 215.23 204.61 215.46 204.46 215.7 204.3 215.94 204.13 216.17 203.94 216.41 203.75 216.64 203.53 216.88 203.3 217.12 203.06 217.35 202.81 217.59 202.53 217.82 202.24 218.06 201.94 218.3 201.6 218.53 201.26 218.77 200.89 219.01 200.51 219.24 200.1 219.48 199.67 219.71 199.22 219.95 198.75 220.19 198.25 220.42 197.74 220.66 197.19 220.89 196.63 221.13 196.04 221.37 195.43 221.6 194.79 221.84 194.13 222.08 193.45 222.31 192.74 222.55 192 222.78 191.25 223.02 190.47 223.26 189.67 223.49 188.84 223.73 187.99 223.96 187.12 224.2 186.23 224.44 185.33 224.67 184.39 224.91 183.45 225.15 182.48 225.38 181.5 225.62 180.5 225.85 179.48 226.09 178.46 226.33 177.41 226.56 176.36 226.8 175.3 227.03 174.23 227.27 173.15 227.51 172.06 227.74 170.96 227.98 169.86 228.22 168.76 228.45 167.65 228.69 166.55 228.92 165.44 229.16 164.33 229.4 163.22 229.63 162.12 229.87 161.02 230.1 159.92 230.34 158.83 230.58 157.74 230.81 156.66 231.05 155.58 231.29 154.51 231.52 153.45 231.76 152.39 231.99 151.35 232.23 150.3 232.47 149.27 232.7 148.25 232.94 147.23 233.17 146.23 233.41 145.23 233.65 144.23 233.88 143.25 234.12 142.27 234.36 141.3 234.59 140.34 234.83 139.38 235.06 138.43 235.3 137.48 235.54 136.55 235.77 135.62 236.01 134.69 236.24 133.77 236.48 132.85 236.72 131.94 236.95 131.04 237.19 130.14 237.43 129.25 237.66 128.36 237.9 127.48 238.13 126.6 238.37 125.73 238.61 124.87 238.84 124.02 239.08 123.18 239.31 122.35 239.55 121.53 239.79 120.72 240.02 119.92 240.26 119.13 240.5 118.36 240.73 117.61 240.97 116.87 241.2 116.15 241.44 115.45 241.68 114.77 241.91 114.11 242.15 113.48 242.39 112.87 242.62 112.29 242.86 111.73 243.09 111.2 243.33 110.7 243.57 110.24 243.8 109.8 244.04 109.4 244.27 109.03 244.51 108.7 244.75 108.4 244.98 108.14 245.22 107.91 245.46 107.72 245.69 107.57 245.93 107.46 246.16 107.38 246.4 107.34 246.64 107.34 246.87 107.38 247.11 107.45 247.34 107.56 247.58 107.71 247.82 107.89 248.05 108.1 248.29 108.35 248.53 108.63 248.76 108.94 249 109.29 249.23 109.66 249.47 110.05 249.71 110.48 249.94 110.93 250.18 111.4 250.41 111.89 250.65 112.4 250.89 112.93 251.12 113.48 251.36 114.04 251.6 114.62 251.83 115.21 252.07 115.8 252.3 116.41 252.54 117.03 252.78 117.65 253.01 118.28 253.25 118.9 253.48 119.54 253.72 120.17 253.96 120.8 254.19 121.43 254.43 122.06 254.67 122.69 254.9 123.31 255.14 123.93 255.37 124.55 255.61 125.16 255.85 125.76 256.08 126.35 256.32 126.94 256.55 127.53 256.79 128.1 257.03 128.67 257.26 129.23 257.5 129.78 257.74 130.33 257.97 130.86 258.21 131.4 258.44 131.92 258.68 132.44 258.92 132.95 259.15 133.46 259.39 133.95 259.62 134.45 259.86 134.94 260.1 135.42 260.33 135.9 260.57 136.38 260.81 136.86 261.04 137.33 261.28 137.8 261.51 138.26 261.75 138.73 261.99 139.19 262.22 139.65 262.46 140.12 262.69 140.58 262.93 141.04 263.17 141.51 263.4 141.97 263.64 142.43 263.88 142.9 264.11 143.37 264.35 143.84 264.58 144.31 264.82 144.78 265.06 145.25 265.29 145.73 265.53 146.21 265.76 146.69 266 147.17 266.24 147.65 266.47 148.14 266.71 148.62 266.95 149.11 267.18 149.6 267.42 150.09 267.65 150.59 267.89 151.08 268.13 151.57 268.36 152.07 268.6 152.56 268.83 153.06 269.07 153.55 269.31 154.05 269.54 154.54 269.78 155.04 270.02 155.53 270.25 156.03 270.49 156.52 270.72 157.01 270.96 157.5 271.2 157.99 271.43 158.48 271.67 158.97 271.9 159.46 272.14 159.95 272.38 160.44 272.61 160.92 272.85 161.41 273.09 161.89 273.32 162.38 273.56 162.86 273.79 163.34 274.03 163.82 274.27 164.31 274.5 164.79 274.74 165.27 274.97 165.75 275.21 166.23 275.45 166.72 275.68 167.2 275.92 167.68 276.16 168.17 276.39 168.65 276.63 169.13 276.86 169.62 277.1 170.1 277.34 170.58 277.57 171.07 277.81 171.55 278.04 172.03 278.28 172.51 278.52 172.99 278.75 173.47 278.99 173.95 279.23 174.43 279.46 174.9 279.7 175.37 279.93 175.84 280.17 176.31 280.41 176.77 280.64 177.23 280.88 177.68 281.11 178.13 281.35 178.58 281.59 179.02 281.82 179.45 282.06 179.87 282.3 180.29 282.53 180.71 282.77 181.11 283 181.51 283.24 181.9 283.48 182.28 283.71 182.65 283.95 183.01 284.18 183.37 284.42 183.71 284.66 184.04 284.89 184.37 285.13 184.69 285.37 184.99 285.6 185.29 285.84 185.58 286.07 185.85 286.31 186.12 286.55 186.38 286.78 186.63 287.02 186.87 287.25 187.1 287.49 187.33 287.73 187.54 287.96 187.75 288.2 187.95 288.44 188.14 288.67 188.33 288.91 188.51 289.14 188.69 289.38 188.86 289.62 189.02 289.85 189.19 290.09 189.34 290.32 189.5 290.56 189.65 290.8 189.8 291.03 189.95 291.27 190.1 291.51 190.24 291.74 190.39 291.98 190.54 292.21 190.69 292.45 190.84 292.69 190.99 292.92 191.14 293.16 191.3 293.39 191.46 293.63 191.62 293.87 191.79 294.1 191.96 294.34 192.14 294.58 192.32 294.81 192.5 295.05 192.69 295.28 192.88 295.52 193.08 295.76 193.29 295.99 193.5 296.23 193.71 296.46 193.93 296.7 194.15 296.94 194.38 297.17 194.61 297.41 194.85 297.65 195.08 297.88 195.33 298.12 195.57 298.35 195.82 298.59 196.07 298.83 196.33 299.06 196.58 299.3 196.84 299.53 197.09 299.77 197.35 300.01 197.6 300.24 197.86 300.48 198.11 300.72 198.37 300.95 198.62 301.19 198.86 301.42 199.11 301.66 199.35 301.9 199.59 302.13 199.82 302.37 200.05 302.6 200.27 302.84 200.49 303.08 200.7 303.31 200.9 303.55 201.1 303.79 201.29 304.02 201.47 304.26 201.65 304.49 201.81 304.73 201.97 304.97 202.12 305.2 202.27 305.44 202.4 305.67 202.53 305.91 202.65 306.15 202.76 306.38 202.86 306.62 202.95 306.86 203.04 307.09 203.12 307.33 203.18 307.56 203.24 307.8 203.3 308.04 203.34 308.27 203.38 308.51 203.41 308.74 203.44 308.98 203.45 309.22 203.46 309.45 203.47 309.69 203.47 309.93 203.47 310.16 203.46 310.4 203.44 310.63 203.42 310.87 203.4 311.11 203.38 311.34 203.35 311.58 203.32 311.82 203.28 312.05 203.25 312.29 203.21 312.52 203.18 312.76 203.14 313 203.1 313.23 203.07 313.47 203.03 313.7 202.99 313.94 202.96 314.18 202.93 314.41 202.9 314.65 202.87 314.89 202.84 315.12 202.82 315.36 202.8 315.59 202.78 315.83 202.77 316.07 202.76 316.3 202.75 316.54 202.75 316.77 202.75 317.01 202.75 317.25 202.76 317.48 202.77 317.72 202.79 317.96 202.81 318.19 202.84 318.43 202.87 318.66 202.9 318.9 202.94 319.14 202.98 319.37 203.02 319.61 203.07 319.84 203.12 320.08 203.18 320.32 203.23 320.55 203.29 320.79 203.36 321.03 203.42 321.26 203.49 321.5 203.56 321.73 203.63 321.73 206.24 321.5 206.24 321.26 206.24 321.03 206.24 320.79 206.24 320.55 206.24 320.32 206.24 320.08 206.24 319.84 206.24 319.61 206.24 319.37 206.24 319.14 206.24 318.9 206.24 318.66 206.24 318.43 206.24 318.19 206.24 317.96 206.24 317.72 206.24 317.48 206.24 317.25 206.24 317.01 206.24 316.77 206.24 316.54 206.24 316.3 206.24 316.07 206.24 315.83 206.24 315.59 206.24 315.36 206.24 315.12 206.24 314.89 206.24 314.65 206.24 314.41 206.24 314.18 206.24 313.94 206.24 313.7 206.24 313.47 206.24 313.23 206.24 313 206.24 312.76 206.24 312.52 206.24 312.29 206.24 312.05 206.24 311.82 206.24 311.58 206.24 311.34 206.24 311.11 206.24 310.87 206.24 310.63 206.24 310.4 206.24 310.16 206.24 309.93 206.24 309.69 206.24 309.45 206.24 309.22 206.24 308.98 206.24 308.74 206.24 308.51 206.24 308.27 206.24 308.04 206.24 307.8 206.24 307.56 206.24 307.33 206.24 307.09 206.24 306.86 206.24 306.62 206.24 306.38 206.24 306.15 206.24 305.91 206.24 305.67 206.24 305.44 206.24 305.2 206.24 304.97 206.24 304.73 206.24 304.49 206.24 304.26 206.24 304.02 206.24 303.79 206.24 303.55 206.24 303.31 206.24 303.08 206.24 302.84 206.24 302.6 206.24 302.37 206.24 302.13 206.24 301.9 206.24 301.66 206.24 301.42 206.24 301.19 206.24 300.95 206.24 300.72 206.24 300.48 206.24 300.24 206.24 300.01 206.24 299.77 206.24 299.53 206.24 299.3 206.24 299.06 206.24 298.83 206.24 298.59 206.24 298.35 206.24 298.12 206.24 297.88 206.24 297.65 206.24 297.41 206.24 297.17 206.24 296.94 206.24 296.7 206.24 296.46 206.24 296.23 206.24 295.99 206.24 295.76 206.24 295.52 206.24 295.28 206.24 295.05 206.24 294.81 206.24 294.58 206.24 294.34 206.24 294.1 206.24 293.87 206.24 293.63 206.24 293.39 206.24 293.16 206.24 292.92 206.24 292.69 206.24 292.45 206.24 292.21 206.24 291.98 206.24 291.74 206.24 291.51 206.24 291.27 206.24 291.03 206.24 290.8 206.24 290.56 206.24 290.32 206.24 290.09 206.24 289.85 206.24 289.62 206.24 289.38 206.24 289.14 206.24 288.91 206.24 288.67 206.24 288.44 206.24 288.2 206.24 287.96 206.24 287.73 206.24 287.49 206.24 287.25 206.24 287.02 206.24 286.78 206.24 286.55 206.24 286.31 206.24 286.07 206.24 285.84 206.24 285.6 206.24 285.37 206.24 285.13 206.24 284.89 206.24 284.66 206.24 284.42 206.24 284.18 206.24 283.95 206.24 283.71 206.24 283.48 206.24 283.24 206.24 283 206.24 282.77 206.24 282.53 206.24 282.3 206.24 282.06 206.24 281.82 206.24 281.59 206.24 281.35 206.24 281.11 206.24 280.88 206.24 280.64 206.24 280.41 206.24 280.17 206.24 279.93 206.24 279.7 206.24 279.46 206.24 279.23 206.24 278.99 206.24 278.75 206.24 278.52 206.24 278.28 206.24 278.04 206.24 277.81 206.24 277.57 206.24 277.34 206.24 277.1 206.24 276.86 206.24 276.63 206.24 276.39 206.24 276.16 206.24 275.92 206.24 275.68 206.24 275.45 206.24 275.21 206.24 274.97 206.24 274.74 206.24 274.5 206.24 274.27 206.24 274.03 206.24 273.79 206.24 273.56 206.24 273.32 206.24 273.09 206.24 272.85 206.24 272.61 206.24 272.38 206.24 272.14 206.24 271.9 206.24 271.67 206.24 271.43 206.24 271.2 206.24 270.96 206.24 270.72 206.24 270.49 206.24 270.25 206.24 270.02 206.24 269.78 206.24 269.54 206.24 269.31 206.24 269.07 206.24 268.83 206.24 268.6 206.24 268.36 206.24 268.13 206.24 267.89 206.24 267.65 206.24 267.42 206.24 267.18 206.24 266.95 206.24 266.71 206.24 266.47 206.24 266.24 206.24 266 206.24 265.76 206.24 265.53 206.24 265.29 206.24 265.06 206.24 264.82 206.24 264.58 206.24 264.35 206.24 264.11 206.24 263.88 206.24 263.64 206.24 263.4 206.24 263.17 206.24 262.93 206.24 262.69 206.24 262.46 206.24 262.22 206.24 261.99 206.24 261.75 206.24 261.51 206.24 261.28 206.24 261.04 206.24 260.81 206.24 260.57 206.24 260.33 206.24 260.1 206.24 259.86 206.24 259.62 206.24 259.39 206.24 259.15 206.24 258.92 206.24 258.68 206.24 258.44 206.24 258.21 206.24 257.97 206.24 257.74 206.24 257.5 206.24 257.26 206.24 257.03 206.24 256.79 206.24 256.55 206.24 256.32 206.24 256.08 206.24 255.85 206.24 255.61 206.24 255.37 206.24 255.14 206.24 254.9 206.24 254.67 206.24 254.43 206.24 254.19 206.24 253.96 206.24 253.72 206.24 253.48 206.24 253.25 206.24 253.01 206.24 252.78 206.24 252.54 206.24 252.3 206.24 252.07 206.24 251.83 206.24 251.6 206.24 251.36 206.24 251.12 206.24 250.89 206.24 250.65 206.24 250.41 206.24 250.18 206.24 249.94 206.24 249.71 206.24 249.47 206.24 249.23 206.24 249 206.24 248.76 206.24 248.53 206.24 248.29 206.24 248.05 206.24 247.82 206.24 247.58 206.24 247.34 206.24 247.11 206.24 246.87 206.24 246.64 206.24 246.4 206.24 246.16 206.24 245.93 206.24 245.69 206.24 245.46 206.24 245.22 206.24 244.98 206.24 244.75 206.24 244.51 206.24 244.27 206.24 244.04 206.24 243.8 206.24 243.57 206.24 243.33 206.24 243.09 206.24 242.86 206.24 242.62 206.24 242.39 206.24 242.15 206.24 241.91 206.24 241.68 206.24 241.44 206.24 241.2 206.24 240.97 206.24 240.73 206.24 240.5 206.24 240.26 206.24 240.02 206.24 239.79 206.24 239.55 206.24 239.31 206.24 239.08 206.24 238.84 206.24 238.61 206.24 238.37 206.24 238.13 206.24 237.9 206.24 237.66 206.24 237.43 206.24 237.19 206.24 236.95 206.24 236.72 206.24 236.48 206.24 236.24 206.24 236.01 206.24 235.77 206.24 235.54 206.24 235.3 206.24 235.06 206.24 234.83 206.24 234.59 206.24 234.36 206.24 234.12 206.24 233.88 206.24 233.65 206.24 233.41 206.24 233.17 206.24 232.94 206.24 232.7 206.24 232.47 206.24 232.23 206.24 231.99 206.24 231.76 206.24 231.52 206.24 231.29 206.24 231.05 206.24 230.81 206.24 230.58 206.24 230.34 206.24 230.1 206.24 229.87 206.24 229.63 206.24 229.4 206.24 229.16 206.24 228.92 206.24 228.69 206.24 228.45 206.24 228.22 206.24 227.98 206.24 227.74 206.24 227.51 206.24 227.27 206.24 227.03 206.24 226.8 206.24 226.56 206.24 226.33 206.24 226.09 206.24 225.85 206.24 225.62 206.24 225.38 206.24 225.15 206.24 224.91 206.24 224.67 206.24 224.44 206.24 224.2 206.24 223.96 206.24 223.73 206.24 223.49 206.24 223.26 206.24 223.02 206.24 222.78 206.24 222.55 206.24 222.31 206.24 222.08 206.24 221.84 206.24 221.6 206.24 221.37 206.24 221.13 206.24 220.89 206.24 220.66 206.24 220.42 206.24 220.19 206.24 219.95 206.24 219.71 206.24 219.48 206.24 219.24 206.24 219.01 206.24 218.77 206.24 218.53 206.24 218.3 206.24 218.06 206.24 217.82 206.24 217.59 206.24 217.35 206.24 217.12 206.24 216.88 206.24 216.64 206.24 216.41 206.24 216.17 206.24 215.94 206.24 215.7 206.24 215.46 206.24 215.23 206.24 214.99 206.24 214.75 206.24 214.52 206.24 214.28 206.24 214.05 206.24 213.81 206.24 213.57 206.24 213.34 206.24 213.1 206.24 212.87 206.24 212.63 206.24 212.39 206.24 212.16 206.24 211.92 206.24 211.68 206.24 211.45 206.24 211.21 206.24 210.98 206.24 210.74 206.24 210.5 206.24 210.27 206.24 210.03 206.24 209.8 206.24 209.56 206.24 209.32 206.24 209.09 206.24 208.85 206.24 208.61 206.24 208.38 206.24 208.14 206.24 207.91 206.24 207.67 206.24 207.43 206.24 207.2 206.24 206.96 206.24 206.73 206.24 206.49 206.24 206.25 206.24 206.02 206.24 205.78 206.24 205.54 206.24 205.31 206.24 205.07 206.24 204.84 206.24 204.6 206.24 204.36 206.24 204.13 206.24 203.89 206.24 203.66 206.24 203.42 206.24 203.18 206.24 202.95 206.24 202.71 206.24 202.47 206.24 202.24 206.24 202 206.24 201.77 206.24 201.53 206.24 201.29 206.24 201.06 206.24" clip-path="url(#cpMTk1LjAyfDMyNy43N3wyMTQuNjF8MzAuNTE=)" style="stroke-width:0;stroke:none;fill:#00bfc4;fill-opacity:.5"/><polyline points="201.06 206.24 201.29 206.24 201.53 206.24 201.77 206.24 202 206.24 202.24 206.24 202.47 206.24 202.71 206.24 202.95 206.24 203.18 206.24 203.42 206.24 203.66 206.24 203.89 206.24 204.13 206.24 204.36 206.23 204.6 206.23 204.84 206.23 205.07 206.23 205.31 206.23 205.54 206.23 205.78 206.22 206.02 206.22 206.25 206.22 206.49 206.21 206.73 206.21 206.96 206.21 207.2 206.2 207.43 206.2 207.67 206.19 207.91 206.18 208.14 206.18 208.38 206.17 208.61 206.16 208.85 206.15 209.09 206.13 209.32 206.12 209.56 206.1 209.8 206.09 210.03 206.07 210.27 206.05 210.5 206.02 210.74 206 210.98 205.97 211.21 205.94 211.45 205.9 211.68 205.86 211.92 205.82 212.16 205.77 212.39 205.72 212.63 205.67 212.87 205.61 213.1 205.54 213.34 205.47 213.57 205.39 213.81 205.3 214.05 205.21 214.28 205.11 214.52 205 214.75 204.88 214.99 204.75 215.23 204.61 215.46 204.46 215.7 204.3 215.94 204.13 216.17 203.94 216.41 203.75 216.64 203.53 216.88 203.3 217.12 203.06 217.35 202.81 217.59 202.53 217.82 202.24 218.06 201.94 218.3 201.6 218.53 201.26 218.77 200.89 219.01 200.51 219.24 200.1 219.48 199.67 219.71 199.22 219.95 198.75 220.19 198.25 220.42 197.74 220.66 197.19 220.89 196.63 221.13 196.04 221.37 195.43 221.6 194.79 221.84 194.13 222.08 193.45 222.31 192.74 222.55 192 222.78 191.25 223.02 190.47 223.26 189.67 223.49 188.84 223.73 187.99 223.96 187.12 224.2 186.23 224.44 185.33 224.67 184.39 224.91 183.45 225.15 182.48 225.38 181.5 225.62 180.5 225.85 179.48 226.09 178.46 226.33 177.41 226.56 176.36 226.8 175.3 227.03 174.23 227.27 173.15 227.51 172.06 227.74 170.96 227.98 169.86 228.22 168.76 228.45 167.65 228.69 166.55 228.92 165.44 229.16 164.33 229.4 163.22 229.63 162.12 229.87 161.02 230.1 159.92 230.34 158.83 230.58 157.74 230.81 156.66 231.05 155.58 231.29 154.51 231.52 153.45 231.76 152.39 231.99 151.35 232.23 150.3 232.47 149.27 232.7 148.25 232.94 147.23 233.17 146.23 233.41 145.23 233.65 144.23 233.88 143.25 234.12 142.27 234.36 141.3 234.59 140.34 234.83 139.38 235.06 138.43 235.3 137.48 235.54 136.55 235.77 135.62 236.01 134.69 236.24 133.77 236.48 132.85 236.72 131.94 236.95 131.04 237.19 130.14 237.43 129.25 237.66 128.36 237.9 127.48 238.13 126.6 238.37 125.73 238.61 124.87 238.84 124.02 239.08 123.18 239.31 122.35 239.55 121.53 239.79 120.72 240.02 119.92 240.26 119.13 240.5 118.36 240.73 117.61 240.97 116.87 241.2 116.15 241.44 115.45 241.68 114.77 241.91 114.11 242.15 113.48 242.39 112.87 242.62 112.29 242.86 111.73 243.09 111.2 243.33 110.7 243.57 110.24 243.8 109.8 244.04 109.4 244.27 109.03 244.51 108.7 244.75 108.4 244.98 108.14 245.22 107.91 245.46 107.72 245.69 107.57 245.93 107.46 246.16 107.38 246.4 107.34 246.64 107.34 246.87 107.38 247.11 107.45 247.34 107.56 247.58 107.71 247.82 107.89 248.05 108.1 248.29 108.35 248.53 108.63 248.76 108.94 249 109.29 249.23 109.66 249.47 110.05 249.71 110.48 249.94 110.93 250.18 111.4 250.41 111.89 250.65 112.4 250.89 112.93 251.12 113.48 251.36 114.04 251.6 114.62 251.83 115.21 252.07 115.8 252.3 116.41 252.54 117.03 252.78 117.65 253.01 118.28 253.25 118.9 253.48 119.54 253.72 120.17 253.96 120.8 254.19 121.43 254.43 122.06 254.67 122.69 254.9 123.31 255.14 123.93 255.37 124.55 255.61 125.16 255.85 125.76 256.08 126.35 256.32 126.94 256.55 127.53 256.79 128.1 257.03 128.67 257.26 129.23 257.5 129.78 257.74 130.33 257.97 130.86 258.21 131.4 258.44 131.92 258.68 132.44 258.92 132.95 259.15 133.46 259.39 133.95 259.62 134.45 259.86 134.94 260.1 135.42 260.33 135.9 260.57 136.38 260.81 136.86 261.04 137.33 261.28 137.8 261.51 138.26 261.75 138.73 261.99 139.19 262.22 139.65 262.46 140.12 262.69 140.58 262.93 141.04 263.17 141.51 263.4 141.97 263.64 142.43 263.88 142.9 264.11 143.37 264.35 143.84 264.58 144.31 264.82 144.78 265.06 145.25 265.29 145.73 265.53 146.21 265.76 146.69 266 147.17 266.24 147.65 266.47 148.14 266.71 148.62 266.95 149.11 267.18 149.6 267.42 150.09 267.65 150.59 267.89 151.08 268.13 151.57 268.36 152.07 268.6 152.56 268.83 153.06 269.07 153.55 269.31 154.05 269.54 154.54 269.78 155.04 270.02 155.53 270.25 156.03 270.49 156.52 270.72 157.01 270.96 157.5 271.2 157.99 271.43 158.48 271.67 158.97 271.9 159.46 272.14 159.95 272.38 160.44 272.61 160.92 272.85 161.41 273.09 161.89 273.32 162.38 273.56 162.86 273.79 163.34 274.03 163.82 274.27 164.31 274.5 164.79 274.74 165.27 274.97 165.75 275.21 166.23 275.45 166.72 275.68 167.2 275.92 167.68 276.16 168.17 276.39 168.65 276.63 169.13 276.86 169.62 277.1 170.1 277.34 170.58 277.57 171.07 277.81 171.55 278.04 172.03 278.28 172.51 278.52 172.99 278.75 173.47 278.99 173.95 279.23 174.43 279.46 174.9 279.7 175.37 279.93 175.84 280.17 176.31 280.41 176.77 280.64 177.23 280.88 177.68 281.11 178.13 281.35 178.58 281.59 179.02 281.82 179.45 282.06 179.87 282.3 180.29 282.53 180.71 282.77 181.11 283 181.51 283.24 181.9 283.48 182.28 283.71 182.65 283.95 183.01 284.18 183.37 284.42 183.71 284.66 184.04 284.89 184.37 285.13 184.69 285.37 184.99 285.6 185.29 285.84 185.58 286.07 185.85 286.31 186.12 286.55 186.38 286.78 186.63 287.02 186.87 287.25 187.1 287.49 187.33 287.73 187.54 287.96 187.75 288.2 187.95 288.44 188.14 288.67 188.33 288.91 188.51 289.14 188.69 289.38 188.86 289.62 189.02 289.85 189.19 290.09 189.34 290.32 189.5 290.56 189.65 290.8 189.8 291.03 189.95 291.27 190.1 291.51 190.24 291.74 190.39 291.98 190.54 292.21 190.69 292.45 190.84 292.69 190.99 292.92 191.14 293.16 191.3 293.39 191.46 293.63 191.62 293.87 191.79 294.1 191.96 294.34 192.14 294.58 192.32 294.81 192.5 295.05 192.69 295.28 192.88 295.52 193.08 295.76 193.29 295.99 193.5 296.23 193.71 296.46 193.93 296.7 194.15 296.94 194.38 297.17 194.61 297.41 194.85 297.65 195.08 297.88 195.33 298.12 195.57 298.35 195.82 298.59 196.07 298.83 196.33 299.06 196.58 299.3 196.84 299.53 197.09 299.77 197.35 300.01 197.6 300.24 197.86 300.48 198.11 300.72 198.37 300.95 198.62 301.19 198.86 301.42 199.11 301.66 199.35 301.9 199.59 302.13 199.82 302.37 200.05 302.6 200.27 302.84 200.49 303.08 200.7 303.31 200.9 303.55 201.1 303.79 201.29 304.02 201.47 304.26 201.65 304.49 201.81 304.73 201.97 304.97 202.12 305.2 202.27 305.44 202.4 305.67 202.53 305.91 202.65 306.15 202.76 306.38 202.86 306.62 202.95 306.86 203.04 307.09 203.12 307.33 203.18 307.56 203.24 307.8 203.3 308.04 203.34 308.27 203.38 308.51 203.41 308.74 203.44 308.98 203.45 309.22 203.46 309.45 203.47 309.69 203.47 309.93 203.47 310.16 203.46 310.4 203.44 310.63 203.42 310.87 203.4 311.11 203.38 311.34 203.35 311.58 203.32 311.82 203.28 312.05 203.25 312.29 203.21 312.52 203.18 312.76 203.14 313 203.1 313.23 203.07 313.47 203.03 313.7 202.99 313.94 202.96 314.18 202.93 314.41 202.9 314.65 202.87 314.89 202.84 315.12 202.82 315.36 202.8 315.59 202.78 315.83 202.77 316.07 202.76 316.3 202.75 316.54 202.75 316.77 202.75 317.01 202.75 317.25 202.76 317.48 202.77 317.72 202.79 317.96 202.81 318.19 202.84 318.43 202.87 318.66 202.9 318.9 202.94 319.14 202.98 319.37 203.02 319.61 203.07 319.84 203.12 320.08 203.18 320.32 203.23 320.55 203.29 320.79 203.36 321.03 203.42 321.26 203.49 321.5 203.56 321.73 203.63" clip-path="url(#cpMTk1LjAyfDMyNy43N3wyMTQuNjF8MzAuNTE=)" style="stroke-width:1.07;stroke:#00bfc4"/><defs><clipPath id="cpMC4wMHw1MDQuMDB8MjUyLjAwfDAuMDA="><rect width="504" height="252" x="0" y="0"/></clipPath></defs><g clip-path="url(#cpMC4wMHw1MDQuMDB8MjUyLjAwfDAuMDA=)"><text x="176.75" y="209.68" lengthAdjust="spacingAndGlyphs" textLength="13.35" style="font-size:9.6px;fill:#4d4d4d;font-family:Arial">0.0</text></g><g clip-path="url(#cpMC4wMHw1MDQuMDB8MjUyLjAwfDAuMDA=)"><text x="176.75" y="166.2" lengthAdjust="spacingAndGlyphs" textLength="13.35" style="font-size:9.6px;fill:#4d4d4d;font-family:Arial">0.1</text></g><g clip-path="url(#cpMC4wMHw1MDQuMDB8MjUyLjAwfDAuMDA=)"><text x="176.75" y="122.71" lengthAdjust="spacingAndGlyphs" textLength="13.35" style="font-size:9.6px;fill:#4d4d4d;font-family:Arial">0.2</text></g><g clip-path="url(#cpMC4wMHw1MDQuMDB8MjUyLjAwfDAuMDA=)"><text x="176.75" y="79.23" lengthAdjust="spacingAndGlyphs" textLength="13.35" style="font-size:9.6px;fill:#4d4d4d;font-family:Arial">0.3</text></g><g clip-path="url(#cpMC4wMHw1MDQuMDB8MjUyLjAwfDAuMDA=)"><text x="176.75" y="35.75" lengthAdjust="spacingAndGlyphs" textLength="13.35" style="font-size:9.6px;fill:#4d4d4d;font-family:Arial">0.4</text></g><polyline points="192.28 206.24 195.02 206.24" clip-path="url(#cpMC4wMHw1MDQuMDB8MjUyLjAwfDAuMDA=)" style="stroke-width:1.07;stroke:#333;stroke-linecap:butt"/><polyline points="192.28 162.76 195.02 162.76" clip-path="url(#cpMC4wMHw1MDQuMDB8MjUyLjAwfDAuMDA=)" style="stroke-width:1.07;stroke:#333;stroke-linecap:butt"/><polyline points="192.28 119.28 195.02 119.28" clip-path="url(#cpMC4wMHw1MDQuMDB8MjUyLjAwfDAuMDA=)" style="stroke-width:1.07;stroke:#333;stroke-linecap:butt"/><polyline points="192.28 75.79 195.02 75.79" clip-path="url(#cpMC4wMHw1MDQuMDB8MjUyLjAwfDAuMDA=)" style="stroke-width:1.07;stroke:#333;stroke-linecap:butt"/><polyline points="192.28 32.31 195.02 32.31" clip-path="url(#cpMC4wMHw1MDQuMDB8MjUyLjAwfDAuMDA=)" style="stroke-width:1.07;stroke:#333;stroke-linecap:butt"/><polyline points="225.64 217.35 225.64 214.61" clip-path="url(#cpMC4wMHw1MDQuMDB8MjUyLjAwfDAuMDA=)" style="stroke-width:1.07;stroke:#333;stroke-linecap:butt"/><polyline points="264.14 217.35 264.14 214.61" clip-path="url(#cpMC4wMHw1MDQuMDB8MjUyLjAwfDAuMDA=)" style="stroke-width:1.07;stroke:#333;stroke-linecap:butt"/><polyline points="302.65 217.35 302.65 214.61" clip-path="url(#cpMC4wMHw1MDQuMDB8MjUyLjAwfDAuMDA=)" style="stroke-width:1.07;stroke:#333;stroke-linecap:butt"/><g clip-path="url(#cpMC4wMHw1MDQuMDB8MjUyLjAwfDAuMDA=)"><text x="222.97" y="226.41" lengthAdjust="spacingAndGlyphs" textLength="5.34" style="font-size:9.6px;fill:#4d4d4d;font-family:Arial">0</text></g><g clip-path="url(#cpMC4wMHw1MDQuMDB8MjUyLjAwfDAuMDA=)"><text x="261.48" y="226.41" lengthAdjust="spacingAndGlyphs" textLength="5.34" style="font-size:9.6px;fill:#4d4d4d;font-family:Arial">4</text></g><g clip-path="url(#cpMC4wMHw1MDQuMDB8MjUyLjAwfDAuMDA=)"><text x="299.98" y="226.41" lengthAdjust="spacingAndGlyphs" textLength="5.34" style="font-size:9.6px;fill:#4d4d4d;font-family:Arial">8</text></g><g clip-path="url(#cpMC4wMHw1MDQuMDB8MjUyLjAwfDAuMDA=)"><text x="195.02" y="21.71" lengthAdjust="spacingAndGlyphs" textLength="50.02" style="font-size:15px;fill:#4d4d4d;font-family:Arial">Density</text></g><defs><clipPath id="cpMzMzLjI1fDQ5OC41MnwyNDYuNTJ8NS40OA=="><rect width="165.27" height="241.04" x="333.25" y="5.48"/></clipPath></defs><rect width="165.27" height="241.04" x="333.25" y="5.48" clip-path="url(#cpMzMzLjI1fDQ5OC41MnwyNDYuNTJ8NS40OA==)" style="stroke-width:1.07;stroke:none"/><defs><clipPath id="cpMC4wMHw1MDQuMDB8MjUyLjAwfDAuMDA="><rect width="504" height="252" x="0" y="0"/></clipPath></defs><defs><clipPath id="cpMzYwLjMwfDQ5My4wNHwyMTQuNjF8MzAuNTE="><rect width="132.74" height="184.1" x="360.3" y="30.51"/></clipPath></defs><circle cx="368.28" cy="204.3" r="1.95" clip-path="url(#cpMzYwLjMwfDQ5My4wNHwyMTQuNjF8MzAuNTE=)" style="stroke-width:.75;stroke:#f8766d;stroke-opacity:.5;fill:#f8766d;fill-opacity:.5"/><circle cx="374.11" cy="204.3" r="1.95" clip-path="url(#cpMzYwLjMwfDQ5My4wNHwyMTQuNjF8MzAuNTE=)" style="stroke-width:.75;stroke:#f8766d;stroke-opacity:.5;fill:#f8766d;fill-opacity:.5"/><circle cx="374.11" cy="200.4" r="1.95" clip-path="url(#cpMzYwLjMwfDQ5My4wNHwyMTQuNjF8MzAuNTE=)" style="stroke-width:.75;stroke:#f8766d;stroke-opacity:.5;fill:#f8766d;fill-opacity:.5"/><circle cx="374.11" cy="196.51" r="1.95" clip-path="url(#cpMzYwLjMwfDQ5My4wNHwyMTQuNjF8MzAuNTE=)" style="stroke-width:.75;stroke:#f8766d;stroke-opacity:.5;fill:#f8766d;fill-opacity:.5"/><circle cx="374.11" cy="192.62" r="1.95" clip-path="url(#cpMzYwLjMwfDQ5My4wNHwyMTQuNjF8MzAuNTE=)" style="stroke-width:.75;stroke:#f8766d;stroke-opacity:.5;fill:#f8766d;fill-opacity:.5"/><circle cx="374.11" cy="188.72" r="1.95" clip-path="url(#cpMzYwLjMwfDQ5My4wNHwyMTQuNjF8MzAuNTE=)" style="stroke-width:.75;stroke:#f8766d;stroke-opacity:.5;fill:#f8766d;fill-opacity:.5"/><circle cx="374.11" cy="184.83" r="1.95" clip-path="url(#cpMzYwLjMwfDQ5My4wNHwyMTQuNjF8MzAuNTE=)" style="stroke-width:.75;stroke:#f8766d;stroke-opacity:.5;fill:#f8766d;fill-opacity:.5"/><circle cx="374.11" cy="180.94" r="1.95" clip-path="url(#cpMzYwLjMwfDQ5My4wNHwyMTQuNjF8MzAuNTE=)" style="stroke-width:.75;stroke:#f8766d;stroke-opacity:.5;fill:#f8766d;fill-opacity:.5"/><circle cx="374.11" cy="177.05" r="1.95" clip-path="url(#cpMzYwLjMwfDQ5My4wNHwyMTQuNjF8MzAuNTE=)" style="stroke-width:.75;stroke:#f8766d;stroke-opacity:.5;fill:#f8766d;fill-opacity:.5"/><circle cx="374.11" cy="173.15" r="1.95" clip-path="url(#cpMzYwLjMwfDQ5My4wNHwyMTQuNjF8MzAuNTE=)" style="stroke-width:.75;stroke:#f8766d;stroke-opacity:.5;fill:#f8766d;fill-opacity:.5"/><circle cx="380.57" cy="204.3" r="1.95" clip-path="url(#cpMzYwLjMwfDQ5My4wNHwyMTQuNjF8MzAuNTE=)" style="stroke-width:.75;stroke:#f8766d;stroke-opacity:.5;fill:#f8766d;fill-opacity:.5"/><circle cx="380.57" cy="200.4" r="1.95" clip-path="url(#cpMzYwLjMwfDQ5My4wNHwyMTQuNjF8MzAuNTE=)" style="stroke-width:.75;stroke:#f8766d;stroke-opacity:.5;fill:#f8766d;fill-opacity:.5"/><circle cx="380.57" cy="196.51" r="1.95" clip-path="url(#cpMzYwLjMwfDQ5My4wNHwyMTQuNjF8MzAuNTE=)" style="stroke-width:.75;stroke:#f8766d;stroke-opacity:.5;fill:#f8766d;fill-opacity:.5"/><circle cx="380.57" cy="192.62" r="1.95" clip-path="url(#cpMzYwLjMwfDQ5My4wNHwyMTQuNjF8MzAuNTE=)" style="stroke-width:.75;stroke:#f8766d;stroke-opacity:.5;fill:#f8766d;fill-opacity:.5"/><circle cx="380.57" cy="188.72" r="1.95" clip-path="url(#cpMzYwLjMwfDQ5My4wNHwyMTQuNjF8MzAuNTE=)" style="stroke-width:.75;stroke:#f8766d;stroke-opacity:.5;fill:#f8766d;fill-opacity:.5"/><circle cx="380.57" cy="184.83" r="1.95" clip-path="url(#cpMzYwLjMwfDQ5My4wNHwyMTQuNjF8MzAuNTE=)" style="stroke-width:.75;stroke:#f8766d;stroke-opacity:.5;fill:#f8766d;fill-opacity:.5"/><circle cx="380.57" cy="180.94" r="1.95" clip-path="url(#cpMzYwLjMwfDQ5My4wNHwyMTQuNjF8MzAuNTE=)" style="stroke-width:.75;stroke:#f8766d;stroke-opacity:.5;fill:#f8766d;fill-opacity:.5"/><circle cx="380.57" cy="177.05" r="1.95" clip-path="url(#cpMzYwLjMwfDQ5My4wNHwyMTQuNjF8MzAuNTE=)" style="stroke-width:.75;stroke:#f8766d;stroke-opacity:.5;fill:#f8766d;fill-opacity:.5"/><circle cx="380.57" cy="173.15" r="1.95" clip-path="url(#cpMzYwLjMwfDQ5My4wNHwyMTQuNjF8MzAuNTE=)" style="stroke-width:.75;stroke:#f8766d;stroke-opacity:.5;fill:#f8766d;fill-opacity:.5"/><circle cx="380.57" cy="169.26" r="1.95" clip-path="url(#cpMzYwLjMwfDQ5My4wNHwyMTQuNjF8MzAuNTE=)" style="stroke-width:.75;stroke:#f8766d;stroke-opacity:.5;fill:#f8766d;fill-opacity:.5"/><circle cx="384.49" cy="204.3" r="1.95" clip-path="url(#cpMzYwLjMwfDQ5My4wNHwyMTQuNjF8MzAuNTE=)" style="stroke-width:.75;stroke:#f8766d;stroke-opacity:.5;fill:#f8766d;fill-opacity:.5"/><circle cx="384.49" cy="200.4" r="1.95" clip-path="url(#cpMzYwLjMwfDQ5My4wNHwyMTQuNjF8MzAuNTE=)" style="stroke-width:.75;stroke:#f8766d;stroke-opacity:.5;fill:#f8766d;fill-opacity:.5"/><circle cx="384.49" cy="196.51" r="1.95" clip-path="url(#cpMzYwLjMwfDQ5My4wNHwyMTQuNjF8MzAuNTE=)" style="stroke-width:.75;stroke:#f8766d;stroke-opacity:.5;fill:#f8766d;fill-opacity:.5"/><circle cx="384.49" cy="192.62" r="1.95" clip-path="url(#cpMzYwLjMwfDQ5My4wNHwyMTQuNjF8MzAuNTE=)" style="stroke-width:.75;stroke:#f8766d;stroke-opacity:.5;fill:#f8766d;fill-opacity:.5"/><circle cx="384.49" cy="188.72" r="1.95" clip-path="url(#cpMzYwLjMwfDQ5My4wNHwyMTQuNjF8MzAuNTE=)" style="stroke-width:.75;stroke:#f8766d;stroke-opacity:.5;fill:#f8766d;fill-opacity:.5"/><circle cx="384.49" cy="184.83" r="1.95" clip-path="url(#cpMzYwLjMwfDQ5My4wNHwyMTQuNjF8MzAuNTE=)" style="stroke-width:.75;stroke:#f8766d;stroke-opacity:.5;fill:#f8766d;fill-opacity:.5"/><circle cx="384.49" cy="180.94" r="1.95" clip-path="url(#cpMzYwLjMwfDQ5My4wNHwyMTQuNjF8MzAuNTE=)" style="stroke-width:.75;stroke:#f8766d;stroke-opacity:.5;fill:#f8766d;fill-opacity:.5"/><circle cx="384.49" cy="177.05" r="1.95" clip-path="url(#cpMzYwLjMwfDQ5My4wNHwyMTQuNjF8MzAuNTE=)" style="stroke-width:.75;stroke:#f8766d;stroke-opacity:.5;fill:#f8766d;fill-opacity:.5"/><circle cx="384.49" cy="173.15" r="1.95" clip-path="url(#cpMzYwLjMwfDQ5My4wNHwyMTQuNjF8MzAuNTE=)" style="stroke-width:.75;stroke:#f8766d;stroke-opacity:.5;fill:#f8766d;fill-opacity:.5"/><circle cx="384.49" cy="169.26" r="1.95" clip-path="url(#cpMzYwLjMwfDQ5My4wNHwyMTQuNjF8MzAuNTE=)" style="stroke-width:.75;stroke:#f8766d;stroke-opacity:.5;fill:#f8766d;fill-opacity:.5"/><circle cx="384.49" cy="165.37" r="1.95" clip-path="url(#cpMzYwLjMwfDQ5My4wNHwyMTQuNjF8MzAuNTE=)" style="stroke-width:.75;stroke:#f8766d;stroke-opacity:.5;fill:#f8766d;fill-opacity:.5"/><circle cx="384.49" cy="161.47" r="1.95" clip-path="url(#cpMzYwLjMwfDQ5My4wNHwyMTQuNjF8MzAuNTE=)" style="stroke-width:.75;stroke:#f8766d;stroke-opacity:.5;fill:#f8766d;fill-opacity:.5"/><circle cx="388.36" cy="204.3" r="1.95" clip-path="url(#cpMzYwLjMwfDQ5My4wNHwyMTQuNjF8MzAuNTE=)" style="stroke-width:.75;stroke:#f8766d;stroke-opacity:.5;fill:#f8766d;fill-opacity:.5"/><circle cx="388.36" cy="200.4" r="1.95" clip-path="url(#cpMzYwLjMwfDQ5My4wNHwyMTQuNjF8MzAuNTE=)" style="stroke-width:.75;stroke:#f8766d;stroke-opacity:.5;fill:#f8766d;fill-opacity:.5"/><circle cx="388.36" cy="196.51" r="1.95" clip-path="url(#cpMzYwLjMwfDQ5My4wNHwyMTQuNjF8MzAuNTE=)" style="stroke-width:.75;stroke:#f8766d;stroke-opacity:.5;fill:#f8766d;fill-opacity:.5"/><circle cx="388.36" cy="192.62" r="1.95" clip-path="url(#cpMzYwLjMwfDQ5My4wNHwyMTQuNjF8MzAuNTE=)" style="stroke-width:.75;stroke:#f8766d;stroke-opacity:.5;fill:#f8766d;fill-opacity:.5"/><circle cx="388.36" cy="188.72" r="1.95" clip-path="url(#cpMzYwLjMwfDQ5My4wNHwyMTQuNjF8MzAuNTE=)" style="stroke-width:.75;stroke:#f8766d;stroke-opacity:.5;fill:#f8766d;fill-opacity:.5"/><circle cx="388.36" cy="184.83" r="1.95" clip-path="url(#cpMzYwLjMwfDQ5My4wNHwyMTQuNjF8MzAuNTE=)" style="stroke-width:.75;stroke:#f8766d;stroke-opacity:.5;fill:#f8766d;fill-opacity:.5"/><circle cx="388.36" cy="180.94" r="1.95" clip-path="url(#cpMzYwLjMwfDQ5My4wNHwyMTQuNjF8MzAuNTE=)" style="stroke-width:.75;stroke:#f8766d;stroke-opacity:.5;fill:#f8766d;fill-opacity:.5"/><circle cx="388.36" cy="177.05" r="1.95" clip-path="url(#cpMzYwLjMwfDQ5My4wNHwyMTQuNjF8MzAuNTE=)" style="stroke-width:.75;stroke:#f8766d;stroke-opacity:.5;fill:#f8766d;fill-opacity:.5"/><circle cx="388.36" cy="173.15" r="1.95" clip-path="url(#cpMzYwLjMwfDQ5My4wNHwyMTQuNjF8MzAuNTE=)" style="stroke-width:.75;stroke:#f8766d;stroke-opacity:.5;fill:#f8766d;fill-opacity:.5"/><circle cx="388.36" cy="169.26" r="1.95" clip-path="url(#cpMzYwLjMwfDQ5My4wNHwyMTQuNjF8MzAuNTE=)" style="stroke-width:.75;stroke:#f8766d;stroke-opacity:.5;fill:#f8766d;fill-opacity:.5"/><circle cx="388.36" cy="165.37" r="1.95" clip-path="url(#cpMzYwLjMwfDQ5My4wNHwyMTQuNjF8MzAuNTE=)" style="stroke-width:.75;stroke:#f8766d;stroke-opacity:.5;fill:#f8766d;fill-opacity:.5"/><circle cx="388.36" cy="161.47" r="1.95" clip-path="url(#cpMzYwLjMwfDQ5My4wNHwyMTQuNjF8MzAuNTE=)" style="stroke-width:.75;stroke:#f8766d;stroke-opacity:.5;fill:#f8766d;fill-opacity:.5"/><circle cx="388.36" cy="157.58" r="1.95" clip-path="url(#cpMzYwLjMwfDQ5My4wNHwyMTQuNjF8MzAuNTE=)" style="stroke-width:.75;stroke:#f8766d;stroke-opacity:.5;fill:#f8766d;fill-opacity:.5"/><circle cx="393.33" cy="204.3" r="1.95" clip-path="url(#cpMzYwLjMwfDQ5My4wNHwyMTQuNjF8MzAuNTE=)" style="stroke-width:.75;stroke:#f8766d;stroke-opacity:.5;fill:#f8766d;fill-opacity:.5"/><circle cx="393.33" cy="200.4" r="1.95" clip-path="url(#cpMzYwLjMwfDQ5My4wNHwyMTQuNjF8MzAuNTE=)" style="stroke-width:.75;stroke:#f8766d;stroke-opacity:.5;fill:#f8766d;fill-opacity:.5"/><circle cx="393.33" cy="196.51" r="1.95" clip-path="url(#cpMzYwLjMwfDQ5My4wNHwyMTQuNjF8MzAuNTE=)" style="stroke-width:.75;stroke:#f8766d;stroke-opacity:.5;fill:#f8766d;fill-opacity:.5"/><circle cx="393.33" cy="192.62" r="1.95" clip-path="url(#cpMzYwLjMwfDQ5My4wNHwyMTQuNjF8MzAuNTE=)" style="stroke-width:.75;stroke:#f8766d;stroke-opacity:.5;fill:#f8766d;fill-opacity:.5"/><circle cx="393.33" cy="188.72" r="1.95" clip-path="url(#cpMzYwLjMwfDQ5My4wNHwyMTQuNjF8MzAuNTE=)" style="stroke-width:.75;stroke:#f8766d;stroke-opacity:.5;fill:#f8766d;fill-opacity:.5"/><circle cx="393.33" cy="184.83" r="1.95" clip-path="url(#cpMzYwLjMwfDQ5My4wNHwyMTQuNjF8MzAuNTE=)" style="stroke-width:.75;stroke:#f8766d;stroke-opacity:.5;fill:#f8766d;fill-opacity:.5"/><circle cx="393.33" cy="180.94" r="1.95" clip-path="url(#cpMzYwLjMwfDQ5My4wNHwyMTQuNjF8MzAuNTE=)" style="stroke-width:.75;stroke:#f8766d;stroke-opacity:.5;fill:#f8766d;fill-opacity:.5"/><circle cx="393.33" cy="177.05" r="1.95" clip-path="url(#cpMzYwLjMwfDQ5My4wNHwyMTQuNjF8MzAuNTE=)" style="stroke-width:.75;stroke:#f8766d;stroke-opacity:.5;fill:#f8766d;fill-opacity:.5"/><circle cx="393.33" cy="173.15" r="1.95" clip-path="url(#cpMzYwLjMwfDQ5My4wNHwyMTQuNjF8MzAuNTE=)" style="stroke-width:.75;stroke:#f8766d;stroke-opacity:.5;fill:#f8766d;fill-opacity:.5"/><circle cx="393.33" cy="169.26" r="1.95" clip-path="url(#cpMzYwLjMwfDQ5My4wNHwyMTQuNjF8MzAuNTE=)" style="stroke-width:.75;stroke:#f8766d;stroke-opacity:.5;fill:#f8766d;fill-opacity:.5"/><circle cx="393.33" cy="165.37" r="1.95" clip-path="url(#cpMzYwLjMwfDQ5My4wNHwyMTQuNjF8MzAuNTE=)" style="stroke-width:.75;stroke:#f8766d;stroke-opacity:.5;fill:#f8766d;fill-opacity:.5"/><circle cx="393.33" cy="161.47" r="1.95" clip-path="url(#cpMzYwLjMwfDQ5My4wNHwyMTQuNjF8MzAuNTE=)" style="stroke-width:.75;stroke:#f8766d;stroke-opacity:.5;fill:#f8766d;fill-opacity:.5"/><circle cx="397.36" cy="204.3" r="1.95" clip-path="url(#cpMzYwLjMwfDQ5My4wNHwyMTQuNjF8MzAuNTE=)" style="stroke-width:.75;stroke:#f8766d;stroke-opacity:.5;fill:#f8766d;fill-opacity:.5"/><circle cx="397.36" cy="200.4" r="1.95" clip-path="url(#cpMzYwLjMwfDQ5My4wNHwyMTQuNjF8MzAuNTE=)" style="stroke-width:.75;stroke:#f8766d;stroke-opacity:.5;fill:#f8766d;fill-opacity:.5"/><circle cx="397.36" cy="196.51" r="1.95" clip-path="url(#cpMzYwLjMwfDQ5My4wNHwyMTQuNjF8MzAuNTE=)" style="stroke-width:.75;stroke:#f8766d;stroke-opacity:.5;fill:#f8766d;fill-opacity:.5"/><circle cx="397.36" cy="192.62" r="1.95" clip-path="url(#cpMzYwLjMwfDQ5My4wNHwyMTQuNjF8MzAuNTE=)" style="stroke-width:.75;stroke:#f8766d;stroke-opacity:.5;fill:#f8766d;fill-opacity:.5"/><circle cx="397.36" cy="188.72" r="1.95" clip-path="url(#cpMzYwLjMwfDQ5My4wNHwyMTQuNjF8MzAuNTE=)" style="stroke-width:.75;stroke:#f8766d;stroke-opacity:.5;fill:#f8766d;fill-opacity:.5"/><circle cx="397.36" cy="184.83" r="1.95" clip-path="url(#cpMzYwLjMwfDQ5My4wNHwyMTQuNjF8MzAuNTE=)" style="stroke-width:.75;stroke:#f8766d;stroke-opacity:.5;fill:#f8766d;fill-opacity:.5"/><circle cx="397.36" cy="180.94" r="1.95" clip-path="url(#cpMzYwLjMwfDQ5My4wNHwyMTQuNjF8MzAuNTE=)" style="stroke-width:.75;stroke:#f8766d;stroke-opacity:.5;fill:#f8766d;fill-opacity:.5"/><circle cx="397.36" cy="177.05" r="1.95" clip-path="url(#cpMzYwLjMwfDQ5My4wNHwyMTQuNjF8MzAuNTE=)" style="stroke-width:.75;stroke:#f8766d;stroke-opacity:.5;fill:#f8766d;fill-opacity:.5"/><circle cx="401.93" cy="204.3" r="1.95" clip-path="url(#cpMzYwLjMwfDQ5My4wNHwyMTQuNjF8MzAuNTE=)" style="stroke-width:.75;stroke:#f8766d;stroke-opacity:.5;fill:#f8766d;fill-opacity:.5"/><circle cx="401.93" cy="200.4" r="1.95" clip-path="url(#cpMzYwLjMwfDQ5My4wNHwyMTQuNjF8MzAuNTE=)" style="stroke-width:.75;stroke:#f8766d;stroke-opacity:.5;fill:#f8766d;fill-opacity:.5"/><circle cx="401.93" cy="196.51" r="1.95" clip-path="url(#cpMzYwLjMwfDQ5My4wNHwyMTQuNjF8MzAuNTE=)" style="stroke-width:.75;stroke:#f8766d;stroke-opacity:.5;fill:#f8766d;fill-opacity:.5"/><circle cx="401.93" cy="192.62" r="1.95" clip-path="url(#cpMzYwLjMwfDQ5My4wNHwyMTQuNjF8MzAuNTE=)" style="stroke-width:.75;stroke:#f8766d;stroke-opacity:.5;fill:#f8766d;fill-opacity:.5"/><circle cx="401.93" cy="188.72" r="1.95" clip-path="url(#cpMzYwLjMwfDQ5My4wNHwyMTQuNjF8MzAuNTE=)" style="stroke-width:.75;stroke:#f8766d;stroke-opacity:.5;fill:#f8766d;fill-opacity:.5"/><circle cx="406.49" cy="204.3" r="1.95" clip-path="url(#cpMzYwLjMwfDQ5My4wNHwyMTQuNjF8MzAuNTE=)" style="stroke-width:.75;stroke:#f8766d;stroke-opacity:.5;fill:#f8766d;fill-opacity:.5"/><circle cx="406.49" cy="200.4" r="1.95" clip-path="url(#cpMzYwLjMwfDQ5My4wNHwyMTQuNjF8MzAuNTE=)" style="stroke-width:.75;stroke:#f8766d;stroke-opacity:.5;fill:#f8766d;fill-opacity:.5"/><circle cx="406.49" cy="196.51" r="1.95" clip-path="url(#cpMzYwLjMwfDQ5My4wNHwyMTQuNjF8MzAuNTE=)" style="stroke-width:.75;stroke:#f8766d;stroke-opacity:.5;fill:#f8766d;fill-opacity:.5"/><circle cx="410.77" cy="204.3" r="1.95" clip-path="url(#cpMzYwLjMwfDQ5My4wNHwyMTQuNjF8MzAuNTE=)" style="stroke-width:.75;stroke:#f8766d;stroke-opacity:.5;fill:#f8766d;fill-opacity:.5"/><circle cx="410.77" cy="200.4" r="1.95" clip-path="url(#cpMzYwLjMwfDQ5My4wNHwyMTQuNjF8MzAuNTE=)" style="stroke-width:.75;stroke:#f8766d;stroke-opacity:.5;fill:#f8766d;fill-opacity:.5"/><circle cx="394.16" cy="204.3" r="1.95" clip-path="url(#cpMzYwLjMwfDQ5My4wNHwyMTQuNjF8MzAuNTE=)" style="stroke-width:.75;stroke:#00bfc4;stroke-opacity:.5;fill:#00bfc4;fill-opacity:.5"/><circle cx="394.16" cy="200.4" r="1.95" clip-path="url(#cpMzYwLjMwfDQ5My4wNHwyMTQuNjF8MzAuNTE=)" style="stroke-width:.75;stroke:#00bfc4;stroke-opacity:.5;fill:#00bfc4;fill-opacity:.5"/><circle cx="394.16" cy="196.51" r="1.95" clip-path="url(#cpMzYwLjMwfDQ5My4wNHwyMTQuNjF8MzAuNTE=)" style="stroke-width:.75;stroke:#00bfc4;stroke-opacity:.5;fill:#00bfc4;fill-opacity:.5"/><circle cx="394.16" cy="192.62" r="1.95" clip-path="url(#cpMzYwLjMwfDQ5My4wNHwyMTQuNjF8MzAuNTE=)" style="stroke-width:.75;stroke:#00bfc4;stroke-opacity:.5;fill:#00bfc4;fill-opacity:.5"/><circle cx="394.16" cy="188.72" r="1.95" clip-path="url(#cpMzYwLjMwfDQ5My4wNHwyMTQuNjF8MzAuNTE=)" style="stroke-width:.75;stroke:#00bfc4;stroke-opacity:.5;fill:#00bfc4;fill-opacity:.5"/><circle cx="394.16" cy="184.83" r="1.95" clip-path="url(#cpMzYwLjMwfDQ5My4wNHwyMTQuNjF8MzAuNTE=)" style="stroke-width:.75;stroke:#00bfc4;stroke-opacity:.5;fill:#00bfc4;fill-opacity:.5"/><circle cx="398.29" cy="204.3" r="1.95" clip-path="url(#cpMzYwLjMwfDQ5My4wNHwyMTQuNjF8MzAuNTE=)" style="stroke-width:.75;stroke:#00bfc4;stroke-opacity:.5;fill:#00bfc4;fill-opacity:.5"/><circle cx="398.29" cy="200.4" r="1.95" clip-path="url(#cpMzYwLjMwfDQ5My4wNHwyMTQuNjF8MzAuNTE=)" style="stroke-width:.75;stroke:#00bfc4;stroke-opacity:.5;fill:#00bfc4;fill-opacity:.5"/><circle cx="398.29" cy="196.51" r="1.95" clip-path="url(#cpMzYwLjMwfDQ5My4wNHwyMTQuNjF8MzAuNTE=)" style="stroke-width:.75;stroke:#00bfc4;stroke-opacity:.5;fill:#00bfc4;fill-opacity:.5"/><circle cx="398.29" cy="192.62" r="1.95" clip-path="url(#cpMzYwLjMwfDQ5My4wNHwyMTQuNjF8MzAuNTE=)" style="stroke-width:.75;stroke:#00bfc4;stroke-opacity:.5;fill:#00bfc4;fill-opacity:.5"/><circle cx="398.29" cy="188.72" r="1.95" clip-path="url(#cpMzYwLjMwfDQ5My4wNHwyMTQuNjF8MzAuNTE=)" style="stroke-width:.75;stroke:#00bfc4;stroke-opacity:.5;fill:#00bfc4;fill-opacity:.5"/><circle cx="403.24" cy="204.3" r="1.95" clip-path="url(#cpMzYwLjMwfDQ5My4wNHwyMTQuNjF8MzAuNTE=)" style="stroke-width:.75;stroke:#00bfc4;stroke-opacity:.5;fill:#00bfc4;fill-opacity:.5"/><circle cx="403.24" cy="200.4" r="1.95" clip-path="url(#cpMzYwLjMwfDQ5My4wNHwyMTQuNjF8MzAuNTE=)" style="stroke-width:.75;stroke:#00bfc4;stroke-opacity:.5;fill:#00bfc4;fill-opacity:.5"/><circle cx="403.24" cy="196.51" r="1.95" clip-path="url(#cpMzYwLjMwfDQ5My4wNHwyMTQuNjF8MzAuNTE=)" style="stroke-width:.75;stroke:#00bfc4;stroke-opacity:.5;fill:#00bfc4;fill-opacity:.5"/><circle cx="403.24" cy="192.62" r="1.95" clip-path="url(#cpMzYwLjMwfDQ5My4wNHwyMTQuNjF8MzAuNTE=)" style="stroke-width:.75;stroke:#00bfc4;stroke-opacity:.5;fill:#00bfc4;fill-opacity:.5"/><circle cx="403.24" cy="188.72" r="1.95" clip-path="url(#cpMzYwLjMwfDQ5My4wNHwyMTQuNjF8MzAuNTE=)" style="stroke-width:.75;stroke:#00bfc4;stroke-opacity:.5;fill:#00bfc4;fill-opacity:.5"/><circle cx="403.24" cy="184.83" r="1.95" clip-path="url(#cpMzYwLjMwfDQ5My4wNHwyMTQuNjF8MzAuNTE=)" style="stroke-width:.75;stroke:#00bfc4;stroke-opacity:.5;fill:#00bfc4;fill-opacity:.5"/><circle cx="403.24" cy="180.94" r="1.95" clip-path="url(#cpMzYwLjMwfDQ5My4wNHwyMTQuNjF8MzAuNTE=)" style="stroke-width:.75;stroke:#00bfc4;stroke-opacity:.5;fill:#00bfc4;fill-opacity:.5"/><circle cx="408.78" cy="204.3" r="1.95" clip-path="url(#cpMzYwLjMwfDQ5My4wNHwyMTQuNjF8MzAuNTE=)" style="stroke-width:.75;stroke:#00bfc4;stroke-opacity:.5;fill:#00bfc4;fill-opacity:.5"/><circle cx="408.78" cy="200.4" r="1.95" clip-path="url(#cpMzYwLjMwfDQ5My4wNHwyMTQuNjF8MzAuNTE=)" style="stroke-width:.75;stroke:#00bfc4;stroke-opacity:.5;fill:#00bfc4;fill-opacity:.5"/><circle cx="408.78" cy="196.51" r="1.95" clip-path="url(#cpMzYwLjMwfDQ5My4wNHwyMTQuNjF8MzAuNTE=)" style="stroke-width:.75;stroke:#00bfc4;stroke-opacity:.5;fill:#00bfc4;fill-opacity:.5"/><circle cx="408.78" cy="192.62" r="1.95" clip-path="url(#cpMzYwLjMwfDQ5My4wNHwyMTQuNjF8MzAuNTE=)" style="stroke-width:.75;stroke:#00bfc4;stroke-opacity:.5;fill:#00bfc4;fill-opacity:.5"/><circle cx="408.78" cy="188.72" r="1.95" clip-path="url(#cpMzYwLjMwfDQ5My4wNHwyMTQuNjF8MzAuNTE=)" style="stroke-width:.75;stroke:#00bfc4;stroke-opacity:.5;fill:#00bfc4;fill-opacity:.5"/><circle cx="408.78" cy="184.83" r="1.95" clip-path="url(#cpMzYwLjMwfDQ5My4wNHwyMTQuNjF8MzAuNTE=)" style="stroke-width:.75;stroke:#00bfc4;stroke-opacity:.5;fill:#00bfc4;fill-opacity:.5"/><circle cx="408.78" cy="180.94" r="1.95" clip-path="url(#cpMzYwLjMwfDQ5My4wNHwyMTQuNjF8MzAuNTE=)" style="stroke-width:.75;stroke:#00bfc4;stroke-opacity:.5;fill:#00bfc4;fill-opacity:.5"/><circle cx="408.78" cy="177.05" r="1.95" clip-path="url(#cpMzYwLjMwfDQ5My4wNHwyMTQuNjF8MzAuNTE=)" style="stroke-width:.75;stroke:#00bfc4;stroke-opacity:.5;fill:#00bfc4;fill-opacity:.5"/><circle cx="408.78" cy="173.15" r="1.95" clip-path="url(#cpMzYwLjMwfDQ5My4wNHwyMTQuNjF8MzAuNTE=)" style="stroke-width:.75;stroke:#00bfc4;stroke-opacity:.5;fill:#00bfc4;fill-opacity:.5"/><circle cx="412.82" cy="204.3" r="1.95" clip-path="url(#cpMzYwLjMwfDQ5My4wNHwyMTQuNjF8MzAuNTE=)" style="stroke-width:.75;stroke:#00bfc4;stroke-opacity:.5;fill:#00bfc4;fill-opacity:.5"/><circle cx="412.82" cy="200.4" r="1.95" clip-path="url(#cpMzYwLjMwfDQ5My4wNHwyMTQuNjF8MzAuNTE=)" style="stroke-width:.75;stroke:#00bfc4;stroke-opacity:.5;fill:#00bfc4;fill-opacity:.5"/><circle cx="412.82" cy="196.51" r="1.95" clip-path="url(#cpMzYwLjMwfDQ5My4wNHwyMTQuNjF8MzAuNTE=)" style="stroke-width:.75;stroke:#00bfc4;stroke-opacity:.5;fill:#00bfc4;fill-opacity:.5"/><circle cx="412.82" cy="192.62" r="1.95" clip-path="url(#cpMzYwLjMwfDQ5My4wNHwyMTQuNjF8MzAuNTE=)" style="stroke-width:.75;stroke:#00bfc4;stroke-opacity:.5;fill:#00bfc4;fill-opacity:.5"/><circle cx="412.82" cy="188.72" r="1.95" clip-path="url(#cpMzYwLjMwfDQ5My4wNHwyMTQuNjF8MzAuNTE=)" style="stroke-width:.75;stroke:#00bfc4;stroke-opacity:.5;fill:#00bfc4;fill-opacity:.5"/><circle cx="412.82" cy="184.83" r="1.95" clip-path="url(#cpMzYwLjMwfDQ5My4wNHwyMTQuNjF8MzAuNTE=)" style="stroke-width:.75;stroke:#00bfc4;stroke-opacity:.5;fill:#00bfc4;fill-opacity:.5"/><circle cx="412.82" cy="180.94" r="1.95" clip-path="url(#cpMzYwLjMwfDQ5My4wNHwyMTQuNjF8MzAuNTE=)" style="stroke-width:.75;stroke:#00bfc4;stroke-opacity:.5;fill:#00bfc4;fill-opacity:.5"/><circle cx="412.82" cy="177.05" r="1.95" clip-path="url(#cpMzYwLjMwfDQ5My4wNHwyMTQuNjF8MzAuNTE=)" style="stroke-width:.75;stroke:#00bfc4;stroke-opacity:.5;fill:#00bfc4;fill-opacity:.5"/><circle cx="412.82" cy="173.15" r="1.95" clip-path="url(#cpMzYwLjMwfDQ5My4wNHwyMTQuNjF8MzAuNTE=)" style="stroke-width:.75;stroke:#00bfc4;stroke-opacity:.5;fill:#00bfc4;fill-opacity:.5"/><circle cx="412.82" cy="169.26" r="1.95" clip-path="url(#cpMzYwLjMwfDQ5My4wNHwyMTQuNjF8MzAuNTE=)" style="stroke-width:.75;stroke:#00bfc4;stroke-opacity:.5;fill:#00bfc4;fill-opacity:.5"/><circle cx="416.91" cy="204.3" r="1.95" clip-path="url(#cpMzYwLjMwfDQ5My4wNHwyMTQuNjF8MzAuNTE=)" style="stroke-width:.75;stroke:#00bfc4;stroke-opacity:.5;fill:#00bfc4;fill-opacity:.5"/><circle cx="416.91" cy="200.4" r="1.95" clip-path="url(#cpMzYwLjMwfDQ5My4wNHwyMTQuNjF8MzAuNTE=)" style="stroke-width:.75;stroke:#00bfc4;stroke-opacity:.5;fill:#00bfc4;fill-opacity:.5"/><circle cx="416.91" cy="196.51" r="1.95" clip-path="url(#cpMzYwLjMwfDQ5My4wNHwyMTQuNjF8MzAuNTE=)" style="stroke-width:.75;stroke:#00bfc4;stroke-opacity:.5;fill:#00bfc4;fill-opacity:.5"/><circle cx="416.91" cy="192.62" r="1.95" clip-path="url(#cpMzYwLjMwfDQ5My4wNHwyMTQuNjF8MzAuNTE=)" style="stroke-width:.75;stroke:#00bfc4;stroke-opacity:.5;fill:#00bfc4;fill-opacity:.5"/><circle cx="421.99" cy="204.3" r="1.95" clip-path="url(#cpMzYwLjMwfDQ5My4wNHwyMTQuNjF8MzAuNTE=)" style="stroke-width:.75;stroke:#00bfc4;stroke-opacity:.5;fill:#00bfc4;fill-opacity:.5"/><circle cx="421.99" cy="200.4" r="1.95" clip-path="url(#cpMzYwLjMwfDQ5My4wNHwyMTQuNjF8MzAuNTE=)" style="stroke-width:.75;stroke:#00bfc4;stroke-opacity:.5;fill:#00bfc4;fill-opacity:.5"/><circle cx="421.99" cy="196.51" r="1.95" clip-path="url(#cpMzYwLjMwfDQ5My4wNHwyMTQuNjF8MzAuNTE=)" style="stroke-width:.75;stroke:#00bfc4;stroke-opacity:.5;fill:#00bfc4;fill-opacity:.5"/><circle cx="421.99" cy="192.62" r="1.95" clip-path="url(#cpMzYwLjMwfDQ5My4wNHwyMTQuNjF8MzAuNTE=)" style="stroke-width:.75;stroke:#00bfc4;stroke-opacity:.5;fill:#00bfc4;fill-opacity:.5"/><circle cx="421.99" cy="188.72" r="1.95" clip-path="url(#cpMzYwLjMwfDQ5My4wNHwyMTQuNjF8MzAuNTE=)" style="stroke-width:.75;stroke:#00bfc4;stroke-opacity:.5;fill:#00bfc4;fill-opacity:.5"/><circle cx="421.99" cy="184.83" r="1.95" clip-path="url(#cpMzYwLjMwfDQ5My4wNHwyMTQuNjF8MzAuNTE=)" style="stroke-width:.75;stroke:#00bfc4;stroke-opacity:.5;fill:#00bfc4;fill-opacity:.5"/><circle cx="421.99" cy="180.94" r="1.95" clip-path="url(#cpMzYwLjMwfDQ5My4wNHwyMTQuNjF8MzAuNTE=)" style="stroke-width:.75;stroke:#00bfc4;stroke-opacity:.5;fill:#00bfc4;fill-opacity:.5"/><circle cx="425.64" cy="204.3" r="1.95" clip-path="url(#cpMzYwLjMwfDQ5My4wNHwyMTQuNjF8MzAuNTE=)" style="stroke-width:.75;stroke:#00bfc4;stroke-opacity:.5;fill:#00bfc4;fill-opacity:.5"/><circle cx="425.64" cy="200.4" r="1.95" clip-path="url(#cpMzYwLjMwfDQ5My4wNHwyMTQuNjF8MzAuNTE=)" style="stroke-width:.75;stroke:#00bfc4;stroke-opacity:.5;fill:#00bfc4;fill-opacity:.5"/><circle cx="425.64" cy="196.51" r="1.95" clip-path="url(#cpMzYwLjMwfDQ5My4wNHwyMTQuNjF8MzAuNTE=)" style="stroke-width:.75;stroke:#00bfc4;stroke-opacity:.5;fill:#00bfc4;fill-opacity:.5"/><circle cx="425.64" cy="192.62" r="1.95" clip-path="url(#cpMzYwLjMwfDQ5My4wNHwyMTQuNjF8MzAuNTE=)" style="stroke-width:.75;stroke:#00bfc4;stroke-opacity:.5;fill:#00bfc4;fill-opacity:.5"/><circle cx="430.11" cy="204.3" r="1.95" clip-path="url(#cpMzYwLjMwfDQ5My4wNHwyMTQuNjF8MzAuNTE=)" style="stroke-width:.75;stroke:#00bfc4;stroke-opacity:.5;fill:#00bfc4;fill-opacity:.5"/><circle cx="430.11" cy="200.4" r="1.95" clip-path="url(#cpMzYwLjMwfDQ5My4wNHwyMTQuNjF8MzAuNTE=)" style="stroke-width:.75;stroke:#00bfc4;stroke-opacity:.5;fill:#00bfc4;fill-opacity:.5"/><circle cx="430.11" cy="196.51" r="1.95" clip-path="url(#cpMzYwLjMwfDQ5My4wNHwyMTQuNjF8MzAuNTE=)" style="stroke-width:.75;stroke:#00bfc4;stroke-opacity:.5;fill:#00bfc4;fill-opacity:.5"/><circle cx="430.11" cy="192.62" r="1.95" clip-path="url(#cpMzYwLjMwfDQ5My4wNHwyMTQuNjF8MzAuNTE=)" style="stroke-width:.75;stroke:#00bfc4;stroke-opacity:.5;fill:#00bfc4;fill-opacity:.5"/><circle cx="430.11" cy="188.72" r="1.95" clip-path="url(#cpMzYwLjMwfDQ5My4wNHwyMTQuNjF8MzAuNTE=)" style="stroke-width:.75;stroke:#00bfc4;stroke-opacity:.5;fill:#00bfc4;fill-opacity:.5"/><circle cx="430.11" cy="184.83" r="1.95" clip-path="url(#cpMzYwLjMwfDQ5My4wNHwyMTQuNjF8MzAuNTE=)" style="stroke-width:.75;stroke:#00bfc4;stroke-opacity:.5;fill:#00bfc4;fill-opacity:.5"/><circle cx="433.52" cy="204.3" r="1.95" clip-path="url(#cpMzYwLjMwfDQ5My4wNHwyMTQuNjF8MzAuNTE=)" style="stroke-width:.75;stroke:#00bfc4;stroke-opacity:.5;fill:#00bfc4;fill-opacity:.5"/><circle cx="433.52" cy="200.4" r="1.95" clip-path="url(#cpMzYwLjMwfDQ5My4wNHwyMTQuNjF8MzAuNTE=)" style="stroke-width:.75;stroke:#00bfc4;stroke-opacity:.5;fill:#00bfc4;fill-opacity:.5"/><circle cx="433.52" cy="196.51" r="1.95" clip-path="url(#cpMzYwLjMwfDQ5My4wNHwyMTQuNjF8MzAuNTE=)" style="stroke-width:.75;stroke:#00bfc4;stroke-opacity:.5;fill:#00bfc4;fill-opacity:.5"/><circle cx="439.05" cy="204.3" r="1.95" clip-path="url(#cpMzYwLjMwfDQ5My4wNHwyMTQuNjF8MzAuNTE=)" style="stroke-width:.75;stroke:#00bfc4;stroke-opacity:.5;fill:#00bfc4;fill-opacity:.5"/><circle cx="439.05" cy="200.4" r="1.95" clip-path="url(#cpMzYwLjMwfDQ5My4wNHwyMTQuNjF8MzAuNTE=)" style="stroke-width:.75;stroke:#00bfc4;stroke-opacity:.5;fill:#00bfc4;fill-opacity:.5"/><circle cx="439.05" cy="196.51" r="1.95" clip-path="url(#cpMzYwLjMwfDQ5My4wNHwyMTQuNjF8MzAuNTE=)" style="stroke-width:.75;stroke:#00bfc4;stroke-opacity:.5;fill:#00bfc4;fill-opacity:.5"/><circle cx="443.46" cy="204.3" r="1.95" clip-path="url(#cpMzYwLjMwfDQ5My4wNHwyMTQuNjF8MzAuNTE=)" style="stroke-width:.75;stroke:#00bfc4;stroke-opacity:.5;fill:#00bfc4;fill-opacity:.5"/><circle cx="443.46" cy="200.4" r="1.95" clip-path="url(#cpMzYwLjMwfDQ5My4wNHwyMTQuNjF8MzAuNTE=)" style="stroke-width:.75;stroke:#00bfc4;stroke-opacity:.5;fill:#00bfc4;fill-opacity:.5"/><circle cx="443.46" cy="196.51" r="1.95" clip-path="url(#cpMzYwLjMwfDQ5My4wNHwyMTQuNjF8MzAuNTE=)" style="stroke-width:.75;stroke:#00bfc4;stroke-opacity:.5;fill:#00bfc4;fill-opacity:.5"/><circle cx="443.46" cy="192.62" r="1.95" clip-path="url(#cpMzYwLjMwfDQ5My4wNHwyMTQuNjF8MzAuNTE=)" style="stroke-width:.75;stroke:#00bfc4;stroke-opacity:.5;fill:#00bfc4;fill-opacity:.5"/><circle cx="446.01" cy="204.3" r="1.95" clip-path="url(#cpMzYwLjMwfDQ5My4wNHwyMTQuNjF8MzAuNTE=)" style="stroke-width:.75;stroke:#00bfc4;stroke-opacity:.5;fill:#00bfc4;fill-opacity:.5"/><circle cx="453.12" cy="204.3" r="1.95" clip-path="url(#cpMzYwLjMwfDQ5My4wNHwyMTQuNjF8MzAuNTE=)" style="stroke-width:.75;stroke:#00bfc4;stroke-opacity:.5;fill:#00bfc4;fill-opacity:.5"/><circle cx="453.12" cy="200.4" r="1.95" clip-path="url(#cpMzYwLjMwfDQ5My4wNHwyMTQuNjF8MzAuNTE=)" style="stroke-width:.75;stroke:#00bfc4;stroke-opacity:.5;fill:#00bfc4;fill-opacity:.5"/><circle cx="461.2" cy="204.3" r="1.95" clip-path="url(#cpMzYwLjMwfDQ5My4wNHwyMTQuNjF8MzAuNTE=)" style="stroke-width:.75;stroke:#00bfc4;stroke-opacity:.5;fill:#00bfc4;fill-opacity:.5"/><circle cx="461.2" cy="200.4" r="1.95" clip-path="url(#cpMzYwLjMwfDQ5My4wNHwyMTQuNjF8MzAuNTE=)" style="stroke-width:.75;stroke:#00bfc4;stroke-opacity:.5;fill:#00bfc4;fill-opacity:.5"/><circle cx="463.96" cy="204.3" r="1.95" clip-path="url(#cpMzYwLjMwfDQ5My4wNHwyMTQuNjF8MzAuNTE=)" style="stroke-width:.75;stroke:#00bfc4;stroke-opacity:.5;fill:#00bfc4;fill-opacity:.5"/><circle cx="485.06" cy="204.3" r="1.95" clip-path="url(#cpMzYwLjMwfDQ5My4wNHwyMTQuNjF8MzAuNTE=)" style="stroke-width:.75;stroke:#00bfc4;stroke-opacity:.5;fill:#00bfc4;fill-opacity:.5"/><defs><clipPath id="cpMC4wMHw1MDQuMDB8MjUyLjAwfDAuMDA="><rect width="504" height="252" x="0" y="0"/></clipPath></defs><g clip-path="url(#cpMC4wMHw1MDQuMDB8MjUyLjAwfDAuMDA=)"><text x="342.02" y="209.68" lengthAdjust="spacingAndGlyphs" textLength="13.35" style="font-size:9.6px;fill:#4d4d4d;font-family:Arial">0.0</text></g><g clip-path="url(#cpMC4wMHw1MDQuMDB8MjUyLjAwfDAuMDA=)"><text x="342.02" y="161.86" lengthAdjust="spacingAndGlyphs" textLength="13.35" style="font-size:9.6px;fill:#4d4d4d;font-family:Arial">0.1</text></g><g clip-path="url(#cpMC4wMHw1MDQuMDB8MjUyLjAwfDAuMDA=)"><text x="342.02" y="114.04" lengthAdjust="spacingAndGlyphs" textLength="13.35" style="font-size:9.6px;fill:#4d4d4d;font-family:Arial">0.2</text></g><g clip-path="url(#cpMC4wMHw1MDQuMDB8MjUyLjAwfDAuMDA=)"><text x="342.02" y="66.22" lengthAdjust="spacingAndGlyphs" textLength="13.35" style="font-size:9.6px;fill:#4d4d4d;font-family:Arial">0.3</text></g><polyline points="357.56 206.24 360.3 206.24" clip-path="url(#cpMC4wMHw1MDQuMDB8MjUyLjAwfDAuMDA=)" style="stroke-width:1.07;stroke:#333;stroke-linecap:butt"/><polyline points="357.56 158.42 360.3 158.42" clip-path="url(#cpMC4wMHw1MDQuMDB8MjUyLjAwfDAuMDA=)" style="stroke-width:1.07;stroke:#333;stroke-linecap:butt"/><polyline points="357.56 110.6 360.3 110.6" clip-path="url(#cpMC4wMHw1MDQuMDB8MjUyLjAwfDAuMDA=)" style="stroke-width:1.07;stroke:#333;stroke-linecap:butt"/><polyline points="357.56 62.79 360.3 62.79" clip-path="url(#cpMC4wMHw1MDQuMDB8MjUyLjAwfDAuMDA=)" style="stroke-width:1.07;stroke:#333;stroke-linecap:butt"/><polyline points="363.75 217.35 363.75 214.61" clip-path="url(#cpMC4wMHw1MDQuMDB8MjUyLjAwfDAuMDA=)" style="stroke-width:1.07;stroke:#333;stroke-linecap:butt"/><polyline points="389.06 217.35 389.06 214.61" clip-path="url(#cpMC4wMHw1MDQuMDB8MjUyLjAwfDAuMDA=)" style="stroke-width:1.07;stroke:#333;stroke-linecap:butt"/><polyline points="414.37 217.35 414.37 214.61" clip-path="url(#cpMC4wMHw1MDQuMDB8MjUyLjAwfDAuMDA=)" style="stroke-width:1.07;stroke:#333;stroke-linecap:butt"/><polyline points="439.68 217.35 439.68 214.61" clip-path="url(#cpMC4wMHw1MDQuMDB8MjUyLjAwfDAuMDA=)" style="stroke-width:1.07;stroke:#333;stroke-linecap:butt"/><polyline points="464.99 217.35 464.99 214.61" clip-path="url(#cpMC4wMHw1MDQuMDB8MjUyLjAwfDAuMDA=)" style="stroke-width:1.07;stroke:#333;stroke-linecap:butt"/><polyline points="490.3 217.35 490.3 214.61" clip-path="url(#cpMC4wMHw1MDQuMDB8MjUyLjAwfDAuMDA=)" style="stroke-width:1.07;stroke:#333;stroke-linecap:butt"/><g clip-path="url(#cpMC4wMHw1MDQuMDB8MjUyLjAwfDAuMDA=)"><text x="355.48" y="226.41" lengthAdjust="spacingAndGlyphs" textLength="16.54" style="font-size:9.6px;fill:#4d4d4d;font-family:Arial">-2.5</text></g><g clip-path="url(#cpMC4wMHw1MDQuMDB8MjUyLjAwfDAuMDA=)"><text x="382.39" y="226.41" lengthAdjust="spacingAndGlyphs" textLength="13.35" style="font-size:9.6px;fill:#4d4d4d;font-family:Arial">0.0</text></g><g clip-path="url(#cpMC4wMHw1MDQuMDB8MjUyLjAwfDAuMDA=)"><text x="407.7" y="226.41" lengthAdjust="spacingAndGlyphs" textLength="13.35" style="font-size:9.6px;fill:#4d4d4d;font-family:Arial">2.5</text></g><g clip-path="url(#cpMC4wMHw1MDQuMDB8MjUyLjAwfDAuMDA=)"><text x="433.01" y="226.41" lengthAdjust="spacingAndGlyphs" textLength="13.35" style="font-size:9.6px;fill:#4d4d4d;font-family:Arial">5.0</text></g><g clip-path="url(#cpMC4wMHw1MDQuMDB8MjUyLjAwfDAuMDA=)"><text x="458.32" y="226.41" lengthAdjust="spacingAndGlyphs" textLength="13.35" style="font-size:9.6px;fill:#4d4d4d;font-family:Arial">7.5</text></g><g clip-path="url(#cpMC4wMHw1MDQuMDB8MjUyLjAwfDAuMDA=)"><text x="480.96" y="226.41" lengthAdjust="spacingAndGlyphs" textLength="18.68" style="font-size:9.6px;fill:#4d4d4d;font-family:Arial">10.0</text></g><g clip-path="url(#cpMC4wMHw1MDQuMDB8MjUyLjAwfDAuMDA=)"><text x="360.3" y="21.71" lengthAdjust="spacingAndGlyphs" textLength="47.53" style="font-size:15px;fill:#4d4d4d;font-family:Arial">Dotplot</text></g></svg>