<?xml version="1.0" encoding="utf-8"?>
<!-- Generator: Adobe Illustrator 16.0.3, SVG Export Plug-In . SVG Version: 6.00 Build 0)  -->
<!DOCTYPE svg PUBLIC "-//W3C//DTD SVG 1.1//EN" "http://www.w3.org/Graphics/SVG/1.1/DTD/svg11.dtd">
<svg version="1.1" id="Layer_1" xmlns="http://www.w3.org/2000/svg" xmlns:xlink="http://www.w3.org/1999/xlink" x="0px" y="0px"
	 width="612px" height="792px" viewBox="0 0 612 792" enable-background="new 0 0 612 792" xml:space="preserve">
<title>tidyverse</title>
<polygon fill="#141227" points="594.254,229.897 306,63.463 306,63.463 17.747,229.897 17.747,562.683 306,729.117 594.254,562.683 
	"/>
<g opacity="0.94">
	<path fill="#FFFFFF" d="M80.024,347.654v20.483h17.498v9.868H80.024v38.478c0,8.874,2.405,13.85,9.205,13.85
		c2.405,0,4.81-0.249,7.131-0.912l0.581,9.702c-2.322,0.995-6.137,1.741-10.863,1.741c-5.722,0-10.283-1.907-13.186-5.473
		c-3.483-3.815-4.727-10.2-4.727-18.576v-38.893H57.634v-9.868h10.449v-17.083L80.024,347.654z"/>
	<path fill="#FFFFFF" d="M122.151,348.068c0.249,4.146-2.82,7.712-6.966,7.961c-0.249,0-0.581,0-0.83,0
		c-4.312,0-7.38-3.566-7.38-7.961c0-4.561,3.234-8.127,7.629-8.127C119.249,340.024,122.151,343.507,122.151,348.068z
		 M108.551,439.536V368.22h12.273v71.316H108.551z"/>
	<path fill="#FFFFFF" d="M196.454,334.8v86.244c0,6.303,0.166,13.6,0.581,18.41h-10.946l-0.581-12.356h-0.249
		c-3.731,7.961-11.941,14.015-22.971,14.015c-16.253,0-28.775-14.596-28.775-36.239c-0.166-23.717,13.766-38.312,30.186-38.312
		c10.283,0,17.249,5.142,20.317,10.946h0.249v-42.625h12.19V334.8z M184.181,397.161c0-1.825-0.166-3.649-0.581-5.473
		c-1.825-8.293-8.458-15.01-17.664-15.01c-12.688,0-20.151,11.775-20.151,27.532c0,14.429,6.717,26.37,19.903,26.37
		c8.209,0,15.673-5.722,17.912-15.507c0.415-1.824,0.581-3.731,0.581-5.639V397.161z"/>
	<path fill="#FFFFFF" d="M218.429,368.137l14.761,42.127c1.575,4.727,3.234,10.282,4.312,14.595h0.249
		c1.244-4.313,2.654-9.702,4.313-14.927l13.351-41.795h12.937l-18.327,50.834c-8.79,24.464-14.761,36.985-23.054,44.697
		c-5.971,5.64-11.941,7.795-15.01,8.376l-3.068-10.863c3.98-1.41,7.629-3.566,10.698-6.303c4.478-3.98,8.044-8.873,10.283-14.43
		c0.498-0.995,0.83-1.99,0.995-3.067c-0.083-1.161-0.415-2.322-0.829-3.4l-24.878-65.761L218.429,368.137z"/>
	<path fill="#FFFFFF" d="M283.112,368.137l13.185,40.137c2.239,6.468,4.063,12.355,5.391,18.243h0.415
		c1.576-5.888,3.483-11.775,5.722-18.243l13.103-40.137h12.771l-26.453,71.316h-11.693l-25.625-71.316H283.112z"/>
	<path fill="#FFFFFF" d="M347.878,406.2c0.249,17.58,10.863,24.795,23.054,24.795c8.79,0,14.015-1.658,18.658-3.731l2.073,9.287
		c-4.312,2.073-11.692,4.396-22.39,4.396c-20.732,0-33.088-14.43-33.088-35.99c0-21.561,11.941-38.478,31.595-38.478
		c21.976,0,27.78,20.483,27.78,33.668c0,1.99-0.165,4.063-0.414,6.054H347.878z M383.785,396.912
		c0.166-8.292-3.234-21.063-17-21.063c-12.355,0-17.829,12.107-18.741,21.063H383.785z"/>
	<path fill="#FFFFFF" d="M407.917,390.361c0-8.375-0.166-15.59-0.58-22.224h10.697l0.415,14.015h0.58
		c3.068-9.62,10.448-15.673,18.658-15.673c1.161,0,2.322,0.166,3.483,0.498v12.273c-1.327-0.332-2.736-0.498-4.146-0.415
		c-8.624,0-14.761,6.966-16.42,16.668c-0.331,1.99-0.497,3.98-0.58,6.053v38.063h-12.107V390.361z"/>
	<path fill="#FFFFFF" d="M448.966,426.269c4.81,3.151,10.366,4.976,16.171,5.142c8.873,0,13.103-4.728,13.103-10.615
		c0-6.22-3.483-9.536-12.522-13.103c-12.107-4.561-17.829-11.609-17.829-20.234c0-11.527,8.79-20.897,23.22-20.897
		c5.805-0.083,11.526,1.493,16.502,4.395l-3.068,9.454c-4.063-2.654-8.873-4.146-13.766-4.146c-7.215,0-11.277,4.396-11.277,9.703
		c0,5.888,4.063,8.542,12.771,12.107c11.692,4.727,17.663,10.946,17.663,21.561c0,12.522-9.205,21.396-25.127,21.396
		c-7.38,0-14.18-1.907-18.907-4.893L448.966,426.269z"/>
	<path fill="#FFFFFF" d="M509.751,406.2c0.249,17.58,10.863,24.795,23.054,24.795c8.79,0,14.015-1.658,18.658-3.731l2.073,9.287
		c-4.312,2.073-11.692,4.396-22.39,4.396c-20.731,0-33.088-14.43-33.088-35.99c0-21.561,11.941-38.478,31.595-38.478
		c21.976,0,27.78,20.483,27.78,33.585c0,1.99-0.165,4.063-0.414,6.054h-47.269V406.2L509.751,406.2z M545.658,396.912
		c0.166-8.292-3.233-21.063-17-21.063c-12.355,0-17.829,12.107-18.824,21.063H545.658z"/>
</g>
<path fill="#E6B35A" d="M308.322,562.517c0.248-0.248,0.497-0.497,0.746-0.746h-0.249
	C308.736,562.02,308.488,562.269,308.322,562.517z"/>
<g opacity="0.8" enable-background="new    ">
	<image overflow="visible" width="84" height="85" xlink:href="B90A9387.png"  transform="matrix(1 0 0 1 241.5 51.5)">
	</image>
</g>
<g opacity="0.8" enable-background="new    ">
	<image overflow="visible" width="80" height="81" xlink:href="B90A9385.png"  transform="matrix(1 0 0 1 199.5 98.5)">
	</image>
</g>
<g opacity="0.8" enable-background="new    ">
	<image overflow="visible" width="83" height="85" xlink:href="B90A938B.png"  transform="matrix(1 0 0 1 240.5 146.5)">
	</image>
</g>
<g>
	<image overflow="visible" width="83" height="85" xlink:href="B90A938D.png"  transform="matrix(1 0 0 1 293.5 171.5)">
	</image>
</g>
<g opacity="0.8" enable-background="new    ">
	<image overflow="visible" width="83" height="85" xlink:href="B90A938F.png"  transform="matrix(1 0 0 1 334.5 78.5)">
	</image>
</g>
<g opacity="0.8" enable-background="new    ">
	<image overflow="visible" width="83" height="85" xlink:href="B90A938C.png"  transform="matrix(1 0 0 1 316.5 141.5)">
	</image>
</g>
<polygon fill="#0088C5" points="280.873,238.937 280.873,232.883 275.731,229.897 270.424,232.883 270.424,238.937 275.731,241.922 
	"/>
<g opacity="0.8" enable-background="new    ">
	<image overflow="visible" width="83" height="85" xlink:href="B90A9384.png"  transform="matrix(1 0 0 1 70.5 179.5)">
	</image>
</g>
<g opacity="0.8" enable-background="new    ">
	<image overflow="visible" width="84" height="85" xlink:href="B90A9386.png"  transform="matrix(1 0 0 1 162.5 206.5)">
	</image>
</g>
<polyline fill="#7FB036" points="393.985,282.639 399.293,279.654 404.517,282.639 404.517,288.693 399.293,291.678 
	393.985,288.693 393.985,282.639 "/>
<g opacity="0.8" enable-background="new    ">
	<image overflow="visible" width="84" height="85" xlink:href="B90A9382.png"  transform="matrix(1 0 0 1 48.5 431.5)">
	</image>
</g>
<g>
	<image overflow="visible" width="90" height="92" xlink:href="BE875284.png"  transform="matrix(1 0 0 1 82.5 450.5)">
	</image>
</g>
<g>
	<image overflow="visible" width="79" height="79" xlink:href="BE875283.png"  transform="matrix(1 0 0 1 146.5 481.5)">
	</image>
</g>
<g opacity="0.8" enable-background="new    ">
	<image overflow="visible" width="84" height="85" xlink:href="BE87529C.png"  transform="matrix(1 0 0 1 141.5 436.5)">
	</image>
</g>
<g opacity="0.8" enable-background="new    ">
	<image overflow="visible" width="78" height="79" xlink:href="BE87529F.png"  transform="matrix(1 0 0 1 0.5 485.5)">
	</image>
</g>
<g>
	<image overflow="visible" width="90" height="92" xlink:href="BE87529D.png"  transform="matrix(1 0 0 1 68.5 516.5)">
	</image>
</g>
<g opacity="0.8" enable-background="new    ">
	<image overflow="visible" width="80" height="81" xlink:href="BE875282.png"  transform="matrix(1 0 0 1 52.5 469.5)">
	</image>
</g>
<g opacity="0.8" enable-background="new    ">
	<image overflow="visible" width="80" height="80" xlink:href="BE875285.png"  transform="matrix(1 0 0 1 -7.5 344.5)">
	</image>
</g>
<g opacity="0.8" enable-background="new    ">
	<image overflow="visible" width="83" height="85" xlink:href="BE875287.png"  transform="matrix(1 0 0 1 1.5 272.5)">
	</image>
</g>
<g>
	<image overflow="visible" width="90" height="92" xlink:href="BE875280.png"  transform="matrix(1 0 0 1 187.5 181.5)">
	</image>
</g>
<g opacity="0.8" enable-background="new    ">
	<image overflow="visible" width="82" height="83" xlink:href="BE875281.png"  transform="matrix(1 0 0 1 457.5 231.5)">
	</image>
</g>
<g>
	<image overflow="visible" width="90" height="92" xlink:href="BE8752A7.png"  transform="matrix(1 0 0 1 222.5 236.5)">
	</image>
</g>
<g opacity="0.8" enable-background="new    ">
	<image overflow="visible" width="83" height="85" xlink:href="BE8752A1.png"  transform="matrix(1 0 0 1 352.5 219.5)">
	</image>
</g>
<g opacity="0.8" enable-background="new    ">
	<image overflow="visible" width="84" height="85" xlink:href="BE8752A3.png"  transform="matrix(1 0 0 1 208.5 438.5)">
	</image>
</g>
<g>
	<image overflow="visible" width="79" height="81" xlink:href="BE8752AE.png"  transform="matrix(1 0 0 1 250.5 477.5)">
	</image>
</g>
<g opacity="0.8" enable-background="new    ">
	<image overflow="visible" width="80" height="81" xlink:href="BE8752AF.png"  transform="matrix(1 0 0 1 303.5 503.5)">
	</image>
</g>
<g opacity="0.8" enable-background="new    ">
	<image overflow="visible" width="85" height="86" xlink:href="BE8752A2.png"  transform="matrix(1 0 0 1 293.5 425.5)">
	</image>
</g>
<g opacity="0.8" enable-background="new    ">
	<image overflow="visible" width="90" height="92" xlink:href="BE8752A5.png"  transform="matrix(1 0 0 1 329.5 441.5)">
	</image>
</g>
<g opacity="0.8" enable-background="new    ">
	<image overflow="visible" width="84" height="85" xlink:href="BE8752A6.png"  transform="matrix(1 0 0 1 415.5 262.5)">
	</image>
</g>
<g opacity="0.8" enable-background="new    ">
	<image overflow="visible" width="90" height="93" xlink:href="BE8752A4.png"  transform="matrix(1 0 0 1 508.5 293.5)">
	</image>
</g>
<g opacity="0.8" enable-background="new    ">
	<image overflow="visible" width="81" height="83" xlink:href="BE87529E.png"  transform="matrix(1 0 0 1 377.5 137.5)">
	</image>
</g>
<polyline fill="#7FB036" points="371.761,228.405 377.068,225.419 382.293,228.405 382.293,234.458 377.068,237.444 
	371.761,234.458 371.761,228.405 "/>
<g opacity="0.8" enable-background="new    ">
	<image overflow="visible" width="83" height="85" xlink:href="BE8752C6.png"  transform="matrix(1 0 0 1 434.5 142.5)">
	</image>
</g>
<g opacity="0.8" enable-background="new    ">
	<image overflow="visible" width="80" height="81" xlink:href="BE8752F9.png"  transform="matrix(1 0 0 1 394.5 186.5)">
	</image>
</g>
<g opacity="0.8" enable-background="new    ">
	<image overflow="visible" width="84" height="85" xlink:href="BE8752FA.png"  transform="matrix(1 0 0 1 382.5 441.5)">
	</image>
</g>
<g opacity="0.8" enable-background="new    ">
	<image overflow="visible" width="86" height="88" xlink:href="BE8752F8.png"  transform="matrix(1 0 0 1 357.5 469.5)">
	</image>
</g>
<g>
	<image overflow="visible" width="84" height="85" xlink:href="BE8752FE.png"  transform="matrix(1 0 0 1 492.5 440.5)">
	</image>
</g>
<g opacity="0.8" enable-background="new    ">
	<image overflow="visible" width="84" height="85" xlink:href="BE8752FB.png"  transform="matrix(1 0 0 1 180.5 554.5)">
	</image>
</g>
<g>
	<image overflow="visible" width="80" height="80" xlink:href="BE8752F6.png"  transform="matrix(1 0 0 1 274.5 586.5)">
	</image>
</g>
<g>
	<image overflow="visible" width="83" height="85" xlink:href="BE8752F7.png"  transform="matrix(1 0 0 1 120.5 553.5)">
	</image>
</g>
<g>
	<image overflow="visible" width="90" height="93" xlink:href="BE8752C7.png"  transform="matrix(1 0 0 1 165.5 597.5)">
	</image>
</g>
<g>
	<image overflow="visible" width="90" height="92" xlink:href="BE8752C9.png"  transform="matrix(1 0 0 1 220.5 612.5)">
	</image>
</g>
<g opacity="0.8" enable-background="new    ">
	<image overflow="visible" width="84" height="85" xlink:href="BE8752D5.png"  transform="matrix(1 0 0 1 389.5 495.5)">
	</image>
</g>
<g opacity="0.8" enable-background="new    ">
	<image overflow="visible" width="79" height="81" xlink:href="BE8752D7.png"  transform="matrix(1 0 0 1 350.5 550.5)">
	</image>
</g>
<g opacity="0.8" enable-background="new    ">
	<image overflow="visible" width="81" height="82" xlink:href="BE8752D4.png"  transform="matrix(1 0 0 1 492.5 524.5)">
	</image>
</g>
<g>
	<image overflow="visible" width="84" height="85" xlink:href="BE87532B.png"  transform="matrix(1 0 0 1 387.5 158.5)">
	</image>
</g>
<g opacity="0.8" enable-background="new    ">
	<image overflow="visible" width="83" height="85" xlink:href="BE87532D.png"  transform="matrix(1 0 0 1 374.5 273.5)">
	</image>
</g>
<g opacity="0.8" enable-background="new    ">
	<image overflow="visible" width="78" height="79" xlink:href="BE87532F.png"  transform="matrix(1 0 0 1 285.5 253.5)">
	</image>
</g>
<g opacity="0.8" enable-background="new    ">
	<image overflow="visible" width="84" height="85" xlink:href="BE87532C.png"  transform="matrix(1 0 0 1 482.5 468.5)">
	</image>
</g>
<g>
	<image overflow="visible" width="92" height="95" xlink:href="BE875334.png"  transform="matrix(1 0 0 1 356.5 505.5)">
	</image>
</g>
<g opacity="0.8" enable-background="new    ">
	<image overflow="visible" width="83" height="85" xlink:href="BE875335.png"  transform="matrix(1 0 0 1 516.5 205.5)">
	</image>
</g>
<g opacity="0.8" enable-background="new    ">
	<image overflow="visible" width="91" height="94" xlink:href="BE875337.png"  transform="matrix(1 0 0 1 524.5 235.5)">
	</image>
</g>
<g>
	<image overflow="visible" width="91" height="93" xlink:href="BE875310.png"  transform="matrix(1 0 0 1 194.5 122.5)">
	</image>
</g>
<g>
	<image overflow="visible" width="78" height="79" xlink:href="BE875317.png"  transform="matrix(1 0 0 1 258.5 138.5)">
	</image>
</g>
<polygon fill="#F26524" points="363.469,206.844 363.469,203.775 360.814,202.2 358.161,203.775 358.161,206.844 360.814,208.419 
	"/>
<g>
	<image overflow="visible" width="84" height="85" xlink:href="BE875311.png"  transform="matrix(1 0 0 1 308.5 79.5)">
	</image>
</g>
<g>
	<image overflow="visible" width="83" height="85" xlink:href="BE875313.png"  transform="matrix(1 0 0 1 247.5 76.5)">
	</image>
</g>
<g>
	<image overflow="visible" width="91" height="94" xlink:href="BE87531E.png"  transform="matrix(1 0 0 1 254.5 95.5)">
	</image>
</g>
<g>
	<image overflow="visible" width="83" height="85" xlink:href="BE87531F.png"  transform="matrix(1 0 0 1 154.5 180.5)">
	</image>
</g>
<g>
	<image overflow="visible" width="80" height="81" xlink:href="BE875312.png"  transform="matrix(1 0 0 1 288.5 142.5)">
	</image>
</g>
<g>
	<image overflow="visible" width="80" height="82" xlink:href="BE875315.png"  transform="matrix(1 0 0 1 219.5 132.5)">
	</image>
</g>
<g>
	<image overflow="visible" width="83" height="85" xlink:href="BE875316.png"  transform="matrix(1 0 0 1 239.5 118.5)">
	</image>
</g>
<g>
	<image overflow="visible" width="79" height="81" xlink:href="BE875314.png"  transform="matrix(1 0 0 1 267.5 167.5)">
	</image>
</g>
<g>
	<image overflow="visible" width="83" height="85" xlink:href="BE87537B.png"  transform="matrix(1 0 0 1 269.5 50.5)">
	</image>
</g>
<g>
	<image overflow="visible" width="84" height="85" xlink:href="BE875375.png"  transform="matrix(1 0 0 1 305.5 67.5)">
	</image>
</g>
<g>
	<image overflow="visible" width="84" height="85" xlink:href="BE875377.png"  transform="matrix(1 0 0 1 208.5 161.5)">
	</image>
</g>
<g>
	<image overflow="visible" width="83" height="86" xlink:href="BE87530A.png"  transform="matrix(1 0 0 1 311.5 276.5)">
	</image>
</g>
<g>
	<image overflow="visible" width="83" height="85" xlink:href="BE87530B.png"  transform="matrix(1 0 0 1 226.5 112.5)">
	</image>
</g>
<g>
	<image overflow="visible" width="89" height="91" xlink:href="BE87530D.png"  transform="matrix(1 0 0 1 26.5 232.5)">
	</image>
</g>
<g>
	<image overflow="visible" width="84" height="85" xlink:href="BE87530F.png"  transform="matrix(1 0 0 1 50.5 266.5)">
	</image>
</g>
<g>
	<image overflow="visible" width="87" height="89" xlink:href="BE875308.png"  transform="matrix(1 0 0 1 97.5 223.5)">
	</image>
</g>
<g>
	<image overflow="visible" width="90" height="93" xlink:href="BE875309.png"  transform="matrix(1 0 0 1 99.5 159.5)">
	</image>
</g>
<g>
	<image overflow="visible" width="78" height="80" xlink:href="BE875318.png"  transform="matrix(1 0 0 1 32.5 255.5)">
	</image>
</g>
<polygon fill="#F26524" points="125.551,300.717 125.551,304.449 128.785,306.356 131.937,304.449 131.937,300.717 128.785,298.893 
	"/>
<g>
	<image overflow="visible" width="84" height="85" xlink:href="BE87532A.png"  transform="matrix(1 0 0 1 136.5 207.5)">
	</image>
</g>
<g>
	<image overflow="visible" width="78" height="79" xlink:href="BE875325.png"  transform="matrix(1 0 0 1 75.5 210.5)">
	</image>
</g>
<polygon fill="#0088C5" points="214.78,277.829 214.78,271.775 209.639,268.79 204.332,271.775 204.332,277.829 209.639,280.814 "/>
<g>
	<image overflow="visible" width="80" height="81" xlink:href="BE875326.png"  transform="matrix(1 0 0 1 3.5 228.5)">
	</image>
</g>
<g>
	<image overflow="visible" width="94" height="97" xlink:href="BE875324.png"  transform="matrix(1 0 0 1 126.5 234.5)">
	</image>
</g>
<g>
	<image overflow="visible" width="86" height="88" xlink:href="BE87533A.png"  transform="matrix(1 0 0 1 67.5 245.5)">
	</image>
</g>
<g>
	<image overflow="visible" width="83" height="85" xlink:href="BE87533D.png"  transform="matrix(1 0 0 1 114.5 274.5)">
	</image>
</g>
<g>
	<image overflow="visible" width="77" height="78" xlink:href="BE87533E.png"  transform="matrix(1 0 0 1 103.5 185.5)">
	</image>
</g>
<g>
	<image overflow="visible" width="80" height="81" xlink:href="BE87533C.png"  transform="matrix(1 0 0 1 114.5 199.5)">
	</image>
</g>
<g>
	<image overflow="visible" width="88" height="90" xlink:href="BE87533B.png"  transform="matrix(1 0 0 1 29.5 201.5)">
	</image>
</g>
<g>
	<image overflow="visible" width="79" height="79" xlink:href="BE875327.png"  transform="matrix(1 0 0 1 54.5 227.5)">
	</image>
</g>
<g>
	<image overflow="visible" width="79" height="80" xlink:href="BE8753C1.png"  transform="matrix(1 0 0 1 26.5 473.5)">
	</image>
</g>
<g>
	<image overflow="visible" width="82" height="83" xlink:href="BE8753C3.png"  transform="matrix(1 0 0 1 0.5 370.5)">
	</image>
</g>
<g>
	<image overflow="visible" width="78" height="79" xlink:href="BE8753C0.png"  transform="matrix(1 0 0 1 100.5 538.5)">
	</image>
</g>
<g>
	<image overflow="visible" width="79" height="79" xlink:href="BE8753C7.png"  transform="matrix(1 0 0 1 146.5 569.5)">
	</image>
</g>
<g>
	<image overflow="visible" width="87" height="89" xlink:href="BE8753C2.png"  transform="matrix(1 0 0 1 -5.5 448.5)">
	</image>
</g>
<g>
	<image overflow="visible" width="89" height="92" xlink:href="BE8753CE.png"  transform="matrix(1 0 0 1 18.5 493.5)">
	</image>
</g>
<g>
	<image overflow="visible" width="80" height="82" xlink:href="BE8753CF.png"  transform="matrix(1 0 0 1 -2.5 316.5)">
	</image>
</g>
<g>
	<image overflow="visible" width="78" height="79" xlink:href="BE8753C4.png"  transform="matrix(1 0 0 1 -4.5 405.5)">
	</image>
</g>
<g>
	<image overflow="visible" width="81" height="82" xlink:href="BE8753C5.png"  transform="matrix(1 0 0 1 147.5 132.5)">
	</image>
</g>
<g>
	<image overflow="visible" width="89" height="92" xlink:href="BE8753C6.png"  transform="matrix(1 0 0 1 18.5 424.5)">
	</image>
</g>
<g>
	<image overflow="visible" width="79" height="81" xlink:href="BE8753EC.png"  transform="matrix(1 0 0 1 112.5 447.5)">
	</image>
</g>
<g>
	<image overflow="visible" width="83" height="85" xlink:href="BE8753EB.png"  transform="matrix(1 0 0 1 162.5 478.5)">
	</image>
</g>
<g>
	<image overflow="visible" width="80" height="81" xlink:href="BE8753E4.png"  transform="matrix(1 0 0 1 55.5 503.5)">
	</image>
</g>
<g>
	<image overflow="visible" width="89" height="92" xlink:href="BE8753E7.png"  transform="matrix(1 0 0 1 125.5 453.5)">
	</image>
</g>
<g>
	<image overflow="visible" width="83" height="85" xlink:href="BE8753E5.png"  transform="matrix(1 0 0 1 79.5 478.5)">
	</image>
</g>
<g>
	<image overflow="visible" width="80" height="81" xlink:href="BE8753DB.png"  transform="matrix(1 0 0 1 108.5 433.5)">
	</image>
</g>
<g>
	<image overflow="visible" width="84" height="85" xlink:href="BE8753DC.png"  transform="matrix(1 0 0 1 207.5 485.5)">
	</image>
</g>
<g>
	<image overflow="visible" width="79" height="80" xlink:href="BE8753DF.png"  transform="matrix(1 0 0 1 74.5 433.5)">
	</image>
</g>
<g>
	<image overflow="visible" width="80" height="82" xlink:href="BE8753DD.png"  transform="matrix(1 0 0 1 129.5 529.5)">
	</image>
</g>
<g>
	<image overflow="visible" width="91" height="94" xlink:href="BE8753DA.png"  transform="matrix(1 0 0 1 275.5 194.5)">
	</image>
</g>
<g>
	<image overflow="visible" width="83" height="85" xlink:href="898EEED2.png"  transform="matrix(1 0 0 1 295.5 222.5)">
	</image>
</g>
<polygon fill="#F26524" points="244.385,269.62 247.039,271.112 249.61,269.62 249.61,266.634 247.039,265.142 244.385,266.634 "/>
<g>
	<image overflow="visible" width="93" height="96" xlink:href="898EEED1.png"  transform="matrix(1 0 0 1 270.5 273.5)">
	</image>
</g>
<g>
	<image overflow="visible" width="84" height="85" xlink:href="898EEEDE.png"  transform="matrix(1 0 0 1 239.5 284.5)">
	</image>
</g>
<g>
	<image overflow="visible" width="83" height="85" xlink:href="898EEED0.png"  transform="matrix(1 0 0 1 253.5 238.5)">
	</image>
</g>
<g>
	<image overflow="visible" width="84" height="85" xlink:href="898EEED3.png"  transform="matrix(1 0 0 1 328.5 244.5)">
	</image>
</g>
<g>
	<image overflow="visible" width="77" height="78" xlink:href="898EEED7.png"  transform="matrix(1 0 0 1 199.5 275.5)">
	</image>
</g>
<g>
	<image overflow="visible" width="87" height="89" xlink:href="898EEED6.png"  transform="matrix(1 0 0 1 155.5 256.5)">
	</image>
</g>
<g>
	<image overflow="visible" width="78" height="79" xlink:href="898EEECD.png"  transform="matrix(1 0 0 1 188.5 474.5)">
	</image>
</g>
<g>
	<image overflow="visible" width="79" height="81" xlink:href="898EEECE.png"  transform="matrix(1 0 0 1 266.5 470.5)">
	</image>
</g>
<g>
	<image overflow="visible" width="87" height="88" xlink:href="898EEECF.png"  transform="matrix(1 0 0 1 321.5 502.5)">
	</image>
</g>
<g>
	<image overflow="visible" width="80" height="80" xlink:href="898EEEB5.png"  transform="matrix(1 0 0 1 268.5 427.5)">
	</image>
</g>
<g>
	<image overflow="visible" width="95" height="98" xlink:href="898EEEB3.png"  transform="matrix(1 0 0 1 156.5 519.5)">
	</image>
</g>
<g>
	<image overflow="visible" width="91" height="94" xlink:href="898EEEAD.png"  transform="matrix(1 0 0 1 292.5 461.5)">
	</image>
</g>
<g>
	<image overflow="visible" width="84" height="85" xlink:href="898EEEAF.png"  transform="matrix(1 0 0 1 220.5 457.5)">
	</image>
</g>
<polygon fill="#0088C5" points="293.976,492.361 293.976,486.308 288.834,483.322 283.61,486.308 283.61,492.361 288.834,495.347 
	"/>
<g>
	<image overflow="visible" width="84" height="85" xlink:href="898EEEAC.png"  transform="matrix(1 0 0 1 274.5 495.5)">
	</image>
</g>
<g>
	<image overflow="visible" width="83" height="85" xlink:href="898EEE93.png"  transform="matrix(1 0 0 1 482.5 290.5)">
	</image>
</g>
<g>
	<image overflow="visible" width="84" height="85" xlink:href="898EEE95.png"  transform="matrix(1 0 0 1 340.5 272.5)">
	</image>
</g>
<g>
	<image overflow="visible" width="84" height="85" xlink:href="898EEE97.png"  transform="matrix(1 0 0 1 420.5 287.5)">
	</image>
</g>
<g>
	<image overflow="visible" width="93" height="96" xlink:href="898EEE94.png"  transform="matrix(1 0 0 1 447.5 257.5)">
	</image>
</g>
<g>
	<image overflow="visible" width="78" height="79" xlink:href="898EEE9C.png"  transform="matrix(1 0 0 1 490.5 276.5)">
	</image>
</g>
<g>
	<image overflow="visible" width="84" height="85" xlink:href="898EEF78.png"  transform="matrix(1 0 0 1 350.5 136.5)">
	</image>
</g>
<g>
	<image overflow="visible" width="88" height="91" xlink:href="898EEF7B.png"  transform="matrix(1 0 0 1 319.5 207.5)">
	</image>
</g>
<g>
	<image overflow="visible" width="95" height="98" xlink:href="898EEF79.png"  transform="matrix(1 0 0 1 325.5 97.5)">
	</image>
</g>
<g>
	<image overflow="visible" width="94" height="98" xlink:href="898EEF7F.png"  transform="matrix(1 0 0 1 388.5 219.5)">
	</image>
</g>
<g>
	<image overflow="visible" width="78" height="79" xlink:href="898EEF7A.png"  transform="matrix(1 0 0 1 503.5 192.5)">
	</image>
</g>
<g>
	<image overflow="visible" width="94" height="96" xlink:href="898EEF85.png"  transform="matrix(1 0 0 1 415.5 154.5)">
	</image>
</g>
<g>
	<image overflow="visible" width="83" height="85" xlink:href="898EEF86.png"  transform="matrix(1 0 0 1 447.5 186.5)">
	</image>
</g>
<g>
	<image overflow="visible" width="81" height="82" xlink:href="898EEF87.png"  transform="matrix(1 0 0 1 440.5 216.5)">
	</image>
</g>
<g>
	<image overflow="visible" width="78" height="79" xlink:href="898EEF88.png"  transform="matrix(1 0 0 1 466.5 165.5)">
	</image>
</g>
<g>
	<image overflow="visible" width="83" height="85" xlink:href="898EEF8B.png"  transform="matrix(1 0 0 1 365.5 182.5)">
	</image>
</g>
<g>
	<image overflow="visible" width="84" height="85" xlink:href="898EEFA7.png"  transform="matrix(1 0 0 1 418.5 203.5)">
	</image>
</g>
<g>
	<image overflow="visible" width="77" height="77" xlink:href="898EEFA5.png"  transform="matrix(1 0 0 1 373.5 255.5)">
	</image>
</g>
<g>
	<image overflow="visible" width="84" height="85" xlink:href="898EEFA3.png"  transform="matrix(1 0 0 1 460.5 439.5)">
	</image>
</g>
<g>
	<image overflow="visible" width="84" height="85" xlink:href="898EEFAD.png"  transform="matrix(1 0 0 1 405.5 438.5)">
	</image>
</g>
<g>
	<image overflow="visible" width="90" height="93" xlink:href="898EEFAF.png"  transform="matrix(1 0 0 1 409.5 457.5)">
	</image>
</g>
<g>
	<image overflow="visible" width="84" height="85" xlink:href="898EEFA2.png"  transform="matrix(1 0 0 1 435.5 437.5)">
	</image>
</g>
<g>
	<image overflow="visible" width="81" height="81" xlink:href="898EEFA1.png"  transform="matrix(1 0 0 1 332.5 473.5)">
	</image>
</g>
<g>
	<image overflow="visible" width="78" height="79" xlink:href="898EEFA6.png"  transform="matrix(1 0 0 1 237.5 434.5)">
	</image>
</g>
<g>
	<image overflow="visible" width="96" height="100" xlink:href="898EEFA0.png"  transform="matrix(1 0 0 1 235.5 506.5)">
	</image>
</g>
<g>
	<image overflow="visible" width="83" height="85" xlink:href="898EEFBE.png"  transform="matrix(1 0 0 1 213.5 542.5)">
	</image>
</g>
<g>
	<image overflow="visible" width="80" height="81" xlink:href="898EEFC6.png"  transform="matrix(1 0 0 1 99.5 484.5)">
	</image>
</g>
<g>
	<image overflow="visible" width="84" height="85" xlink:href="898EEFC5.png"  transform="matrix(1 0 0 1 249.5 605.5)">
	</image>
</g>
<g>
	<image overflow="visible" width="83" height="85" xlink:href="898EEFC2.png"  transform="matrix(1 0 0 1 301.5 562.5)">
	</image>
</g>
<g>
	<image overflow="visible" width="80" height="81" xlink:href="898EEFDD.png"  transform="matrix(1 0 0 1 207.5 601.5)">
	</image>
</g>
<g>
	<image overflow="visible" width="82" height="83" xlink:href="898EEFDE.png"  transform="matrix(1 0 0 1 227.5 648.5)">
	</image>
</g>
<g>
	<image overflow="visible" width="79" height="79" xlink:href="898EEFDC.png"  transform="matrix(1 0 0 1 206.5 564.5)">
	</image>
</g>
<g>
	<image overflow="visible" width="84" height="85" xlink:href="898EEFC3.png"  transform="matrix(1 0 0 1 130.5 499.5)">
	</image>
</g>
<g>
	<image overflow="visible" width="84" height="85" xlink:href="898EEFC4.png"  transform="matrix(1 0 0 1 254.5 557.5)">
	</image>
</g>
<g>
	<image overflow="visible" width="79" height="80" xlink:href="898EEFC7.png"  transform="matrix(1 0 0 1 444.5 474.5)">
	</image>
</g>
<g>
	<image overflow="visible" width="92" height="96" xlink:href="898EEFCB.png"  transform="matrix(1 0 0 1 320.5 582.5)">
	</image>
</g>
<g>
	<image overflow="visible" width="91" height="93" xlink:href="898EEFF9.png"  transform="matrix(1 0 0 1 449.5 527.5)">
	</image>
</g>
<g>
	<image overflow="visible" width="80" height="81" xlink:href="898EEFE7.png"  transform="matrix(1 0 0 1 484.5 500.5)">
	</image>
</g>
<g>
	<image overflow="visible" width="79" height="81" xlink:href="898EEFE9.png"  transform="matrix(1 0 0 1 415.5 538.5)">
	</image>
</g>
<g>
	<image overflow="visible" width="82" height="83" xlink:href="898EEFEB.png"  transform="matrix(1 0 0 1 361.5 576.5)">
	</image>
</g>
<g>
	<image overflow="visible" width="80" height="80" xlink:href="898EEFE8.png"  transform="matrix(1 0 0 1 396.5 568.5)">
	</image>
</g>
<g>
	<image overflow="visible" width="84" height="85" xlink:href="898EEFEF.png"  transform="matrix(1 0 0 1 416.5 494.5)">
	</image>
</g>
<g>
	<image overflow="visible" width="83" height="85" xlink:href="898EEFEA.png"  transform="matrix(1 0 0 1 448.5 493.5)">
	</image>
</g>
<g>
	<image overflow="visible" width="78" height="79" xlink:href="898EEFD6.png"  transform="matrix(1 0 0 1 323.5 541.5)">
	</image>
</g>
<g>
	<image overflow="visible" width="86" height="88" xlink:href="898EEFD7.png"  transform="matrix(1 0 0 1 372.5 541.5)">
	</image>
</g>
<g>
	<image overflow="visible" width="84" height="86" xlink:href="898EEFD8.png"  transform="matrix(1 0 0 1 518.5 425.5)">
	</image>
</g>
<g>
	<image overflow="visible" width="81" height="81" xlink:href="898EEF34.png"  transform="matrix(1 0 0 1 536.5 389.5)">
	</image>
</g>
<g>
	<image overflow="visible" width="78" height="80" xlink:href="898EEF37.png"  transform="matrix(1 0 0 1 488.5 216.5)">
	</image>
</g>
<g>
	<image overflow="visible" width="83" height="85" xlink:href="898EEF35.png"  transform="matrix(1 0 0 1 477.5 185.5)">
	</image>
</g>
<g>
	<image overflow="visible" width="78" height="79" xlink:href="898EEF33.png"  transform="matrix(1 0 0 1 532.5 280.5)">
	</image>
</g>
<g>
	<image overflow="visible" width="84" height="85" xlink:href="898EEF3C.png"  transform="matrix(1 0 0 1 500.5 243.5)">
	</image>
</g>
<g opacity="0.8" enable-background="new    ">
	<image overflow="visible" width="80" height="81" xlink:href="898EEF3F.png"  transform="matrix(1 0 0 1 537.5 478.5)">
	</image>
</g>
<polyline fill="#B57AB4" points="573.356,370.625 577.088,368.551 580.819,370.708 580.819,375.02 577.088,377.093 573.356,374.937 
	573.356,370.625 "/>
<path fill="#FFFFFF" d="M303.015,705.482l3.731,3.732c0.829,0.829,1.576,1.575,2.239,2.404h0.083
	c-0.332-0.995-0.58-2.073-0.829-3.15l-1.161-5.225l1.327-0.746l3.897,3.565c0.912,0.829,1.741,1.658,2.404,2.405h0.083
	c-0.414-1.078-0.746-2.156-0.995-3.234l-1.326-5.059l1.575-0.912l2.239,10.283l-1.41,0.829l-3.731-3.4
	c-0.829-0.829-1.658-1.492-2.405-2.405l0,0c0.332,1.078,0.664,2.156,0.912,3.317l0.995,4.976l-1.409,0.829l-7.629-7.132
	L303.015,705.482z"/>
<path fill="#FFFFFF" d="M316.449,697.688l3.731,3.732c0.829,0.829,1.575,1.575,2.239,2.404h0.082
	c-0.331-0.995-0.58-2.073-0.829-3.151l-1.161-5.307l1.327-0.747l3.897,3.566c0.912,0.829,1.742,1.658,2.405,2.404h0.083
	c-0.415-1.078-0.746-2.155-0.995-3.233l-1.244-5.142l1.575-0.912l2.239,10.282l-1.409,0.83l-3.732-3.4
	c-0.829-0.829-1.658-1.493-2.404-2.405l0,0c0.331,1.078,0.663,2.156,0.912,3.317l0.995,4.976l-1.41,0.829l-7.712-7.049
	L316.449,697.688z"/>
<path fill="#FFFFFF" d="M329.883,689.893l3.731,3.731c0.83,0.83,1.576,1.576,2.239,2.405h0.083c-0.332-0.995-0.58-2.073-0.829-3.151
	l-1.161-5.225l1.327-0.746l3.897,3.565c0.912,0.83,1.741,1.659,2.404,2.405h0.083c-0.414-1.078-0.746-2.156-0.995-3.234
	l-1.326-5.059l1.575-0.995l2.239,10.283l-1.41,0.829l-3.731-3.399c-0.829-0.829-1.658-1.493-2.405-2.405l0,0
	c0.332,1.078,0.664,2.156,0.913,3.317l0.994,4.976l-1.409,0.829l-7.629-7.132L329.883,689.893z"/>
<path fill="#FFFFFF" d="M345.805,690.971c-0.331-0.58-0.083-1.327,0.498-1.658c0.58-0.332,1.326-0.083,1.658,0.497
	c0.332,0.581,0.083,1.327-0.497,1.659C346.966,691.8,346.137,691.634,345.805,690.971L345.805,690.971z"/>
<path fill="#FFFFFF" d="M346.966,683.508c-0.58-0.996-1.161-1.908-1.658-2.654l1.409-0.829l0.995,1.658h0.083
	c-0.331-1.243,0.166-2.653,1.327-3.316c0.166-0.083,0.332-0.166,0.497-0.166l0.83,1.492c-0.166,0.083-0.415,0.166-0.581,0.249
	c-1.078,0.663-1.492,2.073-0.912,3.234c0.083,0.248,0.249,0.497,0.332,0.746l2.653,4.644l-1.575,0.912L346.966,683.508z"/>
<path fill="#FFFFFF" d="M355.176,684.585c0.829,0,1.741-0.165,2.487-0.58c1.161-0.663,1.327-1.575,0.912-2.239
	c-0.414-0.663-1.16-0.912-2.57-0.663c-1.907,0.332-3.151-0.083-3.731-1.078c-0.829-1.41-0.332-3.234,1.492-4.313
	c0.746-0.414,1.576-0.663,2.488-0.663l0.248,1.41c-0.746,0-1.409,0.165-2.072,0.497c-0.747,0.249-1.078,1.161-0.83,1.907
	c0,0.083,0,0.083,0.083,0.166c0.415,0.746,1.161,0.746,2.488,0.497c1.824-0.331,3.068,0,3.814,1.244
	c0.912,1.493,0.332,3.317-1.741,4.479c-0.829,0.497-1.824,0.829-2.819,0.829L355.176,684.585z"/>
<path fill="#FFFFFF" d="M358.824,669.658l1.493,2.488l2.238-1.327l0.664,1.161l-2.239,1.327l2.736,4.644
	c0.664,1.078,1.244,1.492,2.156,0.995c0.332-0.166,0.581-0.415,0.829-0.663l0.747,1.161c-0.332,0.414-0.747,0.746-1.244,0.995
	c-0.581,0.414-1.41,0.497-2.073,0.331c-0.829-0.414-1.576-1.078-1.907-1.907l-2.736-4.727l-1.327,0.746l-0.663-1.161l1.326-0.829
	l-1.244-2.073L358.824,669.658z"/>
<path fill="#FFFFFF" d="M375.244,671.897c0.497,0.912,0.995,1.658,1.492,2.322l-1.409,0.829l-0.912-1.327l0,0
	c0,1.41-0.747,2.654-1.908,3.317c-1.326,0.829-3.399,0.995-5.224-2.073l-2.902-5.059l1.575-0.912l2.819,4.81
	c0.912,1.659,2.073,2.488,3.566,1.659c0.912-0.581,1.409-1.576,1.243-2.654c-0.083-0.331-0.165-0.58-0.331-0.912l-3.068-5.308
	l1.575-0.912L375.244,671.897z"/>
<path fill="#FFFFFF" d="M379.308,655.727l6.137,10.449c0.414,0.746,0.995,1.658,1.409,2.239l-1.409,0.829l-0.913-1.493l0,0
	c0.083,1.41-0.663,2.737-1.99,3.4c-2.072,1.244-4.727,0.414-6.302-2.239c-1.659-2.902-0.912-5.722,1.161-6.883
	c0.995-0.663,2.321-0.746,3.399-0.166l0,0l-2.985-5.142L379.308,655.727z M382.127,664.186c-0.166-0.249-0.249-0.415-0.415-0.664
	c-0.829-0.912-2.239-1.16-3.316-0.497c-1.659,0.912-1.742,2.902-0.664,4.893c0.995,1.741,2.737,2.736,4.396,1.741
	c1.078-0.663,1.658-1.99,1.244-3.233c-0.083-0.249-0.166-0.498-0.332-0.747L382.127,664.186z"/>
<path fill="#FFFFFF" d="M384.614,654.731c0.332,0.498,0.166,1.244-0.414,1.576c-0.498,0.331-1.244,0.165-1.576-0.415l0,0
	c-0.331-0.497-0.165-1.161,0.332-1.492h0.083c0.497-0.332,1.161-0.166,1.492,0.331C384.531,654.648,384.614,654.731,384.614,654.731
	z M389.342,666.839l-5.059-8.707l1.575-0.912l5.059,8.707L389.342,666.839z"/>
<path fill="#FFFFFF" d="M398.795,655.479c1.824,3.233,0.415,5.888-1.658,7.131c-2.322,1.327-5.142,0.664-6.717-2.073
	c-1.659-2.902-0.747-5.722,1.658-7.131C394.482,651.995,397.22,652.824,398.795,655.479z M391.995,659.541
	c1.078,1.908,3.068,2.654,4.561,1.825c1.493-0.83,1.825-2.985,0.664-4.894c-0.829-1.492-2.654-2.902-4.562-1.824
	S391,657.883,391.995,659.541L391.995,659.541z"/>
<path fill="#FFFFFF" d="M402.029,658.215c-0.332-0.581-0.083-1.327,0.497-1.659c0.581-0.331,1.327-0.083,1.659,0.498
	c0.331,0.58,0.083,1.327-0.498,1.658C403.107,659.044,402.361,658.878,402.029,658.215
	C402.029,658.298,402.029,658.298,402.029,658.215z"/>
<path fill="#FFFFFF" d="M412.644,652.907c-0.58,0.829-1.326,1.493-2.155,1.907c-2.571,1.493-5.391,0.746-6.884-1.907
	c-1.492-2.322-0.829-5.473,1.493-7.049c0.166-0.083,0.332-0.166,0.497-0.249c0.747-0.414,1.576-0.746,2.488-0.829l0.332,1.41
	c-0.747,0-1.41,0.249-2.073,0.663c-1.99,1.161-2.239,3.234-1.161,5.059c1.161,1.99,3.151,2.488,4.893,1.493
	c0.663-0.415,1.244-0.913,1.658-1.576L412.644,652.907z"/>
<path fill="#FFFFFF" d="M419.775,643.205c1.824,3.234,0.415,5.888-1.658,7.132c-2.322,1.409-5.142,0.663-6.717-2.073
	c-1.659-2.902-0.747-5.723,1.658-7.132C415.464,639.722,418.283,640.551,419.775,643.205z M412.976,647.269
	c1.078,1.907,3.068,2.653,4.561,1.824c1.493-0.829,1.825-2.902,0.664-4.893c-0.829-1.493-2.654-2.902-4.562-1.824
	C411.731,643.453,412.063,645.692,412.976,647.269z"/>
<path fill="#FFFFFF" d="M420.688,640.137c-0.497-0.912-0.995-1.658-1.409-2.322l1.409-0.829l0.912,1.327h0.083
	c-0.083-1.327,0.664-2.571,1.825-3.151c1.077-0.663,2.487-0.498,3.482,0.331l0,0c0-0.58,0.083-1.16,0.332-1.658
	c0.331-0.746,0.829-1.326,1.575-1.741c1.161-0.663,3.317-0.912,5.059,2.073l2.985,5.142l-1.575,0.912l-2.82-4.893
	c-0.995-1.659-2.155-2.322-3.482-1.576c-0.829,0.498-1.244,1.493-0.995,2.488c0.083,0.331,0.166,0.58,0.332,0.829l3.15,5.391
	l-1.575,0.912l-2.985-5.142c-0.829-1.41-1.99-2.073-3.234-1.327c-0.912,0.58-1.326,1.658-0.995,2.736
	c0.083,0.332,0.166,0.581,0.332,0.83l3.068,5.224l-1.576,0.829L420.688,640.137z"/>
<path fill="#404040" d="M610.673,572.137V220.278l-24.297-14.014L356.005,73.249L306,44.39l-50.005,28.859L25.625,206.264
	L1.327,220.278v351.859l24.298,14.015l233.273,134.673l47.186,27.2l47.186-27.2l233.272-134.673L610.673,572.137z M25.625,558.951
	V235.205L306,73.249l0,0l280.376,161.873v323.746L306,720.824L25.625,558.951z"/>
</svg>
